M48
;Layer_Color=9474304
;FILE_FORMAT=2:5
INCH,LZ
;TYPE=PLATED
T1F00S00C0.00787
T2F00S00C0.01181
T3F00S00C0.03937
T4F00S00C0.13780
;TYPE=NON_PLATED
T5F00S00C0.04724
T6F00S00C0.13780
%
T01
X0069784Y0054134
X0072933
X0079232
X0082382
X0088681
X0107579
X0113878
X0117028
X0120177
X0123327
X0126476
X0138189Y0055315
X0145472Y0045276
X0144095Y004311
X0150394
X0151772Y0045276
X0157283Y0045866
Y0043406
X0154921Y0040372
X0153543Y0038189
X0159843
X0161221Y0040372
X0162992Y004311
X016437Y0045276
X0166072Y0041866
X0169291Y004311
X0170669Y0045276
X0176301Y004626
Y0043411
X0173819Y0040372
X0172441Y0038189
X017874
X0180118Y0040372
X0182776Y0043411
Y004626
X0189567Y0045276
X0188189Y004311
X0194488
X0195866Y0045276
X0202165
X0200787Y004311
X0199016Y0040372
X0197638Y0038189
X0203937
X0205315Y0040372
X0207087Y004311
X0208465Y0045276
X0211614Y0040372
X0210236Y0038189
X0191339
X0192717Y0040372
X0185039Y0038189
X0188189Y0019783
X0194488
X0200787
X0207087
X0203937Y0014862
X0210236
X0197638
X0191339
X0185039
X0181988Y0013583
Y0016523
X017874Y0014862
X0175591Y0013583
X0175569Y0016523
X0172441Y0014862
X0169291Y0019783
X0166535Y0017046
X0162992Y0019783
X0159843Y0014862
X0153543
X0147723Y0017046
X0150394Y0019783
X0144095
X0140748Y0017046
X0213386Y0019783
X0219685
X0216535Y0014862
Y0038189
X0217913Y0040372
X0219685Y004311
X0221063Y0045276
X0214764
X0213386Y004311
X0222659Y003622
X0225787Y0057988
X0216535Y0070247
X0217913Y0072431
X0219685Y0075168
X0221063Y0077334
X0214764
X0213386Y0075168
X0223819Y0081496
X0216535Y0093574
X0217913Y0095757
X0219685Y0098495
X0221063Y0100661
X0223973Y0102362
X0225689Y0104724
X0214764Y0100661
X0213386Y0098495
X0216535Y0125661
X0217913Y0127844
X0219685Y0130582
X0221063Y0132747
X0214764
X0213386Y0130582
X0217913Y0151171
X0221063Y0156074
X0224213Y0154921
Y0157677
X022751Y0154921
X0214764Y0156074
X0208465
X0202165
X0195866
X0189567
X0192717Y0151171
X0199016
X0205315
X0211614
X0208465Y0132747
X0207087Y0130582
X0205315Y0127844
X0203937Y0125661
X0197638
X0199016Y0127844
X0200787Y0130582
X0202165Y0132747
X0195866
X0194488Y0130582
X0192717Y0127844
X0191339Y0125661
X0185039
X0183268Y0128839
X0180118Y0127844
X017874Y0125661
X0176969Y0128839
X0173819Y0127844
X0172548Y0125695
X0169291Y0130582
X0170669Y0132747
X016437
X0162992Y0130582
X0161221Y0127844
X0159752Y0125695
X0158071Y0128839
X0154921Y0127844
X0153543Y0125661
X0150394Y0130582
X0151772Y0132747
X0145472
X0144095Y0130582
X0140748Y0127844
X0147638Y0127879
X0166711Y0128227
X0188189Y0130582
X0189567Y0132747
X0211614Y0127844
X0210236Y0125661
X0208465Y0100661
X0207087Y0098495
X0205315Y0095757
X0203937Y0093574
X0210236
X0211614Y0095757
X0199016
X0200787Y0098495
X0202165Y0100661
X0195866
X0194488Y0098495
X0192717Y0095757
X0191339Y0093574
X0188189Y0098495
X0189567Y0100661
X0182677Y0100591
Y0098268
X0180118Y0095757
X017874Y0093574
X0172441
X0173819Y0095757
X0176083Y0098327
Y0100787
X0170669Y0100661
X0169291Y0098495
X0162992
X016437Y0100661
X0157185Y0100787
Y0098327
X0154921Y0095757
X0153543Y0093574
X0159843
X0161221Y0095757
X0150394Y0098495
X0151772Y0100661
X0145472
X0144095Y0098495
X0126476Y0098228
Y0095079
X0123327
X0120177
Y0098228
X0123327
Y0101378
X0120177
Y0104527
X0123327
Y0107677
X0120177
Y0110827
X0123327
Y0113976
X0120177
X0117028
Y0117126
X0113878
X0110728
Y0113976
X0107579Y0117126
X0104429
X0101279
X009813
Y0113976
X0091831
Y0117126
X0088681
Y0110827
X0085532
X0082382
Y0113976
X0085532
Y0107677
Y0104527
X0088681
Y0107677
X0091831Y0104527
Y0101378
Y0098228
Y0095079
Y0091929
Y0088779
X0088681
Y0091929
X0085532
X0082382
Y0095079
X0085532
Y0098228
X0082382Y0098228
Y0101378
X0076083Y0104527
Y0107677
X0079232
Y0110827
X0076083
Y0113976
X0072933
Y0110827
X0069784
Y0113976
X0066634
Y0117126
X0069784
X0072933
X0079232Y0113976
X0082382Y0117126
X0063484
Y0113976
Y0107677
X0069784Y0101378
X0072933Y0104527
X0076083Y008563
X0069784
Y0076181
Y0069882
X0072933
X0079232
Y0066732
X0076083
Y0063583
X0079232
X0082382
X0085532
Y0066732
Y0069882
X0082382
Y0066732
Y0060433
X0085532
X0082382Y0057284
X0079232
Y0060433
X0076083
Y0057284
X0069784
Y0060433
X0066634
X0079232Y0073032
X0082382Y0076181
X0085532
X0088681
Y0073032
Y0079331
X0091831
Y008248
X0088681
X0085532
X0082382
Y0079331
X0085532
Y0088779
X0082382
X0088681Y0095079
Y0098228
X009813
Y0095079
X0101279
Y0098228
X0104429
Y0095079
Y0091929
X0107579
Y0088779
X0104429
X0101279
X009813
Y0091929
X0101279
Y008248
Y0079331
X009813
Y008248
X0104429
X0107579
Y0079331
X0104429
Y0076181
Y0073032
X0107579
Y0076181
X0110728
Y0073032
X0113878
Y0076181
X0117028
Y0073032
Y0069882
Y0066732
X0113878
Y0069882
X0110728
X0107579Y0066732
Y0063583
X0113878
X0117028
Y0060433
Y0057284
X0120177
Y0060433
X0123327
X0126476
Y0066732
X0123327
X0120177
Y0069882
Y0073032
Y0076181
Y0079331
X0123327
Y008248
X0120177
X0117028
X0113878
X0110728
Y0079331
X0113878
X0117028
Y0088779
X0113878
Y0091929
X0110728
Y0095079
Y0098228
X0113878
Y0095079
X0117028
Y0098228
Y0101378
Y0104527
X0113878
Y0101378
X0110728
X0107579
X0104429
Y0104527
X0101279Y0107677
X0101279Y0110827
X009813Y0104528
X009498Y0104527
X0107579Y0098228
X0117028Y0091929
X0120177
X0123327
Y0088779
X0120177
X0126476
Y0091929
Y008248
Y0079331
Y0073032
X0123327
X0120177Y0063583
X0113878Y0060433
X0110728
X0113878Y0057284
X009813
X009813Y0063583
X009498
X0091831Y0076181
X009813
X0101279
X0104429Y0069882
X0137992Y0065945
X0144095Y0075168
X0145472Y0077334
X0151772
X0150394Y0075168
X0147723Y0072933
X0154921Y0072431
X0153543Y0070247
X0159752Y0070279
X0161221Y0072431
X0162992Y0075168
X016437Y0077334
X0170669
X0169291Y0075168
X0166711Y0072813
X0173819Y0072431
X0172548Y0070279
X017874Y0070247
X0180118Y0072431
X0183268Y0073425
X0185039Y0070247
X0191339
X0192717Y0072431
X0194488Y0075168
X0195866Y0077334
X0189567
X0188189Y0075168
X0200787
X0202165Y0077334
X0208465
X0207087Y0075168
X0205315Y0072431
X0203937Y0070247
X0210236
X0211614Y0072431
X0199016
X0197638Y0070247
X0157185Y0075295
X0126476Y0101378
Y0107677
Y0110827
Y0113976
Y0117126
X0123327
X0120177
X0117028Y0107677
X0113878
X0140924Y0154921
Y0157677
X0145472Y0156074
X0148622Y0154921
X0151772Y0156074
X015689Y0154921
Y0157677
X0154921Y0151171
X0161221
X016437Y0156074
X016752Y0154823
X0170669Y0156074
X0175886Y0154823
Y0157579
X0181869
Y0154823
X0180118Y0151171
X0173819
T02
X0028051Y0021358
X0033465Y0040453
X0051083Y0037598
Y0032677
X0051083Y0044685
X0047441Y0055118
X0041732Y0052953
X0050787Y0015748
X0068701Y0021161
X0072925Y0025386
X0075197Y0027657
X0077469Y0029929
X0068996Y004124
X0076033Y001122
X0096949Y0031882
X010983Y003189
Y0026833
X0138189Y0029921
Y0019783
X0227348Y0021161
X022741Y0024409
X0235138Y0025886
X0246486
Y0047648
X023563Y0047579
X0231988Y0049154
X0232417Y0038091
X0230287Y0058587
X0231693Y006752
Y0070768
X0235925Y0067126
X0246486Y0061122
X0246486Y0089636
X023563Y0089567
X0231988Y0091142
X0232417Y0080512
X022952Y0101374
X0235138Y0107185
X0231837Y011063
X023189Y0113878
X0232417Y0119783
X0231988Y0130512
X023563Y0128937
X0246486Y0129006
Y0142028
X0232874Y0146949
X0246486Y0102756
X0140748Y010187
Y0087894
X0129134Y0126378
X0125984
X0122835
X0117815Y0126429
X0114665
X0111221
X0107087Y0126327
X0103642
X0100197Y0128642
X0099508Y012313
X0097342Y0120965
X0106201Y0132933
Y0142224
X0101279
X0096358
X0091437
Y0137402
X0084153
X0086516Y0142224
X0076673
X0071752
X0066831
X006191
X0056988
X0071949Y0133977
X0058169Y0118701
Y0115551
Y0107579
X0086417Y0154823
X0091339
X009626
X0101181
X0101279Y0165059
X0081595
X0110827Y0143701
X0120079Y0147244
X0124213Y0147343
X0136516Y0140256
X0140748Y0140453
X0134449Y0135335
X0133576Y0158366
X0047146Y0154823
X0042224
X0037303
X0042323Y0165059
X0052067Y0142224
X0048501Y0133933
X0048327Y0120965
X0050591Y0115551
X0043465Y0108071
X00365Y0108268
X0030118Y0103347
Y0099311
Y0095374
Y0091437
Y00875
Y0083563
Y0079626
Y0071752
Y0067815
X0050197Y0074705
X0052165Y0079626
Y0083563
Y00875
Y0091437
X0048622
Y0085532
X0052165Y0095374
Y0099311
X0031102Y0120965
X0027165Y0124705
X0024902Y0126969
X0022638Y0129232
X0020374Y0131496
T03
X0027008Y0009744
X0037008
X0047008
X0010827Y003065
Y004065
Y005065
X0057008Y0009744
X0067008
X0010827Y006065
Y007065
Y008065
Y009065
Y010065
Y011065
Y012065
Y013065
Y014065
T04
X0239173Y0156398
T05
X0050197Y0067815
Y0103248
T06
X0010827Y0014665
X0239173
X0010827Y0156398
M30
