G04*
G04 #@! TF.GenerationSoftware,Altium Limited,Altium Designer,18.1.7 (191)*
G04*
G04 Layer_Color=8421504*
%FSLAX25Y25*%
%MOIN*%
G70*
G01*
G75*
%ADD16R,0.02228X0.07109*%
%ADD17C,0.03200*%
%ADD18R,0.03543X0.03937*%
%ADD19R,0.04331X0.07480*%
%ADD20R,0.03937X0.03543*%
%ADD21R,0.04724X0.05512*%
%ADD22R,0.03150X0.06299*%
%ADD23R,0.08268X0.11811*%
%ADD24R,0.04921X0.04331*%
%ADD25R,0.04331X0.04921*%
%ADD26C,0.01614*%
%ADD27R,0.05906X0.05118*%
%ADD28R,0.01575X0.04803*%
%ADD29R,0.01378X0.02165*%
D16*
X140924Y63287D02*
D03*
X144073D02*
D03*
X147223D02*
D03*
X150373D02*
D03*
X153522D02*
D03*
X156672D02*
D03*
X159821D02*
D03*
X162971D02*
D03*
X166121D02*
D03*
X169270D02*
D03*
X172420D02*
D03*
X175569D02*
D03*
X178719D02*
D03*
X181869D02*
D03*
X185018D02*
D03*
X188168D02*
D03*
X191317D02*
D03*
X194467D02*
D03*
X197617D02*
D03*
X200766D02*
D03*
X203916D02*
D03*
X207066D02*
D03*
X210215D02*
D03*
X213365D02*
D03*
X216514D02*
D03*
X219664D02*
D03*
X222814D02*
D03*
Y107620D02*
D03*
X219664D02*
D03*
X216514D02*
D03*
X213365D02*
D03*
X210215D02*
D03*
X207066D02*
D03*
X203916D02*
D03*
X200766D02*
D03*
X197617D02*
D03*
X194467D02*
D03*
X191317D02*
D03*
X188168D02*
D03*
X185018D02*
D03*
X181869D02*
D03*
X178719D02*
D03*
X175569D02*
D03*
X172420D02*
D03*
X169270D02*
D03*
X166121D02*
D03*
X162971D02*
D03*
X159821D02*
D03*
X156672D02*
D03*
X153522D02*
D03*
X150373D02*
D03*
X147223D02*
D03*
X144073D02*
D03*
X140924D02*
D03*
Y118701D02*
D03*
X144073D02*
D03*
X147223D02*
D03*
X150373D02*
D03*
X153522D02*
D03*
X156672D02*
D03*
X159821D02*
D03*
X162971D02*
D03*
X166121D02*
D03*
X169270D02*
D03*
X172420D02*
D03*
X175569D02*
D03*
X178719D02*
D03*
X181869D02*
D03*
X185018D02*
D03*
X188168D02*
D03*
X191317D02*
D03*
X194467D02*
D03*
X197617D02*
D03*
X200766D02*
D03*
X203916D02*
D03*
X207066D02*
D03*
X210215D02*
D03*
X213365D02*
D03*
X216514D02*
D03*
X219664D02*
D03*
X222814D02*
D03*
Y163034D02*
D03*
X219664D02*
D03*
X216514D02*
D03*
X213365D02*
D03*
X210215D02*
D03*
X207066D02*
D03*
X203916D02*
D03*
X200766D02*
D03*
X197617D02*
D03*
X194467D02*
D03*
X191317D02*
D03*
X188168D02*
D03*
X185018D02*
D03*
X181869D02*
D03*
X178719D02*
D03*
X175569D02*
D03*
X172420D02*
D03*
X169270D02*
D03*
X166121D02*
D03*
X162971D02*
D03*
X159821D02*
D03*
X156672D02*
D03*
X153522D02*
D03*
X150373D02*
D03*
X147223D02*
D03*
X144073D02*
D03*
X140924D02*
D03*
Y7903D02*
D03*
X153522D02*
D03*
X144073D02*
D03*
X150373D02*
D03*
X147223D02*
D03*
X162971D02*
D03*
X159821D02*
D03*
X156672D02*
D03*
X172420D02*
D03*
X166121D02*
D03*
X169270D02*
D03*
X144073Y52235D02*
D03*
X140924D02*
D03*
X150373D02*
D03*
X147223D02*
D03*
X159821D02*
D03*
X153522D02*
D03*
X156672D02*
D03*
X169270D02*
D03*
X166121D02*
D03*
X175569D02*
D03*
X162971D02*
D03*
X172420D02*
D03*
X194467Y7903D02*
D03*
X191317D02*
D03*
X200766D02*
D03*
X197617D02*
D03*
X178719D02*
D03*
X175569D02*
D03*
X188168D02*
D03*
X181869D02*
D03*
X185018D02*
D03*
X207066D02*
D03*
X203916D02*
D03*
X216514D02*
D03*
X210215D02*
D03*
X213365D02*
D03*
X222814D02*
D03*
X219664D02*
D03*
X178719Y52235D02*
D03*
X181869D02*
D03*
X188168D02*
D03*
X185018D02*
D03*
X197617D02*
D03*
X191317D02*
D03*
X194467D02*
D03*
X219664D02*
D03*
X216514D02*
D03*
X222814D02*
D03*
X203916D02*
D03*
X200766D02*
D03*
X213365D02*
D03*
X207066D02*
D03*
X210215D02*
D03*
D17*
X127264Y21850D02*
D03*
X231683Y137894D02*
D03*
X27088Y139764D02*
D03*
D18*
X62588Y126378D02*
D03*
X69588D02*
D03*
X51126Y27657D02*
D03*
X58126D02*
D03*
D19*
X85849Y128150D02*
D03*
X76449D02*
D03*
D20*
X130020Y141098D02*
D03*
Y134098D02*
D03*
X94882Y133224D02*
D03*
Y126224D02*
D03*
X110039Y137949D02*
D03*
Y130949D02*
D03*
D21*
X116831Y132185D02*
D03*
Y140847D02*
D03*
X123130D02*
D03*
Y132185D02*
D03*
D22*
X106201Y148524D02*
D03*
X101279D02*
D03*
X96358D02*
D03*
X91437D02*
D03*
X86516D02*
D03*
X81595D02*
D03*
X76673D02*
D03*
X71752D02*
D03*
X66831D02*
D03*
X61910D02*
D03*
X56988D02*
D03*
X52067D02*
D03*
X47146D02*
D03*
X42224D02*
D03*
X37303D02*
D03*
D23*
X116240Y159941D02*
D03*
X27264D02*
D03*
D24*
X241240Y37205D02*
D03*
Y30020D02*
D03*
Y51673D02*
D03*
Y44488D02*
D03*
Y95177D02*
D03*
Y87992D02*
D03*
Y80807D02*
D03*
Y73622D02*
D03*
Y128248D02*
D03*
Y121063D02*
D03*
Y142323D02*
D03*
Y135138D02*
D03*
X126588Y166732D02*
D03*
Y159547D02*
D03*
X104493Y26428D02*
D03*
Y33613D02*
D03*
X32272Y60123D02*
D03*
Y52938D02*
D03*
X24890Y60173D02*
D03*
Y52988D02*
D03*
X33268Y34055D02*
D03*
Y26870D02*
D03*
X25593Y26772D02*
D03*
Y33957D02*
D03*
X82577Y33613D02*
D03*
Y26428D02*
D03*
X91092Y33613D02*
D03*
Y26428D02*
D03*
X82627Y18357D02*
D03*
Y11172D02*
D03*
X91190Y18357D02*
D03*
Y11172D02*
D03*
D25*
X133957Y153077D02*
D03*
X126772D02*
D03*
X39665Y59842D02*
D03*
X46850D02*
D03*
D26*
X65059Y55709D02*
D03*
Y58858D02*
D03*
Y62008D02*
D03*
Y65158D02*
D03*
Y68307D02*
D03*
Y71457D02*
D03*
Y74606D02*
D03*
Y77756D02*
D03*
Y80905D02*
D03*
Y84055D02*
D03*
Y87205D02*
D03*
Y90354D02*
D03*
Y93504D02*
D03*
Y96653D02*
D03*
Y99803D02*
D03*
Y102953D02*
D03*
Y106102D02*
D03*
Y109252D02*
D03*
Y112402D02*
D03*
Y115551D02*
D03*
X68209Y55709D02*
D03*
Y58858D02*
D03*
Y62008D02*
D03*
Y65158D02*
D03*
Y68307D02*
D03*
Y71457D02*
D03*
Y74606D02*
D03*
Y77756D02*
D03*
Y80905D02*
D03*
Y84055D02*
D03*
Y87205D02*
D03*
Y90354D02*
D03*
Y93504D02*
D03*
Y96653D02*
D03*
Y99803D02*
D03*
Y102953D02*
D03*
Y106102D02*
D03*
Y109252D02*
D03*
Y112402D02*
D03*
Y115551D02*
D03*
X71358Y55709D02*
D03*
Y58858D02*
D03*
Y62008D02*
D03*
Y65158D02*
D03*
Y68307D02*
D03*
Y71457D02*
D03*
Y74606D02*
D03*
Y77756D02*
D03*
Y80905D02*
D03*
Y84055D02*
D03*
Y87205D02*
D03*
Y90354D02*
D03*
Y93504D02*
D03*
Y96653D02*
D03*
Y99803D02*
D03*
Y102953D02*
D03*
Y106102D02*
D03*
Y109252D02*
D03*
Y112402D02*
D03*
Y115551D02*
D03*
X74508Y55709D02*
D03*
Y58858D02*
D03*
Y62008D02*
D03*
Y65158D02*
D03*
Y68307D02*
D03*
Y71457D02*
D03*
Y74606D02*
D03*
Y77756D02*
D03*
Y80905D02*
D03*
Y84055D02*
D03*
Y87205D02*
D03*
Y90354D02*
D03*
Y93504D02*
D03*
Y96653D02*
D03*
Y99803D02*
D03*
Y102953D02*
D03*
Y106102D02*
D03*
Y109252D02*
D03*
Y112402D02*
D03*
Y115551D02*
D03*
X77658Y55709D02*
D03*
Y58858D02*
D03*
Y62008D02*
D03*
Y65158D02*
D03*
Y68307D02*
D03*
Y71457D02*
D03*
Y74606D02*
D03*
Y77756D02*
D03*
Y80905D02*
D03*
Y84055D02*
D03*
Y87205D02*
D03*
Y90354D02*
D03*
Y93504D02*
D03*
Y96653D02*
D03*
Y99803D02*
D03*
Y102953D02*
D03*
Y106102D02*
D03*
Y109252D02*
D03*
Y112402D02*
D03*
Y115551D02*
D03*
X80807Y55709D02*
D03*
Y58858D02*
D03*
Y62008D02*
D03*
Y65158D02*
D03*
Y68307D02*
D03*
Y71457D02*
D03*
Y74606D02*
D03*
Y77756D02*
D03*
Y80905D02*
D03*
Y84055D02*
D03*
Y87205D02*
D03*
Y90354D02*
D03*
Y93504D02*
D03*
Y96653D02*
D03*
Y99803D02*
D03*
Y102953D02*
D03*
Y106102D02*
D03*
Y109252D02*
D03*
Y112402D02*
D03*
Y115551D02*
D03*
X83957Y55709D02*
D03*
Y58858D02*
D03*
Y62008D02*
D03*
Y65158D02*
D03*
Y68307D02*
D03*
Y71457D02*
D03*
Y74606D02*
D03*
Y77756D02*
D03*
Y80905D02*
D03*
Y84055D02*
D03*
Y87205D02*
D03*
Y90354D02*
D03*
Y93504D02*
D03*
Y96653D02*
D03*
Y99803D02*
D03*
Y102953D02*
D03*
Y106102D02*
D03*
Y109252D02*
D03*
Y112402D02*
D03*
Y115551D02*
D03*
X87106Y55709D02*
D03*
Y58858D02*
D03*
Y62008D02*
D03*
Y65158D02*
D03*
Y68307D02*
D03*
Y71457D02*
D03*
Y74606D02*
D03*
Y77756D02*
D03*
Y80905D02*
D03*
Y84055D02*
D03*
Y87205D02*
D03*
Y90354D02*
D03*
Y93504D02*
D03*
Y96653D02*
D03*
Y99803D02*
D03*
Y102953D02*
D03*
Y106102D02*
D03*
Y109252D02*
D03*
Y112402D02*
D03*
Y115551D02*
D03*
X90256Y55709D02*
D03*
Y58858D02*
D03*
Y62008D02*
D03*
Y65158D02*
D03*
Y68307D02*
D03*
Y71457D02*
D03*
Y74606D02*
D03*
Y77756D02*
D03*
Y80905D02*
D03*
Y84055D02*
D03*
Y87205D02*
D03*
Y90354D02*
D03*
Y93504D02*
D03*
Y96653D02*
D03*
Y99803D02*
D03*
Y102953D02*
D03*
Y106102D02*
D03*
Y109252D02*
D03*
Y112402D02*
D03*
Y115551D02*
D03*
X93405Y55709D02*
D03*
Y58858D02*
D03*
Y62008D02*
D03*
Y65158D02*
D03*
Y68307D02*
D03*
Y71457D02*
D03*
Y74606D02*
D03*
Y77756D02*
D03*
Y80905D02*
D03*
Y84055D02*
D03*
Y87205D02*
D03*
Y90354D02*
D03*
Y93504D02*
D03*
Y96653D02*
D03*
Y99803D02*
D03*
Y102953D02*
D03*
Y106102D02*
D03*
Y109252D02*
D03*
Y112402D02*
D03*
Y115551D02*
D03*
X96555Y55709D02*
D03*
Y58858D02*
D03*
Y62008D02*
D03*
Y65158D02*
D03*
Y68307D02*
D03*
Y71457D02*
D03*
Y74606D02*
D03*
Y77756D02*
D03*
Y80905D02*
D03*
Y84055D02*
D03*
Y87205D02*
D03*
Y90354D02*
D03*
Y93504D02*
D03*
Y96653D02*
D03*
Y99803D02*
D03*
Y102953D02*
D03*
Y106102D02*
D03*
Y109252D02*
D03*
Y112402D02*
D03*
Y115551D02*
D03*
X99705Y55709D02*
D03*
Y58858D02*
D03*
Y62008D02*
D03*
Y65158D02*
D03*
Y68307D02*
D03*
Y71457D02*
D03*
Y74606D02*
D03*
Y77756D02*
D03*
Y80905D02*
D03*
Y84055D02*
D03*
Y87205D02*
D03*
Y90354D02*
D03*
Y93504D02*
D03*
Y96653D02*
D03*
Y99803D02*
D03*
Y102953D02*
D03*
Y106102D02*
D03*
Y109252D02*
D03*
Y112402D02*
D03*
Y115551D02*
D03*
X102854Y55709D02*
D03*
Y58858D02*
D03*
Y62008D02*
D03*
Y65158D02*
D03*
Y68307D02*
D03*
Y71457D02*
D03*
Y74606D02*
D03*
Y77756D02*
D03*
Y80905D02*
D03*
Y84055D02*
D03*
Y87205D02*
D03*
Y90354D02*
D03*
Y93504D02*
D03*
Y96653D02*
D03*
Y99803D02*
D03*
Y102953D02*
D03*
Y106102D02*
D03*
Y109252D02*
D03*
Y112402D02*
D03*
Y115551D02*
D03*
X106004Y55709D02*
D03*
Y58858D02*
D03*
Y62008D02*
D03*
Y65158D02*
D03*
Y68307D02*
D03*
Y71457D02*
D03*
Y74606D02*
D03*
Y77756D02*
D03*
Y80905D02*
D03*
Y84055D02*
D03*
Y87205D02*
D03*
Y90354D02*
D03*
Y93504D02*
D03*
Y96653D02*
D03*
Y99803D02*
D03*
Y102953D02*
D03*
Y106102D02*
D03*
Y109252D02*
D03*
Y112402D02*
D03*
Y115551D02*
D03*
X109153Y55709D02*
D03*
Y58858D02*
D03*
Y62008D02*
D03*
Y65158D02*
D03*
Y68307D02*
D03*
Y71457D02*
D03*
Y74606D02*
D03*
Y77756D02*
D03*
Y80905D02*
D03*
Y84055D02*
D03*
Y87205D02*
D03*
Y90354D02*
D03*
Y93504D02*
D03*
Y96653D02*
D03*
Y99803D02*
D03*
Y102953D02*
D03*
Y106102D02*
D03*
Y109252D02*
D03*
Y112402D02*
D03*
Y115551D02*
D03*
X112303Y55709D02*
D03*
Y58858D02*
D03*
Y62008D02*
D03*
Y65158D02*
D03*
Y68307D02*
D03*
Y71457D02*
D03*
Y74606D02*
D03*
Y77756D02*
D03*
Y80905D02*
D03*
Y84055D02*
D03*
Y87205D02*
D03*
Y90354D02*
D03*
Y93504D02*
D03*
Y96653D02*
D03*
Y99803D02*
D03*
Y102953D02*
D03*
Y106102D02*
D03*
Y109252D02*
D03*
Y112402D02*
D03*
Y115551D02*
D03*
X115453Y55709D02*
D03*
Y58858D02*
D03*
Y62008D02*
D03*
Y65158D02*
D03*
Y68307D02*
D03*
Y71457D02*
D03*
Y74606D02*
D03*
Y77756D02*
D03*
Y80905D02*
D03*
Y84055D02*
D03*
Y87205D02*
D03*
Y90354D02*
D03*
Y93504D02*
D03*
Y96653D02*
D03*
Y99803D02*
D03*
Y102953D02*
D03*
Y106102D02*
D03*
Y109252D02*
D03*
Y112402D02*
D03*
Y115551D02*
D03*
X118602Y55709D02*
D03*
Y58858D02*
D03*
Y62008D02*
D03*
Y65158D02*
D03*
Y68307D02*
D03*
Y71457D02*
D03*
Y74606D02*
D03*
Y77756D02*
D03*
Y80905D02*
D03*
Y84055D02*
D03*
Y87205D02*
D03*
Y90354D02*
D03*
Y93504D02*
D03*
Y96653D02*
D03*
Y99803D02*
D03*
Y102953D02*
D03*
Y106102D02*
D03*
Y109252D02*
D03*
Y112402D02*
D03*
Y115551D02*
D03*
X121752Y55709D02*
D03*
Y58858D02*
D03*
Y62008D02*
D03*
Y65158D02*
D03*
Y68307D02*
D03*
Y71457D02*
D03*
Y74606D02*
D03*
Y77756D02*
D03*
Y80905D02*
D03*
Y84055D02*
D03*
Y87205D02*
D03*
Y90354D02*
D03*
Y93504D02*
D03*
Y96653D02*
D03*
Y99803D02*
D03*
Y102953D02*
D03*
Y106102D02*
D03*
Y109252D02*
D03*
Y112402D02*
D03*
Y115551D02*
D03*
X124902Y55709D02*
D03*
Y58858D02*
D03*
Y62008D02*
D03*
Y65158D02*
D03*
Y68307D02*
D03*
Y71457D02*
D03*
Y74606D02*
D03*
Y77756D02*
D03*
Y80905D02*
D03*
Y84055D02*
D03*
Y87205D02*
D03*
Y90354D02*
D03*
Y93504D02*
D03*
Y96653D02*
D03*
Y99803D02*
D03*
Y102953D02*
D03*
Y106102D02*
D03*
Y109252D02*
D03*
Y112402D02*
D03*
Y115551D02*
D03*
D27*
X57087Y45346D02*
D03*
Y36346D02*
D03*
D28*
X47835Y35590D02*
D03*
X45276D02*
D03*
X42717D02*
D03*
X40157D02*
D03*
Y45906D02*
D03*
X42717D02*
D03*
X45276D02*
D03*
X47835D02*
D03*
D29*
X40256Y21161D02*
D03*
X42815D02*
D03*
X45374D02*
D03*
Y28445D02*
D03*
X42815D02*
D03*
X40256D02*
D03*
M02*
