G04*
G04 #@! TF.GenerationSoftware,Altium Limited,Altium Designer,18.1.7 (191)*
G04*
G04 Layer_Color=2752767*
%FSLAX25Y25*%
%MOIN*%
G70*
G01*
G75*
%ADD83C,0.00200*%
%ADD84C,0.00267*%
D83*
X66208Y8944D02*
Y10544D01*
X67808D01*
Y8944D01*
X66208D01*
X56208D02*
Y10544D01*
X57808D01*
Y8944D01*
X56208D01*
X46208D02*
Y10544D01*
X47808D01*
Y8944D01*
X46208D01*
X36208D02*
Y10544D01*
X37808D01*
Y8944D01*
X36208D01*
X26208D02*
Y10544D01*
X27808D01*
Y8944D01*
X26208D01*
X10027Y139850D02*
Y141450D01*
X11627D01*
Y139850D01*
X10027D01*
Y129850D02*
Y131450D01*
X11627D01*
Y129850D01*
X10027D01*
Y119850D02*
Y121450D01*
X11627D01*
Y119850D01*
X10027D01*
Y109850D02*
Y111450D01*
X11627D01*
Y109850D01*
X10027D01*
Y99850D02*
Y101450D01*
X11627D01*
Y99850D01*
X10027D01*
Y89850D02*
Y91450D01*
X11627D01*
Y89850D01*
X10027D01*
Y39850D02*
Y41450D01*
X11627D01*
Y39850D01*
X10027D01*
Y49850D02*
Y51450D01*
X11627D01*
Y49850D01*
X10027D01*
Y59850D02*
Y61450D01*
X11627D01*
Y59850D01*
X10027D01*
Y69850D02*
Y71450D01*
X11627D01*
Y69850D01*
X10027D01*
Y79850D02*
Y81450D01*
X11627D01*
Y79850D01*
X10027D01*
Y29850D02*
Y31450D01*
X11627D01*
Y29850D01*
X10027D01*
X239173Y155598D02*
X238373Y157198D01*
X239973D01*
X239173Y155598D01*
Y13865D02*
X239573Y14265D01*
X239973D01*
X239573Y14665D01*
X239973Y15065D01*
X239573D01*
X239173Y15465D01*
X238773Y15065D01*
X238373D01*
X238773Y14665D01*
X238373Y14265D01*
X238773D01*
X239173Y13865D01*
X10827D02*
X11227Y14265D01*
X11627D01*
X11227Y14665D01*
X11627Y15065D01*
X11227D01*
X10827Y15465D01*
X10427Y15065D01*
X10027D01*
X10427Y14665D01*
X10027Y14265D01*
X10427D01*
X10827Y13865D01*
Y155598D02*
X11227Y155998D01*
X11627D01*
X11227Y156398D01*
X11627Y156798D01*
X11227D01*
X10827Y157198D01*
X10427Y156798D01*
X10027D01*
X10427Y156398D01*
X10027Y155998D01*
X10427D01*
X10827Y155598D01*
X75233Y10420D02*
X75633Y11220D01*
X75233Y12021D01*
X76033Y11620D01*
X76833Y12021D01*
X76433Y11220D01*
X76833Y10420D01*
X76033Y10820D01*
X75233Y10420D01*
X41523Y164259D02*
X41923Y165059D01*
X41523Y165859D01*
X42323Y165459D01*
X43123Y165859D01*
X42723Y165059D01*
X43123Y164259D01*
X42323Y164659D01*
X41523Y164259D01*
X80795D02*
X81195Y165059D01*
X80795Y165859D01*
X81595Y165459D01*
X82394Y165859D01*
X81994Y165059D01*
X82394Y164259D01*
X81595Y164659D01*
X80795Y164259D01*
X100479D02*
X100880Y165059D01*
X100479Y165859D01*
X101279Y165459D01*
X102079Y165859D01*
X101680Y165059D01*
X102079Y164259D01*
X101279Y164659D01*
X100479Y164259D01*
X139948Y87094D02*
X140348Y87894D01*
X139948Y88694D01*
X140748Y88294D01*
X141548Y88694D01*
X141148Y87894D01*
X141548Y87094D01*
X140748Y87494D01*
X139948Y87094D01*
X137389Y29121D02*
X137789Y29921D01*
X137389Y30721D01*
X138189Y30321D01*
X138989Y30721D01*
X138589Y29921D01*
X138989Y29121D01*
X138189Y29521D01*
X137389Y29121D01*
Y18983D02*
X137789Y19783D01*
X137389Y20583D01*
X138189Y20184D01*
X138989Y20583D01*
X138589Y19783D01*
X138989Y18983D01*
X138189Y19384D01*
X137389Y18983D01*
X245686Y25086D02*
X246086Y25886D01*
X245686Y26686D01*
X246486Y26286D01*
X247286Y26686D01*
X246886Y25886D01*
X247286Y25086D01*
X246486Y25486D01*
X245686Y25086D01*
X109030Y31090D02*
X109430Y31890D01*
X109030Y32690D01*
X109830Y32290D01*
X110630Y32690D01*
X110230Y31890D01*
X110630Y31090D01*
X109830Y31490D01*
X109030Y31090D01*
X47701Y133133D02*
X48101Y133933D01*
X47701Y134733D01*
X48501Y134333D01*
X49301Y134733D01*
X48901Y133933D01*
X49301Y133133D01*
X48501Y133533D01*
X47701Y133133D01*
X81982Y97828D02*
Y97428D01*
X82782D01*
Y97828D01*
X83182D01*
Y98628D01*
X82782D01*
Y99028D01*
X81982D01*
Y98628D01*
X81582D01*
Y97828D01*
X81982D01*
Y94679D02*
Y94279D01*
X82782D01*
Y94679D01*
X83182D01*
Y95479D01*
X82782D01*
Y95879D01*
X81982D01*
Y95479D01*
X81582D01*
Y94679D01*
X81982D01*
X91431Y97828D02*
Y97428D01*
X92231D01*
Y97828D01*
X92631D01*
Y98628D01*
X92231D01*
Y99028D01*
X91431D01*
Y98628D01*
X91031D01*
Y97828D01*
X91431D01*
X96149Y31082D02*
X96549Y31882D01*
X96149Y32682D01*
X96949Y32282D01*
X97749Y32682D01*
X97349Y31882D01*
X97749Y31082D01*
X96949Y31482D01*
X96149Y31082D01*
X49987Y14948D02*
X50387Y15748D01*
X49987Y16548D01*
X50787Y16148D01*
X51587Y16548D01*
X51187Y15748D01*
X51587Y14948D01*
X50787Y15348D01*
X49987Y14948D01*
X32665Y39653D02*
X33065Y40453D01*
X32665Y41253D01*
X33465Y40853D01*
X34265Y41253D01*
X33865Y40453D01*
X34265Y39653D01*
X33465Y40053D01*
X32665Y39653D01*
X97730Y88380D02*
Y87980D01*
X98530D01*
Y88380D01*
X98930D01*
Y89179D01*
X98530D01*
Y89579D01*
X97730D01*
Y89179D01*
X97330D01*
Y88380D01*
X97730D01*
X222259Y35820D02*
Y35421D01*
X223059D01*
Y35820D01*
X223459D01*
Y36621D01*
X223059D01*
Y37020D01*
X222259D01*
Y36621D01*
X221859D01*
Y35820D01*
X222259D01*
X223419Y81096D02*
Y80696D01*
X224219D01*
Y81096D01*
X224619D01*
Y81896D01*
X224219D01*
Y82296D01*
X223419D01*
Y81896D01*
X223019D01*
Y81096D01*
X223419D01*
X227110Y154521D02*
Y154121D01*
X227910D01*
Y154521D01*
X228310D01*
Y155321D01*
X227910D01*
Y155721D01*
X227110D01*
Y155321D01*
X226710D01*
Y154521D01*
X227110D01*
X105401Y132133D02*
X105801Y132933D01*
X105401Y133733D01*
X106201Y133333D01*
X107001Y133733D01*
X106601Y132933D01*
X107001Y132133D01*
X106201Y132533D01*
X105401Y132133D01*
X35700Y107468D02*
X36100Y108268D01*
X35700Y109068D01*
X36500Y108668D01*
X37300Y109068D01*
X36900Y108268D01*
X37300Y107468D01*
X36500Y107868D01*
X35700Y107468D01*
X42665Y107271D02*
X43065Y108071D01*
X42665Y108871D01*
X43465Y108471D01*
X44265Y108871D01*
X43865Y108071D01*
X44265Y107271D01*
X43465Y107671D01*
X42665Y107271D01*
X234338Y25086D02*
X234738Y25886D01*
X234338Y26686D01*
X235138Y26286D01*
X235938Y26686D01*
X235538Y25886D01*
X235938Y25086D01*
X235138Y25486D01*
X234338Y25086D01*
X163970Y155674D02*
Y155274D01*
X164770D01*
Y155674D01*
X165170D01*
Y156474D01*
X164770D01*
Y156874D01*
X163970D01*
Y156474D01*
X163570D01*
Y155674D01*
X163970D01*
X170269D02*
Y155274D01*
X171069D01*
Y155674D01*
X171469D01*
Y156474D01*
X171069D01*
Y156874D01*
X170269D01*
Y156474D01*
X169869D01*
Y155674D01*
X170269D01*
X175191Y13183D02*
Y12783D01*
X175991D01*
Y13183D01*
X176391D01*
Y13983D01*
X175991D01*
Y14383D01*
X175191D01*
Y13983D01*
X174791D01*
Y13183D01*
X175191D01*
X75683Y110427D02*
Y110027D01*
X76483D01*
Y110427D01*
X76883D01*
Y111227D01*
X76483D01*
Y111627D01*
X75683D01*
Y111227D01*
X75283D01*
Y110427D01*
X75683D01*
X78832Y107277D02*
Y106877D01*
X79632D01*
Y107277D01*
X80032D01*
Y108077D01*
X79632D01*
Y108477D01*
X78832D01*
Y108077D01*
X78432D01*
Y107277D01*
X78832D01*
X75683D02*
Y106877D01*
X76483D01*
Y107277D01*
X76883D01*
Y108077D01*
X76483D01*
Y108477D01*
X75683D01*
Y108077D01*
X75283D01*
Y107277D01*
X75683D01*
Y104128D02*
Y103727D01*
X76483D01*
Y104128D01*
X76883D01*
Y104928D01*
X76483D01*
Y105327D01*
X75683D01*
Y104928D01*
X75283D01*
Y104128D01*
X75683D01*
X109030Y26033D02*
X109430Y26833D01*
X109030Y27633D01*
X109830Y27233D01*
X110630Y27633D01*
X110230Y26833D01*
X110630Y26033D01*
X109830Y26433D01*
X109030Y26033D01*
X123413Y146543D02*
X123813Y147343D01*
X123413Y148143D01*
X124213Y147742D01*
X125013Y148143D01*
X124613Y147343D01*
X125013Y146543D01*
X124213Y146942D01*
X123413Y146543D01*
X67901Y20361D02*
X68301Y21161D01*
X67901Y21961D01*
X68701Y21561D01*
X69501Y21961D01*
X69101Y21161D01*
X69501Y20361D01*
X68701Y20761D01*
X67901Y20361D01*
X156785Y74895D02*
Y74495D01*
X157585D01*
Y74895D01*
X157985D01*
Y75695D01*
X157585D01*
Y76095D01*
X156785D01*
Y75695D01*
X156385D01*
Y74895D01*
X156785D01*
X181588Y16124D02*
Y15723D01*
X182388D01*
Y16124D01*
X182788D01*
Y16924D01*
X182388D01*
Y17323D01*
X181588D01*
Y16924D01*
X181188D01*
Y16124D01*
X181588D01*
X175169D02*
Y15723D01*
X175969D01*
Y16124D01*
X176369D01*
Y16924D01*
X175969D01*
Y17323D01*
X175169D01*
Y16924D01*
X174769D01*
Y16124D01*
X175169D01*
X225387Y57588D02*
Y57188D01*
X226187D01*
Y57588D01*
X226587D01*
Y58388D01*
X226187D01*
Y58788D01*
X225387D01*
Y58388D01*
X224987D01*
Y57588D01*
X225387D01*
X165673Y41466D02*
Y41066D01*
X166472D01*
Y41466D01*
X166873D01*
Y42266D01*
X166472D01*
Y42666D01*
X165673D01*
Y42266D01*
X165272D01*
Y41466D01*
X165673D01*
X137789Y54915D02*
Y54515D01*
X138589D01*
Y54915D01*
X138989D01*
Y55715D01*
X138589D01*
Y56115D01*
X137789D01*
Y55715D01*
X137389D01*
Y54915D01*
X137789D01*
X156884Y43005D02*
Y42606D01*
X157684D01*
Y43005D01*
X158083D01*
Y43806D01*
X157684D01*
Y44205D01*
X156884D01*
Y43806D01*
X156483D01*
Y43005D01*
X156884D01*
X175901Y43011D02*
Y42610D01*
X176701D01*
Y43011D01*
X177101D01*
Y43810D01*
X176701D01*
Y44210D01*
X175901D01*
Y43810D01*
X175501D01*
Y43011D01*
X175901D01*
X182376D02*
Y42610D01*
X183176D01*
Y43011D01*
X183576D01*
Y43810D01*
X183176D01*
Y44210D01*
X182376D01*
Y43810D01*
X181976D01*
Y43011D01*
X182376D01*
X140348Y16646D02*
Y16246D01*
X141148D01*
Y16646D01*
X141548D01*
Y17446D01*
X141148D01*
Y17846D01*
X140348D01*
Y17446D01*
X139948D01*
Y16646D01*
X140348D01*
X181588Y13183D02*
Y12783D01*
X182388D01*
Y13183D01*
X182788D01*
Y13983D01*
X182388D01*
Y14383D01*
X181588D01*
Y13983D01*
X181188D01*
Y13183D01*
X181588D01*
X156884Y45466D02*
Y45066D01*
X157684D01*
Y45466D01*
X158083D01*
Y46266D01*
X157684D01*
Y46666D01*
X156884D01*
Y46266D01*
X156483D01*
Y45466D01*
X156884D01*
X175901Y45860D02*
Y45460D01*
X176701D01*
Y45860D01*
X177101D01*
Y46660D01*
X176701D01*
Y47060D01*
X175901D01*
Y46660D01*
X175501D01*
Y45860D01*
X175901D01*
X182376D02*
Y45460D01*
X183176D01*
Y45860D01*
X183576D01*
Y46660D01*
X183176D01*
Y47060D01*
X182376D01*
Y46660D01*
X181976D01*
Y45860D01*
X182376D01*
X147323Y16646D02*
Y16246D01*
X148123D01*
Y16646D01*
X148523D01*
Y17446D01*
X148123D01*
Y17846D01*
X147323D01*
Y17446D01*
X146923D01*
Y16646D01*
X147323D01*
X166135D02*
Y16246D01*
X166935D01*
Y16646D01*
X167335D01*
Y17446D01*
X166935D01*
Y17846D01*
X166135D01*
Y17446D01*
X165735D01*
Y16646D01*
X166135D01*
X137592Y65545D02*
Y65145D01*
X138392D01*
Y65545D01*
X138792D01*
Y66345D01*
X138392D01*
Y66745D01*
X137592D01*
Y66345D01*
X137192D01*
Y65545D01*
X137592D01*
X182277Y97868D02*
Y97468D01*
X183077D01*
Y97868D01*
X183477D01*
Y98668D01*
X183077D01*
Y99068D01*
X182277D01*
Y98668D01*
X181877D01*
Y97868D01*
X182277D01*
Y100190D02*
Y99791D01*
X183077D01*
Y100190D01*
X183477D01*
Y100990D01*
X183077D01*
Y101391D01*
X182277D01*
Y100990D01*
X181877D01*
Y100190D01*
X182277D01*
X175683Y97927D02*
Y97527D01*
X176483D01*
Y97927D01*
X176883D01*
Y98727D01*
X176483D01*
Y99127D01*
X175683D01*
Y98727D01*
X175283D01*
Y97927D01*
X175683D01*
Y100387D02*
Y99987D01*
X176483D01*
Y100387D01*
X176883D01*
Y101187D01*
X176483D01*
Y101587D01*
X175683D01*
Y101187D01*
X175283D01*
Y100387D01*
X175683D01*
X156785D02*
Y99987D01*
X157585D01*
Y100387D01*
X157985D01*
Y101187D01*
X157585D01*
Y101587D01*
X156785D01*
Y101187D01*
X156385D01*
Y100387D01*
X156785D01*
Y97927D02*
Y97527D01*
X157585D01*
Y97927D01*
X157985D01*
Y98727D01*
X157585D01*
Y99127D01*
X156785D01*
Y98727D01*
X156385D01*
Y97927D01*
X156785D01*
X139948Y101070D02*
X140348Y101870D01*
X139948Y102670D01*
X140748Y102270D01*
X141548Y102670D01*
X141148Y101870D01*
X141548Y101070D01*
X140748Y101470D01*
X139948Y101070D01*
X182868Y73025D02*
Y72625D01*
X183668D01*
Y73025D01*
X184068D01*
Y73825D01*
X183668D01*
Y74225D01*
X182868D01*
Y73825D01*
X182468D01*
Y73025D01*
X182868D01*
X225289Y104324D02*
Y103924D01*
X226089D01*
Y104324D01*
X226489D01*
Y105124D01*
X226089D01*
Y105524D01*
X225289D01*
Y105124D01*
X224889D01*
Y104324D01*
X225289D01*
X223573Y101962D02*
Y101562D01*
X224373D01*
Y101962D01*
X224773D01*
Y102762D01*
X224373D01*
Y103162D01*
X223573D01*
Y102762D01*
X223173D01*
Y101962D01*
X223573D01*
X147323Y72533D02*
Y72133D01*
X148123D01*
Y72533D01*
X148523D01*
Y73333D01*
X148123D01*
Y73733D01*
X147323D01*
Y73333D01*
X146923D01*
Y72533D01*
X147323D01*
X166311Y72413D02*
Y72013D01*
X167111D01*
Y72413D01*
X167511D01*
Y73213D01*
X167111D01*
Y73614D01*
X166311D01*
Y73213D01*
X165911D01*
Y72413D01*
X166311D01*
X157671Y128439D02*
Y128039D01*
X158471D01*
Y128439D01*
X158871D01*
Y129239D01*
X158471D01*
Y129639D01*
X157671D01*
Y129239D01*
X157271D01*
Y128439D01*
X157671D01*
X176568D02*
Y128039D01*
X177368D01*
Y128439D01*
X177769D01*
Y129239D01*
X177368D01*
Y129639D01*
X176568D01*
Y129239D01*
X176169D01*
Y128439D01*
X176568D01*
X179718Y127444D02*
Y127044D01*
X180518D01*
Y127444D01*
X180918D01*
Y128244D01*
X180518D01*
Y128644D01*
X179718D01*
Y128244D01*
X179318D01*
Y127444D01*
X179718D01*
X173419D02*
Y127044D01*
X174219D01*
Y127444D01*
X174619D01*
Y128244D01*
X174219D01*
Y128644D01*
X173419D01*
Y128244D01*
X173019D01*
Y127444D01*
X173419D01*
X178340Y125260D02*
Y124861D01*
X179140D01*
Y125260D01*
X179540D01*
Y126060D01*
X179140D01*
Y126461D01*
X178340D01*
Y126060D01*
X177940D01*
Y125260D01*
X178340D01*
X154521Y127444D02*
Y127044D01*
X155321D01*
Y127444D01*
X155721D01*
Y128244D01*
X155321D01*
Y128644D01*
X154521D01*
Y128244D01*
X154121D01*
Y127444D01*
X154521D01*
X149994Y130182D02*
Y129782D01*
X150794D01*
Y130182D01*
X151194D01*
Y130982D01*
X150794D01*
Y131382D01*
X149994D01*
Y130982D01*
X149594D01*
Y130182D01*
X149994D01*
X159352Y125295D02*
Y124895D01*
X160152D01*
Y125295D01*
X160552D01*
Y126095D01*
X160152D01*
Y126495D01*
X159352D01*
Y126095D01*
X158952D01*
Y125295D01*
X159352D01*
X166311Y127827D02*
Y127427D01*
X167111D01*
Y127827D01*
X167511D01*
Y128627D01*
X167111D01*
Y129027D01*
X166311D01*
Y128627D01*
X165911D01*
Y127827D01*
X166311D01*
X163970Y132347D02*
Y131947D01*
X164770D01*
Y132347D01*
X165170D01*
Y133147D01*
X164770D01*
Y133547D01*
X163970D01*
Y133147D01*
X163570D01*
Y132347D01*
X163970D01*
X162592Y130182D02*
Y129782D01*
X163392D01*
Y130182D01*
X163792D01*
Y130982D01*
X163392D01*
Y131382D01*
X162592D01*
Y130982D01*
X162192D01*
Y130182D01*
X162592D01*
X160820Y127444D02*
Y127044D01*
X161620D01*
Y127444D01*
X162021D01*
Y128244D01*
X161620D01*
Y128644D01*
X160820D01*
Y128244D01*
X160421D01*
Y127444D01*
X160820D01*
X147238Y127479D02*
Y127079D01*
X148038D01*
Y127479D01*
X148438D01*
Y128279D01*
X148038D01*
Y128679D01*
X147238D01*
Y128279D01*
X146838D01*
Y127479D01*
X147238D01*
X145072Y132347D02*
Y131947D01*
X145872D01*
Y132347D01*
X146272D01*
Y133147D01*
X145872D01*
Y133547D01*
X145072D01*
Y133147D01*
X144672D01*
Y132347D01*
X145072D01*
X143694Y130182D02*
Y129782D01*
X144494D01*
Y130182D01*
X144895D01*
Y130982D01*
X144494D01*
Y131382D01*
X143694D01*
Y130982D01*
X143295D01*
Y130182D01*
X143694D01*
X151372Y132347D02*
Y131947D01*
X152172D01*
Y132347D01*
X152572D01*
Y133147D01*
X152172D01*
Y133547D01*
X151372D01*
Y133147D01*
X150972D01*
Y132347D01*
X151372D01*
X153143Y125260D02*
Y124861D01*
X153943D01*
Y125260D01*
X154343D01*
Y126060D01*
X153943D01*
Y126461D01*
X153143D01*
Y126060D01*
X152743D01*
Y125260D01*
X153143D01*
X168891Y130182D02*
Y129782D01*
X169691D01*
Y130182D01*
X170091D01*
Y130982D01*
X169691D01*
Y131382D01*
X168891D01*
Y130982D01*
X168491D01*
Y130182D01*
X168891D01*
X170269Y132347D02*
Y131947D01*
X171069D01*
Y132347D01*
X171469D01*
Y133147D01*
X171069D01*
Y133547D01*
X170269D01*
Y133147D01*
X169869D01*
Y132347D01*
X170269D01*
X94580Y63183D02*
Y62783D01*
X95380D01*
Y63183D01*
X95780D01*
Y63983D01*
X95380D01*
Y64383D01*
X94580D01*
Y63983D01*
X94180D01*
Y63183D01*
X94580D01*
X71149Y133177D02*
X71549Y133977D01*
X71149Y134777D01*
X71949Y134377D01*
X72749Y134777D01*
X72349Y133977D01*
X72749Y133177D01*
X71949Y133577D01*
X71149Y133177D01*
X223813Y157277D02*
Y156877D01*
X224613D01*
Y157277D01*
X225013D01*
Y158077D01*
X224613D01*
Y158477D01*
X223813D01*
Y158077D01*
X223413D01*
Y157277D01*
X223813D01*
X140524D02*
Y156877D01*
X141324D01*
Y157277D01*
X141724D01*
Y158077D01*
X141324D01*
Y158477D01*
X140524D01*
Y158077D01*
X140124D01*
Y157277D01*
X140524D01*
X181469Y157179D02*
Y156779D01*
X182269D01*
Y157179D01*
X182669D01*
Y157979D01*
X182269D01*
Y158379D01*
X181469D01*
Y157979D01*
X181069D01*
Y157179D01*
X181469D01*
X175486D02*
Y156779D01*
X176286D01*
Y157179D01*
X176686D01*
Y157979D01*
X176286D01*
Y158379D01*
X175486D01*
Y157979D01*
X175086D01*
Y157179D01*
X175486D01*
X156490Y157277D02*
Y156877D01*
X157290D01*
Y157277D01*
X157690D01*
Y158077D01*
X157290D01*
Y158477D01*
X156490D01*
Y158077D01*
X156090D01*
Y157277D01*
X156490D01*
X223813Y154521D02*
Y154121D01*
X224613D01*
Y154521D01*
X225013D01*
Y155321D01*
X224613D01*
Y155721D01*
X223813D01*
Y155321D01*
X223413D01*
Y154521D01*
X223813D01*
X182868Y128439D02*
Y128039D01*
X183668D01*
Y128439D01*
X184068D01*
Y129239D01*
X183668D01*
Y129639D01*
X182868D01*
Y129239D01*
X182468D01*
Y128439D01*
X182868D01*
X140348Y127444D02*
Y127044D01*
X141148D01*
Y127444D01*
X141548D01*
Y128244D01*
X141148D01*
Y128644D01*
X140348D01*
Y128244D01*
X139948D01*
Y127444D01*
X140348D01*
X181469Y154423D02*
Y154023D01*
X182269D01*
Y154423D01*
X182669D01*
Y155223D01*
X182269D01*
Y155623D01*
X181469D01*
Y155223D01*
X181069D01*
Y154423D01*
X181469D01*
X175486D02*
Y154023D01*
X176286D01*
Y154423D01*
X176686D01*
Y155223D01*
X176286D01*
Y155623D01*
X175486D01*
Y155223D01*
X175086D01*
Y154423D01*
X175486D01*
X167120D02*
Y154023D01*
X167920D01*
Y154423D01*
X168320D01*
Y155223D01*
X167920D01*
Y155623D01*
X167120D01*
Y155223D01*
X166720D01*
Y154423D01*
X167120D01*
X156490Y154521D02*
Y154121D01*
X157290D01*
Y154521D01*
X157690D01*
Y155321D01*
X157290D01*
Y155721D01*
X156490D01*
Y155321D01*
X156090D01*
Y154521D01*
X156490D01*
X140524D02*
Y154121D01*
X141324D01*
Y154521D01*
X141724D01*
Y155321D01*
X141324D01*
Y155721D01*
X140524D01*
Y155321D01*
X140124D01*
Y154521D01*
X140524D01*
X148222D02*
Y154121D01*
X149022D01*
Y154521D01*
X149422D01*
Y155321D01*
X149022D01*
Y155721D01*
X148222D01*
Y155321D01*
X147822D01*
Y154521D01*
X148222D01*
X211214Y39972D02*
Y39573D01*
X212014D01*
Y39972D01*
X212414D01*
Y40773D01*
X212014D01*
Y41173D01*
X211214D01*
Y40773D01*
X210814D01*
Y39972D01*
X211214D01*
X29318Y98511D02*
X29718Y99311D01*
X29318Y100111D01*
X30118Y99711D01*
X30918Y100111D01*
X30518Y99311D01*
X30918Y98511D01*
X30118Y98911D01*
X29318Y98511D01*
Y94574D02*
X29718Y95374D01*
X29318Y96174D01*
X30118Y95774D01*
X30918Y96174D01*
X30518Y95374D01*
X30918Y94574D01*
X30118Y94974D01*
X29318Y94574D01*
Y102547D02*
X29718Y103347D01*
X29318Y104147D01*
X30118Y103746D01*
X30918Y104147D01*
X30518Y103347D01*
X30918Y102547D01*
X30118Y102946D01*
X29318Y102547D01*
X49791Y114751D02*
X50191Y115551D01*
X49791Y116351D01*
X50591Y115951D01*
X51390Y116351D01*
X50991Y115551D01*
X51390Y114751D01*
X50591Y115151D01*
X49791Y114751D01*
X47527Y120165D02*
X47927Y120965D01*
X47527Y121765D01*
X48327Y121365D01*
X49127Y121765D01*
X48727Y120965D01*
X49127Y120165D01*
X48327Y120565D01*
X47527Y120165D01*
X83354Y136602D02*
X83754Y137402D01*
X83354Y138202D01*
X84153Y137802D01*
X84953Y138202D01*
X84553Y137402D01*
X84953Y136602D01*
X84153Y137002D01*
X83354Y136602D01*
X29318Y67015D02*
X29718Y67815D01*
X29318Y68615D01*
X30118Y68215D01*
X30918Y68615D01*
X30518Y67815D01*
X30918Y67015D01*
X30118Y67415D01*
X29318Y67015D01*
Y70952D02*
X29718Y71752D01*
X29318Y72552D01*
X30118Y72152D01*
X30918Y72552D01*
X30518Y71752D01*
X30918Y70952D01*
X30118Y71352D01*
X29318Y70952D01*
Y78826D02*
X29718Y79626D01*
X29318Y80426D01*
X30118Y80026D01*
X30918Y80426D01*
X30518Y79626D01*
X30918Y78826D01*
X30118Y79226D01*
X29318Y78826D01*
X245686Y101956D02*
X246086Y102756D01*
X245686Y103556D01*
X246486Y103156D01*
X247286Y103556D01*
X246886Y102756D01*
X247286Y101956D01*
X246486Y102356D01*
X245686Y101956D01*
X245686Y60322D02*
X246086Y61122D01*
X245686Y61922D01*
X246486Y61522D01*
X247286Y61922D01*
X246886Y61122D01*
X247286Y60322D01*
X246486Y60722D01*
X245686Y60322D01*
X245686Y141228D02*
X246086Y142028D01*
X245686Y142828D01*
X246486Y142428D01*
X247286Y142828D01*
X246886Y142028D01*
X247286Y141228D01*
X246486Y141628D01*
X245686Y141228D01*
Y46848D02*
X246086Y47648D01*
X245686Y48448D01*
X246486Y48048D01*
X247286Y48448D01*
X246886Y47648D01*
X247286Y46848D01*
X246486Y47248D01*
X245686Y46848D01*
Y88836D02*
X246086Y89636D01*
X245686Y90436D01*
X246486Y90036D01*
X247286Y90436D01*
X246886Y89636D01*
X247286Y88836D01*
X246486Y89236D01*
X245686Y88836D01*
Y128206D02*
X246086Y129006D01*
X245686Y129806D01*
X246486Y129406D01*
X247286Y129806D01*
X246886Y129006D01*
X247286Y128206D01*
X246486Y128606D01*
X245686Y128206D01*
X231188Y129712D02*
X231588Y130512D01*
X231188Y131312D01*
X231988Y130912D01*
X232788Y131312D01*
X232388Y130512D01*
X232788Y129712D01*
X231988Y130112D01*
X231188Y129712D01*
X231617Y37291D02*
X232017Y38091D01*
X231617Y38891D01*
X232417Y38491D01*
X233217Y38891D01*
X232817Y38091D01*
X233217Y37291D01*
X232417Y37691D01*
X231617Y37291D01*
X231188Y48353D02*
X231588Y49154D01*
X231188Y49953D01*
X231988Y49553D01*
X232788Y49953D01*
X232388Y49154D01*
X232788Y48353D01*
X231988Y48753D01*
X231188Y48353D01*
X235125Y66326D02*
X235525Y67126D01*
X235125Y67926D01*
X235925Y67526D01*
X236725Y67926D01*
X236325Y67126D01*
X236725Y66326D01*
X235925Y66726D01*
X235125Y66326D01*
X234338Y106385D02*
X234738Y107185D01*
X234338Y107985D01*
X235138Y107585D01*
X235938Y107985D01*
X235538Y107185D01*
X235938Y106385D01*
X235138Y106785D01*
X234338Y106385D01*
X234830Y46779D02*
X235230Y47579D01*
X234830Y48379D01*
X235630Y47979D01*
X236430Y48379D01*
X236030Y47579D01*
X236430Y46779D01*
X235630Y47179D01*
X234830Y46779D01*
X231188Y90342D02*
X231588Y91142D01*
X231188Y91942D01*
X231988Y91542D01*
X232788Y91942D01*
X232388Y91142D01*
X232788Y90342D01*
X231988Y90742D01*
X231188Y90342D01*
X234830Y88767D02*
X235230Y89567D01*
X234830Y90367D01*
X235630Y89967D01*
X236430Y90367D01*
X236030Y89567D01*
X236430Y88767D01*
X235630Y89167D01*
X234830Y88767D01*
Y128137D02*
X235230Y128937D01*
X234830Y129737D01*
X235630Y129337D01*
X236430Y129737D01*
X236030Y128937D01*
X236430Y128137D01*
X235630Y128537D01*
X234830Y128137D01*
X216135Y14462D02*
Y14062D01*
X216935D01*
Y14462D01*
X217335D01*
Y15262D01*
X216935D01*
Y15662D01*
X216135D01*
Y15262D01*
X215735D01*
Y14462D01*
X216135D01*
X200387Y19384D02*
Y18983D01*
X201187D01*
Y19384D01*
X201587D01*
Y20184D01*
X201187D01*
Y20583D01*
X200387D01*
Y20184D01*
X199987D01*
Y19384D01*
X200387D01*
X203537Y14462D02*
Y14062D01*
X204337D01*
Y14462D01*
X204737D01*
Y15262D01*
X204337D01*
Y15662D01*
X203537D01*
Y15262D01*
X203137D01*
Y14462D01*
X203537D01*
X206687Y19384D02*
Y18983D01*
X207487D01*
Y19384D01*
X207887D01*
Y20184D01*
X207487D01*
Y20583D01*
X206687D01*
Y20184D01*
X206287D01*
Y19384D01*
X206687D01*
X209836Y14462D02*
Y14062D01*
X210636D01*
Y14462D01*
X211036D01*
Y15262D01*
X210636D01*
Y15662D01*
X209836D01*
Y15262D01*
X209436D01*
Y14462D01*
X209836D01*
X212986Y19384D02*
Y18983D01*
X213786D01*
Y19384D01*
X214186D01*
Y20184D01*
X213786D01*
Y20583D01*
X212986D01*
Y20184D01*
X212586D01*
Y19384D01*
X212986D01*
X219285D02*
Y18983D01*
X220085D01*
Y19384D01*
X220485D01*
Y20184D01*
X220085D01*
Y20583D01*
X219285D01*
Y20184D01*
X218885D01*
Y19384D01*
X219285D01*
X231617Y79712D02*
X232017Y80512D01*
X231617Y81312D01*
X232417Y80912D01*
X233217Y81312D01*
X232817Y80512D01*
X233217Y79712D01*
X232417Y80112D01*
X231617Y79712D01*
Y118983D02*
X232017Y119783D01*
X231617Y120583D01*
X232417Y120184D01*
X233217Y120583D01*
X232817Y119783D01*
X233217Y118983D01*
X232417Y119384D01*
X231617Y118983D01*
X229487Y57787D02*
X229887Y58587D01*
X229487Y59387D01*
X230287Y58987D01*
X231087Y59387D01*
X230687Y58587D01*
X231087Y57787D01*
X230287Y58187D01*
X229487Y57787D01*
X228720Y100574D02*
X229120Y101374D01*
X228720Y102174D01*
X229520Y101774D01*
X230320Y102174D01*
X229920Y101374D01*
X230320Y100574D01*
X229520Y100974D01*
X228720Y100574D01*
X232074Y146149D02*
X232474Y146949D01*
X232074Y147749D01*
X232874Y147349D01*
X233674Y147749D01*
X233274Y146949D01*
X233674Y146149D01*
X232874Y146549D01*
X232074Y146149D01*
X154521Y150771D02*
Y150371D01*
X155321D01*
Y150771D01*
X155721D01*
Y151571D01*
X155321D01*
Y151971D01*
X154521D01*
Y151571D01*
X154121D01*
Y150771D01*
X154521D01*
X226548Y20361D02*
X226948Y21161D01*
X226548Y21961D01*
X227348Y21561D01*
X228148Y21961D01*
X227748Y21161D01*
X228148Y20361D01*
X227348Y20761D01*
X226548Y20361D01*
X226609Y23609D02*
X227010Y24409D01*
X226609Y25210D01*
X227410Y24810D01*
X228209Y25210D01*
X227810Y24409D01*
X228209Y23609D01*
X227410Y24010D01*
X226609Y23609D01*
X231090Y113078D02*
X231490Y113878D01*
X231090Y114678D01*
X231890Y114278D01*
X232690Y114678D01*
X232290Y113878D01*
X232690Y113078D01*
X231890Y113478D01*
X231090Y113078D01*
X230893Y66720D02*
X231293Y67520D01*
X230893Y68320D01*
X231693Y67920D01*
X232493Y68320D01*
X232093Y67520D01*
X232493Y66720D01*
X231693Y67120D01*
X230893Y66720D01*
Y69968D02*
X231293Y70768D01*
X230893Y71568D01*
X231693Y71168D01*
X232493Y71568D01*
X232093Y70768D01*
X232493Y69968D01*
X231693Y70368D01*
X230893Y69968D01*
X231037Y109830D02*
X231437Y110630D01*
X231037Y111430D01*
X231837Y111030D01*
X232637Y111430D01*
X232237Y110630D01*
X232637Y109830D01*
X231837Y110230D01*
X231037Y109830D01*
X40932Y52153D02*
X41332Y52953D01*
X40932Y53753D01*
X41732Y53353D01*
X42532Y53753D01*
X42132Y52953D01*
X42532Y52153D01*
X41732Y52553D01*
X40932Y52153D01*
X50283Y36798D02*
X50683Y37598D01*
X50283Y38398D01*
X51083Y37998D01*
X51883Y38398D01*
X51483Y37598D01*
X51883Y36798D01*
X51083Y37198D01*
X50283Y36798D01*
X68196Y40440D02*
X68596Y41240D01*
X68196Y42040D01*
X68996Y41640D01*
X69796Y42040D01*
X69396Y41240D01*
X69796Y40440D01*
X68996Y40840D01*
X68196Y40440D01*
X27251Y20558D02*
X27651Y21358D01*
X27251Y22158D01*
X28051Y21758D01*
X28851Y22158D01*
X28451Y21358D01*
X28851Y20558D01*
X28051Y20958D01*
X27251Y20558D01*
X76669Y29129D02*
X77069Y29929D01*
X76669Y30729D01*
X77469Y30329D01*
X78268Y30729D01*
X77868Y29929D01*
X78268Y29129D01*
X77469Y29529D01*
X76669Y29129D01*
X74397Y26858D02*
X74797Y27657D01*
X74397Y28457D01*
X75197Y28058D01*
X75997Y28457D01*
X75597Y27657D01*
X75997Y26858D01*
X75197Y27257D01*
X74397Y26858D01*
X72125Y24586D02*
X72525Y25386D01*
X72125Y26186D01*
X72925Y25786D01*
X73725Y26186D01*
X73325Y25386D01*
X73725Y24586D01*
X72925Y24986D01*
X72125Y24586D01*
X50283Y31877D02*
X50683Y32677D01*
X50283Y33477D01*
X51083Y33077D01*
X51883Y33477D01*
X51483Y32677D01*
X51883Y31877D01*
X51083Y32277D01*
X50283Y31877D01*
X49397Y73905D02*
X49797Y74705D01*
X49397Y75505D01*
X50197Y75105D01*
X50997Y75505D01*
X50597Y74705D01*
X50997Y73905D01*
X50197Y74305D01*
X49397Y73905D01*
X46641Y54318D02*
X47041Y55118D01*
X46641Y55918D01*
X47441Y55518D01*
X48241Y55918D01*
X47841Y55118D01*
X48241Y54318D01*
X47441Y54718D01*
X46641Y54318D01*
X26365Y123905D02*
X26765Y124705D01*
X26365Y125505D01*
X27165Y125105D01*
X27965Y125505D01*
X27565Y124705D01*
X27965Y123905D01*
X27165Y124305D01*
X26365Y123905D01*
X41424Y154023D02*
X41824Y154823D01*
X41424Y155623D01*
X42224Y155223D01*
X43024Y155623D01*
X42624Y154823D01*
X43024Y154023D01*
X42224Y154423D01*
X41424Y154023D01*
X36503D02*
X36903Y154823D01*
X36503Y155623D01*
X37303Y155223D01*
X38103Y155623D01*
X37703Y154823D01*
X38103Y154023D01*
X37303Y154423D01*
X36503Y154023D01*
X46346D02*
X46746Y154823D01*
X46346Y155623D01*
X47146Y155223D01*
X47946Y155623D01*
X47546Y154823D01*
X47946Y154023D01*
X47146Y154423D01*
X46346Y154023D01*
X50283Y43885D02*
X50683Y44685D01*
X50283Y45485D01*
X51083Y45085D01*
X51883Y45485D01*
X51483Y44685D01*
X51883Y43885D01*
X51083Y44285D01*
X50283Y43885D01*
X19574Y130696D02*
X19974Y131496D01*
X19574Y132296D01*
X20374Y131896D01*
X21174Y132296D01*
X20774Y131496D01*
X21174Y130696D01*
X20374Y131096D01*
X19574Y130696D01*
X21838Y128432D02*
X22238Y129232D01*
X21838Y130032D01*
X22638Y129632D01*
X23438Y130032D01*
X23038Y129232D01*
X23438Y128432D01*
X22638Y128832D01*
X21838Y128432D01*
X24102Y126169D02*
X24502Y126969D01*
X24102Y127769D01*
X24902Y127368D01*
X25702Y127769D01*
X25302Y126969D01*
X25702Y126169D01*
X24902Y126568D01*
X24102Y126169D01*
X47822Y90637D02*
X48222Y91437D01*
X47822Y92237D01*
X48622Y91837D01*
X49422Y92237D01*
X49022Y91437D01*
X49422Y90637D01*
X48622Y91037D01*
X47822Y90637D01*
X51365Y86700D02*
X51765Y87500D01*
X51365Y88300D01*
X52165Y87900D01*
X52965Y88300D01*
X52565Y87500D01*
X52965Y86700D01*
X52165Y87100D01*
X51365Y86700D01*
X47822Y84732D02*
X48222Y85532D01*
X47822Y86331D01*
X48622Y85931D01*
X49422Y86331D01*
X49022Y85532D01*
X49422Y84732D01*
X48622Y85132D01*
X47822Y84732D01*
X51365Y82763D02*
X51765Y83563D01*
X51365Y84363D01*
X52165Y83963D01*
X52965Y84363D01*
X52565Y83563D01*
X52965Y82763D01*
X52165Y83163D01*
X51365Y82763D01*
Y78826D02*
X51765Y79626D01*
X51365Y80426D01*
X52165Y80026D01*
X52965Y80426D01*
X52565Y79626D01*
X52965Y78826D01*
X52165Y79226D01*
X51365Y78826D01*
X57369Y117901D02*
X57769Y118701D01*
X57369Y119501D01*
X58169Y119101D01*
X58969Y119501D01*
X58569Y118701D01*
X58969Y117901D01*
X58169Y118301D01*
X57369Y117901D01*
Y114751D02*
X57769Y115551D01*
X57369Y116351D01*
X58169Y115951D01*
X58969Y116351D01*
X58569Y115551D01*
X58969Y114751D01*
X58169Y115151D01*
X57369Y114751D01*
X81982Y100978D02*
Y100578D01*
X82782D01*
Y100978D01*
X83182D01*
Y101778D01*
X82782D01*
Y102178D01*
X81982D01*
Y101778D01*
X81582D01*
Y100978D01*
X81982D01*
X51365Y90637D02*
X51765Y91437D01*
X51365Y92237D01*
X52165Y91837D01*
X52965Y92237D01*
X52565Y91437D01*
X52965Y90637D01*
X52165Y91037D01*
X51365Y90637D01*
Y94574D02*
X51765Y95374D01*
X51365Y96174D01*
X52165Y95774D01*
X52965Y96174D01*
X52565Y95374D01*
X52965Y94574D01*
X52165Y94974D01*
X51365Y94574D01*
Y98511D02*
X51765Y99311D01*
X51365Y100111D01*
X52165Y99711D01*
X52965Y100111D01*
X52565Y99311D01*
X52965Y98511D01*
X52165Y98911D01*
X51365Y98511D01*
X57369Y106779D02*
X57769Y107579D01*
X57369Y108379D01*
X58169Y107979D01*
X58969Y108379D01*
X58569Y107579D01*
X58969Y106779D01*
X58169Y107179D01*
X57369Y106779D01*
X29318Y82763D02*
X29718Y83563D01*
X29318Y84363D01*
X30118Y83963D01*
X30918Y84363D01*
X30518Y83563D01*
X30918Y82763D01*
X30118Y83163D01*
X29318Y82763D01*
Y86700D02*
X29718Y87500D01*
X29318Y88300D01*
X30118Y87900D01*
X30918Y88300D01*
X30518Y87500D01*
X30918Y86700D01*
X30118Y87100D01*
X29318Y86700D01*
Y90637D02*
X29718Y91437D01*
X29318Y92237D01*
X30118Y91837D01*
X30918Y92237D01*
X30518Y91437D01*
X30918Y90637D01*
X30118Y91037D01*
X29318Y90637D01*
X81982Y75781D02*
Y75381D01*
X82782D01*
Y75781D01*
X83182D01*
Y76581D01*
X82782D01*
Y76981D01*
X81982D01*
Y76581D01*
X81582D01*
Y75781D01*
X81982D01*
X91431Y88380D02*
Y87980D01*
X92231D01*
Y88380D01*
X92631D01*
Y89179D01*
X92231D01*
Y89579D01*
X91431D01*
Y89179D01*
X91031D01*
Y88380D01*
X91431D01*
X107179D02*
Y87980D01*
X107979D01*
Y88380D01*
X108379D01*
Y89179D01*
X107979D01*
Y89579D01*
X107179D01*
Y89179D01*
X106779D01*
Y88380D01*
X107179D01*
X100880D02*
Y87980D01*
X101680D01*
Y88380D01*
X102079D01*
Y89179D01*
X101680D01*
Y89579D01*
X100880D01*
Y89179D01*
X100479D01*
Y88380D01*
X100880D01*
Y91529D02*
Y91129D01*
X101680D01*
Y91529D01*
X102079D01*
Y92329D01*
X101680D01*
Y92729D01*
X100880D01*
Y92329D01*
X100479D01*
Y91529D01*
X100880D01*
X104029Y94679D02*
Y94279D01*
X104829D01*
Y94679D01*
X105229D01*
Y95479D01*
X104829D01*
Y95879D01*
X104029D01*
Y95479D01*
X103629D01*
Y94679D01*
X104029D01*
X100880D02*
Y94279D01*
X101680D01*
Y94679D01*
X102079D01*
Y95479D01*
X101680D01*
Y95879D01*
X100880D01*
Y95479D01*
X100479D01*
Y94679D01*
X100880D01*
Y97828D02*
Y97428D01*
X101680D01*
Y97828D01*
X102079D01*
Y98628D01*
X101680D01*
Y99028D01*
X100880D01*
Y98628D01*
X100479D01*
Y97828D01*
X100880D01*
X90637Y136602D02*
X91037Y137402D01*
X90637Y138202D01*
X91437Y137802D01*
X92237Y138202D01*
X91837Y137402D01*
X92237Y136602D01*
X91437Y137002D01*
X90637Y136602D01*
X110027Y142901D02*
X110427Y143701D01*
X110027Y144501D01*
X110827Y144101D01*
X111627Y144501D01*
X111227Y143701D01*
X111627Y142901D01*
X110827Y143301D01*
X110027Y142901D01*
X99397Y127842D02*
X99797Y128642D01*
X99397Y129442D01*
X100197Y129042D01*
X100997Y129442D01*
X100597Y128642D01*
X100997Y127842D01*
X100197Y128242D01*
X99397Y127842D01*
X102842Y125527D02*
X103242Y126327D01*
X102842Y127127D01*
X103642Y126727D01*
X104442Y127127D01*
X104042Y126327D01*
X104442Y125527D01*
X103642Y125927D01*
X102842Y125527D01*
X117015Y125629D02*
X117415Y126429D01*
X117015Y127229D01*
X117815Y126829D01*
X118615Y127229D01*
X118215Y126429D01*
X118615Y125629D01*
X117815Y126029D01*
X117015Y125629D01*
X106287Y125527D02*
X106687Y126327D01*
X106287Y127127D01*
X107087Y126727D01*
X107887Y127127D01*
X107487Y126327D01*
X107887Y125527D01*
X107087Y125927D01*
X106287Y125527D01*
X113865Y125629D02*
X114265Y126429D01*
X113865Y127229D01*
X114665Y126829D01*
X115465Y127229D01*
X115065Y126429D01*
X115465Y125629D01*
X114665Y126029D01*
X113865Y125629D01*
X110421D02*
X110820Y126429D01*
X110421Y127229D01*
X111221Y126829D01*
X112021Y127229D01*
X111620Y126429D01*
X112021Y125629D01*
X111221Y126029D01*
X110421Y125629D01*
X128334Y125578D02*
X128734Y126378D01*
X128334Y127178D01*
X129134Y126778D01*
X129934Y127178D01*
X129534Y126378D01*
X129934Y125578D01*
X129134Y125978D01*
X128334Y125578D01*
X122035D02*
X122435Y126378D01*
X122035Y127178D01*
X122835Y126778D01*
X123635Y127178D01*
X123235Y126378D01*
X123635Y125578D01*
X122835Y125978D01*
X122035Y125578D01*
X125184D02*
X125584Y126378D01*
X125184Y127178D01*
X125984Y126778D01*
X126784Y127178D01*
X126384Y126378D01*
X126784Y125578D01*
X125984Y125978D01*
X125184Y125578D01*
X126076Y116726D02*
Y116326D01*
X126876D01*
Y116726D01*
X127276D01*
Y117526D01*
X126876D01*
Y117926D01*
X126076D01*
Y117526D01*
X125676D01*
Y116726D01*
X126076D01*
X122927D02*
Y116326D01*
X123727D01*
Y116726D01*
X124127D01*
Y117526D01*
X123727D01*
Y117926D01*
X122927D01*
Y117526D01*
X122527D01*
Y116726D01*
X122927D01*
X135716Y139456D02*
X136116Y140256D01*
X135716Y141056D01*
X136516Y140656D01*
X137316Y141056D01*
X136916Y140256D01*
X137316Y139456D01*
X136516Y139856D01*
X135716Y139456D01*
X139948Y139653D02*
X140348Y140453D01*
X139948Y141253D01*
X140748Y140853D01*
X141548Y141253D01*
X141148Y140453D01*
X141548Y139653D01*
X140748Y140053D01*
X139948Y139653D01*
X133649Y134535D02*
X134049Y135335D01*
X133649Y136135D01*
X134449Y135735D01*
X135249Y136135D01*
X134849Y135335D01*
X135249Y134535D01*
X134449Y134935D01*
X133649Y134535D01*
X110328Y116726D02*
Y116326D01*
X111128D01*
Y116726D01*
X111528D01*
Y117526D01*
X111128D01*
Y117926D01*
X110328D01*
Y117526D01*
X109928D01*
Y116726D01*
X110328D01*
X119279Y146444D02*
X119679Y147244D01*
X119279Y148044D01*
X120079Y147644D01*
X120879Y148044D01*
X120479Y147244D01*
X120879Y146444D01*
X120079Y146844D01*
X119279Y146444D01*
X119777Y110427D02*
Y110027D01*
X120577D01*
Y110427D01*
X120977D01*
Y111227D01*
X120577D01*
Y111627D01*
X119777D01*
Y111227D01*
X119377D01*
Y110427D01*
X119777D01*
X98708Y122330D02*
X99108Y123130D01*
X98708Y123930D01*
X99508Y123530D01*
X100308Y123930D01*
X99908Y123130D01*
X100308Y122330D01*
X99508Y122730D01*
X98708Y122330D01*
X96543Y120165D02*
X96943Y120965D01*
X96543Y121765D01*
X97342Y121365D01*
X98142Y121765D01*
X97742Y120965D01*
X98142Y120165D01*
X97342Y120565D01*
X96543Y120165D01*
X30302D02*
X30702Y120965D01*
X30302Y121765D01*
X31102Y121365D01*
X31902Y121765D01*
X31502Y120965D01*
X31902Y120165D01*
X31102Y120565D01*
X30302Y120165D01*
X88281Y116726D02*
Y116326D01*
X89081D01*
Y116726D01*
X89481D01*
Y117526D01*
X89081D01*
Y117926D01*
X88281D01*
Y117526D01*
X87881D01*
Y116726D01*
X88281D01*
X91431Y100978D02*
Y100578D01*
X92231D01*
Y100978D01*
X92631D01*
Y101778D01*
X92231D01*
Y102178D01*
X91431D01*
Y101778D01*
X91031D01*
Y100978D01*
X91431D01*
Y116726D02*
Y116326D01*
X92231D01*
Y116726D01*
X92631D01*
Y117526D01*
X92231D01*
Y117926D01*
X91431D01*
Y117526D01*
X91031D01*
Y116726D01*
X91431D01*
X132776Y157566D02*
X133176Y158366D01*
X132776Y159166D01*
X133576Y158766D01*
X134376Y159166D01*
X133976Y158366D01*
X134376Y157566D01*
X133576Y157966D01*
X132776Y157566D01*
X72533Y113576D02*
Y113176D01*
X73333D01*
Y113576D01*
X73733D01*
Y114376D01*
X73333D01*
Y114776D01*
X72533D01*
Y114376D01*
X72133D01*
Y113576D01*
X72533D01*
X66234Y116726D02*
Y116326D01*
X67034D01*
Y116726D01*
X67434D01*
Y117526D01*
X67034D01*
Y117926D01*
X66234D01*
Y117526D01*
X65834D01*
Y116726D01*
X66234D01*
X63084D02*
Y116326D01*
X63884D01*
Y116726D01*
X64284D01*
Y117526D01*
X63884D01*
Y117926D01*
X63084D01*
Y117526D01*
X62684D01*
Y116726D01*
X63084D01*
X105401Y141424D02*
X105801Y142224D01*
X105401Y143024D01*
X106201Y142624D01*
X107001Y143024D01*
X106601Y142224D01*
X107001Y141424D01*
X106201Y141824D01*
X105401Y141424D01*
X100479D02*
X100880Y142224D01*
X100479Y143024D01*
X101279Y142624D01*
X102079Y143024D01*
X101680Y142224D01*
X102079Y141424D01*
X101279Y141824D01*
X100479Y141424D01*
X95558D02*
X95958Y142224D01*
X95558Y143024D01*
X96358Y142624D01*
X97158Y143024D01*
X96758Y142224D01*
X97158Y141424D01*
X96358Y141824D01*
X95558Y141424D01*
X90637D02*
X91037Y142224D01*
X90637Y143024D01*
X91437Y142624D01*
X92237Y143024D01*
X91837Y142224D01*
X92237Y141424D01*
X91437Y141824D01*
X90637Y141424D01*
X85716D02*
X86116Y142224D01*
X85716Y143024D01*
X86516Y142624D01*
X87316Y143024D01*
X86916Y142224D01*
X87316Y141424D01*
X86516Y141824D01*
X85716Y141424D01*
X100381Y154023D02*
X100781Y154823D01*
X100381Y155623D01*
X101181Y155223D01*
X101981Y155623D01*
X101581Y154823D01*
X101981Y154023D01*
X101181Y154423D01*
X100381Y154023D01*
X95460D02*
X95860Y154823D01*
X95460Y155623D01*
X96260Y155223D01*
X97060Y155623D01*
X96660Y154823D01*
X97060Y154023D01*
X96260Y154423D01*
X95460Y154023D01*
X90539D02*
X90939Y154823D01*
X90539Y155623D01*
X91339Y155223D01*
X92139Y155623D01*
X91739Y154823D01*
X92139Y154023D01*
X91339Y154423D01*
X90539Y154023D01*
X85617D02*
X86017Y154823D01*
X85617Y155623D01*
X86417Y155223D01*
X87217Y155623D01*
X86817Y154823D01*
X87217Y154023D01*
X86417Y154423D01*
X85617Y154023D01*
X75873Y141424D02*
X76273Y142224D01*
X75873Y143024D01*
X76673Y142624D01*
X77473Y143024D01*
X77073Y142224D01*
X77473Y141424D01*
X76673Y141824D01*
X75873Y141424D01*
X70952D02*
X71352Y142224D01*
X70952Y143024D01*
X71752Y142624D01*
X72552Y143024D01*
X72152Y142224D01*
X72552Y141424D01*
X71752Y141824D01*
X70952Y141424D01*
X66031D02*
X66431Y142224D01*
X66031Y143024D01*
X66831Y142624D01*
X67631Y143024D01*
X67231Y142224D01*
X67631Y141424D01*
X66831Y141824D01*
X66031Y141424D01*
X61110D02*
X61510Y142224D01*
X61110Y143024D01*
X61910Y142624D01*
X62709Y143024D01*
X62309Y142224D01*
X62709Y141424D01*
X61910Y141824D01*
X61110Y141424D01*
X56188D02*
X56588Y142224D01*
X56188Y143024D01*
X56988Y142624D01*
X57788Y143024D01*
X57388Y142224D01*
X57788Y141424D01*
X56988Y141824D01*
X56188Y141424D01*
X51267D02*
X51667Y142224D01*
X51267Y143024D01*
X52067Y142624D01*
X52867Y143024D01*
X52467Y142224D01*
X52867Y141424D01*
X52067Y141824D01*
X51267Y141424D01*
X78832Y110427D02*
Y110027D01*
X79632D01*
Y110427D01*
X80032D01*
Y111227D01*
X79632D01*
Y111627D01*
X78832D01*
Y111227D01*
X78432D01*
Y110427D01*
X78832D01*
X81982D02*
Y110027D01*
X82782D01*
Y110427D01*
X83182D01*
Y111227D01*
X82782D01*
Y111627D01*
X81982D01*
Y111227D01*
X81582D01*
Y110427D01*
X81982D01*
X85132Y107277D02*
Y106877D01*
X85931D01*
Y107277D01*
X86331D01*
Y108077D01*
X85931D01*
Y108477D01*
X85132D01*
Y108077D01*
X84732D01*
Y107277D01*
X85132D01*
Y110427D02*
Y110027D01*
X85931D01*
Y110427D01*
X86331D01*
Y111227D01*
X85931D01*
Y111627D01*
X85132D01*
Y111227D01*
X84732D01*
Y110427D01*
X85132D01*
Y104128D02*
Y103727D01*
X85931D01*
Y104128D01*
X86331D01*
Y104928D01*
X85931D01*
Y105327D01*
X85132D01*
Y104928D01*
X84732D01*
Y104128D01*
X85132D01*
X88281Y110427D02*
Y110027D01*
X89081D01*
Y110427D01*
X89481D01*
Y111227D01*
X89081D01*
Y111627D01*
X88281D01*
Y111227D01*
X87881D01*
Y110427D01*
X88281D01*
Y107277D02*
Y106877D01*
X89081D01*
Y107277D01*
X89481D01*
Y108077D01*
X89081D01*
Y108477D01*
X88281D01*
Y108077D01*
X87881D01*
Y107277D01*
X88281D01*
X78832Y113576D02*
Y113176D01*
X79632D01*
Y113576D01*
X80032D01*
Y114376D01*
X79632D01*
Y114776D01*
X78832D01*
Y114376D01*
X78432D01*
Y113576D01*
X78832D01*
X97730Y63183D02*
Y62783D01*
X98530D01*
Y63183D01*
X98930D01*
Y63983D01*
X98530D01*
Y64383D01*
X97730D01*
Y63983D01*
X97330D01*
Y63183D01*
X97730D01*
X75683Y85230D02*
Y84830D01*
X76483D01*
Y85230D01*
X76883D01*
Y86030D01*
X76483D01*
Y86430D01*
X75683D01*
Y86030D01*
X75283D01*
Y85230D01*
X75683D01*
X97730Y104128D02*
Y103728D01*
X98530D01*
Y104128D01*
X98930D01*
Y104928D01*
X98530D01*
Y105328D01*
X97730D01*
Y104928D01*
X97330D01*
Y104128D01*
X97730D01*
X94580Y104128D02*
Y103727D01*
X95380D01*
Y104128D01*
X95780D01*
Y104928D01*
X95380D01*
Y105327D01*
X94580D01*
Y104928D01*
X94180D01*
Y104128D01*
X94580D01*
X104029D02*
Y103727D01*
X104829D01*
Y104128D01*
X105229D01*
Y104928D01*
X104829D01*
Y105327D01*
X104029D01*
Y104928D01*
X103629D01*
Y104128D01*
X104029D01*
X100880Y110427D02*
Y110027D01*
X101680D01*
Y110427D01*
X102079D01*
Y111227D01*
X101680D01*
Y111627D01*
X100880D01*
Y111227D01*
X100479D01*
Y110427D01*
X100880D01*
X122927Y78931D02*
Y78531D01*
X123727D01*
Y78931D01*
X124127D01*
Y79731D01*
X123727D01*
Y80131D01*
X122927D01*
Y79731D01*
X122527D01*
Y78931D01*
X122927D01*
X119777D02*
Y78531D01*
X120577D01*
Y78931D01*
X120977D01*
Y79731D01*
X120577D01*
Y80131D01*
X119777D01*
Y79731D01*
X119377D01*
Y78931D01*
X119777D01*
X153143Y69847D02*
Y69447D01*
X153943D01*
Y69847D01*
X154343D01*
Y70647D01*
X153943D01*
Y71047D01*
X153143D01*
Y70647D01*
X152743D01*
Y69847D01*
X153143D01*
X160820Y72031D02*
Y71631D01*
X161620D01*
Y72031D01*
X162021D01*
Y72831D01*
X161620D01*
Y73231D01*
X160820D01*
Y72831D01*
X160421D01*
Y72031D01*
X160820D01*
X163970Y76934D02*
Y76534D01*
X164770D01*
Y76934D01*
X165170D01*
Y77734D01*
X164770D01*
Y78134D01*
X163970D01*
Y77734D01*
X163570D01*
Y76934D01*
X163970D01*
X159352Y69879D02*
Y69479D01*
X160152D01*
Y69879D01*
X160552D01*
Y70679D01*
X160152D01*
Y71079D01*
X159352D01*
Y70679D01*
X158952D01*
Y69879D01*
X159352D01*
X159442Y93174D02*
Y92774D01*
X160242D01*
Y93174D01*
X160643D01*
Y93974D01*
X160242D01*
Y94374D01*
X159442D01*
Y93974D01*
X159043D01*
Y93174D01*
X159442D01*
X162592Y74768D02*
Y74368D01*
X163392D01*
Y74768D01*
X163792D01*
Y75568D01*
X163392D01*
Y75968D01*
X162592D01*
Y75568D01*
X162192D01*
Y74768D01*
X162592D01*
X160820Y39972D02*
Y39573D01*
X161620D01*
Y39972D01*
X162021D01*
Y40773D01*
X161620D01*
Y41173D01*
X160820D01*
Y40773D01*
X160421D01*
Y39972D01*
X160820D01*
X162592Y42710D02*
Y42310D01*
X163392D01*
Y42710D01*
X163792D01*
Y43510D01*
X163392D01*
Y43910D01*
X162592D01*
Y43510D01*
X162192D01*
Y42710D01*
X162592D01*
X163970Y44876D02*
Y44476D01*
X164770D01*
Y44876D01*
X165170D01*
Y45676D01*
X164770D01*
Y46076D01*
X163970D01*
Y45676D01*
X163570D01*
Y44876D01*
X163970D01*
X143694Y42710D02*
Y42310D01*
X144494D01*
Y42710D01*
X144895D01*
Y43510D01*
X144494D01*
Y43910D01*
X143694D01*
Y43510D01*
X143295D01*
Y42710D01*
X143694D01*
X154521Y72031D02*
Y71631D01*
X155321D01*
Y72031D01*
X155721D01*
Y72831D01*
X155321D01*
Y73231D01*
X154521D01*
Y72831D01*
X154121D01*
Y72031D01*
X154521D01*
X149994Y42710D02*
Y42310D01*
X150794D01*
Y42710D01*
X151194D01*
Y43510D01*
X150794D01*
Y43910D01*
X149994D01*
Y43510D01*
X149594D01*
Y42710D01*
X149994D01*
X151372Y44876D02*
Y44476D01*
X152172D01*
Y44876D01*
X152572D01*
Y45676D01*
X152172D01*
Y46076D01*
X151372D01*
Y45676D01*
X150972D01*
Y44876D01*
X151372D01*
X203537Y93174D02*
Y92774D01*
X204337D01*
Y93174D01*
X204737D01*
Y93974D01*
X204337D01*
Y94374D01*
X203537D01*
Y93974D01*
X203137D01*
Y93174D01*
X203537D01*
X200387Y98095D02*
Y97695D01*
X201187D01*
Y98095D01*
X201587D01*
Y98895D01*
X201187D01*
Y99295D01*
X200387D01*
Y98895D01*
X199987D01*
Y98095D01*
X200387D01*
X198616Y95357D02*
Y94957D01*
X199416D01*
Y95357D01*
X199816D01*
Y96157D01*
X199416D01*
Y96557D01*
X198616D01*
Y96157D01*
X198216D01*
Y95357D01*
X198616D01*
X201765Y100260D02*
Y99861D01*
X202565D01*
Y100260D01*
X202965D01*
Y101060D01*
X202565D01*
Y101461D01*
X201765D01*
Y101060D01*
X201365D01*
Y100260D01*
X201765D01*
X195466D02*
Y99861D01*
X196266D01*
Y100260D01*
X196666D01*
Y101060D01*
X196266D01*
Y101461D01*
X195466D01*
Y101060D01*
X195066D01*
Y100260D01*
X195466D01*
X197238Y125260D02*
Y124861D01*
X198038D01*
Y125260D01*
X198438D01*
Y126060D01*
X198038D01*
Y126461D01*
X197238D01*
Y126060D01*
X196838D01*
Y125260D01*
X197238D01*
X203537D02*
Y124861D01*
X204337D01*
Y125260D01*
X204737D01*
Y126060D01*
X204337D01*
Y126461D01*
X203537D01*
Y126060D01*
X203137D01*
Y125260D01*
X203537D01*
X204915Y127444D02*
Y127044D01*
X205715D01*
Y127444D01*
X206115D01*
Y128244D01*
X205715D01*
Y128644D01*
X204915D01*
Y128244D01*
X204515D01*
Y127444D01*
X204915D01*
X209836Y125260D02*
Y124861D01*
X210636D01*
Y125260D01*
X211036D01*
Y126060D01*
X210636D01*
Y126461D01*
X209836D01*
Y126060D01*
X209436D01*
Y125260D01*
X209836D01*
X212986Y98095D02*
Y97695D01*
X213786D01*
Y98095D01*
X214186D01*
Y98895D01*
X213786D01*
Y99295D01*
X212986D01*
Y98895D01*
X212586D01*
Y98095D01*
X212986D01*
X211214Y95357D02*
Y94957D01*
X212014D01*
Y95357D01*
X212414D01*
Y96157D01*
X212014D01*
Y96557D01*
X211214D01*
Y96157D01*
X210814D01*
Y95357D01*
X211214D01*
X219285Y98095D02*
Y97695D01*
X220085D01*
Y98095D01*
X220485D01*
Y98895D01*
X220085D01*
Y99295D01*
X219285D01*
Y98895D01*
X218885D01*
Y98095D01*
X219285D01*
X220663Y100260D02*
Y99861D01*
X221463D01*
Y100260D01*
X221863D01*
Y101060D01*
X221463D01*
Y101461D01*
X220663D01*
Y101060D01*
X220263D01*
Y100260D01*
X220663D01*
X217513Y95357D02*
Y94957D01*
X218313D01*
Y95357D01*
X218713D01*
Y96157D01*
X218313D01*
Y96557D01*
X217513D01*
Y96157D01*
X217113D01*
Y95357D01*
X217513D01*
X216135Y93174D02*
Y92774D01*
X216935D01*
Y93174D01*
X217335D01*
Y93974D01*
X216935D01*
Y94374D01*
X216135D01*
Y93974D01*
X215735D01*
Y93174D01*
X216135D01*
X214364Y100260D02*
Y99861D01*
X215164D01*
Y100260D01*
X215564D01*
Y101060D01*
X215164D01*
Y101461D01*
X214364D01*
Y101060D01*
X213964D01*
Y100260D01*
X214364D01*
X198616Y127444D02*
Y127044D01*
X199416D01*
Y127444D01*
X199816D01*
Y128244D01*
X199416D01*
Y128644D01*
X198616D01*
Y128244D01*
X198216D01*
Y127444D01*
X198616D01*
X194088Y98095D02*
Y97695D01*
X194888D01*
Y98095D01*
X195288D01*
Y98895D01*
X194888D01*
Y99295D01*
X194088D01*
Y98895D01*
X193688D01*
Y98095D01*
X194088D01*
X206687Y74768D02*
Y74368D01*
X207487D01*
Y74768D01*
X207887D01*
Y75568D01*
X207487D01*
Y75968D01*
X206687D01*
Y75568D01*
X206287D01*
Y74768D01*
X206687D01*
X209836Y69847D02*
Y69447D01*
X210636D01*
Y69847D01*
X211036D01*
Y70647D01*
X210636D01*
Y71047D01*
X209836D01*
Y70647D01*
X209436D01*
Y69847D01*
X209836D01*
X208065Y44876D02*
Y44476D01*
X208865D01*
Y44876D01*
X209265D01*
Y45676D01*
X208865D01*
Y46076D01*
X208065D01*
Y45676D01*
X207665D01*
Y44876D01*
X208065D01*
X201765D02*
Y44476D01*
X202565D01*
Y44876D01*
X202965D01*
Y45676D01*
X202565D01*
Y46076D01*
X201765D01*
Y45676D01*
X201365D01*
Y44876D01*
X201765D01*
X204915Y72031D02*
Y71631D01*
X205715D01*
Y72031D01*
X206115D01*
Y72831D01*
X205715D01*
Y73231D01*
X204915D01*
Y72831D01*
X204515D01*
Y72031D01*
X204915D01*
X200387Y74768D02*
Y74368D01*
X201187D01*
Y74768D01*
X201587D01*
Y75568D01*
X201187D01*
Y75968D01*
X200387D01*
Y75568D01*
X199987D01*
Y74768D01*
X200387D01*
X198616Y72031D02*
Y71631D01*
X199416D01*
Y72031D01*
X199816D01*
Y72831D01*
X199416D01*
Y73231D01*
X198616D01*
Y72831D01*
X198216D01*
Y72031D01*
X198616D01*
X201765Y76934D02*
Y76534D01*
X202565D01*
Y76934D01*
X202965D01*
Y77734D01*
X202565D01*
Y78134D01*
X201765D01*
Y77734D01*
X201365D01*
Y76934D01*
X201765D01*
X204915Y95357D02*
Y94957D01*
X205715D01*
Y95357D01*
X206115D01*
Y96157D01*
X205715D01*
Y96557D01*
X204915D01*
Y96157D01*
X204515D01*
Y95357D01*
X204915D01*
X212986Y42710D02*
Y42310D01*
X213786D01*
Y42710D01*
X214186D01*
Y43510D01*
X213786D01*
Y43910D01*
X212986D01*
Y43510D01*
X212586D01*
Y42710D01*
X212986D01*
X216135Y37789D02*
Y37389D01*
X216935D01*
Y37789D01*
X217335D01*
Y38589D01*
X216935D01*
Y38989D01*
X216135D01*
Y38589D01*
X215735D01*
Y37789D01*
X216135D01*
X217513Y39972D02*
Y39573D01*
X218313D01*
Y39972D01*
X218713D01*
Y40773D01*
X218313D01*
Y41173D01*
X217513D01*
Y40773D01*
X217113D01*
Y39972D01*
X217513D01*
X219285Y42710D02*
Y42310D01*
X220085D01*
Y42710D01*
X220485D01*
Y43510D01*
X220085D01*
Y43910D01*
X219285D01*
Y43510D01*
X218885D01*
Y42710D01*
X219285D01*
X214364Y44876D02*
Y44476D01*
X215164D01*
Y44876D01*
X215564D01*
Y45676D01*
X215164D01*
Y46076D01*
X214364D01*
Y45676D01*
X213964D01*
Y44876D01*
X214364D01*
X211214Y72031D02*
Y71631D01*
X212014D01*
Y72031D01*
X212414D01*
Y72831D01*
X212014D01*
Y73231D01*
X211214D01*
Y72831D01*
X210814D01*
Y72031D01*
X211214D01*
X216135Y69847D02*
Y69447D01*
X216935D01*
Y69847D01*
X217335D01*
Y70647D01*
X216935D01*
Y71047D01*
X216135D01*
Y70647D01*
X215735D01*
Y69847D01*
X216135D01*
X209836Y93174D02*
Y92774D01*
X210636D01*
Y93174D01*
X211036D01*
Y93974D01*
X210636D01*
Y94374D01*
X209836D01*
Y93974D01*
X209436D01*
Y93174D01*
X209836D01*
X208065Y76934D02*
Y76534D01*
X208865D01*
Y76934D01*
X209265D01*
Y77734D01*
X208865D01*
Y78134D01*
X208065D01*
Y77734D01*
X207665D01*
Y76934D01*
X208065D01*
X212986Y74768D02*
Y74368D01*
X213786D01*
Y74768D01*
X214186D01*
Y75568D01*
X213786D01*
Y75968D01*
X212986D01*
Y75568D01*
X212586D01*
Y74768D01*
X212986D01*
X195466Y76934D02*
Y76534D01*
X196266D01*
Y76934D01*
X196666D01*
Y77734D01*
X196266D01*
Y78134D01*
X195466D01*
Y77734D01*
X195066D01*
Y76934D01*
X195466D01*
X192316Y95357D02*
Y94957D01*
X193116D01*
Y95357D01*
X193517D01*
Y96157D01*
X193116D01*
Y96557D01*
X192316D01*
Y96157D01*
X191917D01*
Y95357D01*
X192316D01*
X189167Y100260D02*
Y99861D01*
X189967D01*
Y100260D01*
X190367D01*
Y101060D01*
X189967D01*
Y101461D01*
X189167D01*
Y101060D01*
X188767D01*
Y100260D01*
X189167D01*
X194088Y74768D02*
Y74368D01*
X194888D01*
Y74768D01*
X195288D01*
Y75568D01*
X194888D01*
Y75968D01*
X194088D01*
Y75568D01*
X193688D01*
Y74768D01*
X194088D01*
X192316Y72031D02*
Y71631D01*
X193116D01*
Y72031D01*
X193517D01*
Y72831D01*
X193116D01*
Y73231D01*
X192316D01*
Y72831D01*
X191917D01*
Y72031D01*
X192316D01*
X189167Y76934D02*
Y76534D01*
X189967D01*
Y76934D01*
X190367D01*
Y77734D01*
X189967D01*
Y78134D01*
X189167D01*
Y77734D01*
X188767D01*
Y76934D01*
X189167D01*
X187789Y74768D02*
Y74368D01*
X188589D01*
Y74768D01*
X188989D01*
Y75568D01*
X188589D01*
Y75968D01*
X187789D01*
Y75568D01*
X187389D01*
Y74768D01*
X187789D01*
X203537Y69847D02*
Y69447D01*
X204337D01*
Y69847D01*
X204737D01*
Y70647D01*
X204337D01*
Y71047D01*
X203537D01*
Y70647D01*
X203137D01*
Y69847D01*
X203537D01*
X190939Y93174D02*
Y92774D01*
X191739D01*
Y93174D01*
X192139D01*
Y93974D01*
X191739D01*
Y94374D01*
X190939D01*
Y93974D01*
X190539D01*
Y93174D01*
X190939D01*
X214364Y76934D02*
Y76534D01*
X215164D01*
Y76934D01*
X215564D01*
Y77734D01*
X215164D01*
Y78134D01*
X214364D01*
Y77734D01*
X213964D01*
Y76934D01*
X214364D01*
X197238Y69847D02*
Y69447D01*
X198038D01*
Y69847D01*
X198438D01*
Y70647D01*
X198038D01*
Y71047D01*
X197238D01*
Y70647D01*
X196838D01*
Y69847D01*
X197238D01*
X190939D02*
Y69447D01*
X191739D01*
Y69847D01*
X192139D01*
Y70647D01*
X191739D01*
Y71047D01*
X190939D01*
Y70647D01*
X190539D01*
Y69847D01*
X190939D01*
X189167Y44876D02*
Y44476D01*
X189967D01*
Y44876D01*
X190367D01*
Y45676D01*
X189967D01*
Y46076D01*
X189167D01*
Y45676D01*
X188767D01*
Y44876D01*
X189167D01*
X192316Y39972D02*
Y39573D01*
X193116D01*
Y39972D01*
X193517D01*
Y40773D01*
X193116D01*
Y41173D01*
X192316D01*
Y40773D01*
X191917D01*
Y39972D01*
X192316D01*
X197238Y37789D02*
Y37389D01*
X198038D01*
Y37789D01*
X198438D01*
Y38589D01*
X198038D01*
Y38989D01*
X197238D01*
Y38589D01*
X196838D01*
Y37789D01*
X197238D01*
X190939D02*
Y37389D01*
X191739D01*
Y37789D01*
X192139D01*
Y38589D01*
X191739D01*
Y38989D01*
X190939D01*
Y38589D01*
X190539D01*
Y37789D01*
X190939D01*
X198616Y39972D02*
Y39573D01*
X199416D01*
Y39972D01*
X199816D01*
Y40773D01*
X199416D01*
Y41173D01*
X198616D01*
Y40773D01*
X198216D01*
Y39972D01*
X198616D01*
X195466Y44876D02*
Y44476D01*
X196266D01*
Y44876D01*
X196666D01*
Y45676D01*
X196266D01*
Y46076D01*
X195466D01*
Y45676D01*
X195066D01*
Y44876D01*
X195466D01*
X187789Y42710D02*
Y42310D01*
X188589D01*
Y42710D01*
X188989D01*
Y43510D01*
X188589D01*
Y43910D01*
X187789D01*
Y43510D01*
X187389D01*
Y42710D01*
X187789D01*
X206687Y98095D02*
Y97695D01*
X207487D01*
Y98095D01*
X207887D01*
Y98895D01*
X207487D01*
Y99295D01*
X206687D01*
Y98895D01*
X206287D01*
Y98095D01*
X206687D01*
X208065Y100260D02*
Y99861D01*
X208865D01*
Y100260D01*
X209265D01*
Y101060D01*
X208865D01*
Y101461D01*
X208065D01*
Y101060D01*
X207665D01*
Y100260D01*
X208065D01*
X216135Y125260D02*
Y124861D01*
X216935D01*
Y125260D01*
X217335D01*
Y126060D01*
X216935D01*
Y126461D01*
X216135D01*
Y126060D01*
X215735D01*
Y125260D01*
X216135D01*
X217513Y127444D02*
Y127044D01*
X218313D01*
Y127444D01*
X218713D01*
Y128244D01*
X218313D01*
Y128644D01*
X217513D01*
Y128244D01*
X217113D01*
Y127444D01*
X217513D01*
X219285Y130182D02*
Y129782D01*
X220085D01*
Y130182D01*
X220485D01*
Y130982D01*
X220085D01*
Y131382D01*
X219285D01*
Y130982D01*
X218885D01*
Y130182D01*
X219285D01*
X212986D02*
Y129782D01*
X213786D01*
Y130182D01*
X214186D01*
Y130982D01*
X213786D01*
Y131382D01*
X212986D01*
Y130982D01*
X212586D01*
Y130182D01*
X212986D01*
X214364Y132347D02*
Y131947D01*
X215164D01*
Y132347D01*
X215564D01*
Y133147D01*
X215164D01*
Y133547D01*
X214364D01*
Y133147D01*
X213964D01*
Y132347D01*
X214364D01*
X211214Y127444D02*
Y127044D01*
X212014D01*
Y127444D01*
X212414D01*
Y128244D01*
X212014D01*
Y128644D01*
X211214D01*
Y128244D01*
X210814D01*
Y127444D01*
X211214D01*
X122927Y113576D02*
Y113176D01*
X123727D01*
Y113576D01*
X124127D01*
Y114376D01*
X123727D01*
Y114776D01*
X122927D01*
Y114376D01*
X122527D01*
Y113576D01*
X122927D01*
X172148Y125295D02*
Y124895D01*
X172948D01*
Y125295D01*
X173348D01*
Y126095D01*
X172948D01*
Y126495D01*
X172148D01*
Y126095D01*
X171748D01*
Y125295D01*
X172148D01*
X170269Y100260D02*
Y99861D01*
X171069D01*
Y100260D01*
X171469D01*
Y101060D01*
X171069D01*
Y101461D01*
X170269D01*
Y101060D01*
X169869D01*
Y100260D01*
X170269D01*
X206687Y42710D02*
Y42310D01*
X207487D01*
Y42710D01*
X207887D01*
Y43510D01*
X207487D01*
Y43910D01*
X206687D01*
Y43510D01*
X206287D01*
Y42710D01*
X206687D01*
X209836Y37789D02*
Y37389D01*
X210636D01*
Y37789D01*
X211036D01*
Y38589D01*
X210636D01*
Y38989D01*
X209836D01*
Y38589D01*
X209436D01*
Y37789D01*
X209836D01*
X162592Y98095D02*
Y97695D01*
X163392D01*
Y98095D01*
X163792D01*
Y98895D01*
X163392D01*
Y99295D01*
X162592D01*
Y98895D01*
X162192D01*
Y98095D01*
X162592D01*
X187789D02*
Y97695D01*
X188589D01*
Y98095D01*
X188989D01*
Y98895D01*
X188589D01*
Y99295D01*
X187789D01*
Y98895D01*
X187389D01*
Y98095D01*
X187789D01*
X208065Y132347D02*
Y131947D01*
X208865D01*
Y132347D01*
X209265D01*
Y133147D01*
X208865D01*
Y133547D01*
X208065D01*
Y133147D01*
X207665D01*
Y132347D01*
X208065D01*
X204915Y150771D02*
Y150371D01*
X205715D01*
Y150771D01*
X206115D01*
Y151571D01*
X205715D01*
Y151971D01*
X204915D01*
Y151571D01*
X204515D01*
Y150771D01*
X204915D01*
X206687Y130182D02*
Y129782D01*
X207487D01*
Y130182D01*
X207887D01*
Y130982D01*
X207487D01*
Y131382D01*
X206687D01*
Y130982D01*
X206287D01*
Y130182D01*
X206687D01*
X168891Y98095D02*
Y97695D01*
X169691D01*
Y98095D01*
X170091D01*
Y98895D01*
X169691D01*
Y99295D01*
X168891D01*
Y98895D01*
X168491D01*
Y98095D01*
X168891D01*
X173419Y95357D02*
Y94957D01*
X174219D01*
Y95357D01*
X174619D01*
Y96157D01*
X174219D01*
Y96557D01*
X173419D01*
Y96157D01*
X173019D01*
Y95357D01*
X173419D01*
X149994Y98095D02*
Y97695D01*
X150794D01*
Y98095D01*
X151194D01*
Y98895D01*
X150794D01*
Y99295D01*
X149994D01*
Y98895D01*
X149594D01*
Y98095D01*
X149994D01*
X154521Y95357D02*
Y94957D01*
X155321D01*
Y95357D01*
X155721D01*
Y96157D01*
X155321D01*
Y96557D01*
X154521D01*
Y96157D01*
X154121D01*
Y95357D01*
X154521D01*
X143694Y98095D02*
Y97695D01*
X144494D01*
Y98095D01*
X144895D01*
Y98895D01*
X144494D01*
Y99295D01*
X143694D01*
Y98895D01*
X143295D01*
Y98095D01*
X143694D01*
X201765Y132347D02*
Y131947D01*
X202565D01*
Y132347D01*
X202965D01*
Y133147D01*
X202565D01*
Y133547D01*
X201765D01*
Y133147D01*
X201365D01*
Y132347D01*
X201765D01*
X198616Y150771D02*
Y150371D01*
X199416D01*
Y150771D01*
X199816D01*
Y151571D01*
X199416D01*
Y151971D01*
X198616D01*
Y151571D01*
X198216D01*
Y150771D01*
X198616D01*
X179718Y72031D02*
Y71631D01*
X180518D01*
Y72031D01*
X180918D01*
Y72831D01*
X180518D01*
Y73231D01*
X179718D01*
Y72831D01*
X179318D01*
Y72031D01*
X179718D01*
X178340Y69847D02*
Y69447D01*
X179140D01*
Y69847D01*
X179540D01*
Y70647D01*
X179140D01*
Y71047D01*
X178340D01*
Y70647D01*
X177940D01*
Y69847D01*
X178340D01*
X154521Y39972D02*
Y39573D01*
X155321D01*
Y39972D01*
X155721D01*
Y40773D01*
X155321D01*
Y41173D01*
X154521D01*
Y40773D01*
X154121D01*
Y39972D01*
X154521D01*
X153143Y37789D02*
Y37389D01*
X153943D01*
Y37789D01*
X154343D01*
Y38589D01*
X153943D01*
Y38989D01*
X153143D01*
Y38589D01*
X152743D01*
Y37789D01*
X153143D01*
X159442D02*
Y37389D01*
X160242D01*
Y37789D01*
X160643D01*
Y38589D01*
X160242D01*
Y38989D01*
X159442D01*
Y38589D01*
X159043D01*
Y37789D01*
X159442D01*
X168891Y42710D02*
Y42310D01*
X169691D01*
Y42710D01*
X170091D01*
Y43510D01*
X169691D01*
Y43910D01*
X168891D01*
Y43510D01*
X168491D01*
Y42710D01*
X168891D01*
X194088D02*
Y42310D01*
X194888D01*
Y42710D01*
X195288D01*
Y43510D01*
X194888D01*
Y43910D01*
X194088D01*
Y43510D01*
X193688D01*
Y42710D01*
X194088D01*
X145072Y44876D02*
Y44476D01*
X145872D01*
Y44876D01*
X146272D01*
Y45676D01*
X145872D01*
Y46076D01*
X145072D01*
Y45676D01*
X144672D01*
Y44876D01*
X145072D01*
X178340Y37789D02*
Y37389D01*
X179140D01*
Y37789D01*
X179540D01*
Y38589D01*
X179140D01*
Y38989D01*
X178340D01*
Y38589D01*
X177940D01*
Y37789D01*
X178340D01*
X187789Y19384D02*
Y18983D01*
X188589D01*
Y19384D01*
X188989D01*
Y20184D01*
X188589D01*
Y20583D01*
X187789D01*
Y20184D01*
X187389D01*
Y19384D01*
X187789D01*
X200387Y42710D02*
Y42310D01*
X201187D01*
Y42710D01*
X201587D01*
Y43510D01*
X201187D01*
Y43910D01*
X200387D01*
Y43510D01*
X199987D01*
Y42710D01*
X200387D01*
X173419Y39972D02*
Y39573D01*
X174219D01*
Y39972D01*
X174619D01*
Y40773D01*
X174219D01*
Y41173D01*
X173419D01*
Y40773D01*
X173019D01*
Y39972D01*
X173419D01*
X194088Y19384D02*
Y18983D01*
X194888D01*
Y19384D01*
X195288D01*
Y20184D01*
X194888D01*
Y20583D01*
X194088D01*
Y20184D01*
X193688D01*
Y19384D01*
X194088D01*
X143694D02*
Y18983D01*
X144494D01*
Y19384D01*
X144895D01*
Y20184D01*
X144494D01*
Y20583D01*
X143694D01*
Y20184D01*
X143295D01*
Y19384D01*
X143694D01*
X97730Y78931D02*
Y78531D01*
X98530D01*
Y78931D01*
X98930D01*
Y79731D01*
X98530D01*
Y80131D01*
X97730D01*
Y79731D01*
X97330D01*
Y78931D01*
X97730D01*
X100880D02*
Y78531D01*
X101680D01*
Y78931D01*
X102079D01*
Y79731D01*
X101680D01*
Y80131D01*
X100880D01*
Y79731D01*
X100479D01*
Y78931D01*
X100880D01*
X104029Y82080D02*
Y81680D01*
X104829D01*
Y82080D01*
X105229D01*
Y82880D01*
X104829D01*
Y83280D01*
X104029D01*
Y82880D01*
X103629D01*
Y82080D01*
X104029D01*
X116628Y56884D02*
Y56484D01*
X117428D01*
Y56884D01*
X117828D01*
Y57683D01*
X117428D01*
Y58083D01*
X116628D01*
Y57683D01*
X116228D01*
Y56884D01*
X116628D01*
X119777D02*
Y56484D01*
X120577D01*
Y56884D01*
X120977D01*
Y57683D01*
X120577D01*
Y58083D01*
X119777D01*
Y57683D01*
X119377D01*
Y56884D01*
X119777D01*
X107179Y66332D02*
Y65932D01*
X107979D01*
Y66332D01*
X108379D01*
Y67132D01*
X107979D01*
Y67532D01*
X107179D01*
Y67132D01*
X106779D01*
Y66332D01*
X107179D01*
X219285Y74768D02*
Y74368D01*
X220085D01*
Y74768D01*
X220485D01*
Y75568D01*
X220085D01*
Y75968D01*
X219285D01*
Y75568D01*
X218885D01*
Y74768D01*
X219285D01*
X220663Y76934D02*
Y76534D01*
X221463D01*
Y76934D01*
X221863D01*
Y77734D01*
X221463D01*
Y78134D01*
X220663D01*
Y77734D01*
X220263D01*
Y76934D01*
X220663D01*
Y44876D02*
Y44476D01*
X221463D01*
Y44876D01*
X221863D01*
Y45676D01*
X221463D01*
Y46076D01*
X220663D01*
Y45676D01*
X220263D01*
Y44876D01*
X220663D01*
X172148Y69879D02*
Y69479D01*
X172948D01*
Y69879D01*
X173348D01*
Y70679D01*
X172948D01*
Y71079D01*
X172148D01*
Y70679D01*
X171748D01*
Y69879D01*
X172148D01*
X204915Y39972D02*
Y39573D01*
X205715D01*
Y39972D01*
X206115D01*
Y40773D01*
X205715D01*
Y41173D01*
X204915D01*
Y40773D01*
X204515D01*
Y39972D01*
X204915D01*
X203537Y37789D02*
Y37389D01*
X204337D01*
Y37789D01*
X204737D01*
Y38589D01*
X204337D01*
Y38989D01*
X203537D01*
Y38589D01*
X203137D01*
Y37789D01*
X203537D01*
X208065Y155674D02*
Y155274D01*
X208865D01*
Y155674D01*
X209265D01*
Y156474D01*
X208865D01*
Y156874D01*
X208065D01*
Y156474D01*
X207665D01*
Y155674D01*
X208065D01*
X201765D02*
Y155274D01*
X202565D01*
Y155674D01*
X202965D01*
Y156474D01*
X202565D01*
Y156874D01*
X201765D01*
Y156474D01*
X201365D01*
Y155674D01*
X201765D01*
X211214Y150771D02*
Y150371D01*
X212014D01*
Y150771D01*
X212414D01*
Y151571D01*
X212014D01*
Y151971D01*
X211214D01*
Y151571D01*
X210814D01*
Y150771D01*
X211214D01*
X214364Y155674D02*
Y155274D01*
X215164D01*
Y155674D01*
X215564D01*
Y156474D01*
X215164D01*
Y156874D01*
X214364D01*
Y156474D01*
X213964D01*
Y155674D01*
X214364D01*
X192316Y150771D02*
Y150371D01*
X193116D01*
Y150771D01*
X193517D01*
Y151571D01*
X193116D01*
Y151971D01*
X192316D01*
Y151571D01*
X191917D01*
Y150771D01*
X192316D01*
X195466Y155674D02*
Y155274D01*
X196266D01*
Y155674D01*
X196666D01*
Y156474D01*
X196266D01*
Y156874D01*
X195466D01*
Y156474D01*
X195066D01*
Y155674D01*
X195466D01*
X189167D02*
Y155274D01*
X189967D01*
Y155674D01*
X190367D01*
Y156474D01*
X189967D01*
Y156874D01*
X189167D01*
Y156474D01*
X188767D01*
Y155674D01*
X189167D01*
X173419Y150771D02*
Y150371D01*
X174219D01*
Y150771D01*
X174619D01*
Y151571D01*
X174219D01*
Y151971D01*
X173419D01*
Y151571D01*
X173019D01*
Y150771D01*
X173419D01*
X179718D02*
Y150371D01*
X180518D01*
Y150771D01*
X180918D01*
Y151571D01*
X180518D01*
Y151971D01*
X179718D01*
Y151571D01*
X179318D01*
Y150771D01*
X179718D01*
X189167Y132347D02*
Y131947D01*
X189967D01*
Y132347D01*
X190367D01*
Y133147D01*
X189967D01*
Y133547D01*
X189167D01*
Y133147D01*
X188767D01*
Y132347D01*
X189167D01*
X194088Y130182D02*
Y129782D01*
X194888D01*
Y130182D01*
X195288D01*
Y130982D01*
X194888D01*
Y131382D01*
X194088D01*
Y130982D01*
X193688D01*
Y130182D01*
X194088D01*
X190939Y125260D02*
Y124861D01*
X191739D01*
Y125260D01*
X192139D01*
Y126060D01*
X191739D01*
Y126461D01*
X190939D01*
Y126060D01*
X190539D01*
Y125260D01*
X190939D01*
X160820Y150771D02*
Y150371D01*
X161620D01*
Y150771D01*
X162021D01*
Y151571D01*
X161620D01*
Y151971D01*
X160820D01*
Y151571D01*
X160421D01*
Y150771D01*
X160820D01*
X151372Y155674D02*
Y155274D01*
X152172D01*
Y155674D01*
X152572D01*
Y156474D01*
X152172D01*
Y156874D01*
X151372D01*
Y156474D01*
X150972D01*
Y155674D01*
X151372D01*
X145072D02*
Y155274D01*
X145872D01*
Y155674D01*
X146272D01*
Y156474D01*
X145872D01*
Y156874D01*
X145072D01*
Y156474D01*
X144672D01*
Y155674D01*
X145072D01*
X220663Y132347D02*
Y131947D01*
X221463D01*
Y132347D01*
X221863D01*
Y133147D01*
X221463D01*
Y133547D01*
X220663D01*
Y133147D01*
X220263D01*
Y132347D01*
X220663D01*
X200387Y130182D02*
Y129782D01*
X201187D01*
Y130182D01*
X201587D01*
Y130982D01*
X201187D01*
Y131382D01*
X200387D01*
Y130982D01*
X199987D01*
Y130182D01*
X200387D01*
X192316Y127444D02*
Y127044D01*
X193116D01*
Y127444D01*
X193517D01*
Y128244D01*
X193116D01*
Y128644D01*
X192316D01*
Y128244D01*
X191917D01*
Y127444D01*
X192316D01*
X195466Y132347D02*
Y131947D01*
X196266D01*
Y132347D01*
X196666D01*
Y133147D01*
X196266D01*
Y133547D01*
X195466D01*
Y133147D01*
X195066D01*
Y132347D01*
X195466D01*
X187789Y130182D02*
Y129782D01*
X188589D01*
Y130182D01*
X188989D01*
Y130982D01*
X188589D01*
Y131382D01*
X187789D01*
Y130982D01*
X187389D01*
Y130182D01*
X187789D01*
X184639Y125260D02*
Y124861D01*
X185439D01*
Y125260D01*
X185839D01*
Y126060D01*
X185439D01*
Y126461D01*
X184639D01*
Y126060D01*
X184239D01*
Y125260D01*
X184639D01*
X217513Y150771D02*
Y150371D01*
X218313D01*
Y150771D01*
X218713D01*
Y151571D01*
X218313D01*
Y151971D01*
X217513D01*
Y151571D01*
X217113D01*
Y150771D01*
X217513D01*
X220663Y155674D02*
Y155274D01*
X221463D01*
Y155674D01*
X221863D01*
Y156474D01*
X221463D01*
Y156874D01*
X220663D01*
Y156474D01*
X220263D01*
Y155674D01*
X220663D01*
X172041Y93174D02*
Y92774D01*
X172841D01*
Y93174D01*
X173241D01*
Y93974D01*
X172841D01*
Y94374D01*
X172041D01*
Y93974D01*
X171641D01*
Y93174D01*
X172041D01*
X178340D02*
Y92774D01*
X179140D01*
Y93174D01*
X179540D01*
Y93974D01*
X179140D01*
Y94374D01*
X178340D01*
Y93974D01*
X177940D01*
Y93174D01*
X178340D01*
X179718Y95357D02*
Y94957D01*
X180518D01*
Y95357D01*
X180918D01*
Y96157D01*
X180518D01*
Y96557D01*
X179718D01*
Y96157D01*
X179318D01*
Y95357D01*
X179718D01*
X173419Y72031D02*
Y71631D01*
X174219D01*
Y72031D01*
X174619D01*
Y72831D01*
X174219D01*
Y73231D01*
X173419D01*
Y72831D01*
X173019D01*
Y72031D01*
X173419D01*
X163970Y100260D02*
Y99861D01*
X164770D01*
Y100260D01*
X165170D01*
Y101060D01*
X164770D01*
Y101461D01*
X163970D01*
Y101060D01*
X163570D01*
Y100260D01*
X163970D01*
X160820Y95357D02*
Y94957D01*
X161620D01*
Y95357D01*
X162021D01*
Y96157D01*
X161620D01*
Y96557D01*
X160820D01*
Y96157D01*
X160421D01*
Y95357D01*
X160820D01*
X151372Y100260D02*
Y99861D01*
X152172D01*
Y100260D01*
X152572D01*
Y101060D01*
X152172D01*
Y101461D01*
X151372D01*
Y101060D01*
X150972D01*
Y100260D01*
X151372D01*
X153143Y93174D02*
Y92774D01*
X153943D01*
Y93174D01*
X154343D01*
Y93974D01*
X153943D01*
Y94374D01*
X153143D01*
Y93974D01*
X152743D01*
Y93174D01*
X153143D01*
X149994Y74768D02*
Y74368D01*
X150794D01*
Y74768D01*
X151194D01*
Y75568D01*
X150794D01*
Y75968D01*
X149994D01*
Y75568D01*
X149594D01*
Y74768D01*
X149994D01*
X151372Y76934D02*
Y76534D01*
X152172D01*
Y76934D01*
X152572D01*
Y77734D01*
X152172D01*
Y78134D01*
X151372D01*
Y77734D01*
X150972D01*
Y76934D01*
X151372D01*
X168891Y74768D02*
Y74368D01*
X169691D01*
Y74768D01*
X170091D01*
Y75568D01*
X169691D01*
Y75968D01*
X168891D01*
Y75568D01*
X168491D01*
Y74768D01*
X168891D01*
X170269Y76934D02*
Y76534D01*
X171069D01*
Y76934D01*
X171469D01*
Y77734D01*
X171069D01*
Y78134D01*
X170269D01*
Y77734D01*
X169869D01*
Y76934D01*
X170269D01*
X145072Y100260D02*
Y99861D01*
X145872D01*
Y100260D01*
X146272D01*
Y101060D01*
X145872D01*
Y101461D01*
X145072D01*
Y101060D01*
X144672D01*
Y100260D01*
X145072D01*
X143694Y74768D02*
Y74368D01*
X144494D01*
Y74768D01*
X144895D01*
Y75568D01*
X144494D01*
Y75968D01*
X143694D01*
Y75568D01*
X143295D01*
Y74768D01*
X143694D01*
X145072Y76934D02*
Y76534D01*
X145872D01*
Y76934D01*
X146272D01*
Y77734D01*
X145872D01*
Y78134D01*
X145072D01*
Y77734D01*
X144672D01*
Y76934D01*
X145072D01*
X217513Y72031D02*
Y71631D01*
X218313D01*
Y72031D01*
X218713D01*
Y72831D01*
X218313D01*
Y73231D01*
X217513D01*
Y72831D01*
X217113D01*
Y72031D01*
X217513D01*
X184639Y69847D02*
Y69447D01*
X185439D01*
Y69847D01*
X185839D01*
Y70647D01*
X185439D01*
Y71047D01*
X184639D01*
Y70647D01*
X184239D01*
Y69847D01*
X184639D01*
Y14462D02*
Y14062D01*
X185439D01*
Y14462D01*
X185839D01*
Y15262D01*
X185439D01*
Y15662D01*
X184639D01*
Y15262D01*
X184239D01*
Y14462D01*
X184639D01*
X168891Y19384D02*
Y18983D01*
X169691D01*
Y19384D01*
X170091D01*
Y20184D01*
X169691D01*
Y20583D01*
X168891D01*
Y20184D01*
X168491D01*
Y19384D01*
X168891D01*
X162592D02*
Y18983D01*
X163392D01*
Y19384D01*
X163792D01*
Y20184D01*
X163392D01*
Y20583D01*
X162592D01*
Y20184D01*
X162192D01*
Y19384D01*
X162592D01*
X159442Y14462D02*
Y14062D01*
X160242D01*
Y14462D01*
X160643D01*
Y15262D01*
X160242D01*
Y15662D01*
X159442D01*
Y15262D01*
X159043D01*
Y14462D01*
X159442D01*
X149994Y19384D02*
Y18983D01*
X150794D01*
Y19384D01*
X151194D01*
Y20184D01*
X150794D01*
Y20583D01*
X149994D01*
Y20184D01*
X149594D01*
Y19384D01*
X149994D01*
X153143Y14462D02*
Y14062D01*
X153943D01*
Y14462D01*
X154343D01*
Y15262D01*
X153943D01*
Y15662D01*
X153143D01*
Y15262D01*
X152743D01*
Y14462D01*
X153143D01*
X170269Y44876D02*
Y44476D01*
X171069D01*
Y44876D01*
X171469D01*
Y45676D01*
X171069D01*
Y46076D01*
X170269D01*
Y45676D01*
X169869D01*
Y44876D01*
X170269D01*
X190939Y14462D02*
Y14062D01*
X191739D01*
Y14462D01*
X192139D01*
Y15262D01*
X191739D01*
Y15662D01*
X190939D01*
Y15262D01*
X190539D01*
Y14462D01*
X190939D01*
X172041D02*
Y14062D01*
X172841D01*
Y14462D01*
X173241D01*
Y15262D01*
X172841D01*
Y15662D01*
X172041D01*
Y15262D01*
X171641D01*
Y14462D01*
X172041D01*
X178340D02*
Y14062D01*
X179140D01*
Y14462D01*
X179540D01*
Y15262D01*
X179140D01*
Y15662D01*
X178340D01*
Y15262D01*
X177940D01*
Y14462D01*
X178340D01*
X179718Y39972D02*
Y39573D01*
X180518D01*
Y39972D01*
X180918D01*
Y40773D01*
X180518D01*
Y41173D01*
X179718D01*
Y40773D01*
X179318D01*
Y39972D01*
X179718D01*
X172041Y37789D02*
Y37389D01*
X172841D01*
Y37789D01*
X173241D01*
Y38589D01*
X172841D01*
Y38989D01*
X172041D01*
Y38589D01*
X171641D01*
Y37789D01*
X172041D01*
X184639D02*
Y37389D01*
X185439D01*
Y37789D01*
X185839D01*
Y38589D01*
X185439D01*
Y38989D01*
X184639D01*
Y38589D01*
X184239D01*
Y37789D01*
X184639D01*
X197238Y14462D02*
Y14062D01*
X198038D01*
Y14462D01*
X198438D01*
Y15262D01*
X198038D01*
Y15662D01*
X197238D01*
Y15262D01*
X196838D01*
Y14462D01*
X197238D01*
X126076Y110427D02*
Y110027D01*
X126876D01*
Y110427D01*
X127276D01*
Y111227D01*
X126876D01*
Y111627D01*
X126076D01*
Y111227D01*
X125676D01*
Y110427D01*
X126076D01*
Y107277D02*
Y106877D01*
X126876D01*
Y107277D01*
X127276D01*
Y108077D01*
X126876D01*
Y108477D01*
X126076D01*
Y108077D01*
X125676D01*
Y107277D01*
X126076D01*
X119777Y97828D02*
Y97428D01*
X120577D01*
Y97828D01*
X120977D01*
Y98628D01*
X120577D01*
Y99028D01*
X119777D01*
Y98628D01*
X119377D01*
Y97828D01*
X119777D01*
X110328Y113576D02*
Y113176D01*
X111128D01*
Y113576D01*
X111528D01*
Y114376D01*
X111128D01*
Y114776D01*
X110328D01*
Y114376D01*
X109928D01*
Y113576D01*
X110328D01*
X116628Y75781D02*
Y75381D01*
X117428D01*
Y75781D01*
X117828D01*
Y76581D01*
X117428D01*
Y76981D01*
X116628D01*
Y76581D01*
X116228D01*
Y75781D01*
X116628D01*
X91431Y94679D02*
Y94279D01*
X92231D01*
Y94679D01*
X92631D01*
Y95479D01*
X92231D01*
Y95879D01*
X91431D01*
Y95479D01*
X91031D01*
Y94679D01*
X91431D01*
Y82080D02*
Y81680D01*
X92231D01*
Y82080D01*
X92631D01*
Y82880D01*
X92231D01*
Y83280D01*
X91431D01*
Y82880D01*
X91031D01*
Y82080D01*
X91431D01*
X97730D02*
Y81680D01*
X98530D01*
Y82080D01*
X98930D01*
Y82880D01*
X98530D01*
Y83280D01*
X97730D01*
Y82880D01*
X97330D01*
Y82080D01*
X97730D01*
X91431Y78931D02*
Y78531D01*
X92231D01*
Y78931D01*
X92631D01*
Y79731D01*
X92231D01*
Y80131D01*
X91431D01*
Y79731D01*
X91031D01*
Y78931D01*
X91431D01*
X88281Y82080D02*
Y81680D01*
X89081D01*
Y82080D01*
X89481D01*
Y82880D01*
X89081D01*
Y83280D01*
X88281D01*
Y82880D01*
X87881D01*
Y82080D01*
X88281D01*
X100880D02*
Y81680D01*
X101680D01*
Y82080D01*
X102079D01*
Y82880D01*
X101680D01*
Y83280D01*
X100880D01*
Y82880D01*
X100479D01*
Y82080D01*
X100880D01*
X88281Y88380D02*
Y87980D01*
X89081D01*
Y88380D01*
X89481D01*
Y89179D01*
X89081D01*
Y89579D01*
X88281D01*
Y89179D01*
X87881D01*
Y88380D01*
X88281D01*
X91431Y91529D02*
Y91129D01*
X92231D01*
Y91529D01*
X92631D01*
Y92329D01*
X92231D01*
Y92729D01*
X91431D01*
Y92329D01*
X91031D01*
Y91529D01*
X91431D01*
X97730D02*
Y91129D01*
X98530D01*
Y91529D01*
X98930D01*
Y92329D01*
X98530D01*
Y92729D01*
X97730D01*
Y92329D01*
X97330D01*
Y91529D01*
X97730D01*
X88281Y78931D02*
Y78531D01*
X89081D01*
Y78931D01*
X89481D01*
Y79731D01*
X89081D01*
Y80131D01*
X88281D01*
Y79731D01*
X87881D01*
Y78931D01*
X88281D01*
Y91529D02*
Y91129D01*
X89081D01*
Y91529D01*
X89481D01*
Y92329D01*
X89081D01*
Y92729D01*
X88281D01*
Y92329D01*
X87881D01*
Y91529D01*
X88281D01*
X91431Y75781D02*
Y75381D01*
X92231D01*
Y75781D01*
X92631D01*
Y76581D01*
X92231D01*
Y76981D01*
X91431D01*
Y76581D01*
X91031D01*
Y75781D01*
X91431D01*
X97730D02*
Y75381D01*
X98530D01*
Y75781D01*
X98930D01*
Y76581D01*
X98530D01*
Y76981D01*
X97730D01*
Y76581D01*
X97330D01*
Y75781D01*
X97730D01*
X85132Y82080D02*
Y81680D01*
X85931D01*
Y82080D01*
X86331D01*
Y82880D01*
X85931D01*
Y83280D01*
X85132D01*
Y82880D01*
X84732D01*
Y82080D01*
X85132D01*
Y88380D02*
Y87980D01*
X85931D01*
Y88380D01*
X86331D01*
Y89179D01*
X85931D01*
Y89579D01*
X85132D01*
Y89179D01*
X84732D01*
Y88380D01*
X85132D01*
X104029D02*
Y87980D01*
X104829D01*
Y88380D01*
X105229D01*
Y89179D01*
X104829D01*
Y89579D01*
X104029D01*
Y89179D01*
X103629D01*
Y88380D01*
X104029D01*
X97730Y94679D02*
Y94279D01*
X98530D01*
Y94679D01*
X98930D01*
Y95479D01*
X98530D01*
Y95879D01*
X97730D01*
Y95479D01*
X97330D01*
Y94679D01*
X97730D01*
X88281Y75781D02*
Y75381D01*
X89081D01*
Y75781D01*
X89481D01*
Y76581D01*
X89081D01*
Y76981D01*
X88281D01*
Y76581D01*
X87881D01*
Y75781D01*
X88281D01*
X100880D02*
Y75381D01*
X101680D01*
Y75781D01*
X102079D01*
Y76581D01*
X101680D01*
Y76981D01*
X100880D01*
Y76581D01*
X100479D01*
Y75781D01*
X100880D01*
X85132Y78931D02*
Y78531D01*
X85931D01*
Y78931D01*
X86331D01*
Y79731D01*
X85931D01*
Y80131D01*
X85132D01*
Y79731D01*
X84732D01*
Y78931D01*
X85132D01*
X104029D02*
Y78531D01*
X104829D01*
Y78931D01*
X105229D01*
Y79731D01*
X104829D01*
Y80131D01*
X104029D01*
Y79731D01*
X103629D01*
Y78931D01*
X104029D01*
X85132Y91529D02*
Y91129D01*
X85931D01*
Y91529D01*
X86331D01*
Y92329D01*
X85931D01*
Y92729D01*
X85132D01*
Y92329D01*
X84732D01*
Y91529D01*
X85132D01*
X104029D02*
Y91129D01*
X104829D01*
Y91529D01*
X105229D01*
Y92329D01*
X104829D01*
Y92729D01*
X104029D01*
Y92329D01*
X103629D01*
Y91529D01*
X104029D01*
X88281Y94679D02*
Y94279D01*
X89081D01*
Y94679D01*
X89481D01*
Y95479D01*
X89081D01*
Y95879D01*
X88281D01*
Y95479D01*
X87881D01*
Y94679D01*
X88281D01*
X85132Y75781D02*
Y75381D01*
X85931D01*
Y75781D01*
X86331D01*
Y76581D01*
X85931D01*
Y76981D01*
X85132D01*
Y76581D01*
X84732D01*
Y75781D01*
X85132D01*
X104029D02*
Y75381D01*
X104829D01*
Y75781D01*
X105229D01*
Y76581D01*
X104829D01*
Y76981D01*
X104029D01*
Y76581D01*
X103629D01*
Y75781D01*
X104029D01*
X81982Y82080D02*
Y81680D01*
X82782D01*
Y82080D01*
X83182D01*
Y82880D01*
X82782D01*
Y83280D01*
X81982D01*
Y82880D01*
X81582D01*
Y82080D01*
X81982D01*
X107179D02*
Y81680D01*
X107979D01*
Y82080D01*
X108379D01*
Y82880D01*
X107979D01*
Y83280D01*
X107179D01*
Y82880D01*
X106779D01*
Y82080D01*
X107179D01*
X81982Y88380D02*
Y87980D01*
X82782D01*
Y88380D01*
X83182D01*
Y89179D01*
X82782D01*
Y89579D01*
X81982D01*
Y89179D01*
X81582D01*
Y88380D01*
X81982D01*
X85132Y94679D02*
Y94279D01*
X85931D01*
Y94679D01*
X86331D01*
Y95479D01*
X85931D01*
Y95879D01*
X85132D01*
Y95479D01*
X84732D01*
Y94679D01*
X85132D01*
X97730Y97828D02*
Y97428D01*
X98530D01*
Y97828D01*
X98930D01*
Y98628D01*
X98530D01*
Y99028D01*
X97730D01*
Y98628D01*
X97330D01*
Y97828D01*
X97730D01*
X88281Y72632D02*
Y72232D01*
X89081D01*
Y72632D01*
X89481D01*
Y73431D01*
X89081D01*
Y73831D01*
X88281D01*
Y73431D01*
X87881D01*
Y72632D01*
X88281D01*
X81982Y78931D02*
Y78531D01*
X82782D01*
Y78931D01*
X83182D01*
Y79731D01*
X82782D01*
Y80131D01*
X81982D01*
Y79731D01*
X81582D01*
Y78931D01*
X81982D01*
X107179D02*
Y78531D01*
X107979D01*
Y78931D01*
X108379D01*
Y79731D01*
X107979D01*
Y80131D01*
X107179D01*
Y79731D01*
X106779D01*
Y78931D01*
X107179D01*
X81982Y91529D02*
Y91129D01*
X82782D01*
Y91529D01*
X83182D01*
Y92329D01*
X82782D01*
Y92729D01*
X81982D01*
Y92329D01*
X81582D01*
Y91529D01*
X81982D01*
X107179D02*
Y91129D01*
X107979D01*
Y91529D01*
X108379D01*
Y92329D01*
X107979D01*
Y92729D01*
X107179D01*
Y92329D01*
X106779D01*
Y91529D01*
X107179D01*
X88281Y97828D02*
Y97428D01*
X89081D01*
Y97828D01*
X89481D01*
Y98628D01*
X89081D01*
Y99028D01*
X88281D01*
Y98628D01*
X87881D01*
Y97828D01*
X88281D01*
X104029Y72632D02*
Y72232D01*
X104829D01*
Y72632D01*
X105229D01*
Y73431D01*
X104829D01*
Y73831D01*
X104029D01*
Y73431D01*
X103629D01*
Y72632D01*
X104029D01*
X107179Y75781D02*
Y75381D01*
X107979D01*
Y75781D01*
X108379D01*
Y76581D01*
X107979D01*
Y76981D01*
X107179D01*
Y76581D01*
X106779D01*
Y75781D01*
X107179D01*
X85132Y97828D02*
Y97428D01*
X85931D01*
Y97828D01*
X86331D01*
Y98628D01*
X85931D01*
Y99028D01*
X85132D01*
Y98628D01*
X84732D01*
Y97828D01*
X85132D01*
X104029D02*
Y97428D01*
X104829D01*
Y97828D01*
X105229D01*
Y98628D01*
X104829D01*
Y99028D01*
X104029D01*
Y98628D01*
X103629D01*
Y97828D01*
X104029D01*
X110328Y82080D02*
Y81680D01*
X111128D01*
Y82080D01*
X111528D01*
Y82880D01*
X111128D01*
Y83280D01*
X110328D01*
Y82880D01*
X109928D01*
Y82080D01*
X110328D01*
Y78931D02*
Y78531D01*
X111128D01*
Y78931D01*
X111528D01*
Y79731D01*
X111128D01*
Y80131D01*
X110328D01*
Y79731D01*
X109928D01*
Y78931D01*
X110328D01*
Y91529D02*
Y91129D01*
X111128D01*
Y91529D01*
X111528D01*
Y92329D01*
X111128D01*
Y92729D01*
X110328D01*
Y92329D01*
X109928D01*
Y91529D01*
X110328D01*
X107179Y72632D02*
Y72232D01*
X107979D01*
Y72632D01*
X108379D01*
Y73431D01*
X107979D01*
Y73831D01*
X107179D01*
Y73431D01*
X106779D01*
Y72632D01*
X107179D01*
Y97828D02*
Y97428D01*
X107979D01*
Y97828D01*
X108379D01*
Y98628D01*
X107979D01*
Y99028D01*
X107179D01*
Y98628D01*
X106779D01*
Y97828D01*
X107179D01*
X85132Y69482D02*
Y69082D01*
X85931D01*
Y69482D01*
X86331D01*
Y70282D01*
X85931D01*
Y70682D01*
X85132D01*
Y70282D01*
X84732D01*
Y69482D01*
X85132D01*
X104029D02*
Y69082D01*
X104829D01*
Y69482D01*
X105229D01*
Y70282D01*
X104829D01*
Y70682D01*
X104029D01*
Y70282D01*
X103629D01*
Y69482D01*
X104029D01*
X110328Y75781D02*
Y75381D01*
X111128D01*
Y75781D01*
X111528D01*
Y76581D01*
X111128D01*
Y76981D01*
X110328D01*
Y76581D01*
X109928D01*
Y75781D01*
X110328D01*
Y94679D02*
Y94279D01*
X111128D01*
Y94679D01*
X111528D01*
Y95479D01*
X111128D01*
Y95879D01*
X110328D01*
Y95479D01*
X109928D01*
Y94679D01*
X110328D01*
X104029Y100978D02*
Y100578D01*
X104829D01*
Y100978D01*
X105229D01*
Y101778D01*
X104829D01*
Y102178D01*
X104029D01*
Y101778D01*
X103629D01*
Y100978D01*
X104029D01*
X113478Y82080D02*
Y81680D01*
X114278D01*
Y82080D01*
X114678D01*
Y82880D01*
X114278D01*
Y83280D01*
X113478D01*
Y82880D01*
X113078D01*
Y82080D01*
X113478D01*
Y88380D02*
Y87980D01*
X114278D01*
Y88380D01*
X114678D01*
Y89179D01*
X114278D01*
Y89579D01*
X113478D01*
Y89179D01*
X113078D01*
Y88380D01*
X113478D01*
X91431Y104128D02*
Y103727D01*
X92231D01*
Y104128D01*
X92631D01*
Y104928D01*
X92231D01*
Y105327D01*
X91431D01*
Y104928D01*
X91031D01*
Y104128D01*
X91431D01*
X81982Y69482D02*
Y69082D01*
X82782D01*
Y69482D01*
X83182D01*
Y70282D01*
X82782D01*
Y70682D01*
X81982D01*
Y70282D01*
X81582D01*
Y69482D01*
X81982D01*
X78832Y72632D02*
Y72232D01*
X79632D01*
Y72632D01*
X80032D01*
Y73431D01*
X79632D01*
Y73831D01*
X78832D01*
Y73431D01*
X78432D01*
Y72632D01*
X78832D01*
X110328D02*
Y72232D01*
X111128D01*
Y72632D01*
X111528D01*
Y73431D01*
X111128D01*
Y73831D01*
X110328D01*
Y73431D01*
X109928D01*
Y72632D01*
X110328D01*
X113478Y78931D02*
Y78531D01*
X114278D01*
Y78931D01*
X114678D01*
Y79731D01*
X114278D01*
Y80131D01*
X113478D01*
Y79731D01*
X113078D01*
Y78931D01*
X113478D01*
Y91529D02*
Y91129D01*
X114278D01*
Y91529D01*
X114678D01*
Y92329D01*
X114278D01*
Y92729D01*
X113478D01*
Y92329D01*
X113078D01*
Y91529D01*
X113478D01*
X110328Y97828D02*
Y97428D01*
X111128D01*
Y97828D01*
X111528D01*
Y98628D01*
X111128D01*
Y99028D01*
X110328D01*
Y98628D01*
X109928D01*
Y97828D01*
X110328D01*
X88281Y104128D02*
Y103727D01*
X89081D01*
Y104128D01*
X89481D01*
Y104928D01*
X89081D01*
Y105327D01*
X88281D01*
Y104928D01*
X87881D01*
Y104128D01*
X88281D01*
X107179Y100978D02*
Y100578D01*
X107979D01*
Y100978D01*
X108379D01*
Y101778D01*
X107979D01*
Y102178D01*
X107179D01*
Y101778D01*
X106779D01*
Y100978D01*
X107179D01*
X85132Y66332D02*
Y65932D01*
X85931D01*
Y66332D01*
X86331D01*
Y67132D01*
X85931D01*
Y67532D01*
X85132D01*
Y67132D01*
X84732D01*
Y66332D01*
X85132D01*
X113478Y75781D02*
Y75381D01*
X114278D01*
Y75781D01*
X114678D01*
Y76581D01*
X114278D01*
Y76981D01*
X113478D01*
Y76581D01*
X113078D01*
Y75781D01*
X113478D01*
Y94679D02*
Y94279D01*
X114278D01*
Y94679D01*
X114678D01*
Y95479D01*
X114278D01*
Y95879D01*
X113478D01*
Y95479D01*
X113078D01*
Y94679D01*
X113478D01*
X78832Y69482D02*
Y69082D01*
X79632D01*
Y69482D01*
X80032D01*
Y70282D01*
X79632D01*
Y70682D01*
X78832D01*
Y70282D01*
X78432D01*
Y69482D01*
X78832D01*
X110328D02*
Y69082D01*
X111128D01*
Y69482D01*
X111528D01*
Y70282D01*
X111128D01*
Y70682D01*
X110328D01*
Y70282D01*
X109928D01*
Y69482D01*
X110328D01*
Y100978D02*
Y100578D01*
X111128D01*
Y100978D01*
X111528D01*
Y101778D01*
X111128D01*
Y102178D01*
X110328D01*
Y101778D01*
X109928D01*
Y100978D01*
X110328D01*
X81982Y66332D02*
Y65932D01*
X82782D01*
Y66332D01*
X83182D01*
Y67132D01*
X82782D01*
Y67532D01*
X81982D01*
Y67132D01*
X81582D01*
Y66332D01*
X81982D01*
X113478Y72632D02*
Y72232D01*
X114278D01*
Y72632D01*
X114678D01*
Y73431D01*
X114278D01*
Y73831D01*
X113478D01*
Y73431D01*
X113078D01*
Y72632D01*
X113478D01*
X116628Y82080D02*
Y81680D01*
X117428D01*
Y82080D01*
X117828D01*
Y82880D01*
X117428D01*
Y83280D01*
X116628D01*
Y82880D01*
X116228D01*
Y82080D01*
X116628D01*
Y88380D02*
Y87980D01*
X117428D01*
Y88380D01*
X117828D01*
Y89179D01*
X117428D01*
Y89579D01*
X116628D01*
Y89179D01*
X116228D01*
Y88380D01*
X116628D01*
X113478Y97828D02*
Y97428D01*
X114278D01*
Y97828D01*
X114678D01*
Y98628D01*
X114278D01*
Y99028D01*
X113478D01*
Y98628D01*
X113078D01*
Y97828D01*
X113478D01*
X116628Y78931D02*
Y78531D01*
X117428D01*
Y78931D01*
X117828D01*
Y79731D01*
X117428D01*
Y80131D01*
X116628D01*
Y79731D01*
X116228D01*
Y78931D01*
X116628D01*
Y91529D02*
Y91129D01*
X117428D01*
Y91529D01*
X117828D01*
Y92329D01*
X117428D01*
Y92729D01*
X116628D01*
Y92329D01*
X116228D01*
Y91529D01*
X116628D01*
X100880Y107277D02*
Y106877D01*
X101680D01*
Y107277D01*
X102079D01*
Y108077D01*
X101680D01*
Y108477D01*
X100880D01*
Y108077D01*
X100479D01*
Y107277D01*
X100880D01*
X85132Y63183D02*
Y62783D01*
X85931D01*
Y63183D01*
X86331D01*
Y63983D01*
X85931D01*
Y64383D01*
X85132D01*
Y63983D01*
X84732D01*
Y63183D01*
X85132D01*
X116628Y94679D02*
Y94279D01*
X117428D01*
Y94679D01*
X117828D01*
Y95479D01*
X117428D01*
Y95879D01*
X116628D01*
Y95479D01*
X116228D01*
Y94679D01*
X116628D01*
X78832Y66332D02*
Y65932D01*
X79632D01*
Y66332D01*
X80032D01*
Y67132D01*
X79632D01*
Y67532D01*
X78832D01*
Y67132D01*
X78432D01*
Y66332D01*
X78832D01*
X113478Y69482D02*
Y69082D01*
X114278D01*
Y69482D01*
X114678D01*
Y70282D01*
X114278D01*
Y70682D01*
X113478D01*
Y70282D01*
X113078D01*
Y69482D01*
X113478D01*
Y100978D02*
Y100578D01*
X114278D01*
Y100978D01*
X114678D01*
Y101778D01*
X114278D01*
Y102178D01*
X113478D01*
Y101778D01*
X113078D01*
Y100978D01*
X113478D01*
X81982Y63183D02*
Y62783D01*
X82782D01*
Y63183D01*
X83182D01*
Y63983D01*
X82782D01*
Y64383D01*
X81982D01*
Y63983D01*
X81582D01*
Y63183D01*
X81982D01*
X107179D02*
Y62783D01*
X107979D01*
Y63183D01*
X108379D01*
Y63983D01*
X107979D01*
Y64383D01*
X107179D01*
Y63983D01*
X106779D01*
Y63183D01*
X107179D01*
X116628Y72632D02*
Y72232D01*
X117428D01*
Y72632D01*
X117828D01*
Y73431D01*
X117428D01*
Y73831D01*
X116628D01*
Y73431D01*
X116228D01*
Y72632D01*
X116628D01*
Y97828D02*
Y97428D01*
X117428D01*
Y97828D01*
X117828D01*
Y98628D01*
X117428D01*
Y99028D01*
X116628D01*
Y98628D01*
X116228D01*
Y97828D01*
X116628D01*
X119777Y82080D02*
Y81680D01*
X120577D01*
Y82080D01*
X120977D01*
Y82880D01*
X120577D01*
Y83280D01*
X119777D01*
Y82880D01*
X119377D01*
Y82080D01*
X119777D01*
Y88380D02*
Y87980D01*
X120577D01*
Y88380D01*
X120977D01*
Y89179D01*
X120577D01*
Y89579D01*
X119777D01*
Y89179D01*
X119377D01*
Y88380D01*
X119777D01*
Y91529D02*
Y91129D01*
X120577D01*
Y91529D01*
X120977D01*
Y92329D01*
X120577D01*
Y92729D01*
X119777D01*
Y92329D01*
X119377D01*
Y91529D01*
X119777D01*
X75683Y66332D02*
Y65932D01*
X76483D01*
Y66332D01*
X76883D01*
Y67132D01*
X76483D01*
Y67532D01*
X75683D01*
Y67132D01*
X75283D01*
Y66332D01*
X75683D01*
X113478D02*
Y65932D01*
X114278D01*
Y66332D01*
X114678D01*
Y67132D01*
X114278D01*
Y67532D01*
X113478D01*
Y67132D01*
X113078D01*
Y66332D01*
X113478D01*
Y104128D02*
Y103727D01*
X114278D01*
Y104128D01*
X114678D01*
Y104928D01*
X114278D01*
Y105327D01*
X113478D01*
Y104928D01*
X113078D01*
Y104128D01*
X113478D01*
X85132Y60033D02*
Y59633D01*
X85931D01*
Y60033D01*
X86331D01*
Y60833D01*
X85931D01*
Y61233D01*
X85132D01*
Y60833D01*
X84732D01*
Y60033D01*
X85132D01*
X78832Y63183D02*
Y62783D01*
X79632D01*
Y63183D01*
X80032D01*
Y63983D01*
X79632D01*
Y64383D01*
X78832D01*
Y63983D01*
X78432D01*
Y63183D01*
X78832D01*
X72533Y69482D02*
Y69082D01*
X73333D01*
Y69482D01*
X73733D01*
Y70282D01*
X73333D01*
Y70682D01*
X72533D01*
Y70282D01*
X72133D01*
Y69482D01*
X72533D01*
X116628D02*
Y69082D01*
X117428D01*
Y69482D01*
X117828D01*
Y70282D01*
X117428D01*
Y70682D01*
X116628D01*
Y70282D01*
X116228D01*
Y69482D01*
X116628D01*
X69384Y75781D02*
Y75381D01*
X70183D01*
Y75781D01*
X70583D01*
Y76581D01*
X70183D01*
Y76981D01*
X69384D01*
Y76581D01*
X68984D01*
Y75781D01*
X69384D01*
X119777D02*
Y75381D01*
X120577D01*
Y75781D01*
X120977D01*
Y76581D01*
X120577D01*
Y76981D01*
X119777D01*
Y76581D01*
X119377D01*
Y75781D01*
X119777D01*
Y94679D02*
Y94279D01*
X120577D01*
Y94679D01*
X120977D01*
Y95479D01*
X120577D01*
Y95879D01*
X119777D01*
Y95479D01*
X119377D01*
Y94679D01*
X119777D01*
X116628Y100978D02*
Y100578D01*
X117428D01*
Y100978D01*
X117828D01*
Y101778D01*
X117428D01*
Y102178D01*
X116628D01*
Y101778D01*
X116228D01*
Y100978D01*
X116628D01*
X81982Y60033D02*
Y59633D01*
X82782D01*
Y60033D01*
X83182D01*
Y60833D01*
X82782D01*
Y61233D01*
X81982D01*
Y60833D01*
X81582D01*
Y60033D01*
X81982D01*
X119777Y72632D02*
Y72232D01*
X120577D01*
Y72632D01*
X120977D01*
Y73431D01*
X120577D01*
Y73831D01*
X119777D01*
Y73431D01*
X119377D01*
Y72632D01*
X119777D01*
X97730Y56884D02*
Y56484D01*
X98530D01*
Y56884D01*
X98930D01*
Y57683D01*
X98530D01*
Y58083D01*
X97730D01*
Y57683D01*
X97330D01*
Y56884D01*
X97730D01*
X75683Y63183D02*
Y62783D01*
X76483D01*
Y63183D01*
X76883D01*
Y63983D01*
X76483D01*
Y64383D01*
X75683D01*
Y63983D01*
X75283D01*
Y63183D01*
X75683D01*
X113478D02*
Y62783D01*
X114278D01*
Y63183D01*
X114678D01*
Y63983D01*
X114278D01*
Y64383D01*
X113478D01*
Y63983D01*
X113078D01*
Y63183D01*
X113478D01*
X116628Y66332D02*
Y65932D01*
X117428D01*
Y66332D01*
X117828D01*
Y67132D01*
X117428D01*
Y67532D01*
X116628D01*
Y67132D01*
X116228D01*
Y66332D01*
X116628D01*
X69384Y85230D02*
Y84830D01*
X70183D01*
Y85230D01*
X70583D01*
Y86030D01*
X70183D01*
Y86430D01*
X69384D01*
Y86030D01*
X68984D01*
Y85230D01*
X69384D01*
X122927Y82080D02*
Y81680D01*
X123727D01*
Y82080D01*
X124127D01*
Y82880D01*
X123727D01*
Y83280D01*
X122927D01*
Y82880D01*
X122527D01*
Y82080D01*
X122927D01*
Y88380D02*
Y87980D01*
X123727D01*
Y88380D01*
X124127D01*
Y89179D01*
X123727D01*
Y89579D01*
X122927D01*
Y89179D01*
X122527D01*
Y88380D01*
X122927D01*
X72533Y104128D02*
Y103727D01*
X73333D01*
Y104128D01*
X73733D01*
Y104928D01*
X73333D01*
Y105327D01*
X72533D01*
Y104928D01*
X72133D01*
Y104128D01*
X72533D01*
X116628D02*
Y103727D01*
X117428D01*
Y104128D01*
X117828D01*
Y104928D01*
X117428D01*
Y105327D01*
X116628D01*
Y104928D01*
X116228D01*
Y104128D01*
X116628D01*
X113478Y107277D02*
Y106877D01*
X114278D01*
Y107277D01*
X114678D01*
Y108077D01*
X114278D01*
Y108477D01*
X113478D01*
Y108077D01*
X113078D01*
Y107277D01*
X113478D01*
X91431Y113576D02*
Y113176D01*
X92231D01*
Y113576D01*
X92631D01*
Y114376D01*
X92231D01*
Y114776D01*
X91431D01*
Y114376D01*
X91031D01*
Y113576D01*
X91431D01*
X97730D02*
Y113176D01*
X98530D01*
Y113576D01*
X98930D01*
Y114376D01*
X98530D01*
Y114776D01*
X97730D01*
Y114376D01*
X97330D01*
Y113576D01*
X97730D01*
X122927Y91529D02*
Y91129D01*
X123727D01*
Y91529D01*
X124127D01*
Y92329D01*
X123727D01*
Y92729D01*
X122927D01*
Y92329D01*
X122527D01*
Y91529D01*
X122927D01*
X78832Y60033D02*
Y59633D01*
X79632D01*
Y60033D01*
X80032D01*
Y60833D01*
X79632D01*
Y61233D01*
X78832D01*
Y60833D01*
X78432D01*
Y60033D01*
X78832D01*
X110328D02*
Y59633D01*
X111128D01*
Y60033D01*
X111528D01*
Y60833D01*
X111128D01*
Y61233D01*
X110328D01*
Y60833D01*
X109928D01*
Y60033D01*
X110328D01*
X119777Y69482D02*
Y69082D01*
X120577D01*
Y69482D01*
X120977D01*
Y70282D01*
X120577D01*
Y70682D01*
X119777D01*
Y70282D01*
X119377D01*
Y69482D01*
X119777D01*
Y100978D02*
Y100578D01*
X120577D01*
Y100978D01*
X120977D01*
Y101778D01*
X120577D01*
Y102178D01*
X119777D01*
Y101778D01*
X119377D01*
Y100978D01*
X119777D01*
X122927Y94679D02*
Y94279D01*
X123727D01*
Y94679D01*
X124127D01*
Y95479D01*
X123727D01*
Y95879D01*
X122927D01*
Y95479D01*
X122527D01*
Y94679D01*
X122927D01*
X85132Y113576D02*
Y113176D01*
X85931D01*
Y113576D01*
X86331D01*
Y114376D01*
X85931D01*
Y114776D01*
X85132D01*
Y114376D01*
X84732D01*
Y113576D01*
X85132D01*
X81982Y56884D02*
Y56484D01*
X82782D01*
Y56884D01*
X83182D01*
Y57683D01*
X82782D01*
Y58083D01*
X81982D01*
Y57683D01*
X81582D01*
Y56884D01*
X81982D01*
X116628Y63183D02*
Y62783D01*
X117428D01*
Y63183D01*
X117828D01*
Y63983D01*
X117428D01*
Y64383D01*
X116628D01*
Y63983D01*
X116228D01*
Y63183D01*
X116628D01*
X122927Y72632D02*
Y72232D01*
X123727D01*
Y72632D01*
X124127D01*
Y73431D01*
X123727D01*
Y73831D01*
X122927D01*
Y73431D01*
X122527D01*
Y72632D01*
X122927D01*
Y97828D02*
Y97428D01*
X123727D01*
Y97828D01*
X124127D01*
Y98628D01*
X123727D01*
Y99028D01*
X122927D01*
Y98628D01*
X122527D01*
Y97828D01*
X122927D01*
X116628Y107277D02*
Y106877D01*
X117428D01*
Y107277D01*
X117828D01*
Y108077D01*
X117428D01*
Y108477D01*
X116628D01*
Y108077D01*
X116228D01*
Y107277D01*
X116628D01*
X81982Y113576D02*
Y113176D01*
X82782D01*
Y113576D01*
X83182D01*
Y114376D01*
X82782D01*
Y114776D01*
X81982D01*
Y114376D01*
X81582D01*
Y113576D01*
X81982D01*
X75683Y60033D02*
Y59633D01*
X76483D01*
Y60033D01*
X76883D01*
Y60833D01*
X76483D01*
Y61233D01*
X75683D01*
Y60833D01*
X75283D01*
Y60033D01*
X75683D01*
X113478D02*
Y59633D01*
X114278D01*
Y60033D01*
X114678D01*
Y60833D01*
X114278D01*
Y61233D01*
X113478D01*
Y60833D01*
X113078D01*
Y60033D01*
X113478D01*
X119777Y66332D02*
Y65932D01*
X120577D01*
Y66332D01*
X120977D01*
Y67132D01*
X120577D01*
Y67532D01*
X119777D01*
Y67132D01*
X119377D01*
Y66332D01*
X119777D01*
Y104128D02*
Y103727D01*
X120577D01*
Y104128D01*
X120977D01*
Y104928D01*
X120577D01*
Y105327D01*
X119777D01*
Y104928D01*
X119377D01*
Y104128D01*
X119777D01*
X126076Y82080D02*
Y81680D01*
X126876D01*
Y82080D01*
X127276D01*
Y82880D01*
X126876D01*
Y83280D01*
X126076D01*
Y82880D01*
X125676D01*
Y82080D01*
X126076D01*
Y88380D02*
Y87980D01*
X126876D01*
Y88380D01*
X127276D01*
Y89179D01*
X126876D01*
Y89579D01*
X126076D01*
Y89179D01*
X125676D01*
Y88380D01*
X126076D01*
X97730Y116726D02*
Y116326D01*
X98530D01*
Y116726D01*
X98930D01*
Y117526D01*
X98530D01*
Y117926D01*
X97730D01*
Y117526D01*
X97330D01*
Y116726D01*
X97730D01*
X88281Y53734D02*
Y53334D01*
X89081D01*
Y53734D01*
X89481D01*
Y54534D01*
X89081D01*
Y54934D01*
X88281D01*
Y54534D01*
X87881D01*
Y53734D01*
X88281D01*
X78832Y56884D02*
Y56484D01*
X79632D01*
Y56884D01*
X80032D01*
Y57683D01*
X79632D01*
Y58083D01*
X78832D01*
Y57683D01*
X78432D01*
Y56884D01*
X78832D01*
X126076Y78931D02*
Y78531D01*
X126876D01*
Y78931D01*
X127276D01*
Y79731D01*
X126876D01*
Y80131D01*
X126076D01*
Y79731D01*
X125676D01*
Y78931D01*
X126076D01*
Y91529D02*
Y91129D01*
X126876D01*
Y91529D01*
X127276D01*
Y92329D01*
X126876D01*
Y92729D01*
X126076D01*
Y92329D01*
X125676D01*
Y91529D01*
X126076D01*
X69384Y100978D02*
Y100578D01*
X70183D01*
Y100978D01*
X70583D01*
Y101778D01*
X70183D01*
Y102178D01*
X69384D01*
Y101778D01*
X68984D01*
Y100978D01*
X69384D01*
X122927D02*
Y100578D01*
X123727D01*
Y100978D01*
X124127D01*
Y101778D01*
X123727D01*
Y102178D01*
X122927D01*
Y101778D01*
X122527D01*
Y100978D01*
X122927D01*
X100880Y116726D02*
Y116326D01*
X101680D01*
Y116726D01*
X102079D01*
Y117526D01*
X101680D01*
Y117926D01*
X100880D01*
Y117526D01*
X100479D01*
Y116726D01*
X100880D01*
X126076Y94679D02*
Y94279D01*
X126876D01*
Y94679D01*
X127276D01*
Y95479D01*
X126876D01*
Y95879D01*
X126076D01*
Y95479D01*
X125676D01*
Y94679D01*
X126076D01*
X104029Y116726D02*
Y116326D01*
X104829D01*
Y116726D01*
X105229D01*
Y117526D01*
X104829D01*
Y117926D01*
X104029D01*
Y117526D01*
X103629D01*
Y116726D01*
X104029D01*
X116628Y60033D02*
Y59633D01*
X117428D01*
Y60033D01*
X117828D01*
Y60833D01*
X117428D01*
Y61233D01*
X116628D01*
Y60833D01*
X116228D01*
Y60033D01*
X116628D01*
X119777Y63183D02*
Y62783D01*
X120577D01*
Y63183D01*
X120977D01*
Y63983D01*
X120577D01*
Y64383D01*
X119777D01*
Y63983D01*
X119377D01*
Y63183D01*
X119777D01*
Y107277D02*
Y106877D01*
X120577D01*
Y107277D01*
X120977D01*
Y108077D01*
X120577D01*
Y108477D01*
X119777D01*
Y108077D01*
X119377D01*
Y107277D01*
X119777D01*
X72533Y110427D02*
Y110027D01*
X73333D01*
Y110427D01*
X73733D01*
Y111227D01*
X73333D01*
Y111627D01*
X72533D01*
Y111227D01*
X72133D01*
Y110427D01*
X72533D01*
X81982Y53734D02*
Y53334D01*
X82782D01*
Y53734D01*
X83182D01*
Y54534D01*
X82782D01*
Y54934D01*
X81982D01*
Y54534D01*
X81582D01*
Y53734D01*
X81982D01*
X107179D02*
Y53334D01*
X107979D01*
Y53734D01*
X108379D01*
Y54534D01*
X107979D01*
Y54934D01*
X107179D01*
Y54534D01*
X106779D01*
Y53734D01*
X107179D01*
X75683Y56884D02*
Y56484D01*
X76483D01*
Y56884D01*
X76883D01*
Y57683D01*
X76483D01*
Y58083D01*
X75683D01*
Y57683D01*
X75283D01*
Y56884D01*
X75683D01*
X113478D02*
Y56484D01*
X114278D01*
Y56884D01*
X114678D01*
Y57683D01*
X114278D01*
Y58083D01*
X113478D01*
Y57683D01*
X113078D01*
Y56884D01*
X113478D01*
X69384Y69482D02*
Y69082D01*
X70183D01*
Y69482D01*
X70583D01*
Y70282D01*
X70183D01*
Y70682D01*
X69384D01*
Y70282D01*
X68984D01*
Y69482D01*
X69384D01*
X122927Y66332D02*
Y65932D01*
X123727D01*
Y66332D01*
X124127D01*
Y67132D01*
X123727D01*
Y67532D01*
X122927D01*
Y67132D01*
X122527D01*
Y66332D01*
X122927D01*
X126076Y72632D02*
Y72232D01*
X126876D01*
Y72632D01*
X127276D01*
Y73431D01*
X126876D01*
Y73831D01*
X126076D01*
Y73431D01*
X125676D01*
Y72632D01*
X126076D01*
X122927Y104128D02*
Y103727D01*
X123727D01*
Y104128D01*
X124127D01*
Y104928D01*
X123727D01*
Y105327D01*
X122927D01*
Y104928D01*
X122527D01*
Y104128D01*
X122927D01*
X126076Y97828D02*
Y97428D01*
X126876D01*
Y97828D01*
X127276D01*
Y98628D01*
X126876D01*
Y99028D01*
X126076D01*
Y98628D01*
X125676D01*
Y97828D01*
X126076D01*
X75683Y113576D02*
Y113176D01*
X76483D01*
Y113576D01*
X76883D01*
Y114376D01*
X76483D01*
Y114776D01*
X75683D01*
Y114376D01*
X75283D01*
Y113576D01*
X75683D01*
X81982Y116726D02*
Y116326D01*
X82782D01*
Y116726D01*
X83182D01*
Y117526D01*
X82782D01*
Y117926D01*
X81982D01*
Y117526D01*
X81582D01*
Y116726D01*
X81982D01*
X107179D02*
Y116326D01*
X107979D01*
Y116726D01*
X108379D01*
Y117526D01*
X107979D01*
Y117926D01*
X107179D01*
Y117526D01*
X106779D01*
Y116726D01*
X107179D01*
X78832Y53734D02*
Y53334D01*
X79632D01*
Y53734D01*
X80032D01*
Y54534D01*
X79632D01*
Y54934D01*
X78832D01*
Y54534D01*
X78432D01*
Y53734D01*
X78832D01*
X126076Y100978D02*
Y100578D01*
X126876D01*
Y100978D01*
X127276D01*
Y101778D01*
X126876D01*
Y102178D01*
X126076D01*
Y101778D01*
X125676D01*
Y100978D01*
X126076D01*
X69384Y60033D02*
Y59633D01*
X70183D01*
Y60033D01*
X70583D01*
Y60833D01*
X70183D01*
Y61233D01*
X69384D01*
Y60833D01*
X68984D01*
Y60033D01*
X69384D01*
X119777D02*
Y59633D01*
X120577D01*
Y60033D01*
X120977D01*
Y60833D01*
X120577D01*
Y61233D01*
X119777D01*
Y60833D01*
X119377D01*
Y60033D01*
X119777D01*
X69384Y110427D02*
Y110027D01*
X70183D01*
Y110427D01*
X70583D01*
Y111227D01*
X70183D01*
Y111627D01*
X69384D01*
Y111227D01*
X68984D01*
Y110427D01*
X69384D01*
X122927Y107277D02*
Y106877D01*
X123727D01*
Y107277D01*
X124127D01*
Y108077D01*
X123727D01*
Y108477D01*
X122927D01*
Y108077D01*
X122527D01*
Y107277D01*
X122927D01*
X116628Y113576D02*
Y113176D01*
X117428D01*
Y113576D01*
X117828D01*
Y114376D01*
X117428D01*
Y114776D01*
X116628D01*
Y114376D01*
X116228D01*
Y113576D01*
X116628D01*
X113478Y53734D02*
Y53334D01*
X114278D01*
Y53734D01*
X114678D01*
Y54534D01*
X114278D01*
Y54934D01*
X113478D01*
Y54534D01*
X113078D01*
Y53734D01*
X113478D01*
X126076Y66332D02*
Y65932D01*
X126876D01*
Y66332D01*
X127276D01*
Y67132D01*
X126876D01*
Y67532D01*
X126076D01*
Y67132D01*
X125676D01*
Y66332D01*
X126076D01*
X113478Y116726D02*
Y116326D01*
X114278D01*
Y116726D01*
X114678D01*
Y117526D01*
X114278D01*
Y117926D01*
X113478D01*
Y117526D01*
X113078D01*
Y116726D01*
X113478D01*
X69384Y56884D02*
Y56484D01*
X70183D01*
Y56884D01*
X70583D01*
Y57683D01*
X70183D01*
Y58083D01*
X69384D01*
Y57683D01*
X68984D01*
Y56884D01*
X69384D01*
X122927Y60033D02*
Y59633D01*
X123727D01*
Y60033D01*
X124127D01*
Y60833D01*
X123727D01*
Y61233D01*
X122927D01*
Y60833D01*
X122527D01*
Y60033D01*
X122927D01*
Y110427D02*
Y110027D01*
X123727D01*
Y110427D01*
X124127D01*
Y111227D01*
X123727D01*
Y111627D01*
X122927D01*
Y111227D01*
X122527D01*
Y110427D01*
X122927D01*
X69384Y113576D02*
Y113176D01*
X70183D01*
Y113576D01*
X70583D01*
Y114376D01*
X70183D01*
Y114776D01*
X69384D01*
Y114376D01*
X68984D01*
Y113576D01*
X69384D01*
X119777D02*
Y113176D01*
X120577D01*
Y113576D01*
X120977D01*
Y114376D01*
X120577D01*
Y114776D01*
X119777D01*
Y114376D01*
X119377D01*
Y113576D01*
X119777D01*
X72533Y53734D02*
Y53334D01*
X73333D01*
Y53734D01*
X73733D01*
Y54534D01*
X73333D01*
Y54934D01*
X72533D01*
Y54534D01*
X72133D01*
Y53734D01*
X72533D01*
X116628D02*
Y53334D01*
X117428D01*
Y53734D01*
X117828D01*
Y54534D01*
X117428D01*
Y54934D01*
X116628D01*
Y54534D01*
X116228D01*
Y53734D01*
X116628D01*
X63084Y107277D02*
Y106877D01*
X63884D01*
Y107277D01*
X64284D01*
Y108077D01*
X63884D01*
Y108477D01*
X63084D01*
Y108077D01*
X62684D01*
Y107277D01*
X63084D01*
X72533Y116726D02*
Y116326D01*
X73333D01*
Y116726D01*
X73733D01*
Y117526D01*
X73333D01*
Y117926D01*
X72533D01*
Y117526D01*
X72133D01*
Y116726D01*
X72533D01*
X116628D02*
Y116326D01*
X117428D01*
Y116726D01*
X117828D01*
Y117526D01*
X117428D01*
Y117926D01*
X116628D01*
Y117526D01*
X116228D01*
Y116726D01*
X116628D01*
X66234Y113576D02*
Y113176D01*
X67034D01*
Y113576D01*
X67434D01*
Y114376D01*
X67034D01*
Y114776D01*
X66234D01*
Y114376D01*
X65834D01*
Y113576D01*
X66234D01*
X69384Y53734D02*
Y53334D01*
X70183D01*
Y53734D01*
X70583D01*
Y54534D01*
X70183D01*
Y54934D01*
X69384D01*
Y54534D01*
X68984D01*
Y53734D01*
X69384D01*
X119777D02*
Y53334D01*
X120577D01*
Y53734D01*
X120977D01*
Y54534D01*
X120577D01*
Y54934D01*
X119777D01*
Y54534D01*
X119377D01*
Y53734D01*
X119777D01*
X126076Y60033D02*
Y59633D01*
X126876D01*
Y60033D01*
X127276D01*
Y60833D01*
X126876D01*
Y61233D01*
X126076D01*
Y60833D01*
X125676D01*
Y60033D01*
X126076D01*
X69384Y116726D02*
Y116326D01*
X70183D01*
Y116726D01*
X70583D01*
Y117526D01*
X70183D01*
Y117926D01*
X69384D01*
Y117526D01*
X68984D01*
Y116726D01*
X69384D01*
X119777D02*
Y116326D01*
X120577D01*
Y116726D01*
X120977D01*
Y117526D01*
X120577D01*
Y117926D01*
X119777D01*
Y117526D01*
X119377D01*
Y116726D01*
X119777D01*
X122927Y53734D02*
Y53334D01*
X123727D01*
Y53734D01*
X124127D01*
Y54534D01*
X123727D01*
Y54934D01*
X122927D01*
Y54534D01*
X122527D01*
Y53734D01*
X122927D01*
X66234Y60033D02*
Y59633D01*
X67034D01*
Y60033D01*
X67434D01*
Y60833D01*
X67034D01*
Y61233D01*
X66234D01*
Y60833D01*
X65834D01*
Y60033D01*
X66234D01*
X63084Y113576D02*
Y113176D01*
X63884D01*
Y113576D01*
X64284D01*
Y114376D01*
X63884D01*
Y114776D01*
X63084D01*
Y114376D01*
X62684D01*
Y113576D01*
X63084D01*
X126076D02*
Y113176D01*
X126876D01*
Y113576D01*
X127276D01*
Y114376D01*
X126876D01*
Y114776D01*
X126076D01*
Y114376D01*
X125676D01*
Y113576D01*
X126076D01*
Y53734D02*
Y53334D01*
X126876D01*
Y53734D01*
X127276D01*
Y54534D01*
X126876D01*
Y54934D01*
X126076D01*
Y54534D01*
X125676D01*
Y53734D01*
X126076D01*
D84*
X50997Y103248D02*
G03*
X50997Y103248I-800J0D01*
G01*
Y67815D02*
G03*
X50997Y67815I-800J0D01*
G01*
M02*
