G04*
G04 #@! TF.GenerationSoftware,Altium Limited,Altium Designer,18.1.7 (191)*
G04*
G04 Layer_Color=65535*
%FSLAX25Y25*%
%MOIN*%
G70*
G01*
G75*
%ADD10C,0.01000*%
%ADD11C,0.01968*%
%ADD12C,0.00984*%
%ADD13C,0.00787*%
%ADD14C,0.00472*%
%ADD15C,0.00700*%
G36*
X61516Y55884D02*
X65234Y52165D01*
X61516D01*
Y55884D01*
D02*
G37*
D10*
X20669Y25394D02*
G03*
X30512Y15549I9843J-2D01*
G01*
X249016Y156398D02*
G03*
X229331Y156398I-9843J2D01*
G01*
Y14665D02*
G03*
X249016Y14665I9843J-2D01*
G01*
X73612Y12598D02*
G03*
X73612Y12598I-502J0D01*
G01*
X13888Y146063D02*
G03*
X13888Y146063I-502J0D01*
G01*
X229331Y14665D02*
G03*
X249016Y14665I9843J-2D01*
G01*
Y156398D02*
G03*
X229331Y156398I-9843J2D01*
G01*
X130510Y982D02*
G03*
X130512Y15549I-80J7283D01*
G01*
X984Y10827D02*
G03*
X10827Y982I9843J-2D01*
G01*
X20669Y156496D02*
G03*
X984Y156496I-9843J2D01*
G01*
X39075Y79921D02*
Y113189D01*
X20669Y25394D02*
X20669Y149705D01*
X249016Y25689D02*
Y156398D01*
X229331Y30020D02*
Y156398D01*
Y14665D02*
Y30020D01*
X249016Y14665D02*
Y25689D01*
Y14665D02*
Y25689D01*
X229331Y14665D02*
Y30020D01*
Y156398D01*
X249016Y25689D02*
Y156398D01*
X85433Y15549D02*
X88386D01*
X93996D02*
X130512D01*
X77262D02*
X79823D01*
X10827Y982D02*
X130510D01*
X984Y10827D02*
Y14665D01*
X30512Y15549D02*
X77262D01*
X20669Y149705D02*
Y157380D01*
X984Y14665D02*
X984Y135433D01*
Y157380D01*
D11*
X142066Y71763D02*
G03*
X142066Y71763I-984J0D01*
G01*
Y127176D02*
G03*
X142066Y127176I-984J0D01*
G01*
Y16378D02*
G03*
X142066Y16378I-984J0D01*
G01*
D12*
X138621Y60257D02*
G03*
X138621Y60257I-492J0D01*
G01*
Y115670D02*
G03*
X138621Y115670I-492J0D01*
G01*
X141416Y2116D02*
G03*
X141416Y2116I-492J0D01*
G01*
X121260Y127657D02*
G03*
X121260Y127657I-492J0D01*
G01*
X110974Y147047D02*
G03*
X110974Y147047I-492J0D01*
G01*
X62598Y49606D02*
G03*
X62598Y49606I-492J0D01*
G01*
X51283Y45905D02*
G03*
X51283Y45905I-492J0D01*
G01*
X37894Y21161D02*
G03*
X37894Y21161I-492J0D01*
G01*
D13*
X138128Y68810D02*
Y102097D01*
X225609D01*
Y68810D02*
Y102097D01*
X138128Y68810D02*
X225609D01*
X138128Y124224D02*
Y157511D01*
X225609D01*
Y124224D02*
Y157511D01*
X138128Y124224D02*
X225609D01*
X138128Y13425D02*
Y46712D01*
Y13425D02*
X225609D01*
X138128Y46712D02*
X225609D01*
Y13425D02*
Y46712D01*
X127067Y130020D02*
Y143012D01*
X112894Y130020D02*
Y143012D01*
X109252Y150492D02*
X118504D01*
X25000D02*
X34252D01*
X25000Y167323D02*
Y167815D01*
Y150492D02*
Y152559D01*
Y167815D02*
X118504D01*
Y167323D02*
Y167815D01*
Y150492D02*
Y152559D01*
X61516Y55884D02*
X65234Y52165D01*
X61516D02*
X128445D01*
X61516Y119095D02*
X128445D01*
X61516Y52165D02*
Y119095D01*
X128445Y52165D02*
Y119095D01*
X49689Y39567D02*
Y41929D01*
X38272Y39567D02*
Y41929D01*
Y41929D02*
X49689D01*
X38272Y39567D02*
X49689D01*
X38484Y23819D02*
Y25787D01*
X47146Y23819D02*
Y25787D01*
X38484Y23819D02*
X47146D01*
X38484Y25787D02*
X47146D01*
X45521Y83305D02*
X41585D01*
Y85273D01*
X42241Y85929D01*
X43553D01*
X44209Y85273D01*
Y83305D01*
X45521Y87241D02*
X42897D01*
X41585Y88553D01*
X42897Y89865D01*
X45521D01*
X43553D01*
Y87241D01*
X41585Y91177D02*
X42241D01*
X43553Y92488D01*
X42241Y93800D01*
X41585D01*
X43553Y92488D02*
X45521D01*
X41585Y95112D02*
X45521D01*
Y97736D01*
X41585Y101016D02*
Y99704D01*
X42241Y99048D01*
X44865D01*
X45521Y99704D01*
Y101016D01*
X44865Y101672D01*
X42241D01*
X41585Y101016D01*
X45521Y102984D02*
X42897D01*
X41585Y104296D01*
X42897Y105608D01*
X45521D01*
X43553D01*
Y102984D01*
X41585Y106920D02*
X45521D01*
Y108887D01*
X44865Y109543D01*
X42241D01*
X41585Y108887D01*
Y106920D01*
X32629Y87241D02*
X36564D01*
X34596D01*
Y89865D01*
X32629D01*
X36564D01*
Y91177D02*
X33941D01*
X32629Y92488D01*
X33941Y93800D01*
X36564D01*
X34596D01*
Y91177D01*
X36564Y95112D02*
X32629D01*
Y97080D01*
X33285Y97736D01*
X34596D01*
X35252Y97080D01*
Y95112D01*
Y96424D02*
X36564Y97736D01*
X33285Y101672D02*
X32629Y101016D01*
Y99704D01*
X33285Y99048D01*
X33941D01*
X34596Y99704D01*
Y101016D01*
X35252Y101672D01*
X35908D01*
X36564Y101016D01*
Y99704D01*
X35908Y99048D01*
X32629Y102984D02*
X36564D01*
X34596D01*
Y105608D01*
X32629D01*
X36564D01*
D14*
X64514Y128150D02*
X67663D01*
X64514Y124606D02*
X67663D01*
X79081Y131299D02*
X83214D01*
X79081Y125000D02*
X83214D01*
X131791Y136024D02*
Y139173D01*
X128248Y136024D02*
Y139173D01*
X96653Y128150D02*
Y131299D01*
X93110Y128150D02*
Y131299D01*
X111811Y132874D02*
Y136024D01*
X108268Y132874D02*
Y136024D01*
X239173Y31988D02*
Y35138D01*
X243307Y31988D02*
Y35138D01*
X239862Y32972D02*
X242618Y32972D01*
X239862Y34350D02*
X242618D01*
X241240Y32972D02*
X242618Y34350D01*
X239862D02*
X241240Y32972D01*
X239173Y46555D02*
Y49705D01*
X243307Y46555D02*
Y49705D01*
X239173Y90059D02*
Y93209D01*
X243307Y90059D02*
Y93209D01*
X239173Y75590D02*
Y78740D01*
X243307Y75590D02*
Y78740D01*
X239862Y76575D02*
X242618Y76575D01*
X239862Y77953D02*
X242618D01*
X241240Y76575D02*
X242618Y77953D01*
X239862D02*
X241240Y76575D01*
X239173Y123031D02*
Y126181D01*
X243307Y123031D02*
Y126181D01*
X239862Y124016D02*
X242618Y124016D01*
X239862Y125394D02*
X242618D01*
X241240Y124016D02*
X242618Y125394D01*
X239862D02*
X241240Y124016D01*
X239173Y137205D02*
Y140354D01*
X243307Y137205D02*
Y140354D01*
X126588Y163779D02*
X127966Y162402D01*
X125210D02*
X126588Y163779D01*
X125210Y162402D02*
X127966D01*
X125210Y163779D02*
X127966Y163779D01*
X124521Y161614D02*
Y164764D01*
X128655Y161614D02*
Y164764D01*
X128839Y155144D02*
X131988D01*
X128839Y151010D02*
X131988D01*
X106560Y28397D02*
Y31546D01*
X102426Y28397D02*
Y31546D01*
X59744Y39075D02*
Y42618D01*
X54429Y39075D02*
Y42618D01*
X41634Y57776D02*
X44783D01*
X41634Y61910D02*
X44783D01*
X30205Y55005D02*
Y58155D01*
X34339Y55005D02*
Y58155D01*
X22824Y55055D02*
Y58205D01*
X26957Y55055D02*
Y58205D01*
X31201Y28937D02*
Y32087D01*
X35335Y28937D02*
Y32087D01*
X27660Y28740D02*
Y31890D01*
X23526Y28740D02*
Y31890D01*
X80510Y28495D02*
Y31645D01*
X84644Y28495D02*
Y31645D01*
X89025Y28495D02*
Y31645D01*
X93159Y28495D02*
Y31645D01*
X80560Y13141D02*
Y16290D01*
X84694Y13141D02*
Y16290D01*
X81249Y14125D02*
X84005Y14125D01*
X81249Y15503D02*
X84005D01*
X82627Y14125D02*
X84005Y15503D01*
X81249D02*
X82627Y14125D01*
X89123Y13141D02*
Y16290D01*
X93257Y13141D02*
Y16290D01*
X89812Y14125D02*
X92568Y14125D01*
X89812Y15503D02*
X92568D01*
X91190Y14125D02*
X92568Y15503D01*
X89812D02*
X91190Y14125D01*
X53051Y29429D02*
X56201D01*
X53051Y25886D02*
X56201D01*
D15*
X15994Y119882D02*
X18660D01*
X19193Y120415D01*
Y121481D01*
X18660Y122014D01*
X15994D01*
X19193Y123081D02*
X17060D01*
X15994Y124147D01*
X17060Y125214D01*
X19193D01*
X17593D01*
Y123081D01*
X19193Y126280D02*
X15994D01*
Y127879D01*
X16527Y128412D01*
X17593D01*
X18127Y127879D01*
Y126280D01*
Y127346D02*
X19193Y128412D01*
X15994Y129479D02*
Y131611D01*
Y130545D01*
X19193D01*
X16232Y92979D02*
X15699Y92446D01*
Y91380D01*
X16232Y90847D01*
X16765D01*
X17298Y91380D01*
Y92446D01*
X17831Y92979D01*
X18364D01*
X18898Y92446D01*
Y91380D01*
X18364Y90847D01*
X18898Y94045D02*
X15699D01*
Y95645D01*
X16232Y96178D01*
X17298D01*
X17831Y95645D01*
Y94045D01*
X15699Y97244D02*
Y98311D01*
Y97778D01*
X18898D01*
Y97244D01*
Y98311D01*
X15502Y50558D02*
Y49492D01*
Y50025D01*
X18168D01*
X18701Y49492D01*
Y48958D01*
X18168Y48425D01*
X15502Y51624D02*
Y53757D01*
Y52691D01*
X18701D01*
Y54823D02*
X16568D01*
X15502Y55889D01*
X16568Y56956D01*
X18701D01*
X17101D01*
Y54823D01*
X16035Y60155D02*
X15502Y59622D01*
Y58555D01*
X16035Y58022D01*
X18168D01*
X18701Y58555D01*
Y59622D01*
X18168Y60155D01*
X17101D01*
Y59088D01*
X132644Y169103D02*
X132111Y169636D01*
X131045D01*
X130512Y169103D01*
Y168570D01*
X131045Y168036D01*
X132111D01*
X132644Y167503D01*
Y166970D01*
X132111Y166437D01*
X131045D01*
X130512Y166970D01*
X133711Y169636D02*
Y169103D01*
X134777Y168036D01*
X135843Y169103D01*
Y169636D01*
X134777Y168036D02*
Y166437D01*
X139042Y169103D02*
X138509Y169636D01*
X137443D01*
X136910Y169103D01*
Y168570D01*
X137443Y168036D01*
X138509D01*
X139042Y167503D01*
Y166970D01*
X138509Y166437D01*
X137443D01*
X136910Y166970D01*
X25066Y148532D02*
X24533Y149065D01*
X23466D01*
X22933Y148532D01*
Y146399D01*
X23466Y145866D01*
X24533D01*
X25066Y146399D01*
Y147466D01*
X23999D01*
X26132Y145866D02*
Y149065D01*
X27731D01*
X28265Y148532D01*
Y147466D01*
X27731Y146932D01*
X26132D01*
X29331Y149065D02*
X30397D01*
X29864D01*
Y145866D01*
X29331D01*
X30397D01*
X33596Y149065D02*
X32530D01*
X31997Y148532D01*
Y146399D01*
X32530Y145866D01*
X33596D01*
X34130Y146399D01*
Y148532D01*
X33596Y149065D01*
X36114Y137344D02*
X35581Y136811D01*
Y135745D01*
X36114Y135212D01*
X38246D01*
X38780Y135745D01*
Y136811D01*
X38246Y137344D01*
X37180D01*
Y136278D01*
X38780Y138410D02*
X35581D01*
X38780Y140543D01*
X35581D01*
Y141610D02*
X38780D01*
Y143209D01*
X38246Y143742D01*
X36114D01*
X35581Y143209D01*
Y141610D01*
X40502Y133079D02*
Y134145D01*
Y133612D01*
X43701D01*
Y133079D01*
Y134145D01*
X40502Y137344D02*
Y136278D01*
X41035Y135745D01*
X43168D01*
X43701Y136278D01*
Y137344D01*
X43168Y137877D01*
X41035D01*
X40502Y137344D01*
X43701Y138944D02*
Y140010D01*
Y139477D01*
X40502D01*
X41035Y138944D01*
X43701Y143209D02*
X40502D01*
X42101Y141610D01*
Y143742D01*
X45325Y133079D02*
Y134145D01*
Y133612D01*
X48524D01*
Y133079D01*
Y134145D01*
X45325Y137344D02*
Y136278D01*
X45858Y135745D01*
X47991D01*
X48524Y136278D01*
Y137344D01*
X47991Y137877D01*
X45858D01*
X45325Y137344D01*
X48524Y138944D02*
Y140010D01*
Y139477D01*
X45325D01*
X45858Y138944D01*
Y141610D02*
X45325Y142143D01*
Y143209D01*
X45858Y143742D01*
X46391D01*
X46924Y143209D01*
Y142676D01*
Y143209D01*
X47457Y143742D01*
X47991D01*
X48524Y143209D01*
Y142143D01*
X47991Y141610D01*
X50344Y133079D02*
Y134145D01*
Y133612D01*
X53543D01*
Y133079D01*
Y134145D01*
X50344Y137344D02*
Y136278D01*
X50877Y135745D01*
X53010D01*
X53543Y136278D01*
Y137344D01*
X53010Y137877D01*
X50877D01*
X50344Y137344D01*
X53543Y138944D02*
Y140010D01*
Y139477D01*
X50344D01*
X50877Y138944D01*
X53543Y143742D02*
Y141610D01*
X51411Y143742D01*
X50877D01*
X50344Y143209D01*
Y142143D01*
X50877Y141610D01*
X55266Y134145D02*
Y135212D01*
Y134678D01*
X58465D01*
Y134145D01*
Y135212D01*
X55266Y138410D02*
Y137344D01*
X55799Y136811D01*
X57931D01*
X58465Y137344D01*
Y138410D01*
X57931Y138944D01*
X55799D01*
X55266Y138410D01*
X58465Y140010D02*
Y141076D01*
Y140543D01*
X55266D01*
X55799Y140010D01*
X58465Y142676D02*
Y143742D01*
Y143209D01*
X55266D01*
X55799Y142676D01*
X60187Y133079D02*
Y134145D01*
Y133612D01*
X63386D01*
Y133079D01*
Y134145D01*
X60187Y137344D02*
Y136278D01*
X60720Y135745D01*
X62853D01*
X63386Y136278D01*
Y137344D01*
X62853Y137877D01*
X60720D01*
X60187Y137344D01*
X63386Y138944D02*
Y140010D01*
Y139477D01*
X60187D01*
X60720Y138944D01*
Y141610D02*
X60187Y142143D01*
Y143209D01*
X60720Y143742D01*
X62853D01*
X63386Y143209D01*
Y142143D01*
X62853Y141610D01*
X60720D01*
X65108Y135745D02*
Y136811D01*
Y136278D01*
X68307D01*
Y135745D01*
Y136811D01*
X65108Y140010D02*
Y138944D01*
X65641Y138410D01*
X67774D01*
X68307Y138944D01*
Y140010D01*
X67774Y140543D01*
X65641D01*
X65108Y140010D01*
X67774Y141610D02*
X68307Y142143D01*
Y143209D01*
X67774Y143742D01*
X65641D01*
X65108Y143209D01*
Y142143D01*
X65641Y141610D01*
X66175D01*
X66708Y142143D01*
Y143742D01*
X70029Y135745D02*
Y136811D01*
Y136278D01*
X73228D01*
Y135745D01*
Y136811D01*
X70029Y140010D02*
Y138944D01*
X70563Y138410D01*
X72695D01*
X73228Y138944D01*
Y140010D01*
X72695Y140543D01*
X70563D01*
X70029Y140010D01*
X70563Y141610D02*
X70029Y142143D01*
Y143209D01*
X70563Y143742D01*
X71096D01*
X71629Y143209D01*
X72162Y143742D01*
X72695D01*
X73228Y143209D01*
Y142143D01*
X72695Y141610D01*
X72162D01*
X71629Y142143D01*
X71096Y141610D01*
X70563D01*
X71629Y142143D02*
Y143209D01*
X74951Y135745D02*
Y136811D01*
Y136278D01*
X78150D01*
Y135745D01*
Y136811D01*
X74951Y140010D02*
Y138944D01*
X75484Y138410D01*
X77617D01*
X78150Y138944D01*
Y140010D01*
X77617Y140543D01*
X75484D01*
X74951Y140010D01*
Y141610D02*
Y143742D01*
X75484D01*
X77617Y141610D01*
X78150D01*
X79872Y135745D02*
Y136811D01*
Y136278D01*
X83071D01*
Y135745D01*
Y136811D01*
X79872Y140010D02*
Y138944D01*
X80405Y138410D01*
X82538D01*
X83071Y138944D01*
Y140010D01*
X82538Y140543D01*
X80405D01*
X79872Y140010D01*
Y143742D02*
X80405Y142676D01*
X81471Y141610D01*
X82538D01*
X83071Y142143D01*
Y143209D01*
X82538Y143742D01*
X82005D01*
X81471Y143209D01*
Y141610D01*
X84793Y135745D02*
Y136811D01*
Y136278D01*
X87992D01*
Y135745D01*
Y136811D01*
X84793Y140010D02*
Y138944D01*
X85326Y138410D01*
X87459D01*
X87992Y138944D01*
Y140010D01*
X87459Y140543D01*
X85326D01*
X84793Y140010D01*
Y143742D02*
Y141610D01*
X86393D01*
X85860Y142676D01*
Y143209D01*
X86393Y143742D01*
X87459D01*
X87992Y143209D01*
Y142143D01*
X87459Y141610D01*
X89714Y135745D02*
Y136811D01*
Y136278D01*
X92913D01*
Y135745D01*
Y136811D01*
X89714Y140010D02*
Y138944D01*
X90248Y138410D01*
X92380D01*
X92913Y138944D01*
Y140010D01*
X92380Y140543D01*
X90248D01*
X89714Y140010D01*
X92913Y143209D02*
X89714D01*
X91314Y141610D01*
Y143742D01*
X94636Y135745D02*
Y136811D01*
Y136278D01*
X97835D01*
Y135745D01*
Y136811D01*
X94636Y140010D02*
Y138944D01*
X95169Y138410D01*
X97302D01*
X97835Y138944D01*
Y140010D01*
X97302Y140543D01*
X95169D01*
X94636Y140010D01*
X95169Y141610D02*
X94636Y142143D01*
Y143209D01*
X95169Y143742D01*
X95702D01*
X96235Y143209D01*
Y142676D01*
Y143209D01*
X96768Y143742D01*
X97302D01*
X97835Y143209D01*
Y142143D01*
X97302Y141610D01*
X99557Y135745D02*
Y136811D01*
Y136278D01*
X102756D01*
Y135745D01*
Y136811D01*
X99557Y140010D02*
Y138944D01*
X100090Y138410D01*
X102223D01*
X102756Y138944D01*
Y140010D01*
X102223Y140543D01*
X100090D01*
X99557Y140010D01*
X102756Y143742D02*
Y141610D01*
X100623Y143742D01*
X100090D01*
X99557Y143209D01*
Y142143D01*
X100090Y141610D01*
X104183Y136811D02*
Y137877D01*
Y137344D01*
X107382D01*
Y136811D01*
Y137877D01*
X104183Y141076D02*
Y140010D01*
X104716Y139477D01*
X106849D01*
X107382Y140010D01*
Y141076D01*
X106849Y141610D01*
X104716D01*
X104183Y141076D01*
X107382Y142676D02*
Y143742D01*
Y143209D01*
X104183D01*
X104716Y142676D01*
X86516Y5028D02*
X87049Y5561D01*
X88115D01*
X88648Y5028D01*
Y4495D01*
X88115Y3962D01*
X87582D01*
X88115D01*
X88648Y3429D01*
Y2895D01*
X88115Y2362D01*
X87049D01*
X86516Y2895D01*
X89715Y5561D02*
Y3429D01*
X90781Y2362D01*
X91847Y3429D01*
Y5561D01*
X92914Y5028D02*
X93447Y5561D01*
X94513D01*
X95046Y5028D01*
Y4495D01*
X94513Y3962D01*
X93980D01*
X94513D01*
X95046Y3429D01*
Y2895D01*
X94513Y2362D01*
X93447D01*
X92914Y2895D01*
X76083Y2362D02*
X77149D01*
X76616D01*
Y5561D01*
X76083Y5028D01*
X78749Y5561D02*
Y3429D01*
X79815Y2362D01*
X80881Y3429D01*
Y5561D01*
X84080Y2362D02*
X81947D01*
X84080Y4495D01*
Y5028D01*
X83547Y5561D01*
X82481D01*
X81947Y5028D01*
X54823Y2362D02*
Y5561D01*
X56422D01*
X56955Y5028D01*
Y3962D01*
X56422Y3429D01*
X54823D01*
X58022Y5561D02*
Y2362D01*
X59621D01*
X60154Y2895D01*
Y3429D01*
X59621Y3962D01*
X58022D01*
X59621D01*
X60154Y4495D01*
Y5028D01*
X59621Y5561D01*
X58022D01*
X64862Y2362D02*
Y5561D01*
X66462D01*
X66995Y5028D01*
Y3962D01*
X66462Y3429D01*
X64862D01*
X68061Y2362D02*
Y4495D01*
X69128Y5561D01*
X70194Y4495D01*
Y2362D01*
Y3962D01*
X68061D01*
X43996Y5561D02*
Y2362D01*
X45595D01*
X46129Y2895D01*
Y5028D01*
X45595Y5561D01*
X43996D01*
X49328Y2362D02*
X47195D01*
X49328Y4495D01*
Y5028D01*
X48794Y5561D01*
X47728D01*
X47195Y5028D01*
X34547Y5561D02*
Y2362D01*
X36147D01*
X36680Y2895D01*
Y5028D01*
X36147Y5561D01*
X34547D01*
X37746Y2362D02*
X38813D01*
X38279D01*
Y5561D01*
X37746Y5028D01*
X22999D02*
X22466Y5561D01*
X21399D01*
X20866Y5028D01*
Y2895D01*
X21399Y2362D01*
X22466D01*
X22999Y2895D01*
Y3962D01*
X21933D01*
X24065Y2362D02*
Y5561D01*
X26198Y2362D01*
Y5561D01*
X27264D02*
Y2362D01*
X28864D01*
X29397Y2895D01*
Y5028D01*
X28864Y5561D01*
X27264D01*
X3240Y135991D02*
X2706Y135458D01*
Y134391D01*
X3240Y133858D01*
X5372D01*
X5906Y134391D01*
Y135458D01*
X5372Y135991D01*
X4306D01*
Y134925D01*
X5906Y137057D02*
X2706D01*
X5906Y139190D01*
X2706D01*
Y140256D02*
X5906D01*
Y141856D01*
X5372Y142389D01*
X3240D01*
X2706Y141856D01*
Y140256D01*
X5906Y126378D02*
X2706D01*
Y127977D01*
X3240Y128511D01*
X4306D01*
X4839Y127977D01*
Y126378D01*
Y127444D02*
X5906Y128511D01*
X2706Y129577D02*
X5906Y131710D01*
X2706D02*
X5906Y129577D01*
X2706Y117717D02*
Y119849D01*
Y118783D01*
X5906D01*
X2706Y120915D02*
X5906Y123048D01*
X2706D02*
X5906Y120915D01*
X3240Y111483D02*
X2706Y110950D01*
Y109883D01*
X3240Y109350D01*
X5372D01*
X5906Y109883D01*
Y110950D01*
X5372Y111483D01*
X3240Y114682D02*
X2706Y114149D01*
Y113083D01*
X3240Y112549D01*
X3773D01*
X4306Y113083D01*
Y114149D01*
X4839Y114682D01*
X5372D01*
X5906Y114149D01*
Y113083D01*
X5372Y112549D01*
X3240Y100952D02*
X2706Y100418D01*
Y99352D01*
X3240Y98819D01*
X3773D01*
X4306Y99352D01*
Y100418D01*
X4839Y100952D01*
X5372D01*
X5906Y100418D01*
Y99352D01*
X5372Y98819D01*
X2706Y102018D02*
X5906D01*
Y103617D01*
X5372Y104150D01*
X3240D01*
X2706Y103617D01*
Y102018D01*
Y105217D02*
Y106283D01*
Y105750D01*
X5906D01*
Y105217D01*
Y106283D01*
X3240Y90223D02*
X2706Y89690D01*
Y88624D01*
X3240Y88090D01*
X3773D01*
X4306Y88624D01*
Y89690D01*
X4839Y90223D01*
X5372D01*
X5906Y89690D01*
Y88624D01*
X5372Y88090D01*
X2706Y91290D02*
X5906D01*
Y92889D01*
X5372Y93422D01*
X3240D01*
X2706Y92889D01*
Y91290D01*
Y96088D02*
Y95022D01*
X3240Y94489D01*
X5372D01*
X5906Y95022D01*
Y96088D01*
X5372Y96621D01*
X3240D01*
X2706Y96088D01*
X3240Y79101D02*
X2706Y78568D01*
Y77502D01*
X3240Y76968D01*
X5372D01*
X5906Y77502D01*
Y78568D01*
X5372Y79101D01*
X2706Y80168D02*
X5906D01*
Y82300D01*
X2706Y83366D02*
X5906D01*
X4839D01*
X2706Y85499D01*
X4306Y83900D01*
X5906Y85499D01*
X2706Y66142D02*
Y68274D01*
Y67208D01*
X5906D01*
X2706Y69341D02*
X5906D01*
Y70940D01*
X5372Y71473D01*
X3240D01*
X2706Y70940D01*
Y69341D01*
Y72540D02*
Y73606D01*
Y73073D01*
X5906D01*
Y72540D01*
Y73606D01*
X2706Y55413D02*
Y57546D01*
Y56480D01*
X5906D01*
X2706Y58612D02*
X5906D01*
Y60212D01*
X5372Y60745D01*
X3240D01*
X2706Y60212D01*
Y58612D01*
Y63411D02*
Y62344D01*
X3240Y61811D01*
X5372D01*
X5906Y62344D01*
Y63411D01*
X5372Y63944D01*
X3240D01*
X2706Y63411D01*
Y44685D02*
Y46818D01*
Y45751D01*
X5906D01*
Y47884D02*
X2706D01*
X3773Y48950D01*
X2706Y50017D01*
X5906D01*
X3240Y53216D02*
X2706Y52683D01*
Y51616D01*
X3240Y51083D01*
X3773D01*
X4306Y51616D01*
Y52683D01*
X4839Y53216D01*
X5372D01*
X5906Y52683D01*
Y51616D01*
X5372Y51083D01*
X2706Y34252D02*
Y36385D01*
Y35318D01*
X5906D01*
X3240Y39584D02*
X2706Y39050D01*
Y37984D01*
X3240Y37451D01*
X5372D01*
X5906Y37984D01*
Y39050D01*
X5372Y39584D01*
X2706Y40650D02*
X5906D01*
X4839D01*
X2706Y42783D01*
X4306Y41183D01*
X5906Y42783D01*
X2706Y23228D02*
X4839D01*
X5906Y24295D01*
X4839Y25361D01*
X2706D01*
X3240Y28560D02*
X2706Y28027D01*
Y26961D01*
X3240Y26427D01*
X5372D01*
X5906Y26961D01*
Y28027D01*
X5372Y28560D01*
X3240Y31759D02*
X2706Y31226D01*
Y30159D01*
X3240Y29626D01*
X5372D01*
X5906Y30159D01*
Y31226D01*
X5372Y31759D01*
X136122Y26772D02*
X132923D01*
X133989Y27838D01*
X132923Y28904D01*
X136122D01*
X132923Y32103D02*
Y29971D01*
X136122D01*
Y32103D01*
X134523Y29971D02*
Y31037D01*
X136122Y33170D02*
X132923D01*
X133989Y34236D01*
X132923Y35302D01*
X136122D01*
X136655Y36369D02*
Y38501D01*
X132923Y41700D02*
Y39568D01*
X134523D01*
Y40634D01*
Y39568D01*
X136122D01*
Y133858D02*
X132923D01*
X133989Y134925D01*
X132923Y135991D01*
X136122D01*
X132923Y139190D02*
Y137057D01*
X136122D01*
Y139190D01*
X134523Y137057D02*
Y138124D01*
X136122Y140256D02*
X132923D01*
X133989Y141323D01*
X132923Y142389D01*
X136122D01*
X136655Y143455D02*
Y145588D01*
X132923Y146654D02*
X136122D01*
Y148254D01*
X135589Y148787D01*
X135056D01*
X134523Y148254D01*
Y146654D01*
Y148254D01*
X133989Y148787D01*
X133456D01*
X132923Y148254D01*
Y146654D01*
X136122Y78642D02*
X132923D01*
X133989Y79708D01*
X132923Y80774D01*
X136122D01*
X132923Y83973D02*
Y81841D01*
X136122D01*
Y83973D01*
X134523Y81841D02*
Y82907D01*
X136122Y85040D02*
X132923D01*
X133989Y86106D01*
X132923Y87172D01*
X136122D01*
X136655Y88239D02*
Y90371D01*
X132923Y91438D02*
X136122D01*
Y93037D01*
X135589Y93570D01*
X133456D01*
X132923Y93037D01*
Y91438D01*
X233555Y115650D02*
X233021Y116183D01*
Y117249D01*
X233555Y117782D01*
X234088D01*
X234621Y117249D01*
Y116716D01*
Y117249D01*
X235154Y117782D01*
X235687D01*
X236221Y117249D01*
Y116183D01*
X235687Y115650D01*
X233021Y118849D02*
X235154D01*
X236221Y119915D01*
X235154Y120981D01*
X233021D01*
X233555Y122047D02*
X233021Y122581D01*
Y123647D01*
X233555Y124180D01*
X234088D01*
X234621Y123647D01*
Y123114D01*
Y123647D01*
X235154Y124180D01*
X235687D01*
X236221Y123647D01*
Y122581D01*
X235687Y122047D01*
X236754Y125247D02*
Y127379D01*
X236221Y128445D02*
X233021D01*
X234088Y129512D01*
X233021Y130578D01*
X236221D01*
X233021Y133777D02*
Y131644D01*
X236221D01*
Y133777D01*
X234621Y131644D02*
Y132711D01*
X236221Y134843D02*
X233021D01*
X234088Y135910D01*
X233021Y136976D01*
X236221D01*
X236754Y138042D02*
Y140175D01*
X233021Y141241D02*
X236221D01*
Y142841D01*
X235687Y143374D01*
X235154D01*
X234621Y142841D01*
Y141241D01*
Y142841D01*
X234088Y143374D01*
X233555D01*
X233021Y142841D01*
Y141241D01*
X233555Y71457D02*
X233021Y71990D01*
Y73056D01*
X233555Y73589D01*
X234088D01*
X234621Y73056D01*
Y72523D01*
Y73056D01*
X235154Y73589D01*
X235687D01*
X236221Y73056D01*
Y71990D01*
X235687Y71457D01*
X233021Y74656D02*
X235154D01*
X236221Y75722D01*
X235154Y76788D01*
X233021D01*
X233555Y77855D02*
X233021Y78388D01*
Y79454D01*
X233555Y79987D01*
X234088D01*
X234621Y79454D01*
Y78921D01*
Y79454D01*
X235154Y79987D01*
X235687D01*
X236221Y79454D01*
Y78388D01*
X235687Y77855D01*
X236754Y81054D02*
Y83186D01*
X236221Y84253D02*
X233021D01*
X234088Y85319D01*
X233021Y86385D01*
X236221D01*
X233021Y89584D02*
Y87451D01*
X236221D01*
Y89584D01*
X234621Y87451D02*
Y88518D01*
X236221Y90650D02*
X233021D01*
X234088Y91717D01*
X233021Y92783D01*
X236221D01*
X236754Y93849D02*
Y95982D01*
X233021Y97048D02*
X236221D01*
Y98648D01*
X235687Y99181D01*
X233555D01*
X233021Y98648D01*
Y97048D01*
X233555Y27657D02*
X233021Y28191D01*
Y29257D01*
X233555Y29790D01*
X234088D01*
X234621Y29257D01*
Y28724D01*
Y29257D01*
X235154Y29790D01*
X235687D01*
X236221Y29257D01*
Y28191D01*
X235687Y27657D01*
X233021Y30856D02*
X235154D01*
X236221Y31923D01*
X235154Y32989D01*
X233021D01*
X233555Y34055D02*
X233021Y34589D01*
Y35655D01*
X233555Y36188D01*
X234088D01*
X234621Y35655D01*
Y35122D01*
Y35655D01*
X235154Y36188D01*
X235687D01*
X236221Y35655D01*
Y34589D01*
X235687Y34055D01*
X236754Y37254D02*
Y39387D01*
X236221Y40453D02*
X233021D01*
X234088Y41520D01*
X233021Y42586D01*
X236221D01*
X233021Y45785D02*
Y43652D01*
X236221D01*
Y45785D01*
X234621Y43652D02*
Y44719D01*
X236221Y46851D02*
X233021D01*
X234088Y47918D01*
X233021Y48984D01*
X236221D01*
X236754Y50050D02*
Y52183D01*
X233021Y55382D02*
Y53249D01*
X234621D01*
Y54316D01*
Y53249D01*
X236221D01*
X66732Y133514D02*
X68865Y130315D01*
Y133514D02*
X66732Y130315D01*
X72064D02*
X69931D01*
X72064Y132448D01*
Y132981D01*
X71531Y133514D01*
X70464D01*
X69931Y132981D01*
X123228Y127707D02*
X125361Y124508D01*
Y127707D02*
X123228Y124508D01*
X126427D02*
X127494D01*
X126961D01*
Y127707D01*
X126427Y127174D01*
X42028Y53888D02*
Y51222D01*
X42561Y50689D01*
X43627D01*
X44160Y51222D01*
Y53888D01*
X45226Y53355D02*
X45760Y53888D01*
X46826D01*
X47359Y53355D01*
Y52822D01*
X46826Y52289D01*
X47359Y51755D01*
Y51222D01*
X46826Y50689D01*
X45760D01*
X45226Y51222D01*
Y51755D01*
X45760Y52289D01*
X45226Y52822D01*
Y53355D01*
X45760Y52289D02*
X46826D01*
X49409Y22589D02*
Y19923D01*
X49943Y19390D01*
X51009D01*
X51542Y19923D01*
Y22589D01*
X52608D02*
X54741D01*
Y22056D01*
X52608Y19923D01*
Y19390D01*
X122146Y49262D02*
Y46596D01*
X122679Y46063D01*
X123745D01*
X124278Y46596D01*
Y49262D01*
X127477D02*
X125345D01*
Y47662D01*
X126411Y48196D01*
X126944D01*
X127477Y47662D01*
Y46596D01*
X126944Y46063D01*
X125878D01*
X125345Y46596D01*
X133456Y17323D02*
X136122D01*
X136655Y17856D01*
Y18922D01*
X136122Y19455D01*
X133456D01*
X136655Y22121D02*
X133456D01*
X135056Y20522D01*
Y22654D01*
X133456Y69193D02*
X136122D01*
X136655Y69726D01*
Y70792D01*
X136122Y71325D01*
X133456D01*
X133989Y72392D02*
X133456Y72925D01*
Y73991D01*
X133989Y74524D01*
X134523D01*
X135056Y73991D01*
Y73458D01*
Y73991D01*
X135589Y74524D01*
X136122D01*
X136655Y73991D01*
Y72925D01*
X136122Y72392D01*
X133456Y124016D02*
X136122D01*
X136655Y124549D01*
Y125615D01*
X136122Y126148D01*
X133456D01*
X136655Y129347D02*
Y127215D01*
X134523Y129347D01*
X133989D01*
X133456Y128814D01*
Y127748D01*
X133989Y127215D01*
X34744Y38287D02*
X31545D01*
Y39887D01*
X32078Y40420D01*
X33145D01*
X33678Y39887D01*
Y38287D01*
Y39354D02*
X34744Y40420D01*
Y41486D02*
Y43086D01*
X34211Y43619D01*
X33678Y43086D01*
Y42020D01*
X33145Y41486D01*
X32612Y42020D01*
Y43619D01*
X34744Y44685D02*
Y45752D01*
Y45219D01*
X31545D01*
X32078Y44685D01*
X247638Y43996D02*
X244439D01*
Y45595D01*
X244972Y46129D01*
X246038D01*
X246571Y45595D01*
Y43996D01*
Y45062D02*
X247638Y46129D01*
Y47195D02*
Y48261D01*
Y47728D01*
X244439D01*
X244972Y47195D01*
X244439Y51994D02*
X244972Y50927D01*
X246038Y49861D01*
X247105D01*
X247638Y50394D01*
Y51460D01*
X247105Y51994D01*
X246571D01*
X246038Y51460D01*
Y49861D01*
X247638Y87992D02*
X244439D01*
Y89592D01*
X244972Y90125D01*
X246038D01*
X246571Y89592D01*
Y87992D01*
Y89059D02*
X247638Y90125D01*
Y91191D02*
Y92257D01*
Y91724D01*
X244439D01*
X244972Y91191D01*
X247638Y95456D02*
X244439D01*
X246038Y93857D01*
Y95990D01*
X247638Y134941D02*
X244439D01*
Y136540D01*
X244972Y137074D01*
X246038D01*
X246571Y136540D01*
Y134941D01*
Y136007D02*
X247638Y137074D01*
Y138140D02*
Y139206D01*
Y138673D01*
X244439D01*
X244972Y138140D01*
X247638Y142938D02*
Y140806D01*
X245505Y142938D01*
X244972D01*
X244439Y142405D01*
Y141339D01*
X244972Y140806D01*
X62106Y34547D02*
Y37746D01*
X63706D01*
X64239Y37213D01*
Y36147D01*
X63706Y35614D01*
X62106D01*
X63173D02*
X64239Y34547D01*
X65305D02*
X66372D01*
X65838D01*
Y37746D01*
X65305Y37213D01*
X67971Y34547D02*
X69037D01*
X68504D01*
Y37746D01*
X67971Y37213D01*
X84399Y37944D02*
X81200D01*
Y39543D01*
X81733Y40077D01*
X82799D01*
X83332Y39543D01*
Y37944D01*
Y39010D02*
X84399Y40077D01*
Y41143D02*
Y42209D01*
Y41676D01*
X81200D01*
X81733Y41143D01*
Y43809D02*
X81200Y44342D01*
Y45408D01*
X81733Y45941D01*
X83865D01*
X84399Y45408D01*
Y44342D01*
X83865Y43809D01*
X81733D01*
X93159Y37845D02*
X89960D01*
Y39445D01*
X90493Y39978D01*
X91559D01*
X92092Y39445D01*
Y37845D01*
Y38912D02*
X93159Y39978D01*
X92625Y41044D02*
X93159Y41578D01*
Y42644D01*
X92625Y43177D01*
X90493D01*
X89960Y42644D01*
Y41578D01*
X90493Y41044D01*
X91026D01*
X91559Y41578D01*
Y43177D01*
X106299Y38287D02*
X103100D01*
Y39887D01*
X103633Y40420D01*
X104700D01*
X105233Y39887D01*
Y38287D01*
Y39354D02*
X106299Y40420D01*
X103100Y43619D02*
Y41486D01*
X104700D01*
X104167Y42553D01*
Y43086D01*
X104700Y43619D01*
X105766D01*
X106299Y43086D01*
Y42020D01*
X105766Y41486D01*
X130991Y157309D02*
Y160508D01*
X132590D01*
X133123Y159975D01*
Y158908D01*
X132590Y158375D01*
X130991D01*
X132057D02*
X133123Y157309D01*
X136322D02*
X134190D01*
X136322Y159442D01*
Y159975D01*
X135789Y160508D01*
X134723D01*
X134190Y159975D01*
X12894Y2362D02*
Y5561D01*
X14493D01*
X15026Y5028D01*
Y3962D01*
X14493Y3429D01*
X12894D01*
X17692Y2362D02*
Y5561D01*
X16093Y3962D01*
X18225D01*
X113189Y145768D02*
Y148967D01*
X114788D01*
X115322Y148433D01*
Y147367D01*
X114788Y146834D01*
X113189D01*
X118521Y145768D02*
X116388D01*
X118521Y147900D01*
Y148433D01*
X117987Y148967D01*
X116921D01*
X116388Y148433D01*
X2559Y144783D02*
Y147982D01*
X4158D01*
X4692Y147449D01*
Y146383D01*
X4158Y145850D01*
X2559D01*
X5758Y144783D02*
X6824D01*
X6291D01*
Y147982D01*
X5758Y147449D01*
X39436Y67963D02*
X38370D01*
X38903D01*
Y65297D01*
X38370Y64764D01*
X37836D01*
X37303Y65297D01*
X40502Y64231D02*
X42635D01*
X43701Y67963D02*
Y65830D01*
X44767Y64764D01*
X45834Y65830D01*
Y67963D01*
X46900Y67430D02*
X47433Y67963D01*
X48500D01*
X49033Y67430D01*
Y66896D01*
X48500Y66363D01*
X47966D01*
X48500D01*
X49033Y65830D01*
Y65297D01*
X48500Y64764D01*
X47433D01*
X46900Y65297D01*
X30353Y66488D02*
Y65422D01*
Y65955D01*
X33019D01*
X33552Y65422D01*
Y64889D01*
X33019Y64355D01*
X34085Y67554D02*
Y69687D01*
X30353Y70753D02*
X32485D01*
X33552Y71820D01*
X32485Y72886D01*
X30353D01*
X33552Y76085D02*
Y73952D01*
X31419Y76085D01*
X30886D01*
X30353Y75552D01*
Y74485D01*
X30886Y73952D01*
X23168Y66440D02*
Y65374D01*
Y65907D01*
X25834D01*
X26367Y65374D01*
Y64841D01*
X25834Y64307D01*
X26900Y67506D02*
Y69639D01*
X23168Y70705D02*
X25300D01*
X26367Y71772D01*
X25300Y72838D01*
X23168D01*
X26367Y73904D02*
Y74971D01*
Y74437D01*
X23168D01*
X23701Y73904D01*
X24019Y40322D02*
Y39255D01*
Y39788D01*
X26685D01*
X27218Y39255D01*
Y38722D01*
X26685Y38189D01*
X27751Y41388D02*
Y43521D01*
X24019Y44587D02*
X26152D01*
X27218Y45653D01*
X26152Y46720D01*
X24019D01*
X24553Y47786D02*
X24019Y48319D01*
Y49385D01*
X24553Y49918D01*
X26685D01*
X27218Y49385D01*
Y48319D01*
X26685Y47786D01*
X24553D01*
X233333Y148081D02*
X231201D01*
Y146481D01*
X232267D01*
X231201D01*
Y144882D01*
X234400Y148081D02*
Y144882D01*
X235999D01*
X236532Y145415D01*
Y147548D01*
X235999Y148081D01*
X234400D01*
X237599Y147548D02*
X238132Y148081D01*
X239198D01*
X239731Y147548D01*
Y147014D01*
X239198Y146481D01*
X238665D01*
X239198D01*
X239731Y145948D01*
Y145415D01*
X239198Y144882D01*
X238132D01*
X237599Y145415D01*
X114633Y23376D02*
X112500D01*
Y21777D01*
X113566D01*
X112500D01*
Y20177D01*
X115699Y23376D02*
Y20177D01*
X117298D01*
X117832Y20710D01*
Y22843D01*
X117298Y23376D01*
X115699D01*
X121031Y20177D02*
X118898D01*
X121031Y22310D01*
Y22843D01*
X120497Y23376D01*
X119431D01*
X118898Y22843D01*
X25470Y133737D02*
X23337D01*
Y132138D01*
X24403D01*
X23337D01*
Y130538D01*
X26536Y133737D02*
Y130538D01*
X28135D01*
X28669Y131071D01*
Y133204D01*
X28135Y133737D01*
X26536D01*
X29735Y130538D02*
X30801D01*
X30268D01*
Y133737D01*
X29735Y133204D01*
X244439Y30709D02*
X247638D01*
Y32308D01*
X247105Y32841D01*
X244972D01*
X244439Y32308D01*
Y30709D01*
Y36040D02*
X244972Y34974D01*
X246038Y33908D01*
X247105D01*
X247638Y34441D01*
Y35507D01*
X247105Y36040D01*
X246571D01*
X246038Y35507D01*
Y33908D01*
X244439Y74410D02*
X247638D01*
Y76009D01*
X247105Y76542D01*
X244972D01*
X244439Y76009D01*
Y74410D01*
Y79741D02*
Y77608D01*
X246038D01*
X245505Y78675D01*
Y79208D01*
X246038Y79741D01*
X247105D01*
X247638Y79208D01*
Y78142D01*
X247105Y77608D01*
X244439Y122047D02*
X247638D01*
Y123647D01*
X247105Y124180D01*
X244972D01*
X244439Y123647D01*
Y122047D01*
X247638Y126846D02*
X244439D01*
X246038Y125246D01*
Y127379D01*
X72736Y20817D02*
Y17618D01*
X74336D01*
X74869Y18151D01*
Y20284D01*
X74336Y20817D01*
X72736D01*
X75935Y20284D02*
X76468Y20817D01*
X77535D01*
X78068Y20284D01*
Y19751D01*
X77535Y19218D01*
X77002D01*
X77535D01*
X78068Y18684D01*
Y18151D01*
X77535Y17618D01*
X76468D01*
X75935Y18151D01*
X95768Y20817D02*
Y17618D01*
X97367D01*
X97900Y18151D01*
Y20284D01*
X97367Y20817D01*
X95768D01*
X101099Y17618D02*
X98967D01*
X101099Y19751D01*
Y20284D01*
X100566Y20817D01*
X99500D01*
X98967Y20284D01*
X130807Y165108D02*
Y161909D01*
X132407D01*
X132940Y162443D01*
Y164575D01*
X132407Y165108D01*
X130807D01*
X134006Y161909D02*
X135072D01*
X134539D01*
Y165108D01*
X134006Y164575D01*
X63944Y28847D02*
X63411Y29380D01*
X62344D01*
X61811Y28847D01*
Y26714D01*
X62344Y26181D01*
X63411D01*
X63944Y26714D01*
X67143Y29380D02*
X66076Y28847D01*
X65010Y27781D01*
Y26714D01*
X65543Y26181D01*
X66610D01*
X67143Y26714D01*
Y27247D01*
X66610Y27781D01*
X65010D01*
X68209Y28847D02*
X68742Y29380D01*
X69808D01*
X70342Y28847D01*
Y26714D01*
X69808Y26181D01*
X68742D01*
X68209Y26714D01*
Y28847D01*
X89165Y127428D02*
X88632Y126895D01*
Y125828D01*
X89165Y125295D01*
X91298D01*
X91831Y125828D01*
Y126895D01*
X91298Y127428D01*
X88632Y130627D02*
Y128494D01*
X90231D01*
X89698Y129561D01*
Y130094D01*
X90231Y130627D01*
X91298D01*
X91831Y130094D01*
Y129027D01*
X91298Y128494D01*
X88632Y133826D02*
Y131693D01*
X90231D01*
X89698Y132759D01*
Y133293D01*
X90231Y133826D01*
X91298D01*
X91831Y133293D01*
Y132226D01*
X91298Y131693D01*
X52231Y127764D02*
X51698Y128297D01*
X50632D01*
X50098Y127764D01*
Y125632D01*
X50632Y125098D01*
X51698D01*
X52231Y125632D01*
X55430Y128297D02*
X53297D01*
Y126698D01*
X54364Y127231D01*
X54897D01*
X55430Y126698D01*
Y125632D01*
X54897Y125098D01*
X53831D01*
X53297Y125632D01*
X58096Y125098D02*
Y128297D01*
X56496Y126698D01*
X58629D01*
X105479Y126977D02*
X104946Y127510D01*
X103880D01*
X103347Y126977D01*
Y124844D01*
X103880Y124311D01*
X104946D01*
X105479Y124844D01*
X108678Y127510D02*
X106545D01*
Y125910D01*
X107612Y126444D01*
X108145D01*
X108678Y125910D01*
Y124844D01*
X108145Y124311D01*
X107079D01*
X106545Y124844D01*
X109744Y126977D02*
X110278Y127510D01*
X111344D01*
X111877Y126977D01*
Y126444D01*
X111344Y125910D01*
X110811D01*
X111344D01*
X111877Y125377D01*
Y124844D01*
X111344Y124311D01*
X110278D01*
X109744Y124844D01*
X124770Y147941D02*
X124237Y148475D01*
X123171D01*
X122638Y147941D01*
Y145809D01*
X123171Y145276D01*
X124237D01*
X124770Y145809D01*
X127969Y148475D02*
X125837D01*
Y146875D01*
X126903Y147408D01*
X127436D01*
X127969Y146875D01*
Y145809D01*
X127436Y145276D01*
X126370D01*
X125837Y145809D01*
X131168Y145276D02*
X129036D01*
X131168Y147408D01*
Y147941D01*
X130635Y148475D01*
X129569D01*
X129036Y147941D01*
M02*
