G04*
G04 #@! TF.GenerationSoftware,Altium Limited,Altium Designer,18.1.7 (191)*
G04*
G04 Layer_Color=128*
%FSLAX25Y25*%
%MOIN*%
G70*
G01*
G75*
%ADD12C,0.01000*%
%ADD16C,0.02000*%
%ADD17C,0.01598*%
%ADD18C,0.01600*%
%ADD19C,0.02500*%
%ADD22R,0.08268X0.11811*%
%ADD23R,0.03150X0.06299*%
%ADD26R,0.04921X0.04331*%
%ADD27R,0.03937X0.03543*%
%ADD28R,0.03543X0.03937*%
%ADD29C,0.03200*%
%ADD30R,0.04331X0.04921*%
%ADD31R,0.05906X0.05118*%
%ADD32R,0.01378X0.02165*%
%ADD33R,0.01575X0.04803*%
%ADD73R,0.04331X0.02559*%
%ADD74R,0.05118X0.05906*%
%ADD75R,0.06102X0.11811*%
%ADD76R,0.11811X0.02402*%
%ADD77R,0.03000X0.02600*%
%ADD78R,0.02600X0.03000*%
D12*
X544182Y-43399D02*
Y-19783D01*
X475394Y-43456D02*
Y2264D01*
X674213D01*
X675186Y-98661D02*
Y357036D01*
X-58563Y-99016D02*
Y357036D01*
Y-99016D02*
X131004D01*
X107382D02*
X675186D01*
X-58563Y357036D02*
X675186D01*
X131004Y-19834D02*
X675186D01*
X131496Y-43793D02*
X674762Y-43793D01*
X131299Y-62543D02*
X675186Y-62543D01*
X475186Y-98622D02*
Y-20031D01*
X131299Y-81293D02*
X474902Y-81293D01*
X675186Y-99016D02*
Y-19834D01*
X293936Y-98721D02*
Y-43793D01*
X131004Y-99016D02*
Y-19834D01*
X483988Y-77692D02*
X483070Y-76773D01*
X481233D01*
X480315Y-77692D01*
Y-78610D01*
X481233Y-79528D01*
X483070D01*
X483988Y-80447D01*
Y-81365D01*
X483070Y-82284D01*
X481233D01*
X480315Y-81365D01*
X485825Y-82284D02*
Y-76773D01*
X488580D01*
X489498Y-77692D01*
Y-79528D01*
X488580Y-80447D01*
X485825D01*
X491335Y-82284D02*
Y-78610D01*
X493172Y-76773D01*
X495008Y-78610D01*
Y-82284D01*
Y-79528D01*
X491335D01*
X500518Y-77692D02*
X499600Y-76773D01*
X497763D01*
X496845Y-77692D01*
Y-81365D01*
X497763Y-82284D01*
X499600D01*
X500518Y-81365D01*
X506028Y-76773D02*
X502355D01*
Y-82284D01*
X506028D01*
X502355Y-79528D02*
X504192D01*
X507865Y-82284D02*
Y-76773D01*
X510620D01*
X511539Y-77692D01*
Y-79528D01*
X510620Y-80447D01*
X507865D01*
X509702D02*
X511539Y-82284D01*
X513375D02*
Y-78610D01*
X515212Y-76773D01*
X517049Y-78610D01*
Y-82284D01*
Y-79528D01*
X513375D01*
X518885Y-76773D02*
Y-82284D01*
X521640D01*
X522558Y-81365D01*
Y-77692D01*
X521640Y-76773D01*
X518885D01*
X533579Y-77692D02*
X532660Y-76773D01*
X530824D01*
X529905Y-77692D01*
Y-81365D01*
X530824Y-82284D01*
X532660D01*
X533579Y-81365D01*
Y-79528D01*
X531742D01*
X535415Y-78610D02*
Y-82284D01*
Y-80447D01*
X536334Y-79528D01*
X537252Y-78610D01*
X538170D01*
X541844Y-82284D02*
X543680D01*
X544599Y-81365D01*
Y-79528D01*
X543680Y-78610D01*
X541844D01*
X540925Y-79528D01*
Y-81365D01*
X541844Y-82284D01*
X546435Y-78610D02*
Y-81365D01*
X547354Y-82284D01*
X550109D01*
Y-78610D01*
X551945Y-84120D02*
Y-78610D01*
X554700D01*
X555619Y-79528D01*
Y-81365D01*
X554700Y-82284D01*
X551945D01*
X562965Y-76773D02*
Y-82284D01*
X571231Y-76773D02*
Y-82284D01*
X574904D01*
X576741Y-76773D02*
X578577D01*
X577659D01*
Y-82284D01*
X576741D01*
X578577D01*
X581332D02*
Y-76773D01*
X584087D01*
X585006Y-77692D01*
Y-79528D01*
X584087Y-80447D01*
X581332D01*
X583169D02*
X585006Y-82284D01*
X586842D02*
Y-76773D01*
X588679Y-78610D01*
X590516Y-76773D01*
Y-82284D01*
X592352D02*
Y-76773D01*
X594189Y-78610D01*
X596026Y-76773D01*
Y-82284D01*
X483529Y-66701D02*
X482578Y-65750D01*
X480676D01*
X479724Y-66701D01*
Y-67652D01*
X480676Y-68603D01*
X482578D01*
X483529Y-69554D01*
Y-70506D01*
X482578Y-71457D01*
X480676D01*
X479724Y-70506D01*
X485431Y-73359D02*
Y-67652D01*
X488285D01*
X489236Y-68603D01*
Y-70506D01*
X488285Y-71457D01*
X485431D01*
X492089Y-67652D02*
X493991D01*
X494943Y-68603D01*
Y-71457D01*
X492089D01*
X491138Y-70506D01*
X492089Y-69554D01*
X494943D01*
X500649Y-67652D02*
X497796D01*
X496845Y-68603D01*
Y-70506D01*
X497796Y-71457D01*
X500649D01*
X505405D02*
X503503D01*
X502552Y-70506D01*
Y-68603D01*
X503503Y-67652D01*
X505405D01*
X506356Y-68603D01*
Y-69554D01*
X502552D01*
X508258Y-65750D02*
Y-71457D01*
X512063D01*
X514916Y-67652D02*
X516819D01*
X517770Y-68603D01*
Y-71457D01*
X514916D01*
X513965Y-70506D01*
X514916Y-69554D01*
X517770D01*
X519672Y-65750D02*
Y-71457D01*
X522526D01*
X523477Y-70506D01*
Y-69554D01*
Y-68603D01*
X522526Y-67652D01*
X519672D01*
X531086Y-65750D02*
Y-71457D01*
X539646Y-65750D02*
Y-70506D01*
X540597Y-71457D01*
X542499D01*
X543450Y-70506D01*
Y-65750D01*
X549157D02*
X545353D01*
Y-68603D01*
X547255D01*
X545353D01*
Y-71457D01*
X554864Y-66701D02*
X553913Y-65750D01*
X552011D01*
X551059Y-66701D01*
Y-67652D01*
X552011Y-68603D01*
X553913D01*
X554864Y-69554D01*
Y-70506D01*
X553913Y-71457D01*
X552011D01*
X551059Y-70506D01*
X560571Y-66701D02*
X559620Y-65750D01*
X557718D01*
X556766Y-66701D01*
Y-70506D01*
X557718Y-71457D01*
X559620D01*
X560571Y-70506D01*
X594882Y-29920D02*
X596142Y-28660D01*
X598662D01*
X599922Y-29920D01*
Y-31180D01*
X598662Y-32440D01*
X597402D01*
X598662D01*
X599922Y-33700D01*
Y-34960D01*
X598662Y-36220D01*
X596142D01*
X594882Y-34960D01*
X602442Y-29920D02*
X603702Y-28660D01*
X606222D01*
X607482Y-29920D01*
Y-34960D01*
X606222Y-36220D01*
X603702D01*
X602442Y-34960D01*
Y-29920D01*
X610002Y-36220D02*
X615042Y-31180D01*
X617562Y-29920D02*
X618822Y-28660D01*
X621342D01*
X622602Y-29920D01*
Y-34960D01*
X621342Y-36220D01*
X618822D01*
X617562Y-34960D01*
Y-29920D01*
X628902Y-36220D02*
Y-28660D01*
X625122Y-32440D01*
X630162D01*
X632682Y-36220D02*
X637722Y-31180D01*
X645282Y-36220D02*
X640242D01*
X645282Y-31180D01*
Y-29920D01*
X644022Y-28660D01*
X641502D01*
X640242Y-29920D01*
X647802D02*
X649062Y-28660D01*
X651582D01*
X652842Y-29920D01*
Y-34960D01*
X651582Y-36220D01*
X649062D01*
X647802Y-34960D01*
Y-29920D01*
X660402Y-36220D02*
X655362D01*
X660402Y-31180D01*
Y-29920D01*
X659142Y-28660D01*
X656622D01*
X655362Y-29920D01*
X662922D02*
X664182Y-28660D01*
X666703D01*
X667963Y-29920D01*
Y-34960D01*
X666703Y-36220D01*
X664182D01*
X662922Y-34960D01*
Y-29920D01*
X557579Y-5334D02*
Y-12894D01*
Y-9114D01*
X562619D01*
Y-5334D01*
Y-12894D01*
X565139D02*
Y-7854D01*
X567659Y-5334D01*
X570179Y-7854D01*
Y-12894D01*
Y-9114D01*
X565139D01*
X572699Y-12894D02*
Y-5334D01*
X576479D01*
X577739Y-6594D01*
Y-9114D01*
X576479Y-10374D01*
X572699D01*
X575219D02*
X577739Y-12894D01*
X585299Y-6594D02*
X584039Y-5334D01*
X581519D01*
X580259Y-6594D01*
Y-7854D01*
X581519Y-9114D01*
X584039D01*
X585299Y-10374D01*
Y-11634D01*
X584039Y-12894D01*
X581519D01*
X580259Y-11634D01*
X587819Y-5334D02*
Y-12894D01*
Y-9114D01*
X592859D01*
Y-5334D01*
Y-12894D01*
X595379Y-14154D02*
X600419D01*
X602939Y-5334D02*
Y-12894D01*
X606719D01*
X607979Y-11634D01*
Y-6594D01*
X606719Y-5334D01*
X602939D01*
X610499D02*
Y-12894D01*
X614279D01*
X615539Y-11634D01*
Y-10374D01*
X614279Y-9114D01*
X610499D01*
X614279D01*
X615539Y-7854D01*
Y-6594D01*
X614279Y-5334D01*
X610499D01*
X520276Y-36220D02*
X522796D01*
X521536D01*
Y-28660D01*
X520276Y-29920D01*
X526576Y-36220D02*
Y-34960D01*
X527836D01*
Y-36220D01*
X526576D01*
X532876Y-29920D02*
X534136Y-28660D01*
X536656D01*
X537916Y-29920D01*
Y-34960D01*
X536656Y-36220D01*
X534136D01*
X532876Y-34960D01*
Y-29920D01*
X209930Y-49619D02*
X204890D01*
Y-53399D01*
X207410D01*
X204890D01*
Y-57179D01*
X212451D02*
Y-49619D01*
X216231D01*
X217491Y-50879D01*
Y-53399D01*
X216231Y-54659D01*
X212451D01*
X214970D02*
X217491Y-57179D01*
X223791D02*
Y-49619D01*
X220010Y-53399D01*
X225051D01*
X250295Y-76378D02*
X252815D01*
X251555D01*
Y-68818D01*
X250295Y-70078D01*
X256595Y-76378D02*
Y-75118D01*
X257855D01*
Y-76378D01*
X256595D01*
X267935Y-68818D02*
X265415Y-70078D01*
X262895Y-72598D01*
Y-75118D01*
X264155Y-76378D01*
X266675D01*
X267935Y-75118D01*
Y-73858D01*
X266675Y-72598D01*
X262895D01*
X270455Y-76378D02*
Y-71338D01*
X271715D01*
X272975Y-72598D01*
Y-76378D01*
Y-72598D01*
X274236Y-71338D01*
X275496Y-72598D01*
Y-76378D01*
X278015D02*
Y-71338D01*
X279275D01*
X280536Y-72598D01*
Y-76378D01*
Y-72598D01*
X281796Y-71338D01*
X283055Y-72598D01*
Y-76378D01*
X365622Y-93799D02*
X363028Y-86988D01*
X360433Y-93799D01*
X361406Y-91529D02*
X364649D01*
X367212Y-89258D02*
Y-93799D01*
Y-90556D02*
X368185Y-89583D01*
X368833Y-89258D01*
X369806D01*
X370455Y-89583D01*
X370779Y-90556D01*
Y-93799D01*
X376455Y-86988D02*
Y-93799D01*
Y-90232D02*
X375807Y-89583D01*
X375158Y-89258D01*
X374185D01*
X373536Y-89583D01*
X372888Y-90232D01*
X372563Y-91205D01*
Y-91853D01*
X372888Y-92826D01*
X373536Y-93475D01*
X374185Y-93799D01*
X375158D01*
X375807Y-93475D01*
X376455Y-92826D01*
X378272Y-89258D02*
Y-93799D01*
Y-91205D02*
X378596Y-90232D01*
X379244Y-89583D01*
X379893Y-89258D01*
X380866D01*
X381482Y-91205D02*
X385374D01*
Y-90556D01*
X385050Y-89907D01*
X384726Y-89583D01*
X384077Y-89258D01*
X383104D01*
X382455Y-89583D01*
X381807Y-90232D01*
X381482Y-91205D01*
Y-91853D01*
X381807Y-92826D01*
X382455Y-93475D01*
X383104Y-93799D01*
X384077D01*
X384726Y-93475D01*
X385374Y-92826D01*
X392185Y-86988D02*
Y-93799D01*
Y-86988D02*
X394780Y-93799D01*
X397375Y-86988D02*
X394780Y-93799D01*
X397375Y-86988D02*
Y-93799D01*
X399645Y-93151D02*
X399321Y-93475D01*
X399645Y-93799D01*
X399970Y-93475D01*
X399645Y-93151D01*
X406813Y-90556D02*
X409732D01*
X410705Y-90232D01*
X411029Y-89907D01*
X411354Y-89258D01*
Y-88285D01*
X411029Y-87637D01*
X410705Y-87313D01*
X409732Y-86988D01*
X406813D01*
Y-93799D01*
X413202Y-93151D02*
X412878Y-93475D01*
X413202Y-93799D01*
X413527Y-93475D01*
X413202Y-93151D01*
X420370Y-86988D02*
Y-93799D01*
Y-86988D02*
X422965Y-93799D01*
X425560Y-86988D02*
X422965Y-93799D01*
X425560Y-86988D02*
Y-93799D01*
X431398Y-89258D02*
Y-93799D01*
Y-90232D02*
X430749Y-89583D01*
X430100Y-89258D01*
X429127D01*
X428479Y-89583D01*
X427830Y-90232D01*
X427506Y-91205D01*
Y-91853D01*
X427830Y-92826D01*
X428479Y-93475D01*
X429127Y-93799D01*
X430100D01*
X430749Y-93475D01*
X431398Y-92826D01*
X434187Y-86988D02*
Y-92502D01*
X434511Y-93475D01*
X435160Y-93799D01*
X435809D01*
X433214Y-89258D02*
X435484D01*
X437755Y-86988D02*
Y-92502D01*
X438079Y-93475D01*
X438728Y-93799D01*
X439376D01*
X436782Y-89258D02*
X439052D01*
X441971D02*
X441322Y-89583D01*
X440674Y-90232D01*
X440349Y-91205D01*
Y-91853D01*
X440674Y-92826D01*
X441322Y-93475D01*
X441971Y-93799D01*
X442944D01*
X443593Y-93475D01*
X444241Y-92826D01*
X444566Y-91853D01*
Y-91205D01*
X444241Y-90232D01*
X443593Y-89583D01*
X442944Y-89258D01*
X441971D01*
X449625Y-90232D02*
X449301Y-89583D01*
X448328Y-89258D01*
X447355D01*
X446382Y-89583D01*
X446058Y-90232D01*
X446382Y-90880D01*
X447031Y-91205D01*
X448652Y-91529D01*
X449301Y-91853D01*
X449625Y-92502D01*
Y-92826D01*
X449301Y-93475D01*
X448328Y-93799D01*
X447355D01*
X446382Y-93475D01*
X446058Y-92826D01*
X230693Y-88957D02*
X226476D01*
Y-95768D01*
X230693D01*
X226476Y-92200D02*
X229071D01*
X231828Y-88957D02*
Y-95768D01*
Y-88957D02*
X236369Y-95768D01*
Y-88957D02*
Y-95768D01*
X238250Y-88957D02*
Y-95768D01*
X244542Y-90578D02*
X244217Y-89930D01*
X243569Y-89281D01*
X242920Y-88957D01*
X241623D01*
X240974Y-89281D01*
X240325Y-89930D01*
X240001Y-90578D01*
X239677Y-91551D01*
Y-93173D01*
X240001Y-94146D01*
X240325Y-94795D01*
X240974Y-95443D01*
X241623Y-95768D01*
X242920D01*
X243569Y-95443D01*
X244217Y-94795D01*
X244542Y-94146D01*
Y-93173D01*
X242920D02*
X244542D01*
D16*
X482972Y-57284D02*
Y-49723D01*
X486753D01*
X488013Y-50983D01*
Y-53503D01*
X486753Y-54763D01*
X482972D01*
X490532Y-52243D02*
Y-57284D01*
Y-54763D01*
X491792Y-53503D01*
X493052Y-52243D01*
X494312D01*
X499353Y-57284D02*
X501873D01*
X503133Y-56024D01*
Y-53503D01*
X501873Y-52243D01*
X499353D01*
X498093Y-53503D01*
Y-56024D01*
X499353Y-57284D01*
X505653Y-59803D02*
X506913D01*
X508173Y-58543D01*
Y-52243D01*
X516993Y-57284D02*
X514473D01*
X513213Y-56024D01*
Y-53503D01*
X514473Y-52243D01*
X516993D01*
X518253Y-53503D01*
Y-54763D01*
X513213D01*
X525813Y-52243D02*
X522033D01*
X520773Y-53503D01*
Y-56024D01*
X522033Y-57284D01*
X525813D01*
X529593Y-50983D02*
Y-52243D01*
X528333D01*
X530853D01*
X529593D01*
Y-56024D01*
X530853Y-57284D01*
X534633Y-52243D02*
X535893D01*
Y-53503D01*
X534633D01*
Y-52243D01*
Y-56024D02*
X535893D01*
Y-57284D01*
X534633D01*
Y-56024D01*
X553533Y-49723D02*
X548493D01*
Y-53503D01*
X551013D01*
X548493D01*
Y-57284D01*
X556053D02*
X558573D01*
X557313D01*
Y-49723D01*
X556053D01*
X563613Y-57284D02*
X566133D01*
X567393Y-56024D01*
Y-53503D01*
X566133Y-52243D01*
X563613D01*
X562353Y-53503D01*
Y-56024D01*
X563613Y-57284D01*
X569913Y-52243D02*
Y-57284D01*
Y-54763D01*
X571173Y-53503D01*
X572433Y-52243D01*
X573693D01*
X577473Y-57284D02*
X579993D01*
X578733D01*
Y-52243D01*
X577473D01*
X583773Y-59803D02*
Y-52243D01*
X587553D01*
X588813Y-53503D01*
Y-56024D01*
X587553Y-57284D01*
X583773D01*
X592593Y-52243D02*
X595113D01*
X596373Y-53503D01*
Y-57284D01*
X592593D01*
X591333Y-56024D01*
X592593Y-54763D01*
X596373D01*
X603933Y-50983D02*
X602673Y-49723D01*
X600153D01*
X598893Y-50983D01*
Y-52243D01*
X600153Y-53503D01*
X602673D01*
X603933Y-54763D01*
Y-56024D01*
X602673Y-57284D01*
X600153D01*
X598893Y-56024D01*
X607713Y-52243D02*
X610233D01*
X611493Y-53503D01*
Y-57284D01*
X607713D01*
X606453Y-56024D01*
X607713Y-54763D01*
X611493D01*
X615274Y-50983D02*
Y-52243D01*
X614013D01*
X616534D01*
X615274D01*
Y-56024D01*
X616534Y-57284D01*
X620314Y-53503D02*
X625354D01*
X632914Y-57284D02*
X627874D01*
X632914Y-52243D01*
Y-50983D01*
X631654Y-49723D01*
X629134D01*
X627874Y-50983D01*
D17*
X136614Y-95276D02*
Y-87716D01*
X140394D01*
X141654Y-88976D01*
Y-91496D01*
X140394Y-92756D01*
X136614D01*
X149214Y-88976D02*
X147954Y-87716D01*
X145434D01*
X144174Y-88976D01*
Y-94016D01*
X145434Y-95276D01*
X147954D01*
X149214Y-94016D01*
X151734Y-87716D02*
Y-95276D01*
X155514D01*
X156774Y-94016D01*
Y-92756D01*
X155514Y-91496D01*
X151734D01*
X155514D01*
X156774Y-90236D01*
Y-88976D01*
X155514Y-87716D01*
X151734D01*
X171895Y-88976D02*
X170634Y-87716D01*
X168114D01*
X166854Y-88976D01*
Y-90236D01*
X168114Y-91496D01*
X170634D01*
X171895Y-92756D01*
Y-94016D01*
X170634Y-95276D01*
X168114D01*
X166854Y-94016D01*
X174415Y-90236D02*
Y-94016D01*
X175674Y-95276D01*
X179455D01*
Y-90236D01*
X181974D02*
Y-95276D01*
Y-92756D01*
X183235Y-91496D01*
X184495Y-90236D01*
X185755D01*
X190795Y-95276D02*
Y-88976D01*
Y-91496D01*
X189535D01*
X192055D01*
X190795D01*
Y-88976D01*
X192055Y-87716D01*
X197095Y-90236D02*
X199615D01*
X200875Y-91496D01*
Y-95276D01*
X197095D01*
X195835Y-94016D01*
X197095Y-92756D01*
X200875D01*
X208435Y-90236D02*
X204655D01*
X203395Y-91496D01*
Y-94016D01*
X204655Y-95276D01*
X208435D01*
X214735D02*
X212215D01*
X210955Y-94016D01*
Y-91496D01*
X212215Y-90236D01*
X214735D01*
X215995Y-91496D01*
Y-92756D01*
X210955D01*
X218515Y-90236D02*
X219775D01*
Y-91496D01*
X218515D01*
Y-90236D01*
Y-94016D02*
X219775D01*
Y-95276D01*
X218515D01*
Y-94016D01*
X552658Y-28365D02*
Y-35925D01*
X556437D01*
X557697Y-34665D01*
Y-29625D01*
X556437Y-28365D01*
X552658D01*
X560218Y-35925D02*
Y-30885D01*
X562738Y-28365D01*
X565258Y-30885D01*
Y-35925D01*
Y-32145D01*
X560218D01*
X567778Y-28365D02*
X572818D01*
X570298D01*
Y-35925D01*
X580378Y-28365D02*
X575338D01*
Y-35925D01*
X580378D01*
X575338Y-32145D02*
X577858D01*
X582898Y-30885D02*
X584158D01*
Y-32145D01*
X582898D01*
Y-30885D01*
Y-34665D02*
X584158D01*
Y-35925D01*
X582898D01*
Y-34665D01*
X138640Y-57179D02*
Y-49619D01*
X141160Y-52139D01*
X143680Y-49619D01*
Y-57179D01*
X146201D02*
Y-52139D01*
X148721Y-49619D01*
X151241Y-52139D01*
Y-57179D01*
Y-53399D01*
X146201D01*
X153761Y-49619D02*
X158801D01*
X156281D01*
Y-57179D01*
X166361Y-49619D02*
X161321D01*
Y-57179D01*
X166361D01*
X161321Y-53399D02*
X163841D01*
X168881Y-57179D02*
Y-49619D01*
X172661D01*
X173921Y-50879D01*
Y-53399D01*
X172661Y-54659D01*
X168881D01*
X171401D02*
X173921Y-57179D01*
X176441Y-49619D02*
X178961D01*
X177701D01*
Y-57179D01*
X176441D01*
X178961D01*
X182741D02*
Y-52139D01*
X185261Y-49619D01*
X187781Y-52139D01*
Y-57179D01*
Y-53399D01*
X182741D01*
X190301Y-49619D02*
Y-57179D01*
X195341D01*
X197861Y-52139D02*
X199121D01*
Y-53399D01*
X197861D01*
Y-52139D01*
Y-55919D02*
X199121D01*
Y-57179D01*
X197861D01*
Y-55919D01*
X300590Y-86239D02*
Y-93799D01*
X304371D01*
X305631Y-92539D01*
Y-87499D01*
X304371Y-86239D01*
X300590D01*
X308151Y-88759D02*
Y-93799D01*
Y-91279D01*
X309411Y-90019D01*
X310671Y-88759D01*
X311931D01*
X316971D02*
X319491D01*
X320751Y-90019D01*
Y-93799D01*
X316971D01*
X315711Y-92539D01*
X316971Y-91279D01*
X320751D01*
X323271Y-88759D02*
Y-92539D01*
X324531Y-93799D01*
X325791Y-92539D01*
X327051Y-93799D01*
X328311Y-92539D01*
Y-88759D01*
X330831Y-93799D02*
X333351D01*
X332091D01*
Y-88759D01*
X330831D01*
X337131Y-93799D02*
Y-88759D01*
X340911D01*
X342171Y-90019D01*
Y-93799D01*
X347211Y-96319D02*
X348471D01*
X349731Y-95059D01*
Y-88759D01*
X345951D01*
X344691Y-90019D01*
Y-92539D01*
X345951Y-93799D01*
X349731D01*
X352251Y-88759D02*
X353511D01*
Y-90019D01*
X352251D01*
Y-88759D01*
Y-92539D02*
X353511D01*
Y-93799D01*
X352251D01*
Y-92539D01*
X303859Y-50294D02*
X302599Y-49034D01*
X300079D01*
X298819Y-50294D01*
Y-51554D01*
X300079Y-52815D01*
X302599D01*
X303859Y-54075D01*
Y-55335D01*
X302599Y-56595D01*
X300079D01*
X298819Y-55335D01*
X306379Y-56595D02*
X308899D01*
X307639D01*
Y-51554D01*
X306379D01*
X312679Y-56595D02*
X315199D01*
X313939D01*
Y-49034D01*
X312679D01*
X318979Y-56595D02*
Y-49034D01*
Y-54075D02*
X322759Y-51554D01*
X318979Y-54075D02*
X322759Y-56595D01*
X326539D02*
X330319D01*
X331579Y-55335D01*
X330319Y-54075D01*
X327799D01*
X326539Y-52815D01*
X327799Y-51554D01*
X331579D01*
X339139D02*
X335359D01*
X334099Y-52815D01*
Y-55335D01*
X335359Y-56595D01*
X339139D01*
X341659Y-51554D02*
Y-56595D01*
Y-54075D01*
X342919Y-52815D01*
X344179Y-51554D01*
X345439D01*
X352999Y-56595D02*
X350479D01*
X349219Y-55335D01*
Y-52815D01*
X350479Y-51554D01*
X352999D01*
X354259Y-52815D01*
Y-54075D01*
X349219D01*
X360559Y-56595D02*
X358039D01*
X356779Y-55335D01*
Y-52815D01*
X358039Y-51554D01*
X360559D01*
X361819Y-52815D01*
Y-54075D01*
X356779D01*
X364339Y-56595D02*
Y-51554D01*
X368120D01*
X369379Y-52815D01*
Y-56595D01*
X384500Y-51554D02*
X380719D01*
X379460Y-52815D01*
Y-55335D01*
X380719Y-56595D01*
X384500D01*
X388280D02*
X390800D01*
X392060Y-55335D01*
Y-52815D01*
X390800Y-51554D01*
X388280D01*
X387020Y-52815D01*
Y-55335D01*
X388280Y-56595D01*
X394580D02*
X397100D01*
X395840D01*
Y-49034D01*
X394580D01*
X402140Y-56595D02*
X404660D01*
X405920Y-55335D01*
Y-52815D01*
X404660Y-51554D01*
X402140D01*
X400880Y-52815D01*
Y-55335D01*
X402140Y-56595D01*
X408440Y-51554D02*
Y-56595D01*
Y-54075D01*
X409700Y-52815D01*
X410960Y-51554D01*
X412220D01*
X416000D02*
X417260D01*
Y-52815D01*
X416000D01*
Y-51554D01*
Y-55335D02*
X417260D01*
Y-56595D01*
X416000D01*
Y-55335D01*
X432380Y-59114D02*
X433640D01*
X434900Y-57854D01*
Y-51554D01*
X431120D01*
X429860Y-52815D01*
Y-55335D01*
X431120Y-56595D01*
X434900D01*
X437420Y-51554D02*
Y-56595D01*
Y-54075D01*
X438680Y-52815D01*
X439940Y-51554D01*
X441200D01*
X448760Y-56595D02*
X446240D01*
X444980Y-55335D01*
Y-52815D01*
X446240Y-51554D01*
X448760D01*
X450020Y-52815D01*
Y-54075D01*
X444980D01*
X456320Y-56595D02*
X453800D01*
X452540Y-55335D01*
Y-52815D01*
X453800Y-51554D01*
X456320D01*
X457580Y-52815D01*
Y-54075D01*
X452540D01*
X460100Y-56595D02*
Y-51554D01*
X463880D01*
X465140Y-52815D01*
Y-56595D01*
X137361Y-68369D02*
Y-75929D01*
X141141D01*
X142401Y-74669D01*
Y-73409D01*
X141141Y-72149D01*
X137361D01*
X141141D01*
X142401Y-70889D01*
Y-69629D01*
X141141Y-68369D01*
X137361D01*
X146181Y-75929D02*
X148701D01*
X149961Y-74669D01*
Y-72149D01*
X148701Y-70889D01*
X146181D01*
X144921Y-72149D01*
Y-74669D01*
X146181Y-75929D01*
X153741Y-70889D02*
X156261D01*
X157521Y-72149D01*
Y-75929D01*
X153741D01*
X152481Y-74669D01*
X153741Y-73409D01*
X157521D01*
X160041Y-70889D02*
Y-75929D01*
Y-73409D01*
X161301Y-72149D01*
X162561Y-70889D01*
X163821D01*
X172641Y-68369D02*
Y-75929D01*
X168861D01*
X167601Y-74669D01*
Y-72149D01*
X168861Y-70889D01*
X172641D01*
X182721Y-68369D02*
X187761D01*
X185241D01*
Y-75929D01*
X190281D02*
X192801D01*
X191541D01*
Y-70889D01*
X190281D01*
X201621D02*
X197841D01*
X196581Y-72149D01*
Y-74669D01*
X197841Y-75929D01*
X201621D01*
X204141D02*
Y-68369D01*
Y-73409D02*
X207921Y-70889D01*
X204141Y-73409D02*
X207921Y-75929D01*
X211701D02*
Y-70889D01*
X215481D01*
X216741Y-72149D01*
Y-75929D01*
X223042D02*
X220521D01*
X219262Y-74669D01*
Y-72149D01*
X220521Y-70889D01*
X223042D01*
X224302Y-72149D01*
Y-73409D01*
X219262D01*
X226822Y-75929D02*
X230602D01*
X231862Y-74669D01*
X230602Y-73409D01*
X228082D01*
X226822Y-72149D01*
X228082Y-70889D01*
X231862D01*
X234382Y-75929D02*
X238162D01*
X239422Y-74669D01*
X238162Y-73409D01*
X235642D01*
X234382Y-72149D01*
X235642Y-70889D01*
X239422D01*
X241942D02*
X243202D01*
Y-72149D01*
X241942D01*
Y-70889D01*
Y-74669D02*
X243202D01*
Y-75929D01*
X241942D01*
Y-74669D01*
X299606Y-68424D02*
Y-75984D01*
X304646D01*
X308426Y-70944D02*
X310946D01*
X312206Y-72204D01*
Y-75984D01*
X308426D01*
X307166Y-74724D01*
X308426Y-73464D01*
X312206D01*
X314726Y-70944D02*
Y-74724D01*
X315986Y-75984D01*
X319766D01*
Y-77244D01*
X318506Y-78504D01*
X317246D01*
X319766Y-75984D02*
Y-70944D01*
X326066Y-75984D02*
X323547D01*
X322287Y-74724D01*
Y-72204D01*
X323547Y-70944D01*
X326066D01*
X327326Y-72204D01*
Y-73464D01*
X322287D01*
X329847Y-70944D02*
Y-75984D01*
Y-73464D01*
X331107Y-72204D01*
X332367Y-70944D01*
X333627D01*
X337407Y-75984D02*
X341187D01*
X342447Y-74724D01*
X341187Y-73464D01*
X338667D01*
X337407Y-72204D01*
X338667Y-70944D01*
X342447D01*
X344967D02*
X346227D01*
Y-72204D01*
X344967D01*
Y-70944D01*
Y-74724D02*
X346227D01*
Y-75984D01*
X344967D01*
Y-74724D01*
X358827Y-69684D02*
X360087Y-68424D01*
X362607D01*
X363867Y-69684D01*
Y-74724D01*
X362607Y-75984D01*
X360087D01*
X358827Y-74724D01*
Y-69684D01*
X371427Y-68424D02*
X368907Y-69684D01*
X366387Y-72204D01*
Y-74724D01*
X367647Y-75984D01*
X370167D01*
X371427Y-74724D01*
Y-73464D01*
X370167Y-72204D01*
X366387D01*
D18*
X483268Y-4924D02*
Y-11255D01*
X486433Y-14421D01*
X489599Y-11255D01*
Y-4924D01*
X492765Y-14421D02*
Y-8090D01*
X495930Y-4924D01*
X499096Y-8090D01*
Y-14421D01*
Y-9672D01*
X492765D01*
X502262Y-14421D02*
Y-4924D01*
X507010D01*
X508593Y-6507D01*
Y-9672D01*
X507010Y-11255D01*
X502262D01*
X505427D02*
X508593Y-14421D01*
X511759Y-4924D02*
X514924D01*
X513341D01*
Y-14421D01*
X511759D01*
X514924D01*
X519673D02*
Y-8090D01*
X522838Y-4924D01*
X526004Y-8090D01*
Y-14421D01*
Y-9672D01*
X519673D01*
X529170Y-14421D02*
Y-4924D01*
X535501Y-14421D01*
Y-4924D01*
X538666D02*
X544998D01*
X541832D01*
Y-14421D01*
X548163Y-8090D02*
X549746D01*
Y-9672D01*
X548163D01*
Y-8090D01*
Y-12838D02*
X549746D01*
Y-14421D01*
X548163D01*
Y-12838D01*
X483858Y-37157D02*
Y-27660D01*
X488607D01*
X490190Y-29243D01*
Y-32409D01*
X488607Y-33991D01*
X483858D01*
X487024D02*
X490190Y-37157D01*
X499686Y-27660D02*
X493355D01*
Y-37157D01*
X499686D01*
X493355Y-32409D02*
X496521D01*
X502852Y-27660D02*
Y-33991D01*
X506018Y-37157D01*
X509183Y-33991D01*
Y-27660D01*
X512349Y-37157D02*
Y-35574D01*
X513932D01*
Y-37157D01*
X512349D01*
D19*
X139272Y-27849D02*
X145936D01*
X142604D01*
Y-37846D01*
X149268Y-27849D02*
X152601D01*
X150935D01*
Y-37846D01*
X149268D01*
X152601D01*
X157599Y-27849D02*
X164264D01*
X160931D01*
Y-37846D01*
X167596Y-27849D02*
Y-37846D01*
X174260D01*
X184257Y-27849D02*
X177593D01*
Y-37846D01*
X184257D01*
X177593Y-32848D02*
X180925D01*
X187589Y-31182D02*
X189255D01*
Y-32848D01*
X187589D01*
Y-31182D01*
Y-36180D02*
X189255D01*
Y-37846D01*
X187589D01*
Y-36180D01*
X205917Y-27849D02*
Y-37846D01*
Y-32848D01*
X212581D01*
Y-27849D01*
Y-37846D01*
X215914D02*
Y-31182D01*
X219246Y-27849D01*
X222578Y-31182D01*
Y-37846D01*
Y-32848D01*
X215914D01*
X225910Y-37846D02*
Y-27849D01*
X230909D01*
X232575Y-29515D01*
Y-32848D01*
X230909Y-34514D01*
X225910D01*
X229243D02*
X232575Y-37846D01*
X242572Y-29515D02*
X240905Y-27849D01*
X237573D01*
X235907Y-29515D01*
Y-31182D01*
X237573Y-32848D01*
X240905D01*
X242572Y-34514D01*
Y-36180D01*
X240905Y-37846D01*
X237573D01*
X235907Y-36180D01*
X245904Y-27849D02*
Y-37846D01*
Y-32848D01*
X252568D01*
Y-27849D01*
Y-37846D01*
X265897D02*
Y-27849D01*
X270896D01*
X272562Y-29515D01*
Y-32848D01*
X270896Y-34514D01*
X265897D01*
X275894Y-37846D02*
Y-31182D01*
X279226Y-27849D01*
X282559Y-31182D01*
Y-37846D01*
Y-32848D01*
X275894D01*
X285891Y-27849D02*
Y-29515D01*
X289223Y-32848D01*
X292555Y-29515D01*
Y-27849D01*
X289223Y-32848D02*
Y-37846D01*
X295888Y-27849D02*
Y-37846D01*
X302552D01*
X310883Y-27849D02*
X307551D01*
X305885Y-29515D01*
Y-36180D01*
X307551Y-37846D01*
X310883D01*
X312549Y-36180D01*
Y-29515D01*
X310883Y-27849D01*
X315881Y-37846D02*
Y-31182D01*
X319214Y-27849D01*
X322546Y-31182D01*
Y-37846D01*
Y-32848D01*
X315881D01*
X325878Y-27849D02*
Y-37846D01*
X330876D01*
X332542Y-36180D01*
Y-29515D01*
X330876Y-27849D01*
X325878D01*
D22*
X116142Y159941D02*
D03*
X71457D02*
D03*
X57284D02*
D03*
X27362D02*
D03*
D23*
X106102Y148524D02*
D03*
X101181D02*
D03*
X96260D02*
D03*
X91339D02*
D03*
X86417D02*
D03*
X81496D02*
D03*
X47244D02*
D03*
X42323D02*
D03*
X37402D02*
D03*
D26*
X245472Y35827D02*
D03*
Y43012D02*
D03*
X227264Y142126D02*
D03*
Y149311D02*
D03*
Y77165D02*
D03*
Y69980D02*
D03*
X227165Y29035D02*
D03*
Y36220D02*
D03*
X111811Y131496D02*
D03*
Y138681D02*
D03*
X119783D02*
D03*
Y131496D02*
D03*
X28642Y35925D02*
D03*
Y28740D02*
D03*
X245472Y117323D02*
D03*
Y124508D02*
D03*
Y77854D02*
D03*
Y85039D02*
D03*
D27*
X147736Y116185D02*
D03*
Y123185D02*
D03*
X163287D02*
D03*
Y116185D02*
D03*
X168985Y123185D02*
D03*
Y116185D02*
D03*
X142323Y123185D02*
D03*
Y116185D02*
D03*
X227756Y118461D02*
D03*
Y111461D02*
D03*
X147736Y60772D02*
D03*
Y67772D02*
D03*
X163287D02*
D03*
Y60772D02*
D03*
X168985Y67772D02*
D03*
Y60772D02*
D03*
X142323Y67772D02*
D03*
Y60772D02*
D03*
X147736Y5260D02*
D03*
Y12260D02*
D03*
X163287Y5260D02*
D03*
Y12260D02*
D03*
X168799D02*
D03*
Y5260D02*
D03*
X142323D02*
D03*
Y12260D02*
D03*
X225167Y16732D02*
D03*
Y9732D02*
D03*
X103248Y62949D02*
D03*
Y55949D02*
D03*
X74213Y73961D02*
D03*
Y80961D02*
D03*
X90256Y58114D02*
D03*
Y65114D02*
D03*
X78122Y49957D02*
D03*
Y42957D02*
D03*
D28*
X36461Y112598D02*
D03*
X43461D02*
D03*
X160476Y161319D02*
D03*
X167476D02*
D03*
X175437D02*
D03*
X182437D02*
D03*
X155764D02*
D03*
X148764D02*
D03*
X182425Y116339D02*
D03*
X189425D02*
D03*
X160476Y106004D02*
D03*
X167476D02*
D03*
X175437D02*
D03*
X182437D02*
D03*
X148764D02*
D03*
X155764D02*
D03*
X189425Y60925D02*
D03*
X182425D02*
D03*
X220910Y63681D02*
D03*
X227909D02*
D03*
X160476Y50591D02*
D03*
X167476D02*
D03*
X175437D02*
D03*
X182437D02*
D03*
X155764D02*
D03*
X148764D02*
D03*
X189425Y5413D02*
D03*
X182425D02*
D03*
X71205Y91929D02*
D03*
X78205D02*
D03*
X29681Y43504D02*
D03*
X22681D02*
D03*
X63638Y50394D02*
D03*
X56638D02*
D03*
Y44291D02*
D03*
X63638D02*
D03*
X234394Y142028D02*
D03*
X241394D02*
D03*
Y102756D02*
D03*
X234394D02*
D03*
X234394Y61122D02*
D03*
X241394D02*
D03*
D29*
X211172Y163976D02*
D03*
X26522Y111909D02*
D03*
X82874Y9711D02*
D03*
D30*
X36220Y140059D02*
D03*
X43406D02*
D03*
X29823Y52067D02*
D03*
X22638D02*
D03*
X43406Y58465D02*
D03*
X36220D02*
D03*
X91240Y129626D02*
D03*
X84055D02*
D03*
D31*
X226772Y53024D02*
D03*
Y44024D02*
D03*
Y134224D02*
D03*
Y125224D02*
D03*
X226764Y95502D02*
D03*
Y86502D02*
D03*
D32*
X240256Y35827D02*
D03*
X237697D02*
D03*
X235138D02*
D03*
Y28543D02*
D03*
X237697D02*
D03*
X240256D02*
D03*
X240256Y117520D02*
D03*
X237697D02*
D03*
X235138D02*
D03*
Y110236D02*
D03*
X237697D02*
D03*
X240256D02*
D03*
Y78150D02*
D03*
X237697D02*
D03*
X235138D02*
D03*
Y70866D02*
D03*
X237697D02*
D03*
X240256D02*
D03*
D33*
X233169Y53524D02*
D03*
X235728D02*
D03*
X238287D02*
D03*
X240846D02*
D03*
Y43209D02*
D03*
X238287D02*
D03*
X235728D02*
D03*
X233169D02*
D03*
X43701Y120138D02*
D03*
X41142D02*
D03*
X38583D02*
D03*
X36024D02*
D03*
Y130453D02*
D03*
X38583D02*
D03*
X41142D02*
D03*
X43701D02*
D03*
X233169Y134882D02*
D03*
X235728D02*
D03*
X238287D02*
D03*
X240846D02*
D03*
Y124567D02*
D03*
X238287D02*
D03*
X235728D02*
D03*
X233169D02*
D03*
Y95512D02*
D03*
X235728D02*
D03*
X238287D02*
D03*
X240846D02*
D03*
Y85197D02*
D03*
X238287D02*
D03*
X235728D02*
D03*
X233169D02*
D03*
D73*
X36319Y51870D02*
D03*
Y44390D02*
D03*
X45768D02*
D03*
Y48130D02*
D03*
Y51870D02*
D03*
D74*
X61882Y58957D02*
D03*
X52882D02*
D03*
X78122Y35531D02*
D03*
X69122D02*
D03*
D75*
X56496Y24409D02*
D03*
X45276D02*
D03*
D76*
X39173Y103248D02*
D03*
Y99311D02*
D03*
Y95374D02*
D03*
Y91437D02*
D03*
Y87500D02*
D03*
Y83563D02*
D03*
Y79626D02*
D03*
Y75689D02*
D03*
Y71752D02*
D03*
Y67815D02*
D03*
X61221D02*
D03*
Y71752D02*
D03*
Y75689D02*
D03*
Y79626D02*
D03*
Y83563D02*
D03*
Y87500D02*
D03*
Y91437D02*
D03*
Y95374D02*
D03*
Y99311D02*
D03*
Y103248D02*
D03*
D77*
X110728Y110433D02*
D03*
Y105315D02*
D03*
X94980Y90059D02*
D03*
Y95177D02*
D03*
Y81496D02*
D03*
Y76378D02*
D03*
X130413Y75886D02*
D03*
Y70768D02*
D03*
X78839Y81398D02*
D03*
Y76280D02*
D03*
X77756Y122638D02*
D03*
Y117520D02*
D03*
X105512Y112992D02*
D03*
Y107874D02*
D03*
X130413Y98327D02*
D03*
Y103445D02*
D03*
X72933Y57579D02*
D03*
Y62697D02*
D03*
D78*
X85433Y85630D02*
D03*
X80315D02*
D03*
X94882Y67913D02*
D03*
X100000D02*
D03*
X94882Y72146D02*
D03*
X100000D02*
D03*
X104331Y85630D02*
D03*
X99213D02*
D03*
X89665Y85630D02*
D03*
X94783D02*
D03*
X113878Y85630D02*
D03*
X108760D02*
D03*
X118898D02*
D03*
X124016D02*
D03*
X92520Y108858D02*
D03*
X97638D02*
D03*
X78740Y100492D02*
D03*
X73622D02*
D03*
X73524Y96457D02*
D03*
X78642D02*
D03*
M02*
