G04*
G04 #@! TF.GenerationSoftware,Altium Limited,Altium Designer,18.1.7 (191)*
G04*
G04 Layer_Physical_Order=5*
G04 Layer_Color=16440176*
%FSLAX25Y25*%
%MOIN*%
G70*
G01*
G75*
%ADD13C,0.00787*%
%ADD48C,0.15748*%
%ADD49C,0.00500*%
%ADD50C,0.00400*%
%ADD54C,0.06299*%
%ADD55R,0.06299X0.06299*%
%ADD56C,0.02362*%
%ADD57C,0.01772*%
%ADD58C,0.02165*%
G36*
X101169Y153642D02*
X101013Y153640D01*
X100728Y153617D01*
X100601Y153596D01*
X100483Y153568D01*
X100375Y153533D01*
X100277Y153492D01*
X100189Y153444D01*
X100110Y153390D01*
X100040Y153329D01*
X99687Y153682D01*
X99748Y153751D01*
X99802Y153830D01*
X99850Y153919D01*
X99891Y154017D01*
X99926Y154125D01*
X99954Y154243D01*
X99975Y154370D01*
X99990Y154507D01*
X100000Y154811D01*
X101169Y153642D01*
D02*
G37*
G36*
X96248D02*
X96091Y153640D01*
X95807Y153617D01*
X95680Y153596D01*
X95562Y153568D01*
X95454Y153533D01*
X95356Y153492D01*
X95267Y153444D01*
X95188Y153390D01*
X95119Y153329D01*
X94766Y153682D01*
X94827Y153751D01*
X94881Y153830D01*
X94929Y153919D01*
X94970Y154017D01*
X95005Y154125D01*
X95033Y154243D01*
X95054Y154370D01*
X95069Y154507D01*
X95079Y154811D01*
X96248Y153642D01*
D02*
G37*
G36*
X92056Y153867D02*
X91871Y153650D01*
X91796Y153545D01*
X91733Y153442D01*
X91681Y153341D01*
X91641Y153242D01*
X91612Y153146D01*
X91594Y153052D01*
X91589Y152960D01*
X91089D01*
X91083Y153052D01*
X91066Y153146D01*
X91037Y153242D01*
X90996Y153341D01*
X90944Y153442D01*
X90881Y153545D01*
X90806Y153650D01*
X90719Y153758D01*
X90512Y153979D01*
X92165D01*
X92056Y153867D01*
D02*
G37*
G36*
X87134D02*
X86950Y153650D01*
X86875Y153545D01*
X86812Y153442D01*
X86760Y153341D01*
X86719Y153242D01*
X86690Y153146D01*
X86673Y153052D01*
X86667Y152960D01*
X86167D01*
X86162Y153052D01*
X86144Y153146D01*
X86115Y153242D01*
X86075Y153341D01*
X86023Y153442D01*
X85960Y153545D01*
X85885Y153650D01*
X85798Y153758D01*
X85590Y153979D01*
X87244D01*
X87134Y153867D01*
D02*
G37*
G36*
X10000Y169632D02*
X229323D01*
X229331Y169630D01*
X240222D01*
X241656Y169489D01*
X243249Y169006D01*
X244717Y168221D01*
X246004Y167165D01*
X247060Y165879D01*
X247845Y164411D01*
X248328Y162818D01*
X248484Y161230D01*
X248471Y161161D01*
Y146987D01*
X248470Y146865D01*
X248471Y146860D01*
Y130793D01*
X247971Y130637D01*
X247337Y131060D01*
X246486Y131230D01*
X245635Y131060D01*
X244964Y130612D01*
X244463Y130736D01*
Y131043D01*
X244367Y131531D01*
X244090Y131944D01*
X231236Y144799D01*
X230822Y145075D01*
X230334Y145172D01*
X159816D01*
X159328Y145075D01*
X158915Y144799D01*
X153737Y139621D01*
X144399D01*
X143911Y139524D01*
X143498Y139248D01*
X138737Y134487D01*
X136898D01*
X136581Y134873D01*
X136673Y135335D01*
X136503Y136186D01*
X136377Y136375D01*
X136612Y136816D01*
X137823D01*
X138311Y136913D01*
X138724Y137189D01*
X139927Y138392D01*
X140748Y138229D01*
X141599Y138398D01*
X142321Y138880D01*
X142803Y139602D01*
X142972Y140453D01*
X142803Y141304D01*
X142321Y142025D01*
X141599Y142507D01*
X140748Y142677D01*
X139897Y142507D01*
X139175Y142025D01*
X138867Y141563D01*
X138272Y141553D01*
X138088Y141828D01*
X137367Y142311D01*
X136516Y142480D01*
X135665Y142311D01*
X134943Y141828D01*
X134887Y141744D01*
X134782Y141645D01*
X134727Y141602D01*
X134674Y141564D01*
X134633Y141539D01*
X134617Y141530D01*
X131299D01*
X130812Y141433D01*
X130398Y141157D01*
X126129Y136888D01*
X94068D01*
X93647Y137332D01*
X93661Y137402D01*
X93641Y137501D01*
X93646Y137645D01*
X93653Y137715D01*
X93664Y137779D01*
X93675Y137825D01*
X93681Y137843D01*
X94897Y139059D01*
X95174Y139473D01*
X95230Y139754D01*
X95274Y139820D01*
X95627Y140073D01*
X95771Y140118D01*
X96358Y140001D01*
X97209Y140170D01*
X97931Y140652D01*
X98413Y141373D01*
X98582Y142224D01*
X98413Y143075D01*
X97931Y143797D01*
X97209Y144279D01*
X96358Y144448D01*
X95771Y144331D01*
X95271Y144676D01*
Y147110D01*
X100740Y152579D01*
X100757Y152585D01*
X100804Y152596D01*
X100855Y152604D01*
X101059Y152621D01*
X101070Y152621D01*
X101181Y152599D01*
X102032Y152768D01*
X102754Y153250D01*
X103236Y153972D01*
X103405Y154823D01*
X103236Y155674D01*
X102754Y156395D01*
X102032Y156877D01*
X101181Y157047D01*
X100330Y156877D01*
X99609Y156395D01*
X99126Y155674D01*
X98967Y154872D01*
X98964Y154868D01*
X98617Y154937D01*
X98444Y155055D01*
X98434Y155072D01*
X98314Y155674D01*
X97832Y156395D01*
X97111Y156877D01*
X96260Y157047D01*
X95409Y156877D01*
X94687Y156395D01*
X94205Y155674D01*
X94046Y154872D01*
X94042Y154868D01*
X93695Y154937D01*
X93523Y155055D01*
X93513Y155072D01*
X93393Y155674D01*
X92911Y156395D01*
X92190Y156877D01*
X91339Y157047D01*
X90488Y156877D01*
X89766Y156395D01*
X89284Y155674D01*
X89115Y154823D01*
X89284Y153972D01*
X89766Y153250D01*
X89850Y153194D01*
X89949Y153089D01*
X89993Y153034D01*
X90031Y152981D01*
X90056Y152940D01*
X90064Y152924D01*
Y152128D01*
X88096Y150160D01*
X87636Y150406D01*
X87692Y150689D01*
Y152924D01*
X87700Y152940D01*
X87725Y152981D01*
X87755Y153023D01*
X87888Y153180D01*
X87896Y153187D01*
X87990Y153250D01*
X88472Y153972D01*
X88641Y154823D01*
X88472Y155674D01*
X87990Y156395D01*
X87268Y156877D01*
X86417Y157047D01*
X85566Y156877D01*
X84845Y156395D01*
X84363Y155674D01*
X84193Y154823D01*
X84363Y153972D01*
X84845Y153250D01*
X84929Y153194D01*
X85028Y153089D01*
X85072Y153034D01*
X85109Y152981D01*
X85134Y152940D01*
X85143Y152924D01*
Y151217D01*
X82976Y149050D01*
X39630D01*
X39142Y148953D01*
X38729Y148677D01*
X22822Y132771D01*
X22273D01*
X22256Y132779D01*
X22216Y132804D01*
X22174Y132834D01*
X22017Y132967D01*
X22009Y132974D01*
X21947Y133069D01*
X21225Y133551D01*
X20374Y133720D01*
X19523Y133551D01*
X18801Y133069D01*
X18319Y132347D01*
X18150Y131496D01*
X18319Y130645D01*
X18801Y129924D01*
X19523Y129441D01*
X19930Y129361D01*
X20382Y129241D01*
X20502Y128788D01*
X20583Y128381D01*
X21065Y127660D01*
X21787Y127178D01*
X22194Y127097D01*
X22646Y126977D01*
X22766Y126524D01*
X22847Y126118D01*
X23329Y125396D01*
X24051Y124914D01*
X24457Y124833D01*
X24910Y124713D01*
X25030Y124260D01*
X25111Y123854D01*
X25593Y123132D01*
X26314Y122650D01*
X27165Y122481D01*
X28016Y122650D01*
X28738Y123132D01*
X29220Y123854D01*
X29389Y124705D01*
X29220Y125556D01*
X28738Y126277D01*
X28653Y126334D01*
X28555Y126439D01*
X28511Y126493D01*
X28473Y126546D01*
X28448Y126587D01*
X28440Y126603D01*
Y129689D01*
X36847Y138096D01*
X77720D01*
X80102Y135714D01*
X79911Y135251D01*
X73848D01*
X73831Y135260D01*
X73790Y135285D01*
X73748Y135315D01*
X73592Y135448D01*
X73584Y135455D01*
X73521Y135549D01*
X72800Y136032D01*
X71949Y136201D01*
X71098Y136032D01*
X70376Y135549D01*
X69894Y134828D01*
X69725Y133977D01*
X69894Y133126D01*
X70376Y132404D01*
X71098Y131922D01*
X71949Y131753D01*
X72800Y131922D01*
X73521Y132404D01*
X73578Y132489D01*
X73683Y132588D01*
X73737Y132631D01*
X73790Y132669D01*
X73831Y132694D01*
X73848Y132703D01*
X92146D01*
X92634Y132800D01*
X93047Y133076D01*
X94311Y134339D01*
X105457D01*
X105608Y133839D01*
X105420Y133714D01*
X105233Y133433D01*
X107169D01*
X106981Y133714D01*
X106793Y133839D01*
X106945Y134339D01*
X110945D01*
X111137Y133877D01*
X107176Y129916D01*
X102095D01*
X102079Y129925D01*
X102038Y129950D01*
X101997Y129980D01*
X101840Y130113D01*
X101832Y130120D01*
X101769Y130214D01*
X101048Y130696D01*
X100197Y130866D01*
X99346Y130696D01*
X98624Y130214D01*
X98142Y129493D01*
X97973Y128642D01*
X98142Y127791D01*
X98624Y127069D01*
X99346Y126587D01*
X100197Y126418D01*
X100956Y126569D01*
X101230Y126425D01*
X101434Y126244D01*
X101587Y125476D01*
X102069Y124754D01*
X102701Y124332D01*
X102864Y123787D01*
X102202Y123125D01*
X101693Y123324D01*
X101562Y123981D01*
X101080Y124702D01*
X100359Y125185D01*
X99508Y125354D01*
X98657Y125185D01*
X97935Y124702D01*
X97879Y124618D01*
X97774Y124519D01*
X97719Y124476D01*
X97666Y124438D01*
X97625Y124413D01*
X97609Y124404D01*
X33071D01*
X32583Y124307D01*
X32170Y124031D01*
X31409Y123270D01*
X31395Y123264D01*
X31351Y123247D01*
X31287Y123227D01*
X31216Y123210D01*
X30984Y123167D01*
X30849Y123151D01*
X30754Y123119D01*
X30251Y123019D01*
X29530Y122537D01*
X29048Y121816D01*
X28879Y120965D01*
X29048Y120114D01*
X29530Y119392D01*
X30251Y118910D01*
X31102Y118741D01*
X31953Y118910D01*
X32675Y119392D01*
X33157Y120114D01*
X33326Y120965D01*
X33284Y121177D01*
X33288Y121220D01*
X33275Y121341D01*
X33272Y121420D01*
X33273Y121483D01*
X33277Y121528D01*
X33278Y121535D01*
X33599Y121855D01*
X45770D01*
X46181Y121355D01*
X46103Y120965D01*
X46272Y120114D01*
X46754Y119392D01*
X47476Y118910D01*
X48327Y118741D01*
X49178Y118910D01*
X49899Y119392D01*
X49956Y119476D01*
X50061Y119575D01*
X50115Y119619D01*
X50168Y119657D01*
X50209Y119682D01*
X50225Y119690D01*
X55770D01*
X56143Y119190D01*
X56046Y118701D01*
X56208Y117888D01*
X56458Y117514D01*
X56634Y117126D01*
X56458Y116738D01*
X56208Y116364D01*
X56046Y115551D01*
X56208Y114739D01*
X56583Y114176D01*
X56395Y113676D01*
X52542D01*
X52295Y114176D01*
X52645Y114700D01*
X52814Y115551D01*
X52645Y116402D01*
X52163Y117124D01*
X51442Y117606D01*
X50591Y117775D01*
X49740Y117606D01*
X49018Y117124D01*
X48536Y116402D01*
X48367Y115551D01*
X48536Y114700D01*
X48886Y114176D01*
X48640Y113676D01*
X30646D01*
X15756Y128566D01*
X15021Y131028D01*
X14888Y131590D01*
X14888Y131590D01*
X14870Y131733D01*
X14451Y132742D01*
X13786Y133609D01*
X12920Y134274D01*
X11910Y134692D01*
X10827Y134835D01*
X9743Y134692D01*
X8734Y134274D01*
X7867Y133609D01*
X7202Y132742D01*
X6784Y131733D01*
X6641Y130650D01*
X6784Y129566D01*
X7202Y128557D01*
X7867Y127690D01*
X8734Y127025D01*
X9743Y126607D01*
X10827Y126464D01*
X11910Y126607D01*
X11972Y126632D01*
X12653Y126776D01*
X12979Y126819D01*
X13271Y126841D01*
X13515Y126840D01*
X13708Y126823D01*
X13847Y126794D01*
X13933Y126764D01*
X13973Y126742D01*
X13985Y126732D01*
X18331Y122386D01*
X18140Y121924D01*
X15867D01*
X15813Y121940D01*
X15694Y121991D01*
X15525Y122085D01*
X15314Y122224D01*
X15085Y122395D01*
X14148Y123226D01*
X13862Y123511D01*
X13786Y123609D01*
X12920Y124274D01*
X11910Y124692D01*
X10827Y124835D01*
X9743Y124692D01*
X8734Y124274D01*
X7867Y123609D01*
X7202Y122742D01*
X6784Y121733D01*
X6641Y120650D01*
X6784Y119566D01*
X7202Y118557D01*
X7867Y117690D01*
X8734Y117025D01*
X9743Y116607D01*
X10827Y116464D01*
X11910Y116607D01*
X12920Y117025D01*
X13786Y117690D01*
X13857Y117782D01*
X14488Y118395D01*
X15077Y118899D01*
X15314Y119076D01*
X15525Y119214D01*
X15694Y119308D01*
X15813Y119360D01*
X15867Y119375D01*
X19374D01*
X28488Y110260D01*
X28902Y109984D01*
X29390Y109887D01*
X34476D01*
X34743Y109387D01*
X34538Y109080D01*
X34376Y108268D01*
X34538Y107455D01*
X34999Y106766D01*
X35687Y106306D01*
X36500Y106144D01*
X37313Y106306D01*
X38001Y106766D01*
X38462Y107455D01*
X38623Y108268D01*
X38462Y109080D01*
X38257Y109387D01*
X38524Y109887D01*
X56975D01*
X57127Y109387D01*
X56668Y109080D01*
X56208Y108391D01*
X56046Y107579D01*
X56208Y106766D01*
X56668Y106077D01*
X57357Y105617D01*
X58169Y105455D01*
X58982Y105617D01*
X59671Y106077D01*
X60131Y106766D01*
X60293Y107579D01*
X60131Y108391D01*
X59671Y109080D01*
X59212Y109387D01*
X59364Y109887D01*
X60433D01*
X60921Y109984D01*
X61334Y110260D01*
X61502Y110512D01*
X65636D01*
X67356Y108793D01*
X67815Y108602D01*
X71358D01*
X71817Y108793D01*
X72462Y109438D01*
X72496Y109452D01*
X72542Y109467D01*
X72598Y109481D01*
X72658Y109492D01*
X72831Y109507D01*
X72929Y109508D01*
X72960Y109521D01*
X73076Y109544D01*
X73322Y109083D01*
X72474Y108235D01*
X72284Y107776D01*
Y105843D01*
X72270Y105809D01*
X72248Y105765D01*
X72219Y105716D01*
X72184Y105666D01*
X72072Y105533D01*
X72003Y105463D01*
X72002Y105459D01*
X71998Y105457D01*
X71924Y105385D01*
X71860Y105328D01*
X71800Y105280D01*
X71745Y105242D01*
X71695Y105212D01*
X71652Y105190D01*
X71618Y105177D01*
X66903D01*
X64873Y107206D01*
X64859Y107240D01*
X64844Y107286D01*
X64830Y107342D01*
X64819Y107402D01*
X64804Y107575D01*
X64803Y107674D01*
X64790Y107704D01*
X64696Y108179D01*
X64411Y108604D01*
X63986Y108888D01*
X63484Y108988D01*
X62983Y108888D01*
X62557Y108604D01*
X62273Y108179D01*
X62173Y107677D01*
X62273Y107176D01*
X62557Y106750D01*
X62983Y106466D01*
X63458Y106371D01*
X63488Y106358D01*
X63592Y106357D01*
X63677Y106352D01*
X63753Y106343D01*
X63819Y106332D01*
X63875Y106318D01*
X63922Y106302D01*
X63955Y106288D01*
X66175Y104068D01*
X66634Y103878D01*
X71618D01*
X71652Y103865D01*
X71695Y103843D01*
X71745Y103813D01*
X71795Y103778D01*
X71928Y103666D01*
X71998Y103598D01*
X72029Y103585D01*
X72431Y103316D01*
X72933Y103217D01*
X73435Y103316D01*
X73860Y103601D01*
X74144Y104026D01*
X74244Y104527D01*
X74144Y105029D01*
X73875Y105432D01*
X73863Y105463D01*
X73790Y105537D01*
X73734Y105601D01*
X73686Y105661D01*
X73648Y105716D01*
X73618Y105765D01*
X73596Y105809D01*
X73583Y105843D01*
Y107507D01*
X74437Y108361D01*
X74450Y108355D01*
X74849Y108066D01*
X74772Y107677D01*
X74871Y107176D01*
X75156Y106750D01*
X75581Y106466D01*
X76083Y106366D01*
X76584Y106466D01*
X77010Y106750D01*
X77294Y107176D01*
X77394Y107677D01*
X77294Y108179D01*
X77010Y108604D01*
X76584Y108888D01*
X76083Y108988D01*
X75746Y108921D01*
X75370Y109186D01*
X75315Y109265D01*
X75331Y109286D01*
X75773Y109577D01*
X76083Y109516D01*
X76584Y109616D01*
X77010Y109900D01*
X77294Y110325D01*
X77394Y110827D01*
X77374Y110924D01*
X77658Y111295D01*
X77941Y110924D01*
X77921Y110827D01*
X78021Y110325D01*
X78305Y109900D01*
X78731Y109616D01*
X79232Y109516D01*
X79734Y109616D01*
X80159Y109900D01*
X80444Y110325D01*
X80543Y110827D01*
X80524Y110924D01*
X80807Y111295D01*
X81090Y110924D01*
X81071Y110827D01*
X81171Y110325D01*
X81455Y109900D01*
X81880Y109616D01*
X82382Y109516D01*
X82525Y109544D01*
X82771Y109083D01*
X77826Y104138D01*
X77365Y104385D01*
X77394Y104527D01*
X77294Y105029D01*
X77010Y105455D01*
X76584Y105739D01*
X76083Y105839D01*
X75581Y105739D01*
X75156Y105455D01*
X74871Y105029D01*
X74772Y104527D01*
X74871Y104026D01*
X75156Y103601D01*
X75581Y103316D01*
X76083Y103217D01*
X76226Y103245D01*
X76472Y102784D01*
X60730Y87042D01*
X60433Y87101D01*
X59945Y87004D01*
X59532Y86728D01*
X57641Y84838D01*
X53906D01*
X53879Y84853D01*
X53851Y84873D01*
X53724Y84980D01*
X53667Y85065D01*
X53418Y85231D01*
Y85832D01*
X53667Y85998D01*
X54127Y86687D01*
X54289Y87500D01*
X54127Y88313D01*
X53667Y89002D01*
X53418Y89168D01*
Y89769D01*
X53667Y89935D01*
X54127Y90624D01*
X54289Y91437D01*
X54127Y92250D01*
X53667Y92939D01*
X53418Y93105D01*
Y93706D01*
X53667Y93872D01*
X54127Y94561D01*
X54289Y95374D01*
X54127Y96187D01*
X53667Y96876D01*
X53418Y97042D01*
Y97643D01*
X53667Y97809D01*
X54127Y98498D01*
X54289Y99311D01*
X54127Y100124D01*
X53667Y100812D01*
X53356Y101020D01*
X53134Y101552D01*
X53473Y102370D01*
X53588Y103248D01*
X53473Y104126D01*
X53134Y104944D01*
X52595Y105646D01*
X51893Y106185D01*
X51075Y106524D01*
X50197Y106639D01*
X49319Y106524D01*
X48501Y106185D01*
X47799Y105646D01*
X47260Y104944D01*
X46921Y104126D01*
X46806Y103248D01*
X46921Y102370D01*
X47260Y101552D01*
X47799Y100850D01*
X48501Y100311D01*
X49319Y99972D01*
X49789Y99910D01*
X50080Y99504D01*
X50042Y99311D01*
X50204Y98498D01*
X50664Y97809D01*
X50913Y97643D01*
Y97042D01*
X50664Y96876D01*
X50204Y96187D01*
X50042Y95374D01*
X50062Y95273D01*
X50062Y95263D01*
X50057Y95185D01*
X50050Y95122D01*
X50041Y95074D01*
X50034Y95045D01*
X48660Y93671D01*
X48566Y93624D01*
X48529Y93608D01*
X48210Y93503D01*
X48090Y93471D01*
X48035Y93444D01*
X47809Y93399D01*
X47120Y92939D01*
X46660Y92250D01*
X46499Y91437D01*
X46660Y90624D01*
X47120Y89935D01*
X47809Y89475D01*
X48622Y89314D01*
X49435Y89475D01*
X50124Y89935D01*
X50596Y89871D01*
X50858Y89628D01*
X50832Y89114D01*
X50664Y89002D01*
X50607Y88916D01*
X50599Y88908D01*
X50541Y88857D01*
X50491Y88818D01*
X50452Y88790D01*
X50425Y88775D01*
X38520D01*
X32250Y95045D01*
X32242Y95074D01*
X32236Y95108D01*
X32222Y95274D01*
X32242Y95374D01*
X32080Y96187D01*
X31620Y96876D01*
X31371Y97042D01*
Y97643D01*
X31620Y97809D01*
X32080Y98498D01*
X32242Y99311D01*
X32080Y100124D01*
X31620Y100812D01*
X31297Y101028D01*
Y101629D01*
X31620Y101845D01*
X32080Y102534D01*
X32242Y103347D01*
X32080Y104159D01*
X31620Y104848D01*
X30931Y105308D01*
X30118Y105470D01*
X29305Y105308D01*
X28617Y104848D01*
X28156Y104159D01*
X27995Y103347D01*
X28156Y102534D01*
X28617Y101845D01*
X28926Y101638D01*
X28937Y101159D01*
X28524Y100824D01*
X28118Y100875D01*
X26241Y102752D01*
X25828Y103028D01*
X25340Y103125D01*
X20154D01*
X15292Y107987D01*
X15265Y108036D01*
X15217Y108156D01*
X15164Y108343D01*
X15113Y108589D01*
X15072Y108873D01*
X14997Y110123D01*
X14996Y110527D01*
X15012Y110650D01*
X14870Y111733D01*
X14451Y112742D01*
X13786Y113609D01*
X12920Y114274D01*
X11910Y114692D01*
X10827Y114835D01*
X9743Y114692D01*
X8734Y114274D01*
X7867Y113609D01*
X7202Y112742D01*
X6784Y111733D01*
X6641Y110650D01*
X6784Y109566D01*
X7202Y108557D01*
X7867Y107690D01*
X8734Y107025D01*
X9743Y106607D01*
X10827Y106464D01*
X10941Y106479D01*
X11821Y106467D01*
X12594Y106406D01*
X12887Y106363D01*
X13134Y106312D01*
X13320Y106259D01*
X13441Y106211D01*
X13490Y106184D01*
X17288Y102386D01*
X17097Y101924D01*
X15867D01*
X15813Y101940D01*
X15694Y101991D01*
X15525Y102085D01*
X15314Y102224D01*
X15085Y102395D01*
X14148Y103226D01*
X13862Y103511D01*
X13786Y103609D01*
X12920Y104274D01*
X11910Y104692D01*
X10827Y104835D01*
X9743Y104692D01*
X8734Y104274D01*
X7867Y103609D01*
X7202Y102742D01*
X6784Y101733D01*
X6641Y100650D01*
X6784Y99566D01*
X7202Y98557D01*
X7867Y97690D01*
X8734Y97025D01*
X9743Y96607D01*
X10827Y96464D01*
X11910Y96607D01*
X12920Y97025D01*
X13786Y97690D01*
X13857Y97782D01*
X14488Y98395D01*
X15077Y98899D01*
X15314Y99076D01*
X15525Y99214D01*
X15694Y99308D01*
X15813Y99360D01*
X15867Y99375D01*
X24315D01*
X27986Y95703D01*
X27994Y95674D01*
X28000Y95640D01*
X28015Y95474D01*
X27995Y95374D01*
X28156Y94561D01*
X28617Y93872D01*
X28866Y93706D01*
Y93105D01*
X28617Y92939D01*
X28559Y92853D01*
X28552Y92846D01*
X28494Y92794D01*
X28444Y92755D01*
X28404Y92727D01*
X28378Y92712D01*
X15775D01*
X13481Y93920D01*
X13028Y94191D01*
X12920Y94274D01*
X11910Y94692D01*
X10827Y94835D01*
X9743Y94692D01*
X8734Y94274D01*
X7867Y93609D01*
X7202Y92742D01*
X6784Y91733D01*
X6641Y90650D01*
X6784Y89566D01*
X7202Y88557D01*
X7867Y87690D01*
X8734Y87025D01*
X9743Y86607D01*
X10827Y86464D01*
X11910Y86607D01*
X12920Y87025D01*
X13786Y87690D01*
X14451Y88557D01*
X14486Y88641D01*
X14877Y89260D01*
X15070Y89520D01*
X15256Y89740D01*
X15424Y89911D01*
X15568Y90033D01*
X15683Y90110D01*
X15763Y90148D01*
X15805Y90161D01*
X15822Y90162D01*
X17884D01*
X18075Y89701D01*
X13490Y85115D01*
X13441Y85088D01*
X13320Y85040D01*
X13134Y84987D01*
X12887Y84936D01*
X12603Y84895D01*
X11353Y84820D01*
X10950Y84819D01*
X10827Y84835D01*
X9743Y84692D01*
X8734Y84274D01*
X7867Y83609D01*
X7202Y82742D01*
X6784Y81733D01*
X6641Y80650D01*
X6784Y79566D01*
X7202Y78557D01*
X7867Y77690D01*
X8734Y77025D01*
X9743Y76607D01*
X10827Y76464D01*
X11910Y76607D01*
X12920Y77025D01*
X13786Y77690D01*
X14451Y78557D01*
X14870Y79566D01*
X15012Y80650D01*
X14997Y80764D01*
X15010Y81644D01*
X15070Y82417D01*
X15113Y82710D01*
X15164Y82957D01*
X15217Y83143D01*
X15265Y83263D01*
X15292Y83313D01*
X20941Y88962D01*
X26854D01*
X27986Y87829D01*
X27994Y87800D01*
X28000Y87766D01*
X28015Y87600D01*
X27995Y87500D01*
X28156Y86687D01*
X28617Y85998D01*
X28866Y85832D01*
Y85231D01*
X28617Y85065D01*
X28156Y84376D01*
X27995Y83563D01*
X28156Y82750D01*
X28617Y82061D01*
X28866Y81895D01*
Y81294D01*
X28617Y81128D01*
X28156Y80439D01*
X27995Y79626D01*
X28156Y78813D01*
X28617Y78124D01*
X29305Y77664D01*
X30118Y77503D01*
X30931Y77664D01*
X31620Y78124D01*
X32080Y78813D01*
X32242Y79626D01*
X32221Y79727D01*
X32222Y79737D01*
X32226Y79815D01*
X32234Y79878D01*
X32242Y79926D01*
X32250Y79955D01*
X32575Y80281D01*
X44492D01*
X48016Y76756D01*
X48356Y76529D01*
X48434Y76455D01*
X48525Y75951D01*
X48235Y75517D01*
X48073Y74705D01*
X48235Y73892D01*
X48695Y73203D01*
X49384Y72743D01*
X50197Y72581D01*
X51010Y72743D01*
X51698Y73203D01*
X52159Y73892D01*
X52320Y74705D01*
X52159Y75517D01*
X51914Y75883D01*
X52182Y76383D01*
X57407D01*
X57895Y76480D01*
X58308Y76756D01*
X61334Y79782D01*
X61611Y80196D01*
X61708Y80684D01*
X61648Y80981D01*
X79821Y99154D01*
X81341D01*
X81562Y98728D01*
X83202D01*
X83423Y99154D01*
X84082D01*
X84305Y98654D01*
X84220Y98228D01*
X84320Y97727D01*
X84605Y97301D01*
X85030Y97017D01*
X85532Y96917D01*
X86033Y97017D01*
X86458Y97301D01*
X86743Y97727D01*
X86843Y98228D01*
X86823Y98325D01*
X87106Y98697D01*
X87389Y98325D01*
X87370Y98228D01*
X87470Y97727D01*
X87754Y97301D01*
X88179Y97017D01*
X88681Y96917D01*
X89183Y97017D01*
X89608Y97301D01*
X89892Y97727D01*
X89992Y98228D01*
X89907Y98654D01*
X90130Y99154D01*
X90256D01*
X90715Y99344D01*
X91360Y99989D01*
X91393Y100003D01*
X91440Y100019D01*
X91496Y100033D01*
X91556Y100043D01*
X91729Y100058D01*
X91827Y100059D01*
X91857Y100072D01*
X92332Y100167D01*
X92758Y100451D01*
X93042Y100876D01*
X93142Y101378D01*
X93042Y101880D01*
X92758Y102305D01*
X92332Y102589D01*
X91831Y102689D01*
X91329Y102589D01*
X90904Y102305D01*
X90619Y101880D01*
X90525Y101405D01*
X90512Y101374D01*
X90511Y101270D01*
X90506Y101185D01*
X90497Y101109D01*
X90485Y101043D01*
X90471Y100987D01*
X90456Y100941D01*
X90441Y100907D01*
X89987Y100453D01*
X83831D01*
X83608Y100953D01*
X83693Y101378D01*
X83593Y101880D01*
X83309Y102305D01*
X82884Y102589D01*
X82382Y102689D01*
X82362Y102685D01*
X82115Y103146D01*
X82848Y103878D01*
X84216D01*
X84250Y103865D01*
X84294Y103843D01*
X84343Y103813D01*
X84393Y103778D01*
X84526Y103666D01*
X84596Y103598D01*
X84627Y103585D01*
X85030Y103316D01*
X85532Y103217D01*
X86033Y103316D01*
X86458Y103601D01*
X86743Y104026D01*
X86843Y104527D01*
X86758Y104953D01*
X86981Y105453D01*
X87640D01*
X87861Y105027D01*
X89714D01*
X89782Y105143D01*
X89872Y105235D01*
X90170Y105270D01*
X90441Y104998D01*
X90456Y104965D01*
X90471Y104919D01*
X90485Y104862D01*
X90496Y104802D01*
X90511Y104630D01*
X90512Y104531D01*
X90525Y104501D01*
X90619Y104026D01*
X90904Y103601D01*
X91329Y103316D01*
X91831Y103217D01*
X92332Y103316D01*
X92758Y103601D01*
X93042Y104026D01*
X93101Y104325D01*
X93166Y104396D01*
X93545Y104563D01*
X93621Y104569D01*
X93662Y104533D01*
X93662Y104531D01*
X93675Y104501D01*
X93769Y104026D01*
X94053Y103601D01*
X94479Y103316D01*
X94980Y103217D01*
X95406Y103301D01*
X95906Y103078D01*
Y96599D01*
X93789Y94482D01*
X93489Y94518D01*
X93131Y95026D01*
X93142Y95079D01*
X93042Y95580D01*
X92758Y96006D01*
X92332Y96290D01*
X91831Y96390D01*
X91329Y96290D01*
X90904Y96006D01*
X90619Y95580D01*
X90520Y95079D01*
X90590Y94723D01*
X90300Y94223D01*
X89776D01*
X89586Y94579D01*
X87776D01*
X87586Y94223D01*
X86627D01*
X86437Y94579D01*
X84626D01*
X84436Y94223D01*
X84027D01*
X83932Y94184D01*
X83593Y94577D01*
X83693Y95079D01*
X83593Y95580D01*
X83309Y96006D01*
X82884Y96290D01*
X82382Y96390D01*
X81880Y96290D01*
X81455Y96006D01*
X81171Y95580D01*
X81071Y95079D01*
X81171Y94577D01*
X81455Y94152D01*
X81880Y93867D01*
X82179Y93808D01*
X82250Y93743D01*
X82417Y93365D01*
X82424Y93288D01*
X82387Y93248D01*
X82386Y93248D01*
X82355Y93235D01*
X81880Y93140D01*
X81455Y92856D01*
X81171Y92431D01*
X81071Y91929D01*
X81171Y91427D01*
X81455Y91002D01*
X81880Y90718D01*
X82382Y90618D01*
X82884Y90718D01*
X83309Y91002D01*
X83593Y91427D01*
X83688Y91903D01*
X83701Y91933D01*
X83702Y92037D01*
X83707Y92122D01*
X83716Y92198D01*
X83727Y92264D01*
X83741Y92320D01*
X83757Y92366D01*
X83771Y92400D01*
X84140Y92769D01*
X84163Y92775D01*
X84421Y92729D01*
X84603Y92429D01*
X86268D01*
X86452Y92884D01*
X86487Y92924D01*
X87198D01*
X87470Y92431D01*
X87370Y91929D01*
X87470Y91427D01*
X87754Y91002D01*
X88179Y90718D01*
X88681Y90618D01*
X89183Y90718D01*
X89608Y91002D01*
X89892Y91427D01*
X89992Y91929D01*
X89892Y92431D01*
X90164Y92924D01*
X90875D01*
X90911Y92884D01*
X91094Y92429D01*
X92567D01*
X92751Y92884D01*
X92787Y92924D01*
X93799D01*
X94258Y93115D01*
X96948Y95804D01*
X97223Y95579D01*
X98130D01*
Y95079D01*
X98630D01*
Y94259D01*
X99055Y94038D01*
Y93378D01*
X98555Y93155D01*
X98130Y93240D01*
X97628Y93140D01*
X97203Y92856D01*
X96919Y92431D01*
X96819Y91929D01*
X96919Y91427D01*
X97203Y91002D01*
X97628Y90718D01*
X98130Y90618D01*
X98632Y90718D01*
X98645Y90727D01*
X99229Y90597D01*
X99246Y90584D01*
X99935Y89895D01*
X100074Y89531D01*
X100077Y89295D01*
X100068Y89281D01*
X99968Y88779D01*
X100068Y88278D01*
X100353Y87853D01*
X100778Y87568D01*
X101279Y87468D01*
X101781Y87568D01*
X102207Y87853D01*
X102491Y88278D01*
X102591Y88779D01*
X102506Y89205D01*
X102729Y89705D01*
X103388D01*
X103609Y89280D01*
X105249D01*
X105470Y89705D01*
X106130D01*
X106352Y89205D01*
X106268Y88779D01*
X106368Y88278D01*
X106652Y87853D01*
X107077Y87568D01*
X107579Y87468D01*
X108080Y87568D01*
X108506Y87853D01*
X108790Y88278D01*
X108890Y88779D01*
X108805Y89205D01*
X109028Y89705D01*
X109153D01*
X109613Y89895D01*
X110257Y90540D01*
X110291Y90554D01*
X110337Y90570D01*
X110394Y90584D01*
X110454Y90594D01*
X110626Y90609D01*
X110725Y90610D01*
X110755Y90623D01*
X111230Y90718D01*
X111655Y91002D01*
X111940Y91427D01*
X112039Y91929D01*
X111940Y92431D01*
X111655Y92856D01*
X111230Y93140D01*
X110931Y93200D01*
X110860Y93265D01*
X110693Y93643D01*
X110687Y93719D01*
X110723Y93760D01*
X110725Y93760D01*
X110755Y93773D01*
X111230Y93867D01*
X111655Y94152D01*
X111940Y94577D01*
X111999Y94876D01*
X112064Y94947D01*
X112442Y95114D01*
X112519Y95120D01*
X112559Y95084D01*
X112559Y95082D01*
X112572Y95052D01*
X112667Y94577D01*
X112951Y94152D01*
X113376Y93867D01*
X113878Y93768D01*
X114031Y93798D01*
X114368Y93482D01*
X113981Y93220D01*
X113878Y93240D01*
X113376Y93140D01*
X112951Y92856D01*
X112667Y92431D01*
X112567Y91929D01*
X112667Y91427D01*
X112951Y91002D01*
X113376Y90718D01*
X113878Y90618D01*
X113975Y90637D01*
X114346Y90354D01*
X113975Y90071D01*
X113878Y90091D01*
X113376Y89991D01*
X112951Y89706D01*
X112667Y89281D01*
X112567Y88779D01*
X112667Y88278D01*
X112951Y87853D01*
X113376Y87568D01*
X113878Y87468D01*
X114303Y87553D01*
X114803Y87330D01*
Y87205D01*
X114994Y86746D01*
X117429Y84310D01*
X117379Y84055D01*
X117427Y83814D01*
X117070Y83394D01*
X117042Y83381D01*
X117028Y83384D01*
X116682Y83315D01*
X116389Y83119D01*
X116296Y82980D01*
X117028D01*
Y81980D01*
X116208D01*
X115987Y81555D01*
X114919D01*
X114698Y81980D01*
X113058D01*
X112837Y81555D01*
X112178D01*
X111955Y82055D01*
X112039Y82480D01*
X111940Y82982D01*
X111655Y83407D01*
X111230Y83692D01*
X110728Y83791D01*
X110227Y83692D01*
X109801Y83407D01*
X109517Y82982D01*
X109417Y82480D01*
X109502Y82055D01*
X109279Y81555D01*
X108620D01*
X108399Y81980D01*
X106759D01*
X106538Y81555D01*
X105878D01*
X105656Y82055D01*
X105740Y82480D01*
X105640Y82982D01*
X105356Y83407D01*
X104931Y83692D01*
X104429Y83791D01*
X103927Y83692D01*
X103502Y83407D01*
X103218Y82982D01*
X103118Y82480D01*
X103203Y82055D01*
X102980Y81555D01*
X102321D01*
X102100Y81980D01*
X100460D01*
X100239Y81555D01*
X99579D01*
X99356Y82055D01*
X99441Y82480D01*
X99341Y82982D01*
X99057Y83407D01*
X98632Y83692D01*
X98130Y83791D01*
X97628Y83692D01*
X97203Y83407D01*
X96919Y82982D01*
X96819Y82480D01*
X96904Y82055D01*
X96681Y81555D01*
X92872D01*
X92651Y81980D01*
X91011D01*
X90790Y81555D01*
X90130D01*
X89907Y82055D01*
X89992Y82480D01*
X89892Y82982D01*
X89608Y83407D01*
X89183Y83692D01*
X88681Y83791D01*
X88179Y83692D01*
X87754Y83407D01*
X87470Y82982D01*
X87370Y82480D01*
X87455Y82055D01*
X87232Y81555D01*
X86572D01*
X86351Y81980D01*
X84712D01*
X84491Y81555D01*
X83831D01*
X83608Y82055D01*
X83693Y82480D01*
X83593Y82982D01*
X83309Y83407D01*
X82884Y83692D01*
X82382Y83791D01*
X81880Y83692D01*
X81455Y83407D01*
X81171Y82982D01*
X81071Y82480D01*
X81171Y81979D01*
X81244Y81869D01*
X81326Y81397D01*
X81148Y81181D01*
X80348Y80380D01*
X80158Y79921D01*
Y74481D01*
X79658Y74258D01*
X79232Y74343D01*
X78731Y74243D01*
X78305Y73958D01*
X78021Y73533D01*
X77927Y73058D01*
X77914Y73028D01*
X77912Y72924D01*
X77907Y72838D01*
X77899Y72763D01*
X77887Y72697D01*
X77873Y72641D01*
X77858Y72594D01*
X77843Y72561D01*
X74652Y69370D01*
X74191Y69616D01*
X74244Y69882D01*
X74144Y70384D01*
X73860Y70809D01*
X73435Y71093D01*
X72933Y71193D01*
X72431Y71093D01*
X72006Y70809D01*
X71722Y70384D01*
X71622Y69882D01*
X71722Y69380D01*
X72006Y68955D01*
X72431Y68671D01*
X72933Y68571D01*
X73199Y68624D01*
X73445Y68163D01*
X67749Y62467D01*
X67559Y62008D01*
Y61474D01*
X67134Y61253D01*
Y60433D01*
Y59613D01*
X67559Y59392D01*
Y57946D01*
X66273Y56660D01*
X66083Y56201D01*
Y52854D01*
X65831Y52686D01*
X65555Y52272D01*
X65458Y51785D01*
X65555Y51297D01*
X65831Y50883D01*
X82663Y34052D01*
X83076Y33776D01*
X83564Y33679D01*
X94925D01*
X95192Y33179D01*
X94894Y32733D01*
X94725Y31882D01*
X94894Y31031D01*
X95376Y30310D01*
X96098Y29827D01*
X96949Y29658D01*
X97800Y29827D01*
X98521Y30310D01*
X99003Y31031D01*
X99173Y31882D01*
X99003Y32733D01*
X98706Y33179D01*
X98973Y33679D01*
X155677D01*
X156165Y33776D01*
X156578Y34052D01*
X157374Y34848D01*
X195571D01*
X196059Y34945D01*
X196472Y35221D01*
X197529Y36278D01*
X197541Y36280D01*
X197561Y36281D01*
X197638Y36266D01*
X198374Y36413D01*
X198997Y36829D01*
X199414Y37453D01*
X199561Y38189D01*
X199490Y38544D01*
X199752Y38596D01*
X200375Y39013D01*
X200792Y39637D01*
X200939Y40372D01*
X200867Y40732D01*
X200801Y41111D01*
X201230Y41276D01*
X201523Y41334D01*
X202147Y41751D01*
X202564Y42374D01*
X202710Y43110D01*
X202643Y43448D01*
X202901Y43499D01*
X203525Y43916D01*
X203942Y44540D01*
X204088Y45276D01*
X203942Y46011D01*
X203525Y46635D01*
X202901Y47052D01*
X202165Y47198D01*
X201430Y47052D01*
X200806Y46635D01*
X200389Y46011D01*
X200243Y45276D01*
X200310Y44938D01*
X200052Y44887D01*
X199428Y44470D01*
X199011Y43846D01*
X198865Y43110D01*
X198936Y42750D01*
X199003Y42371D01*
X198573Y42207D01*
X198280Y42149D01*
X197656Y41732D01*
X197239Y41108D01*
X197093Y40372D01*
X197164Y40017D01*
X196902Y39965D01*
X196278Y39549D01*
X195861Y38925D01*
X195715Y38189D01*
X195730Y38112D01*
X195729Y38092D01*
X195727Y38081D01*
X195043Y37396D01*
X193614D01*
X193203Y37897D01*
X193261Y38189D01*
X193191Y38544D01*
X193452Y38596D01*
X194076Y39013D01*
X194493Y39637D01*
X194639Y40372D01*
X194568Y40732D01*
X194501Y41111D01*
X194931Y41276D01*
X195224Y41334D01*
X195848Y41751D01*
X196265Y42374D01*
X196411Y43110D01*
X196344Y43448D01*
X196602Y43499D01*
X197226Y43916D01*
X197643Y44540D01*
X197789Y45276D01*
X197643Y46011D01*
X197226Y46635D01*
X196602Y47052D01*
X195866Y47198D01*
X195130Y47052D01*
X194507Y46635D01*
X194090Y46011D01*
X193943Y45276D01*
X194010Y44938D01*
X193752Y44887D01*
X193129Y44470D01*
X192712Y43846D01*
X192565Y43110D01*
X192637Y42750D01*
X192703Y42371D01*
X192274Y42207D01*
X191981Y42149D01*
X191357Y41732D01*
X190940Y41108D01*
X190794Y40372D01*
X190864Y40017D01*
X190603Y39965D01*
X189979Y39549D01*
X189562Y38925D01*
X189416Y38189D01*
X189474Y37897D01*
X189064Y37396D01*
X187314D01*
X186904Y37897D01*
X186962Y38189D01*
X186816Y38925D01*
X186399Y39549D01*
X185775Y39965D01*
X185039Y40112D01*
X184304Y39965D01*
X183680Y39549D01*
X183263Y38925D01*
X183117Y38189D01*
X183175Y37897D01*
X182764Y37396D01*
X181015D01*
X180605Y37897D01*
X180663Y38189D01*
X180592Y38544D01*
X180854Y38596D01*
X181478Y39013D01*
X181895Y39637D01*
X182041Y40372D01*
X181895Y41108D01*
X181478Y41732D01*
X180854Y42149D01*
X180118Y42295D01*
X179382Y42149D01*
X178759Y41732D01*
X178342Y41108D01*
X178195Y40372D01*
X178266Y40017D01*
X178004Y39965D01*
X177381Y39549D01*
X176964Y38925D01*
X176817Y38189D01*
X176876Y37897D01*
X176465Y37396D01*
X174716D01*
X174305Y37897D01*
X174364Y38189D01*
X174293Y38544D01*
X174555Y38596D01*
X175179Y39013D01*
X175595Y39637D01*
X175742Y40372D01*
X175595Y41108D01*
X175588Y41120D01*
X175888Y41570D01*
X176301Y41488D01*
X177036Y41634D01*
X177660Y42051D01*
X178077Y42675D01*
X178224Y43411D01*
X178077Y44146D01*
X177660Y44770D01*
Y44900D01*
X178077Y45524D01*
X178224Y46260D01*
X178077Y46996D01*
X177787Y47430D01*
X178027Y47930D01*
X185182D01*
X187651Y45461D01*
X187660Y45356D01*
X187644Y45276D01*
X187711Y44938D01*
X187453Y44887D01*
X186829Y44470D01*
X186413Y43846D01*
X186266Y43110D01*
X186413Y42374D01*
X186829Y41751D01*
X187453Y41334D01*
X188189Y41188D01*
X188925Y41334D01*
X189549Y41751D01*
X189965Y42374D01*
X190112Y43110D01*
X190045Y43448D01*
X190303Y43499D01*
X190927Y43916D01*
X191343Y44540D01*
X191490Y45276D01*
X191343Y46011D01*
X190927Y46635D01*
X190303Y47052D01*
X189567Y47198D01*
X189484Y47182D01*
X189480Y47182D01*
X189425Y47185D01*
X189383Y47190D01*
X186554Y50019D01*
X186157Y50284D01*
X185689Y50377D01*
X169912D01*
X164778Y55511D01*
X164381Y55776D01*
X163913Y55869D01*
X145271D01*
X143881Y57258D01*
X144128Y57719D01*
X144247Y57696D01*
X175884D01*
X176371Y57793D01*
X176785Y58069D01*
X185552Y66836D01*
X195501D01*
X195989Y66933D01*
X196402Y67209D01*
X197529Y68336D01*
X197541Y68338D01*
X197561Y68340D01*
X197638Y68324D01*
X198374Y68471D01*
X198997Y68888D01*
X199414Y69511D01*
X199561Y70247D01*
X199490Y70602D01*
X199752Y70654D01*
X200375Y71071D01*
X200792Y71695D01*
X200939Y72431D01*
X200867Y72790D01*
X200801Y73170D01*
X201230Y73334D01*
X201523Y73392D01*
X202147Y73809D01*
X202564Y74433D01*
X202710Y75168D01*
X202643Y75506D01*
X202901Y75557D01*
X203525Y75974D01*
X203942Y76598D01*
X204088Y77334D01*
X203942Y78070D01*
X203525Y78693D01*
X203232Y78889D01*
X203164Y79529D01*
X215580Y91944D01*
X215800Y91798D01*
X216535Y91651D01*
X217271Y91798D01*
X217895Y92214D01*
X218312Y92838D01*
X218458Y93574D01*
X218388Y93929D01*
X218649Y93981D01*
X219273Y94398D01*
X219690Y95022D01*
X219836Y95757D01*
X219765Y96117D01*
X219698Y96496D01*
X220128Y96660D01*
X220421Y96719D01*
X221045Y97136D01*
X221461Y97759D01*
X221608Y98495D01*
X221541Y98833D01*
X221799Y98884D01*
X222423Y99301D01*
X222839Y99925D01*
X222986Y100661D01*
X222839Y101396D01*
X222423Y102020D01*
X221799Y102437D01*
X221063Y102583D01*
X220327Y102437D01*
X219888Y102144D01*
X210911Y111121D01*
X210514Y111386D01*
X210046Y111479D01*
X144021D01*
X143814Y111979D01*
X146312Y114477D01*
X189247D01*
X189715Y114570D01*
X190112Y114836D01*
X198503Y123226D01*
X198768Y123623D01*
X198861Y124091D01*
Y124174D01*
X198929Y124256D01*
X198997Y124301D01*
X199414Y124925D01*
X199561Y125661D01*
X199490Y126016D01*
X199752Y126068D01*
X200375Y126484D01*
X200792Y127108D01*
X200939Y127844D01*
X200867Y128204D01*
X200801Y128583D01*
X201230Y128747D01*
X201523Y128805D01*
X202147Y129222D01*
X202564Y129846D01*
X202710Y130582D01*
X202643Y130919D01*
X202901Y130971D01*
X203525Y131387D01*
X203942Y132011D01*
X204088Y132747D01*
X203942Y133483D01*
X203525Y134107D01*
X202901Y134523D01*
X202165Y134670D01*
X201430Y134523D01*
X200806Y134107D01*
X200389Y133483D01*
X200243Y132747D01*
X200310Y132410D01*
X200052Y132358D01*
X199428Y131941D01*
X199011Y131318D01*
X198865Y130582D01*
X198936Y130222D01*
X199003Y129843D01*
X198573Y129679D01*
X198280Y129621D01*
X197948Y129398D01*
X197448Y129666D01*
Y131484D01*
X197597Y131943D01*
X197597Y131943D01*
X197643Y132011D01*
X197789Y132747D01*
X197643Y133483D01*
X197226Y134107D01*
X196602Y134523D01*
X195866Y134670D01*
X195130Y134523D01*
X194507Y134107D01*
X194090Y133483D01*
X193943Y132747D01*
X194010Y132410D01*
X193752Y132358D01*
X193129Y131941D01*
X193082Y131871D01*
X193079Y131869D01*
X193037Y131832D01*
X193004Y131805D01*
X192590D01*
X192121Y131712D01*
X191725Y131447D01*
X190757Y130480D01*
X190277Y130707D01*
X190303Y130971D01*
X190927Y131387D01*
X191343Y132011D01*
X191490Y132747D01*
X191343Y133483D01*
X190927Y134107D01*
X190303Y134523D01*
X189567Y134670D01*
X188831Y134523D01*
X188207Y134107D01*
X187791Y133483D01*
X187644Y132747D01*
X187711Y132410D01*
X187453Y132358D01*
X186829Y131941D01*
X186632Y131646D01*
X186564Y131575D01*
X186557Y131558D01*
X186545Y131545D01*
X186445Y131377D01*
X186320Y131184D01*
X186262Y131106D01*
X186242Y131083D01*
X185198Y130039D01*
X184701Y130088D01*
X184627Y130198D01*
X184003Y130615D01*
X183268Y130761D01*
X182532Y130615D01*
X181908Y130198D01*
X181594Y129727D01*
X181009Y129517D01*
X180854Y129621D01*
X180118Y129767D01*
X179382Y129621D01*
X178759Y129204D01*
X178342Y128580D01*
X178195Y127844D01*
X178266Y127489D01*
X178004Y127437D01*
X177381Y127020D01*
X176964Y126396D01*
X176817Y125661D01*
X176919Y125149D01*
X176593Y124649D01*
X174672D01*
X174362Y125149D01*
X174471Y125695D01*
X174402Y126037D01*
X174555Y126068D01*
X175179Y126484D01*
X175595Y127108D01*
X175742Y127844D01*
X175595Y128580D01*
X175179Y129204D01*
X174555Y129621D01*
X173819Y129767D01*
X173083Y129621D01*
X172459Y129204D01*
X172043Y128580D01*
X171896Y127844D01*
X171964Y127502D01*
X171812Y127471D01*
X171188Y127055D01*
X170771Y126431D01*
X170625Y125695D01*
X170734Y125149D01*
X170423Y124649D01*
X161876D01*
X161566Y125149D01*
X161675Y125695D01*
X161614Y126000D01*
X161956Y126068D01*
X162580Y126484D01*
X162997Y127108D01*
X163143Y127844D01*
X163072Y128204D01*
X163005Y128583D01*
X163435Y128747D01*
X163728Y128805D01*
X164352Y129222D01*
X164769Y129846D01*
X164915Y130582D01*
X164848Y130919D01*
X165106Y130971D01*
X165730Y131387D01*
X166147Y132011D01*
X166293Y132747D01*
X166147Y133483D01*
X165730Y134107D01*
X165106Y134523D01*
X164370Y134670D01*
X163634Y134523D01*
X163011Y134107D01*
X162594Y133483D01*
X162447Y132747D01*
X162514Y132410D01*
X162256Y132358D01*
X161633Y131941D01*
X161216Y131318D01*
X161069Y130582D01*
X161141Y130222D01*
X161207Y129843D01*
X160778Y129679D01*
X160485Y129621D01*
X159861Y129204D01*
X159444Y128580D01*
X159298Y127844D01*
X159358Y127540D01*
X159016Y127471D01*
X158392Y127055D01*
X157975Y126431D01*
X157829Y125695D01*
X157938Y125149D01*
X157627Y124649D01*
X155691D01*
X155364Y125149D01*
X155466Y125661D01*
X155395Y126016D01*
X155657Y126068D01*
X156281Y126484D01*
X156698Y127108D01*
X156844Y127844D01*
X156698Y128580D01*
X156281Y129204D01*
X156217Y129246D01*
X156168Y129744D01*
X163044Y136619D01*
X227320D01*
X230714Y133225D01*
Y132410D01*
X230705Y132394D01*
X230680Y132353D01*
X230650Y132311D01*
X230517Y132155D01*
X230510Y132147D01*
X230416Y132084D01*
X229934Y131363D01*
X229764Y130512D01*
X229934Y129661D01*
X230416Y128939D01*
X231137Y128457D01*
X231988Y128288D01*
X232839Y128457D01*
X233050Y128598D01*
X233512Y128407D01*
X233575Y128086D01*
X234057Y127365D01*
X234779Y126883D01*
X235630Y126713D01*
X236481Y126883D01*
X236670Y127009D01*
X237111Y126773D01*
Y126280D01*
X232859Y122027D01*
X232841Y122022D01*
X232795Y122011D01*
X232744Y122002D01*
X232539Y121985D01*
X232528Y121985D01*
X232417Y122007D01*
X231566Y121838D01*
X230845Y121356D01*
X230363Y120634D01*
X230193Y119783D01*
X230363Y118932D01*
X230845Y118211D01*
X231566Y117729D01*
X232417Y117560D01*
X233268Y117729D01*
X233990Y118211D01*
X234472Y118932D01*
X234641Y119783D01*
X234621Y119883D01*
X234626Y120027D01*
X234633Y120097D01*
X234644Y120161D01*
X234655Y120207D01*
X234661Y120225D01*
X237850Y123414D01*
X238312Y123223D01*
Y99268D01*
X232430Y93385D01*
X232412Y93380D01*
X232365Y93369D01*
X232315Y93360D01*
X232110Y93344D01*
X232099Y93344D01*
X231988Y93366D01*
X231137Y93196D01*
X230416Y92714D01*
X229934Y91993D01*
X229764Y91142D01*
X229934Y90291D01*
X230416Y89569D01*
X231137Y89087D01*
X231988Y88918D01*
X232839Y89087D01*
X233050Y89228D01*
X233512Y89037D01*
X233575Y88716D01*
X234057Y87994D01*
X234779Y87512D01*
X235630Y87343D01*
X236218Y87460D01*
X236718Y87115D01*
Y86615D01*
X232859Y82756D01*
X232841Y82750D01*
X232795Y82739D01*
X232744Y82730D01*
X232539Y82714D01*
X232528Y82714D01*
X232417Y82736D01*
X231566Y82566D01*
X230845Y82084D01*
X230363Y81363D01*
X230193Y80512D01*
X230363Y79661D01*
X230845Y78939D01*
X231566Y78457D01*
X232417Y78288D01*
X233268Y78457D01*
X233990Y78939D01*
X234472Y79661D01*
X234641Y80512D01*
X234621Y80611D01*
X234626Y80756D01*
X234633Y80825D01*
X234644Y80889D01*
X234655Y80936D01*
X234661Y80953D01*
X238893Y85185D01*
X239170Y85599D01*
X239267Y86087D01*
Y94920D01*
X240252Y95905D01*
X240714Y95713D01*
Y52063D01*
X239535Y50884D01*
X233671D01*
X232985Y51123D01*
X232938Y51142D01*
X232839Y51208D01*
X231988Y51377D01*
X231137Y51208D01*
X230416Y50726D01*
X229934Y50005D01*
X229764Y49154D01*
X229934Y48303D01*
X230416Y47581D01*
X231137Y47099D01*
X231988Y46930D01*
X232839Y47099D01*
X233050Y47240D01*
X233512Y47048D01*
X233575Y46728D01*
X234057Y46006D01*
X234779Y45524D01*
X235102Y45460D01*
X235266Y44918D01*
X231516Y41168D01*
X231240Y40754D01*
X231143Y40266D01*
Y39989D01*
X231134Y39973D01*
X231109Y39932D01*
X231079Y39890D01*
X230946Y39733D01*
X230939Y39726D01*
X230845Y39663D01*
X230363Y38942D01*
X230193Y38091D01*
X230363Y37240D01*
X230845Y36518D01*
X231566Y36036D01*
X232417Y35867D01*
X233268Y36036D01*
X233990Y36518D01*
X234472Y37240D01*
X234641Y38091D01*
X234472Y38942D01*
X233990Y39663D01*
X234104Y40151D01*
X244090Y50137D01*
X244367Y50550D01*
X244463Y51038D01*
Y87906D01*
X244964Y88030D01*
X245635Y87581D01*
X246486Y87412D01*
X247337Y87581D01*
X247971Y88004D01*
X248471Y87848D01*
Y49435D01*
X247971Y49279D01*
X247337Y49702D01*
X246486Y49872D01*
X245635Y49702D01*
X244914Y49220D01*
X244432Y48499D01*
X244262Y47648D01*
X244432Y46797D01*
X244914Y46075D01*
X245635Y45593D01*
X246486Y45424D01*
X247337Y45593D01*
X247971Y46016D01*
X248471Y45860D01*
Y24516D01*
X248469Y24508D01*
Y15920D01*
X247969Y15896D01*
X247919Y16405D01*
X247411Y18078D01*
X246587Y19619D01*
X245479Y20971D01*
X244127Y22080D01*
X242586Y22904D01*
X240913Y23411D01*
X239173Y23582D01*
X237434Y23411D01*
X235761Y22904D01*
X234219Y22080D01*
X232868Y20971D01*
X231759Y19619D01*
X230935Y18078D01*
X230428Y16405D01*
X230256Y14665D01*
X230428Y12926D01*
X230935Y11253D01*
X231759Y9711D01*
X232868Y8360D01*
X234219Y7251D01*
X235761Y6427D01*
X237434Y5920D01*
X239173Y5748D01*
X240913Y5920D01*
X242586Y6427D01*
X244127Y7251D01*
X245479Y8360D01*
X246587Y9711D01*
X247411Y11253D01*
X247919Y12926D01*
X247969Y13435D01*
X248469Y13410D01*
Y9679D01*
X248328Y8245D01*
X247845Y6652D01*
X247060Y5184D01*
X246004Y3898D01*
X244717Y2842D01*
X243249Y2057D01*
X241656Y1574D01*
X240068Y1417D01*
X240000Y1431D01*
X20382D01*
X20374Y1433D01*
X9778D01*
X8343Y1574D01*
X6751Y2057D01*
X5283Y2842D01*
X3996Y3898D01*
X2940Y5184D01*
X2155Y6652D01*
X1672Y8245D01*
X1516Y9833D01*
X1529Y9902D01*
Y13427D01*
X2029Y13451D01*
X2081Y12926D01*
X2589Y11253D01*
X3413Y9711D01*
X4521Y8360D01*
X5873Y7251D01*
X7414Y6427D01*
X9087Y5920D01*
X10827Y5748D01*
X12566Y5920D01*
X14239Y6427D01*
X15781Y7251D01*
X17132Y8360D01*
X18241Y9711D01*
X19065Y11253D01*
X19572Y12926D01*
X19744Y14665D01*
X19572Y16405D01*
X19065Y18078D01*
X18241Y19619D01*
X17132Y20971D01*
X15781Y22080D01*
X14239Y22904D01*
X12566Y23411D01*
X10827Y23582D01*
X9087Y23411D01*
X7414Y22904D01*
X5873Y22080D01*
X4521Y20971D01*
X3413Y19619D01*
X2589Y18078D01*
X2081Y16405D01*
X2029Y15879D01*
X1529Y15904D01*
Y24077D01*
X1531Y24297D01*
X1529Y24305D01*
Y146842D01*
X1531Y146850D01*
Y155143D01*
X2031Y155167D01*
X2081Y154658D01*
X2589Y152985D01*
X3413Y151444D01*
X4521Y150092D01*
X5873Y148984D01*
X7414Y148159D01*
X9087Y147652D01*
X10827Y147481D01*
X12566Y147652D01*
X14239Y148159D01*
X15781Y148984D01*
X17132Y150092D01*
X18241Y151444D01*
X19065Y152985D01*
X19572Y154658D01*
X19744Y156398D01*
X19572Y158137D01*
X19065Y159810D01*
X18241Y161352D01*
X17132Y162703D01*
X15781Y163812D01*
X14239Y164636D01*
X12566Y165143D01*
X10827Y165315D01*
X9087Y165143D01*
X7414Y164636D01*
X5873Y163812D01*
X4521Y162703D01*
X3413Y161352D01*
X2589Y159810D01*
X2081Y158137D01*
X2031Y157628D01*
X1531Y157652D01*
Y161384D01*
X1672Y162818D01*
X2155Y164411D01*
X2940Y165879D01*
X3996Y167165D01*
X5283Y168221D01*
X6751Y169006D01*
X8343Y169489D01*
X9932Y169646D01*
X10000Y169632D01*
D02*
G37*
G36*
X135672Y139429D02*
X135560Y139539D01*
X135343Y139723D01*
X135238Y139798D01*
X135135Y139862D01*
X135034Y139914D01*
X134935Y139954D01*
X134839Y139983D01*
X134745Y140000D01*
X134653Y140006D01*
Y140506D01*
X134745Y140512D01*
X134839Y140529D01*
X134935Y140558D01*
X135034Y140598D01*
X135135Y140650D01*
X135238Y140714D01*
X135343Y140788D01*
X135451Y140875D01*
X135672Y141083D01*
Y139429D01*
D02*
G37*
G36*
X140339Y139345D02*
X140209Y139388D01*
X140086Y139418D01*
X139968Y139437D01*
X139856Y139444D01*
X139751Y139438D01*
X139651Y139420D01*
X139558Y139390D01*
X139471Y139348D01*
X139389Y139294D01*
X139314Y139228D01*
X139091Y139712D01*
X139137Y139764D01*
X139186Y139831D01*
X139236Y139910D01*
X139288Y140003D01*
X139396Y140228D01*
X139511Y140507D01*
X139632Y140840D01*
X140339Y139345D01*
D02*
G37*
G36*
X92931Y138542D02*
X92870Y138473D01*
X92816Y138394D01*
X92768Y138306D01*
X92727Y138207D01*
X92692Y138099D01*
X92664Y137982D01*
X92643Y137854D01*
X92628Y137717D01*
X92618Y137413D01*
X91449Y138583D01*
X91606Y138584D01*
X91890Y138607D01*
X92017Y138629D01*
X92135Y138657D01*
X92243Y138691D01*
X92341Y138733D01*
X92430Y138780D01*
X92509Y138835D01*
X92578Y138896D01*
X92931Y138542D01*
D02*
G37*
G36*
X91425Y136221D02*
X91268Y136219D01*
X90984Y136196D01*
X90857Y136174D01*
X90739Y136146D01*
X90631Y136112D01*
X90533Y136071D01*
X90444Y136023D01*
X90365Y135968D01*
X90297Y135907D01*
X89943Y136261D01*
X90004Y136330D01*
X90058Y136409D01*
X90106Y136497D01*
X90147Y136596D01*
X90182Y136704D01*
X90210Y136821D01*
X90231Y136949D01*
X90246Y137086D01*
X90256Y137390D01*
X91425Y136221D01*
D02*
G37*
G36*
X72904Y134694D02*
X73122Y134510D01*
X73227Y134435D01*
X73330Y134371D01*
X73431Y134319D01*
X73529Y134279D01*
X73626Y134250D01*
X73720Y134233D01*
X73812Y134227D01*
Y133727D01*
X73720Y133721D01*
X73626Y133704D01*
X73529Y133675D01*
X73431Y133635D01*
X73330Y133583D01*
X73227Y133519D01*
X73122Y133444D01*
X73014Y133358D01*
X72792Y133150D01*
Y134804D01*
X72904Y134694D01*
D02*
G37*
G36*
X232244Y132283D02*
X232261Y132189D01*
X232290Y132092D01*
X232330Y131994D01*
X232382Y131893D01*
X232446Y131790D01*
X232521Y131685D01*
X232607Y131577D01*
X232815Y131355D01*
X231161D01*
X231271Y131467D01*
X231456Y131685D01*
X231530Y131790D01*
X231594Y131893D01*
X231646Y131994D01*
X231686Y132092D01*
X231715Y132189D01*
X231732Y132283D01*
X231738Y132375D01*
X232238D01*
X232244Y132283D01*
D02*
G37*
G36*
X196637Y132289D02*
X196448Y131707D01*
X196434Y131639D01*
X196427Y131579D01*
X196424Y131527D01*
X196024Y131344D01*
X196019Y131421D01*
X196005Y131494D01*
X195982Y131563D01*
X195949Y131627D01*
X195907Y131686D01*
X195855Y131741D01*
X195794Y131792D01*
X195723Y131839D01*
X195644Y131880D01*
X195554Y131918D01*
X196687Y132415D01*
X196637Y132289D01*
D02*
G37*
G36*
X21329Y132213D02*
X21547Y132029D01*
X21652Y131954D01*
X21755Y131890D01*
X21856Y131838D01*
X21955Y131798D01*
X22051Y131769D01*
X22145Y131752D01*
X22237Y131746D01*
Y131246D01*
X22145Y131240D01*
X22051Y131223D01*
X21955Y131194D01*
X21856Y131154D01*
X21755Y131102D01*
X21652Y131038D01*
X21547Y130963D01*
X21439Y130877D01*
X21217Y130669D01*
Y132323D01*
X21329Y132213D01*
D02*
G37*
G36*
X24186Y130280D02*
X24127Y130213D01*
X24073Y130137D01*
X24024Y130049D01*
X23980Y129951D01*
X23941Y129842D01*
X23906Y129723D01*
X23876Y129593D01*
X23831Y129302D01*
X23815Y129140D01*
X22753Y130408D01*
X22904Y130396D01*
X23046Y130394D01*
X23180Y130399D01*
X23304Y130412D01*
X23420Y130434D01*
X23526Y130464D01*
X23624Y130502D01*
X23713Y130548D01*
X23793Y130603D01*
X23864Y130665D01*
X24186Y130280D01*
D02*
G37*
G36*
X193856Y129962D02*
X193774Y130042D01*
X193614Y130176D01*
X193536Y130230D01*
X193459Y130277D01*
X193384Y130315D01*
X193309Y130344D01*
X193236Y130365D01*
X193164Y130378D01*
X193094Y130382D01*
Y130782D01*
X193164Y130786D01*
X193236Y130799D01*
X193309Y130820D01*
X193384Y130849D01*
X193459Y130887D01*
X193536Y130933D01*
X193614Y130988D01*
X193693Y131051D01*
X193774Y131122D01*
X193856Y131202D01*
Y129962D01*
D02*
G37*
G36*
X187674Y129861D02*
X187600Y129909D01*
X187528Y129945D01*
X187457Y129971D01*
X187388Y129985D01*
X187321Y129988D01*
X187255Y129980D01*
X187191Y129961D01*
X187128Y129930D01*
X187068Y129889D01*
X187008Y129836D01*
X186936Y130329D01*
X186977Y130372D01*
X187064Y130476D01*
X187158Y130603D01*
X187311Y130838D01*
X187421Y131024D01*
X187674Y129861D01*
D02*
G37*
G36*
X101152Y129359D02*
X101370Y129174D01*
X101475Y129099D01*
X101578Y129036D01*
X101679Y128984D01*
X101777Y128944D01*
X101874Y128915D01*
X101968Y128898D01*
X102060Y128892D01*
Y128392D01*
X101968Y128386D01*
X101874Y128369D01*
X101777Y128340D01*
X101679Y128299D01*
X101578Y128247D01*
X101475Y128184D01*
X101370Y128109D01*
X101262Y128023D01*
X101040Y127815D01*
Y129469D01*
X101152Y129359D01*
D02*
G37*
G36*
X14035Y130766D02*
X14815Y128153D01*
X14899Y127998D01*
X14976Y127897D01*
X14708Y127458D01*
X14545Y127592D01*
X14348Y127699D01*
X14119Y127779D01*
X13857Y127833D01*
X13562Y127860D01*
X13235Y127860D01*
X12874Y127834D01*
X12481Y127781D01*
X11595Y127595D01*
X13896Y131357D01*
X14035Y130766D01*
D02*
G37*
G36*
X25742Y128507D02*
X25745Y128439D01*
X25753Y128360D01*
X25787Y128170D01*
X25844Y127936D01*
X26024Y127337D01*
X24607Y128112D01*
X24728Y128149D01*
X24836Y128192D01*
X24931Y128244D01*
X25014Y128302D01*
X25083Y128368D01*
X25141Y128441D01*
X25185Y128522D01*
X25217Y128610D01*
X25236Y128705D01*
X25242Y128808D01*
X25742Y128507D01*
D02*
G37*
G36*
X111476Y128200D02*
X111494Y128106D01*
X111522Y128010D01*
X111563Y127911D01*
X111615Y127810D01*
X111678Y127707D01*
X111753Y127602D01*
X111840Y127494D01*
X112047Y127273D01*
X110394D01*
X110503Y127385D01*
X110688Y127602D01*
X110763Y127707D01*
X110826Y127810D01*
X110878Y127911D01*
X110919Y128010D01*
X110947Y128106D01*
X110965Y128200D01*
X110970Y128292D01*
X111470D01*
X111476Y128200D01*
D02*
G37*
G36*
X126973Y127955D02*
X126904Y127877D01*
X126850Y127797D01*
X126811Y127713D01*
X126786Y127627D01*
X126777Y127539D01*
X126782Y127447D01*
X126803Y127353D01*
X126838Y127256D01*
X126888Y127156D01*
X126953Y127054D01*
X125402Y127405D01*
X125542Y127486D01*
X126251Y127952D01*
X126313Y128005D01*
X126365Y128054D01*
X126973Y127955D01*
D02*
G37*
G36*
X123838Y127948D02*
X123769Y127871D01*
X123715Y127790D01*
X123676Y127706D01*
X123651Y127620D01*
X123641Y127530D01*
X123646Y127438D01*
X123666Y127343D01*
X123700Y127244D01*
X123750Y127143D01*
X123814Y127039D01*
X122262Y127411D01*
X122406Y127492D01*
X123125Y127956D01*
X123187Y128008D01*
X123239Y128056D01*
X123838Y127948D01*
D02*
G37*
G36*
X119309Y127570D02*
X119248Y127501D01*
X119194Y127422D01*
X119146Y127333D01*
X119105Y127235D01*
X119070Y127127D01*
X119042Y127009D01*
X119021Y126882D01*
X119006Y126745D01*
X118996Y126441D01*
X117827Y127610D01*
X117983Y127612D01*
X118268Y127635D01*
X118395Y127656D01*
X118513Y127684D01*
X118621Y127719D01*
X118719Y127760D01*
X118808Y127808D01*
X118886Y127862D01*
X118956Y127923D01*
X119309Y127570D01*
D02*
G37*
G36*
X193488Y127386D02*
X193298Y126804D01*
X193285Y126735D01*
X193277Y126676D01*
X193274Y126625D01*
X192874Y126441D01*
X192870Y126518D01*
X192856Y126591D01*
X192832Y126660D01*
X192799Y126724D01*
X192757Y126783D01*
X192705Y126838D01*
X192644Y126889D01*
X192574Y126935D01*
X192494Y126977D01*
X192405Y127015D01*
X193538Y127512D01*
X193488Y127386D01*
D02*
G37*
G36*
X108581Y127467D02*
X108520Y127398D01*
X108465Y127319D01*
X108418Y127231D01*
X108377Y127132D01*
X108342Y127024D01*
X108314Y126907D01*
X108292Y126779D01*
X108278Y126642D01*
X108268Y126339D01*
X107098Y127508D01*
X107255Y127509D01*
X107539Y127533D01*
X107667Y127554D01*
X107784Y127582D01*
X107892Y127617D01*
X107991Y127658D01*
X108079Y127706D01*
X108158Y127760D01*
X108227Y127821D01*
X108581Y127467D01*
D02*
G37*
G36*
X27421Y126476D02*
X27438Y126382D01*
X27467Y126285D01*
X27508Y126187D01*
X27560Y126086D01*
X27623Y125983D01*
X27698Y125877D01*
X27784Y125770D01*
X27992Y125548D01*
X26339D01*
X26448Y125660D01*
X26633Y125877D01*
X26708Y125983D01*
X26771Y126086D01*
X26823Y126187D01*
X26863Y126285D01*
X26892Y126382D01*
X26910Y126476D01*
X26915Y126568D01*
X27415D01*
X27421Y126476D01*
D02*
G37*
G36*
X130317Y126209D02*
X130340Y125925D01*
X130361Y125798D01*
X130389Y125680D01*
X130424Y125572D01*
X130465Y125474D01*
X130513Y125385D01*
X130567Y125306D01*
X130628Y125237D01*
X130274Y124884D01*
X130205Y124945D01*
X130127Y124999D01*
X130038Y125047D01*
X129940Y125088D01*
X129832Y125123D01*
X129714Y125151D01*
X129587Y125172D01*
X129449Y125187D01*
X129146Y125197D01*
X130315Y126366D01*
X130317Y126209D01*
D02*
G37*
G36*
X191330Y124775D02*
X191216Y124773D01*
X191007Y124756D01*
X190914Y124739D01*
X190827Y124717D01*
X190746Y124691D01*
X190673Y124659D01*
X190607Y124622D01*
X190547Y124580D01*
X190494Y124533D01*
X190211Y124816D01*
X190258Y124869D01*
X190300Y124929D01*
X190337Y124995D01*
X190369Y125068D01*
X190395Y125149D01*
X190417Y125236D01*
X190434Y125329D01*
X190445Y125430D01*
X190451Y125537D01*
X190453Y125652D01*
X191330Y124775D01*
D02*
G37*
G36*
X198178Y124946D02*
X198044Y124786D01*
X197989Y124708D01*
X197943Y124632D01*
X197905Y124556D01*
X197876Y124482D01*
X197855Y124409D01*
X197842Y124337D01*
X197838Y124266D01*
X197438D01*
X197434Y124337D01*
X197421Y124409D01*
X197400Y124482D01*
X197371Y124556D01*
X197333Y124632D01*
X197287Y124708D01*
X197232Y124786D01*
X197169Y124866D01*
X197098Y124946D01*
X197018Y125028D01*
X198258D01*
X198178Y124946D01*
D02*
G37*
G36*
X98664Y122303D02*
X98552Y122413D01*
X98335Y122597D01*
X98230Y122672D01*
X98127Y122736D01*
X98026Y122788D01*
X97927Y122828D01*
X97831Y122857D01*
X97737Y122874D01*
X97645Y122880D01*
Y123380D01*
X97737Y123386D01*
X97831Y123403D01*
X97927Y123432D01*
X98026Y123472D01*
X98127Y123524D01*
X98230Y123588D01*
X98335Y123662D01*
X98443Y123749D01*
X98664Y123957D01*
Y122303D01*
D02*
G37*
G36*
X32513Y122219D02*
X32450Y122147D01*
X32395Y122066D01*
X32350Y121977D01*
X32313Y121880D01*
X32284Y121774D01*
X32265Y121659D01*
X32254Y121536D01*
X32252Y121405D01*
X32258Y121264D01*
X32274Y121116D01*
X30975Y122139D01*
X31138Y122159D01*
X31432Y122212D01*
X31562Y122245D01*
X31682Y122282D01*
X31791Y122323D01*
X31888Y122369D01*
X31975Y122418D01*
X32052Y122472D01*
X32117Y122529D01*
X32513Y122219D01*
D02*
G37*
G36*
X96499Y120138D02*
X96387Y120247D01*
X96170Y120432D01*
X96065Y120507D01*
X95961Y120570D01*
X95861Y120622D01*
X95762Y120663D01*
X95666Y120692D01*
X95572Y120709D01*
X95480Y120715D01*
Y121215D01*
X95572Y121220D01*
X95666Y121238D01*
X95762Y121266D01*
X95861Y121307D01*
X95961Y121359D01*
X96065Y121422D01*
X96170Y121497D01*
X96277Y121584D01*
X96499Y121791D01*
Y120138D01*
D02*
G37*
G36*
X49282Y121682D02*
X49499Y121497D01*
X49605Y121422D01*
X49708Y121359D01*
X49809Y121307D01*
X49907Y121266D01*
X50004Y121238D01*
X50098Y121220D01*
X50190Y121215D01*
Y120715D01*
X50098Y120709D01*
X50004Y120692D01*
X49907Y120663D01*
X49809Y120622D01*
X49708Y120570D01*
X49605Y120507D01*
X49499Y120432D01*
X49392Y120345D01*
X49170Y120138D01*
Y121791D01*
X49282Y121682D01*
D02*
G37*
G36*
X233911Y120924D02*
X233850Y120855D01*
X233796Y120776D01*
X233748Y120688D01*
X233707Y120589D01*
X233672Y120481D01*
X233645Y120363D01*
X233623Y120236D01*
X233608Y120099D01*
X233598Y119795D01*
X232429Y120965D01*
X232586Y120966D01*
X232870Y120989D01*
X232997Y121011D01*
X233115Y121039D01*
X233223Y121073D01*
X233321Y121115D01*
X233410Y121162D01*
X233489Y121217D01*
X233558Y121278D01*
X233911Y120924D01*
D02*
G37*
G36*
X13449Y122483D02*
X14441Y121603D01*
X14729Y121388D01*
X14997Y121212D01*
X15243Y121075D01*
X15469Y120978D01*
X15673Y120919D01*
X15856Y120900D01*
Y120400D01*
X15673Y120380D01*
X15469Y120321D01*
X15243Y120224D01*
X14997Y120087D01*
X14729Y119911D01*
X14441Y119696D01*
X13800Y119149D01*
X13076Y118445D01*
Y122854D01*
X13449Y122483D01*
D02*
G37*
G36*
X59041Y119362D02*
X59235Y119200D01*
X59330Y119134D01*
X59424Y119078D01*
X59516Y119032D01*
X59607Y118997D01*
X59697Y118971D01*
X59785Y118956D01*
X59872Y118951D01*
Y118451D01*
X59785Y118446D01*
X59697Y118430D01*
X59607Y118405D01*
X59516Y118369D01*
X59424Y118324D01*
X59330Y118268D01*
X59235Y118202D01*
X59139Y118126D01*
X59041Y118039D01*
X58943Y117943D01*
Y119459D01*
X59041Y119362D01*
D02*
G37*
G36*
X97338Y118206D02*
X97398Y118165D01*
X97465Y118128D01*
X97538Y118096D01*
X97618Y118069D01*
X97705Y118048D01*
X97799Y118031D01*
X97899Y118019D01*
X98007Y118013D01*
X98121Y118012D01*
X97244Y117135D01*
X97243Y117249D01*
X97225Y117457D01*
X97208Y117551D01*
X97187Y117638D01*
X97160Y117718D01*
X97128Y117791D01*
X97091Y117858D01*
X97049Y117918D01*
X97003Y117971D01*
X97285Y118253D01*
X97338Y118206D01*
D02*
G37*
G36*
X59041Y116213D02*
X59235Y116050D01*
X59330Y115984D01*
X59424Y115928D01*
X59516Y115882D01*
X59607Y115847D01*
X59697Y115822D01*
X59785Y115806D01*
X59872Y115801D01*
Y115301D01*
X59785Y115296D01*
X59697Y115281D01*
X59607Y115255D01*
X59516Y115220D01*
X59424Y115174D01*
X59330Y115118D01*
X59235Y115052D01*
X59139Y114976D01*
X59041Y114890D01*
X58943Y114793D01*
Y116309D01*
X59041Y116213D01*
D02*
G37*
G36*
X97338Y115057D02*
X97398Y115015D01*
X97465Y114978D01*
X97538Y114946D01*
X97618Y114920D01*
X97705Y114898D01*
X97799Y114881D01*
X97899Y114870D01*
X98007Y114864D01*
X98121Y114862D01*
X97244Y113985D01*
X97243Y114100D01*
X97225Y114307D01*
X97208Y114401D01*
X97187Y114488D01*
X97160Y114568D01*
X97128Y114642D01*
X97091Y114708D01*
X97049Y114768D01*
X97003Y114821D01*
X97285Y115104D01*
X97338Y115057D01*
D02*
G37*
G36*
X69775Y113091D02*
X69660Y113089D01*
X69452Y113071D01*
X69359Y113055D01*
X69272Y113033D01*
X69191Y113006D01*
X69118Y112975D01*
X69051Y112938D01*
X68992Y112896D01*
X68939Y112849D01*
X68656Y113132D01*
X68703Y113185D01*
X68745Y113244D01*
X68782Y113311D01*
X68814Y113384D01*
X68840Y113464D01*
X68862Y113551D01*
X68878Y113645D01*
X68890Y113746D01*
X68896Y113853D01*
X68898Y113968D01*
X69775Y113091D01*
D02*
G37*
G36*
X72924Y109941D02*
X72810Y109940D01*
X72602Y109922D01*
X72508Y109905D01*
X72421Y109883D01*
X72341Y109857D01*
X72268Y109825D01*
X72201Y109788D01*
X72141Y109746D01*
X72088Y109699D01*
X71806Y109982D01*
X71853Y110035D01*
X71895Y110095D01*
X71931Y110161D01*
X71963Y110235D01*
X71990Y110315D01*
X72012Y110402D01*
X72028Y110496D01*
X72040Y110596D01*
X72046Y110704D01*
X72047Y110818D01*
X72924Y109941D01*
D02*
G37*
G36*
X13977Y110092D02*
X14056Y108769D01*
X14108Y108413D01*
X14173Y108099D01*
X14251Y107828D01*
X14341Y107599D01*
X14444Y107413D01*
X14560Y107270D01*
X14206Y106916D01*
X14063Y107032D01*
X13877Y107135D01*
X13648Y107226D01*
X13377Y107303D01*
X13064Y107368D01*
X12708Y107420D01*
X11868Y107486D01*
X10858Y107500D01*
X13976Y110618D01*
X13977Y110092D01*
D02*
G37*
G36*
X64371Y107554D02*
X64389Y107346D01*
X64406Y107252D01*
X64428Y107165D01*
X64454Y107085D01*
X64486Y107012D01*
X64523Y106945D01*
X64565Y106886D01*
X64612Y106833D01*
X64329Y106550D01*
X64276Y106597D01*
X64216Y106639D01*
X64150Y106675D01*
X64076Y106707D01*
X63996Y106734D01*
X63909Y106755D01*
X63815Y106772D01*
X63715Y106784D01*
X63607Y106790D01*
X63493Y106791D01*
X64370Y107668D01*
X64371Y107554D01*
D02*
G37*
G36*
X73137Y105851D02*
X73150Y105780D01*
X73171Y105706D01*
X73200Y105632D01*
X73238Y105556D01*
X73284Y105480D01*
X73339Y105402D01*
X73402Y105322D01*
X73473Y105242D01*
X73553Y105160D01*
X72313D01*
X72393Y105242D01*
X72527Y105402D01*
X72582Y105480D01*
X72628Y105556D01*
X72666Y105632D01*
X72695Y105706D01*
X72716Y105780D01*
X72729Y105851D01*
X72733Y105922D01*
X73133D01*
X73137Y105851D01*
D02*
G37*
G36*
X94189Y105608D02*
X94248Y105566D01*
X94315Y105529D01*
X94388Y105498D01*
X94468Y105471D01*
X94555Y105449D01*
X94649Y105433D01*
X94750Y105421D01*
X94857Y105415D01*
X94972Y105413D01*
X94095Y104536D01*
X94093Y104651D01*
X94075Y104859D01*
X94059Y104953D01*
X94037Y105039D01*
X94010Y105120D01*
X93979Y105193D01*
X93942Y105260D01*
X93900Y105319D01*
X93853Y105372D01*
X94136Y105655D01*
X94189Y105608D01*
D02*
G37*
G36*
X91039D02*
X91099Y105566D01*
X91165Y105529D01*
X91239Y105498D01*
X91319Y105471D01*
X91406Y105449D01*
X91500Y105433D01*
X91600Y105421D01*
X91708Y105415D01*
X91822Y105413D01*
X90945Y104536D01*
X90944Y104651D01*
X90926Y104859D01*
X90909Y104953D01*
X90887Y105039D01*
X90861Y105120D01*
X90829Y105193D01*
X90792Y105260D01*
X90750Y105319D01*
X90703Y105372D01*
X90986Y105655D01*
X91039Y105608D01*
D02*
G37*
G36*
X84899Y103908D02*
X84817Y103987D01*
X84657Y104122D01*
X84579Y104176D01*
X84503Y104223D01*
X84427Y104260D01*
X84353Y104290D01*
X84280Y104311D01*
X84208Y104323D01*
X84137Y104327D01*
Y104727D01*
X84208Y104732D01*
X84280Y104744D01*
X84353Y104765D01*
X84427Y104795D01*
X84503Y104833D01*
X84579Y104879D01*
X84657Y104933D01*
X84737Y104996D01*
X84817Y105068D01*
X84899Y105148D01*
Y103908D01*
D02*
G37*
G36*
X72300D02*
X72219Y103987D01*
X72059Y104122D01*
X71981Y104176D01*
X71904Y104223D01*
X71829Y104260D01*
X71754Y104290D01*
X71681Y104311D01*
X71609Y104323D01*
X71539Y104327D01*
Y104727D01*
X71609Y104732D01*
X71681Y104744D01*
X71754Y104765D01*
X71829Y104795D01*
X71904Y104833D01*
X71981Y104879D01*
X72059Y104933D01*
X72138Y104996D01*
X72219Y105068D01*
X72300Y105148D01*
Y103908D01*
D02*
G37*
G36*
X124454Y102223D02*
X124407Y102170D01*
X124365Y102110D01*
X124328Y102043D01*
X124297Y101970D01*
X124270Y101890D01*
X124248Y101803D01*
X124232Y101709D01*
X124220Y101609D01*
X124214Y101501D01*
X124213Y101387D01*
X123336Y102264D01*
X123450Y102265D01*
X123658Y102283D01*
X123752Y102300D01*
X123839Y102321D01*
X123919Y102348D01*
X123992Y102380D01*
X124059Y102417D01*
X124118Y102458D01*
X124171Y102505D01*
X124454Y102223D01*
D02*
G37*
G36*
X119386Y102458D02*
X119445Y102417D01*
X119512Y102380D01*
X119585Y102348D01*
X119665Y102321D01*
X119752Y102300D01*
X119846Y102283D01*
X119947Y102271D01*
X120054Y102265D01*
X120168Y102264D01*
X119291Y101387D01*
X119290Y101501D01*
X119272Y101709D01*
X119255Y101803D01*
X119234Y101890D01*
X119207Y101970D01*
X119175Y102043D01*
X119139Y102110D01*
X119097Y102170D01*
X119050Y102223D01*
X119333Y102505D01*
X119386Y102458D01*
D02*
G37*
G36*
X113086D02*
X113146Y102417D01*
X113213Y102380D01*
X113286Y102348D01*
X113366Y102321D01*
X113453Y102300D01*
X113547Y102283D01*
X113647Y102271D01*
X113755Y102265D01*
X113869Y102264D01*
X112992Y101387D01*
X112991Y101501D01*
X112973Y101709D01*
X112956Y101803D01*
X112935Y101890D01*
X112908Y101970D01*
X112876Y102043D01*
X112839Y102110D01*
X112797Y102170D01*
X112750Y102223D01*
X113033Y102505D01*
X113086Y102458D01*
D02*
G37*
G36*
X127191Y101918D02*
X127350Y101784D01*
X127428Y101729D01*
X127505Y101683D01*
X127581Y101645D01*
X127655Y101616D01*
X127728Y101595D01*
X127800Y101582D01*
X127871Y101578D01*
Y101178D01*
X127800Y101174D01*
X127728Y101161D01*
X127655Y101140D01*
X127581Y101111D01*
X127505Y101073D01*
X127428Y101027D01*
X127350Y100972D01*
X127271Y100909D01*
X127191Y100838D01*
X127109Y100758D01*
Y101998D01*
X127191Y101918D01*
D02*
G37*
G36*
X91822Y100492D02*
X91708Y100491D01*
X91500Y100473D01*
X91406Y100456D01*
X91319Y100435D01*
X91239Y100408D01*
X91165Y100376D01*
X91099Y100339D01*
X91039Y100297D01*
X90986Y100250D01*
X90703Y100533D01*
X90750Y100586D01*
X90792Y100646D01*
X90829Y100713D01*
X90861Y100786D01*
X90887Y100866D01*
X90909Y100953D01*
X90926Y101047D01*
X90937Y101147D01*
X90944Y101255D01*
X90945Y101369D01*
X91822Y100492D01*
D02*
G37*
G36*
X220430Y100040D02*
X220349Y100120D01*
X220189Y100255D01*
X220111Y100309D01*
X220034Y100356D01*
X219958Y100393D01*
X219884Y100423D01*
X219811Y100444D01*
X219739Y100456D01*
X219669Y100461D01*
Y100861D01*
X219739Y100865D01*
X219811Y100877D01*
X219884Y100898D01*
X219958Y100928D01*
X220034Y100965D01*
X220111Y101012D01*
X220189Y101066D01*
X220268Y101129D01*
X220349Y101201D01*
X220430Y101281D01*
Y100040D01*
D02*
G37*
G36*
X214131D02*
X214049Y100120D01*
X213890Y100255D01*
X213812Y100309D01*
X213735Y100356D01*
X213659Y100393D01*
X213585Y100423D01*
X213512Y100444D01*
X213440Y100456D01*
X213369Y100461D01*
Y100861D01*
X213440Y100865D01*
X213512Y100877D01*
X213585Y100898D01*
X213659Y100928D01*
X213735Y100965D01*
X213812Y101012D01*
X213890Y101066D01*
X213969Y101129D01*
X214049Y101201D01*
X214131Y101281D01*
Y100040D01*
D02*
G37*
G36*
X207832D02*
X207750Y100120D01*
X207591Y100255D01*
X207512Y100309D01*
X207436Y100356D01*
X207360Y100393D01*
X207286Y100423D01*
X207213Y100444D01*
X207141Y100456D01*
X207070Y100461D01*
Y100861D01*
X207141Y100865D01*
X207213Y100877D01*
X207286Y100898D01*
X207360Y100928D01*
X207436Y100965D01*
X207512Y101012D01*
X207591Y101066D01*
X207670Y101129D01*
X207750Y101201D01*
X207832Y101281D01*
Y100040D01*
D02*
G37*
G36*
X202937Y100202D02*
X202747Y99620D01*
X202734Y99552D01*
X202726Y99492D01*
X202723Y99441D01*
X202323Y99257D01*
X202319Y99335D01*
X202304Y99408D01*
X202281Y99476D01*
X202248Y99540D01*
X202206Y99600D01*
X202154Y99655D01*
X202093Y99706D01*
X202023Y99752D01*
X201943Y99794D01*
X201854Y99831D01*
X202987Y100328D01*
X202937Y100202D01*
D02*
G37*
G36*
X29345Y98553D02*
X29246Y98650D01*
X29052Y98812D01*
X28957Y98878D01*
X28864Y98934D01*
X28771Y98980D01*
X28680Y99015D01*
X28591Y99041D01*
X28502Y99056D01*
X28415Y99061D01*
Y99561D01*
X28502Y99566D01*
X28591Y99581D01*
X28680Y99607D01*
X28771Y99642D01*
X28864Y99688D01*
X28957Y99744D01*
X29052Y99810D01*
X29148Y99886D01*
X29246Y99972D01*
X29345Y100069D01*
Y98553D01*
D02*
G37*
G36*
X218893Y99576D02*
X218953Y99534D01*
X219020Y99497D01*
X219093Y99465D01*
X219173Y99438D01*
X219260Y99417D01*
X219354Y99400D01*
X219455Y99389D01*
X219562Y99382D01*
X219676Y99381D01*
X218799Y98504D01*
X218798Y98618D01*
X218780Y98826D01*
X218763Y98920D01*
X218742Y99007D01*
X218715Y99087D01*
X218683Y99161D01*
X218647Y99227D01*
X218605Y99287D01*
X218558Y99340D01*
X218840Y99623D01*
X218893Y99576D01*
D02*
G37*
G36*
X212594D02*
X212654Y99534D01*
X212720Y99497D01*
X212794Y99465D01*
X212874Y99438D01*
X212961Y99417D01*
X213055Y99400D01*
X213155Y99389D01*
X213263Y99382D01*
X213377Y99381D01*
X212500Y98504D01*
X212499Y98618D01*
X212481Y98826D01*
X212464Y98920D01*
X212443Y99007D01*
X212416Y99087D01*
X212384Y99161D01*
X212347Y99227D01*
X212305Y99287D01*
X212258Y99340D01*
X212541Y99623D01*
X212594Y99576D01*
D02*
G37*
G36*
X206295D02*
X206355Y99534D01*
X206421Y99497D01*
X206494Y99465D01*
X206575Y99438D01*
X206662Y99417D01*
X206755Y99400D01*
X206856Y99389D01*
X206963Y99382D01*
X207078Y99381D01*
X206201Y98504D01*
X206200Y98618D01*
X206182Y98826D01*
X206165Y98920D01*
X206143Y99007D01*
X206117Y99087D01*
X206085Y99161D01*
X206048Y99227D01*
X206006Y99287D01*
X205959Y99340D01*
X206242Y99623D01*
X206295Y99576D01*
D02*
G37*
G36*
X13449Y102483D02*
X14441Y101603D01*
X14729Y101388D01*
X14997Y101212D01*
X15243Y101075D01*
X15469Y100978D01*
X15673Y100919D01*
X15856Y100900D01*
Y100400D01*
X15673Y100380D01*
X15469Y100321D01*
X15243Y100224D01*
X14997Y100087D01*
X14729Y99911D01*
X14441Y99696D01*
X13800Y99149D01*
X13076Y98445D01*
Y102854D01*
X13449Y102483D01*
D02*
G37*
G36*
X124454Y99073D02*
X124407Y99020D01*
X124365Y98960D01*
X124328Y98894D01*
X124297Y98820D01*
X124270Y98740D01*
X124248Y98653D01*
X124232Y98559D01*
X124220Y98459D01*
X124214Y98351D01*
X124213Y98237D01*
X123336Y99114D01*
X123450Y99116D01*
X123658Y99133D01*
X123752Y99150D01*
X123839Y99172D01*
X123919Y99198D01*
X123992Y99230D01*
X124059Y99267D01*
X124118Y99309D01*
X124171Y99356D01*
X124454Y99073D01*
D02*
G37*
G36*
X121305D02*
X121258Y99020D01*
X121216Y98960D01*
X121179Y98894D01*
X121147Y98820D01*
X121120Y98740D01*
X121099Y98653D01*
X121082Y98559D01*
X121071Y98459D01*
X121064Y98351D01*
X121063Y98237D01*
X120186Y99114D01*
X120300Y99116D01*
X120508Y99133D01*
X120602Y99150D01*
X120689Y99172D01*
X120769Y99198D01*
X120843Y99230D01*
X120909Y99267D01*
X120969Y99309D01*
X121022Y99356D01*
X121305Y99073D01*
D02*
G37*
G36*
X116236Y99309D02*
X116296Y99267D01*
X116362Y99230D01*
X116436Y99198D01*
X116516Y99172D01*
X116603Y99150D01*
X116696Y99133D01*
X116797Y99122D01*
X116904Y99116D01*
X117019Y99114D01*
X116142Y98237D01*
X116140Y98351D01*
X116122Y98559D01*
X116106Y98653D01*
X116084Y98740D01*
X116058Y98820D01*
X116026Y98894D01*
X115989Y98960D01*
X115947Y99020D01*
X115900Y99073D01*
X116183Y99356D01*
X116236Y99309D01*
D02*
G37*
G36*
X113086D02*
X113146Y99267D01*
X113213Y99230D01*
X113286Y99198D01*
X113366Y99172D01*
X113453Y99150D01*
X113547Y99133D01*
X113647Y99122D01*
X113755Y99116D01*
X113869Y99114D01*
X112992Y98237D01*
X112991Y98351D01*
X112973Y98559D01*
X112956Y98653D01*
X112935Y98740D01*
X112908Y98820D01*
X112876Y98894D01*
X112839Y98960D01*
X112797Y99020D01*
X112750Y99073D01*
X113033Y99356D01*
X113086Y99309D01*
D02*
G37*
G36*
X200155Y97875D02*
X200073Y97955D01*
X199913Y98089D01*
X199835Y98144D01*
X199758Y98190D01*
X199683Y98228D01*
X199609Y98257D01*
X199535Y98278D01*
X199464Y98291D01*
X199393Y98295D01*
Y98695D01*
X199464Y98699D01*
X199535Y98712D01*
X199609Y98733D01*
X199683Y98762D01*
X199758Y98800D01*
X199835Y98846D01*
X199913Y98901D01*
X199993Y98964D01*
X200073Y99035D01*
X200155Y99115D01*
Y97875D01*
D02*
G37*
G36*
X29156Y96697D02*
X29229Y96645D01*
X29311Y96600D01*
X29400Y96561D01*
X29498Y96528D01*
X29603Y96501D01*
X29717Y96481D01*
X29839Y96466D01*
X29969Y96458D01*
X30107Y96457D01*
X29035Y95385D01*
X29034Y95523D01*
X29012Y95775D01*
X28991Y95889D01*
X28964Y95995D01*
X28931Y96092D01*
X28892Y96182D01*
X28847Y96263D01*
X28795Y96336D01*
X28737Y96401D01*
X29091Y96755D01*
X29156Y96697D01*
D02*
G37*
G36*
X217281Y95137D02*
X217199Y95217D01*
X217039Y95352D01*
X216961Y95406D01*
X216884Y95452D01*
X216809Y95490D01*
X216735Y95520D01*
X216661Y95541D01*
X216590Y95553D01*
X216519Y95557D01*
Y95957D01*
X216590Y95962D01*
X216661Y95974D01*
X216735Y95995D01*
X216809Y96025D01*
X216884Y96062D01*
X216961Y96109D01*
X217039Y96163D01*
X217119Y96226D01*
X217199Y96298D01*
X217281Y96377D01*
Y95137D01*
D02*
G37*
G36*
X210982D02*
X210900Y95217D01*
X210740Y95352D01*
X210662Y95406D01*
X210585Y95452D01*
X210510Y95490D01*
X210435Y95520D01*
X210362Y95541D01*
X210290Y95553D01*
X210220Y95557D01*
Y95957D01*
X210290Y95962D01*
X210362Y95974D01*
X210435Y95995D01*
X210510Y96025D01*
X210585Y96062D01*
X210662Y96109D01*
X210740Y96163D01*
X210819Y96226D01*
X210900Y96298D01*
X210982Y96377D01*
Y95137D01*
D02*
G37*
G36*
X204682D02*
X204601Y95217D01*
X204441Y95352D01*
X204363Y95406D01*
X204286Y95452D01*
X204210Y95490D01*
X204136Y95520D01*
X204063Y95541D01*
X203991Y95553D01*
X203921Y95557D01*
Y95957D01*
X203991Y95962D01*
X204063Y95974D01*
X204136Y95995D01*
X204210Y96025D01*
X204286Y96062D01*
X204363Y96109D01*
X204441Y96163D01*
X204520Y96226D01*
X204601Y96298D01*
X204682Y96377D01*
Y95137D01*
D02*
G37*
G36*
X124454Y95923D02*
X124407Y95870D01*
X124365Y95811D01*
X124328Y95744D01*
X124297Y95671D01*
X124270Y95591D01*
X124248Y95504D01*
X124232Y95410D01*
X124220Y95309D01*
X124214Y95202D01*
X124213Y95088D01*
X123336Y95964D01*
X123450Y95966D01*
X123658Y95984D01*
X123752Y96000D01*
X123839Y96022D01*
X123919Y96049D01*
X123992Y96080D01*
X124059Y96117D01*
X124118Y96159D01*
X124171Y96206D01*
X124454Y95923D01*
D02*
G37*
G36*
X113086Y96159D02*
X113146Y96117D01*
X113213Y96080D01*
X113286Y96049D01*
X113366Y96022D01*
X113453Y96000D01*
X113547Y95984D01*
X113647Y95972D01*
X113755Y95966D01*
X113869Y95964D01*
X112992Y95088D01*
X112991Y95202D01*
X112973Y95410D01*
X112956Y95504D01*
X112935Y95591D01*
X112908Y95671D01*
X112876Y95744D01*
X112839Y95811D01*
X112797Y95870D01*
X112750Y95923D01*
X113033Y96206D01*
X113086Y96159D01*
D02*
G37*
G36*
X199007Y94872D02*
X198893Y94870D01*
X198685Y94852D01*
X198591Y94836D01*
X198504Y94814D01*
X198424Y94788D01*
X198350Y94756D01*
X198284Y94719D01*
X198224Y94677D01*
X198171Y94630D01*
X197888Y94913D01*
X197935Y94966D01*
X197977Y95025D01*
X198014Y95092D01*
X198046Y95165D01*
X198073Y95245D01*
X198094Y95332D01*
X198111Y95426D01*
X198122Y95527D01*
X198129Y95634D01*
X198130Y95749D01*
X199007Y94872D01*
D02*
G37*
G36*
X127191Y95619D02*
X127350Y95485D01*
X127428Y95430D01*
X127505Y95384D01*
X127581Y95346D01*
X127655Y95316D01*
X127728Y95296D01*
X127800Y95283D01*
X127871Y95279D01*
Y94879D01*
X127800Y94875D01*
X127728Y94862D01*
X127655Y94841D01*
X127581Y94811D01*
X127505Y94774D01*
X127428Y94727D01*
X127350Y94673D01*
X127271Y94610D01*
X127191Y94538D01*
X127109Y94459D01*
Y95699D01*
X127191Y95619D01*
D02*
G37*
G36*
X52154Y94291D02*
X52016Y94290D01*
X51764Y94267D01*
X51651Y94247D01*
X51545Y94220D01*
X51447Y94187D01*
X51358Y94148D01*
X51276Y94103D01*
X51203Y94051D01*
X51138Y93993D01*
X50784Y94347D01*
X50842Y94412D01*
X50894Y94485D01*
X50940Y94566D01*
X50979Y94656D01*
X51012Y94753D01*
X51038Y94859D01*
X51059Y94973D01*
X51073Y95095D01*
X51081Y95225D01*
X51083Y95363D01*
X52154Y94291D01*
D02*
G37*
G36*
X31202Y95225D02*
X31225Y94973D01*
X31245Y94859D01*
X31272Y94753D01*
X31305Y94656D01*
X31344Y94566D01*
X31389Y94485D01*
X31441Y94412D01*
X31499Y94347D01*
X31146Y93993D01*
X31080Y94051D01*
X31007Y94103D01*
X30926Y94148D01*
X30836Y94187D01*
X30739Y94220D01*
X30633Y94247D01*
X30519Y94267D01*
X30397Y94282D01*
X30267Y94290D01*
X30129Y94291D01*
X31201Y95363D01*
X31202Y95225D01*
D02*
G37*
G36*
X117019Y94193D02*
X116904Y94192D01*
X116696Y94174D01*
X116603Y94157D01*
X116516Y94135D01*
X116436Y94109D01*
X116362Y94077D01*
X116296Y94040D01*
X116236Y93998D01*
X116183Y93951D01*
X115900Y94234D01*
X115947Y94287D01*
X115989Y94347D01*
X116026Y94413D01*
X116058Y94487D01*
X116084Y94567D01*
X116106Y94654D01*
X116122Y94748D01*
X116134Y94848D01*
X116140Y94956D01*
X116142Y95070D01*
X117019Y94193D01*
D02*
G37*
G36*
X110720D02*
X110605Y94192D01*
X110397Y94174D01*
X110303Y94157D01*
X110216Y94135D01*
X110136Y94109D01*
X110063Y94077D01*
X109996Y94040D01*
X109937Y93998D01*
X109884Y93951D01*
X109601Y94234D01*
X109648Y94287D01*
X109690Y94347D01*
X109727Y94413D01*
X109758Y94487D01*
X109785Y94567D01*
X109807Y94654D01*
X109823Y94748D01*
X109835Y94848D01*
X109841Y94956D01*
X109843Y95070D01*
X110720Y94193D01*
D02*
G37*
G36*
X203928Y92688D02*
X203814Y92687D01*
X203606Y92669D01*
X203512Y92652D01*
X203425Y92631D01*
X203345Y92604D01*
X203272Y92572D01*
X203205Y92535D01*
X203145Y92493D01*
X203092Y92447D01*
X202810Y92729D01*
X202856Y92782D01*
X202899Y92842D01*
X202935Y92909D01*
X202967Y92982D01*
X202994Y93062D01*
X203015Y93149D01*
X203032Y93243D01*
X203044Y93343D01*
X203050Y93451D01*
X203051Y93565D01*
X203928Y92688D01*
D02*
G37*
G36*
X118155Y92774D02*
X118108Y92721D01*
X118066Y92661D01*
X118029Y92595D01*
X117998Y92521D01*
X117971Y92441D01*
X117949Y92354D01*
X117933Y92260D01*
X117921Y92160D01*
X117915Y92052D01*
X117913Y91938D01*
X117036Y92815D01*
X117151Y92816D01*
X117359Y92834D01*
X117453Y92851D01*
X117540Y92872D01*
X117620Y92899D01*
X117693Y92931D01*
X117760Y92968D01*
X117819Y93010D01*
X117872Y93057D01*
X118155Y92774D01*
D02*
G37*
G36*
X83509D02*
X83462Y92721D01*
X83420Y92661D01*
X83384Y92595D01*
X83352Y92521D01*
X83325Y92441D01*
X83303Y92354D01*
X83287Y92260D01*
X83276Y92160D01*
X83269Y92052D01*
X83268Y91938D01*
X82391Y92815D01*
X82505Y92816D01*
X82713Y92834D01*
X82807Y92851D01*
X82894Y92872D01*
X82974Y92899D01*
X83047Y92931D01*
X83114Y92968D01*
X83174Y93010D01*
X83227Y93057D01*
X83509Y92774D01*
D02*
G37*
G36*
X49827Y92682D02*
X49765Y92612D01*
X49714Y92537D01*
X49672Y92456D01*
X49641Y92369D01*
X49620Y92276D01*
X49609Y92177D01*
X49608Y92073D01*
X49617Y91963D01*
X49636Y91847D01*
X49665Y91726D01*
X48354Y92486D01*
X48502Y92526D01*
X48885Y92652D01*
X48992Y92697D01*
X49176Y92790D01*
X49253Y92838D01*
X49319Y92887D01*
X49376Y92938D01*
X49827Y92682D01*
D02*
G37*
G36*
X127191Y92469D02*
X127350Y92335D01*
X127428Y92280D01*
X127505Y92234D01*
X127581Y92196D01*
X127655Y92167D01*
X127728Y92146D01*
X127800Y92133D01*
X127871Y92129D01*
Y91729D01*
X127800Y91725D01*
X127728Y91712D01*
X127655Y91691D01*
X127581Y91662D01*
X127505Y91624D01*
X127428Y91578D01*
X127350Y91523D01*
X127271Y91460D01*
X127191Y91389D01*
X127109Y91309D01*
Y92549D01*
X127191Y92469D01*
D02*
G37*
G36*
X245635Y126951D02*
X246486Y126782D01*
X247337Y126951D01*
X247971Y127374D01*
X248471Y127218D01*
Y91423D01*
X247971Y91267D01*
X247337Y91690D01*
X246486Y91860D01*
X245635Y91690D01*
X244964Y91242D01*
X244463Y91366D01*
Y127276D01*
X244964Y127400D01*
X245635Y126951D01*
D02*
G37*
G36*
X233482Y92282D02*
X233421Y92213D01*
X233367Y92134D01*
X233319Y92046D01*
X233278Y91948D01*
X233243Y91839D01*
X233215Y91722D01*
X233194Y91594D01*
X233179Y91457D01*
X233169Y91154D01*
X232000Y92323D01*
X232157Y92325D01*
X232441Y92348D01*
X232568Y92369D01*
X232686Y92397D01*
X232794Y92432D01*
X232892Y92473D01*
X232981Y92521D01*
X233060Y92575D01*
X233129Y92636D01*
X233482Y92282D01*
D02*
G37*
G36*
X121064Y91806D02*
X121082Y91598D01*
X121099Y91504D01*
X121120Y91417D01*
X121147Y91337D01*
X121179Y91264D01*
X121216Y91197D01*
X121258Y91137D01*
X121305Y91084D01*
X121022Y90802D01*
X120969Y90849D01*
X120909Y90891D01*
X120843Y90927D01*
X120769Y90959D01*
X120689Y90986D01*
X120602Y91008D01*
X120508Y91024D01*
X120408Y91036D01*
X120300Y91042D01*
X120186Y91043D01*
X121063Y91920D01*
X121064Y91806D01*
D02*
G37*
G36*
X110720Y91043D02*
X110605Y91042D01*
X110397Y91024D01*
X110303Y91008D01*
X110216Y90986D01*
X110136Y90959D01*
X110063Y90927D01*
X109996Y90891D01*
X109937Y90849D01*
X109884Y90802D01*
X109601Y91084D01*
X109648Y91137D01*
X109690Y91197D01*
X109727Y91264D01*
X109758Y91337D01*
X109785Y91417D01*
X109807Y91504D01*
X109823Y91598D01*
X109835Y91699D01*
X109841Y91806D01*
X109843Y91920D01*
X110720Y91043D01*
D02*
G37*
G36*
X29345Y90679D02*
X29246Y90776D01*
X29052Y90938D01*
X28957Y91004D01*
X28864Y91060D01*
X28771Y91106D01*
X28680Y91141D01*
X28591Y91167D01*
X28502Y91182D01*
X28415Y91187D01*
Y91687D01*
X28502Y91692D01*
X28591Y91707D01*
X28680Y91733D01*
X28771Y91768D01*
X28864Y91814D01*
X28957Y91870D01*
X29052Y91936D01*
X29148Y92012D01*
X29246Y92098D01*
X29345Y92195D01*
Y90679D01*
D02*
G37*
G36*
X12981Y93031D02*
X15406Y91753D01*
X15571Y91704D01*
X15690Y91687D01*
X15820Y91187D01*
X15609Y91166D01*
X15394Y91103D01*
X15176Y90997D01*
X14954Y90849D01*
X14730Y90660D01*
X14502Y90428D01*
X14270Y90153D01*
X14035Y89837D01*
X13556Y89077D01*
X12453Y93347D01*
X12981Y93031D01*
D02*
G37*
G36*
X121064Y88656D02*
X121082Y88448D01*
X121099Y88355D01*
X121120Y88268D01*
X121147Y88187D01*
X121179Y88114D01*
X121216Y88048D01*
X121258Y87988D01*
X121305Y87935D01*
X121022Y87652D01*
X120969Y87699D01*
X120909Y87741D01*
X120843Y87778D01*
X120769Y87810D01*
X120689Y87836D01*
X120602Y87858D01*
X120508Y87875D01*
X120408Y87886D01*
X120300Y87892D01*
X120186Y87894D01*
X121063Y88771D01*
X121064Y88656D01*
D02*
G37*
G36*
X117915D02*
X117933Y88448D01*
X117949Y88355D01*
X117971Y88268D01*
X117998Y88187D01*
X118029Y88114D01*
X118066Y88048D01*
X118108Y87988D01*
X118155Y87935D01*
X117872Y87652D01*
X117819Y87699D01*
X117760Y87741D01*
X117693Y87778D01*
X117620Y87810D01*
X117540Y87836D01*
X117453Y87858D01*
X117359Y87875D01*
X117258Y87886D01*
X117151Y87892D01*
X117036Y87894D01*
X117913Y88771D01*
X117915Y88656D01*
D02*
G37*
G36*
X29156Y88823D02*
X29229Y88771D01*
X29311Y88726D01*
X29400Y88687D01*
X29498Y88654D01*
X29603Y88627D01*
X29717Y88607D01*
X29839Y88592D01*
X29969Y88584D01*
X30107Y88583D01*
X29035Y87511D01*
X29034Y87649D01*
X29012Y87901D01*
X28991Y88015D01*
X28964Y88121D01*
X28931Y88218D01*
X28892Y88308D01*
X28847Y88389D01*
X28795Y88462D01*
X28737Y88527D01*
X29091Y88881D01*
X29156Y88823D01*
D02*
G37*
G36*
X51392Y86742D02*
X51293Y86839D01*
X51099Y87001D01*
X51004Y87067D01*
X50911Y87123D01*
X50819Y87169D01*
X50727Y87204D01*
X50638Y87230D01*
X50549Y87245D01*
X50462Y87250D01*
Y87750D01*
X50549Y87755D01*
X50638Y87770D01*
X50727Y87796D01*
X50819Y87831D01*
X50911Y87877D01*
X51004Y87933D01*
X51099Y87999D01*
X51196Y88075D01*
X51293Y88161D01*
X51392Y88258D01*
X51392Y86742D01*
D02*
G37*
G36*
X31202Y87351D02*
X31225Y87099D01*
X31245Y86985D01*
X31272Y86879D01*
X31305Y86782D01*
X31344Y86692D01*
X31389Y86611D01*
X31441Y86538D01*
X31499Y86473D01*
X31146Y86119D01*
X31080Y86177D01*
X31007Y86229D01*
X30926Y86274D01*
X30836Y86313D01*
X30739Y86346D01*
X30633Y86373D01*
X30519Y86393D01*
X30397Y86408D01*
X30267Y86416D01*
X30129Y86417D01*
X31201Y87489D01*
X31202Y87351D01*
D02*
G37*
G36*
X47849Y84774D02*
X47750Y84870D01*
X47556Y85033D01*
X47461Y85099D01*
X47368Y85154D01*
X47275Y85200D01*
X47184Y85236D01*
X47095Y85261D01*
X47006Y85276D01*
X46919Y85281D01*
Y85782D01*
X47006Y85787D01*
X47095Y85802D01*
X47184Y85827D01*
X47275Y85863D01*
X47368Y85909D01*
X47461Y85964D01*
X47556Y86030D01*
X47652Y86106D01*
X47750Y86193D01*
X47849Y86289D01*
Y84774D01*
D02*
G37*
G36*
X53038Y84224D02*
X53231Y84062D01*
X53326Y83996D01*
X53420Y83940D01*
X53512Y83894D01*
X53603Y83859D01*
X53693Y83833D01*
X53781Y83818D01*
X53868Y83813D01*
Y83313D01*
X53781Y83308D01*
X53693Y83293D01*
X53603Y83267D01*
X53512Y83232D01*
X53420Y83186D01*
X53326Y83130D01*
X53231Y83064D01*
X53135Y82988D01*
X53038Y82902D01*
X52938Y82805D01*
Y84321D01*
X53038Y84224D01*
D02*
G37*
G36*
X30990D02*
X31184Y84062D01*
X31279Y83996D01*
X31373Y83940D01*
X31465Y83894D01*
X31556Y83859D01*
X31646Y83833D01*
X31734Y83818D01*
X31821Y83813D01*
Y83313D01*
X31734Y83308D01*
X31646Y83293D01*
X31556Y83267D01*
X31465Y83232D01*
X31373Y83186D01*
X31279Y83130D01*
X31184Y83064D01*
X31088Y82988D01*
X30990Y82902D01*
X30891Y82805D01*
Y84321D01*
X30990Y84224D01*
D02*
G37*
G36*
X127191Y83021D02*
X127350Y82886D01*
X127428Y82832D01*
X127505Y82785D01*
X127581Y82748D01*
X127655Y82718D01*
X127728Y82697D01*
X127800Y82684D01*
X127871Y82680D01*
Y82280D01*
X127800Y82276D01*
X127728Y82263D01*
X127655Y82243D01*
X127581Y82213D01*
X127505Y82175D01*
X127428Y82129D01*
X127350Y82074D01*
X127271Y82011D01*
X127191Y81940D01*
X127109Y81860D01*
Y83100D01*
X127191Y83021D01*
D02*
G37*
G36*
X124214Y82357D02*
X124232Y82149D01*
X124248Y82055D01*
X124270Y81968D01*
X124297Y81888D01*
X124328Y81815D01*
X124365Y81748D01*
X124407Y81689D01*
X124454Y81636D01*
X124171Y81353D01*
X124118Y81400D01*
X124059Y81442D01*
X123992Y81479D01*
X123919Y81510D01*
X123839Y81537D01*
X123752Y81559D01*
X123658Y81575D01*
X123557Y81587D01*
X123450Y81593D01*
X123336Y81595D01*
X124213Y82472D01*
X124214Y82357D01*
D02*
G37*
G36*
X14560Y84029D02*
X14444Y83886D01*
X14341Y83700D01*
X14251Y83471D01*
X14173Y83200D01*
X14108Y82887D01*
X14056Y82531D01*
X13991Y81691D01*
X13976Y80681D01*
X10858Y83799D01*
X11384Y83800D01*
X12708Y83879D01*
X13064Y83931D01*
X13377Y83996D01*
X13648Y84074D01*
X13877Y84164D01*
X14063Y84267D01*
X14206Y84383D01*
X14560Y84029D01*
D02*
G37*
G36*
X233911Y81652D02*
X233850Y81583D01*
X233796Y81504D01*
X233748Y81416D01*
X233707Y81318D01*
X233672Y81210D01*
X233645Y81092D01*
X233623Y80964D01*
X233608Y80827D01*
X233598Y80524D01*
X232429Y81693D01*
X232586Y81695D01*
X232870Y81718D01*
X232997Y81739D01*
X233115Y81767D01*
X233223Y81802D01*
X233321Y81843D01*
X233410Y81891D01*
X233489Y81945D01*
X233558Y82006D01*
X233911Y81652D01*
D02*
G37*
G36*
X31499Y80653D02*
X31441Y80588D01*
X31389Y80515D01*
X31344Y80434D01*
X31305Y80344D01*
X31272Y80247D01*
X31245Y80141D01*
X31225Y80027D01*
X31210Y79905D01*
X31202Y79775D01*
X31201Y79637D01*
X30129Y80709D01*
X30267Y80710D01*
X30519Y80733D01*
X30633Y80753D01*
X30739Y80780D01*
X30836Y80813D01*
X30926Y80852D01*
X31007Y80897D01*
X31080Y80949D01*
X31146Y81007D01*
X31499Y80653D01*
D02*
G37*
G36*
X53038Y80287D02*
X53231Y80125D01*
X53326Y80059D01*
X53420Y80003D01*
X53512Y79957D01*
X53603Y79922D01*
X53693Y79896D01*
X53781Y79881D01*
X53868Y79876D01*
Y79376D01*
X53781Y79371D01*
X53693Y79356D01*
X53603Y79330D01*
X53512Y79295D01*
X53420Y79249D01*
X53326Y79193D01*
X53231Y79127D01*
X53135Y79051D01*
X53038Y78965D01*
X52938Y78868D01*
Y80384D01*
X53038Y80287D01*
D02*
G37*
G36*
X89395Y73572D02*
X89555Y73437D01*
X89633Y73383D01*
X89710Y73336D01*
X89786Y73299D01*
X89860Y73269D01*
X89933Y73248D01*
X90005Y73236D01*
X90076Y73232D01*
Y72831D01*
X90005Y72827D01*
X89933Y72815D01*
X89860Y72794D01*
X89786Y72764D01*
X89710Y72727D01*
X89633Y72680D01*
X89555Y72626D01*
X89476Y72563D01*
X89395Y72491D01*
X89314Y72411D01*
Y73652D01*
X89395Y73572D01*
D02*
G37*
G36*
X79223Y72146D02*
X79109Y72144D01*
X78901Y72126D01*
X78807Y72110D01*
X78720Y72088D01*
X78640Y72062D01*
X78567Y72030D01*
X78500Y71993D01*
X78441Y71951D01*
X78388Y71904D01*
X78105Y72187D01*
X78152Y72240D01*
X78194Y72299D01*
X78231Y72366D01*
X78262Y72439D01*
X78289Y72520D01*
X78311Y72607D01*
X78327Y72700D01*
X78339Y72801D01*
X78345Y72908D01*
X78347Y73023D01*
X79223Y72146D01*
D02*
G37*
G36*
X179485Y71811D02*
X179404Y71890D01*
X179244Y72025D01*
X179166Y72079D01*
X179089Y72126D01*
X179014Y72163D01*
X178939Y72193D01*
X178866Y72214D01*
X178794Y72226D01*
X178724Y72231D01*
Y72631D01*
X178794Y72635D01*
X178866Y72648D01*
X178939Y72668D01*
X179014Y72698D01*
X179089Y72736D01*
X179166Y72782D01*
X179244Y72837D01*
X179323Y72900D01*
X179404Y72971D01*
X179485Y73051D01*
Y71811D01*
D02*
G37*
G36*
X173186D02*
X173105Y71890D01*
X172945Y72025D01*
X172867Y72079D01*
X172790Y72126D01*
X172714Y72163D01*
X172640Y72193D01*
X172567Y72214D01*
X172495Y72226D01*
X172424Y72231D01*
Y72631D01*
X172495Y72635D01*
X172567Y72648D01*
X172640Y72668D01*
X172714Y72698D01*
X172790Y72736D01*
X172867Y72782D01*
X172945Y72837D01*
X173024Y72900D01*
X173105Y72971D01*
X173186Y73051D01*
Y71811D01*
D02*
G37*
G36*
X83509Y70727D02*
X83462Y70674D01*
X83420Y70614D01*
X83384Y70547D01*
X83352Y70474D01*
X83325Y70394D01*
X83303Y70307D01*
X83287Y70213D01*
X83276Y70112D01*
X83269Y70005D01*
X83268Y69891D01*
X82391Y70768D01*
X82505Y70769D01*
X82713Y70787D01*
X82807Y70803D01*
X82894Y70825D01*
X82974Y70852D01*
X83047Y70884D01*
X83114Y70920D01*
X83174Y70962D01*
X83227Y71009D01*
X83509Y70727D01*
D02*
G37*
G36*
X80360D02*
X80313Y70674D01*
X80271Y70614D01*
X80234Y70547D01*
X80202Y70474D01*
X80176Y70394D01*
X80154Y70307D01*
X80137Y70213D01*
X80126Y70112D01*
X80119Y70005D01*
X80118Y69891D01*
X79241Y70768D01*
X79355Y70769D01*
X79563Y70787D01*
X79657Y70803D01*
X79744Y70825D01*
X79824Y70852D01*
X79898Y70884D01*
X79964Y70920D01*
X80024Y70962D01*
X80077Y71009D01*
X80360Y70727D01*
D02*
G37*
G36*
X172108Y69510D02*
X172026Y69553D01*
X171946Y69585D01*
X171869Y69606D01*
X171794Y69617D01*
X171723Y69618D01*
X171654Y69608D01*
X171587Y69587D01*
X171523Y69556D01*
X171462Y69515D01*
X171403Y69463D01*
X171286Y69911D01*
X171323Y69951D01*
X171363Y69999D01*
X171448Y70120D01*
X171541Y70272D01*
X171698Y70560D01*
X171754Y70672D01*
X172108Y69510D01*
D02*
G37*
G36*
X178472Y69403D02*
X178374Y69431D01*
X178280Y69449D01*
X178191Y69460D01*
X178107Y69461D01*
X178027Y69454D01*
X177952Y69438D01*
X177882Y69414D01*
X177815Y69381D01*
X177754Y69339D01*
X177697Y69289D01*
X177504Y69661D01*
X177543Y69705D01*
X177582Y69758D01*
X177622Y69820D01*
X177661Y69890D01*
X177738Y70058D01*
X177776Y70155D01*
X177891Y70499D01*
X178472Y69403D01*
D02*
G37*
G36*
X86246Y70422D02*
X86406Y70288D01*
X86484Y70233D01*
X86560Y70187D01*
X86636Y70149D01*
X86710Y70120D01*
X86783Y70099D01*
X86855Y70086D01*
X86926Y70082D01*
Y69682D01*
X86855Y69678D01*
X86783Y69665D01*
X86710Y69644D01*
X86636Y69615D01*
X86560Y69577D01*
X86484Y69531D01*
X86406Y69476D01*
X86326Y69413D01*
X86246Y69342D01*
X86164Y69262D01*
Y70502D01*
X86246Y70422D01*
D02*
G37*
G36*
X159743Y69393D02*
X159629Y69392D01*
X159421Y69374D01*
X159327Y69357D01*
X159240Y69336D01*
X159160Y69309D01*
X159087Y69277D01*
X159020Y69240D01*
X158960Y69199D01*
X158907Y69152D01*
X158624Y69434D01*
X158671Y69487D01*
X158713Y69547D01*
X158750Y69614D01*
X158782Y69687D01*
X158809Y69767D01*
X158830Y69854D01*
X158847Y69948D01*
X158858Y70048D01*
X158865Y70156D01*
X158866Y70270D01*
X159743Y69393D01*
D02*
G37*
G36*
X185030Y69361D02*
X184916Y69360D01*
X184708Y69342D01*
X184615Y69326D01*
X184528Y69304D01*
X184447Y69277D01*
X184374Y69245D01*
X184307Y69209D01*
X184248Y69167D01*
X184195Y69120D01*
X183912Y69402D01*
X183959Y69455D01*
X184001Y69515D01*
X184038Y69582D01*
X184069Y69655D01*
X184096Y69735D01*
X184118Y69822D01*
X184134Y69916D01*
X184146Y70017D01*
X184152Y70124D01*
X184154Y70238D01*
X185030Y69361D01*
D02*
G37*
G36*
X197629D02*
X197528Y69360D01*
X197432Y69352D01*
X197340Y69339D01*
X197254Y69321D01*
X197172Y69297D01*
X197095Y69267D01*
X197024Y69232D01*
X196957Y69192D01*
X196895Y69145D01*
X196838Y69094D01*
X196484Y69447D01*
X196536Y69504D01*
X196582Y69566D01*
X196623Y69633D01*
X196658Y69705D01*
X196688Y69781D01*
X196712Y69863D01*
X196730Y69949D01*
X196743Y70041D01*
X196750Y70137D01*
X196752Y70238D01*
X197629Y69361D01*
D02*
G37*
G36*
X80360Y67577D02*
X80313Y67524D01*
X80271Y67464D01*
X80234Y67398D01*
X80202Y67324D01*
X80176Y67244D01*
X80154Y67157D01*
X80137Y67063D01*
X80126Y66963D01*
X80119Y66855D01*
X80118Y66741D01*
X79241Y67618D01*
X79355Y67619D01*
X79563Y67637D01*
X79657Y67654D01*
X79744Y67676D01*
X79824Y67702D01*
X79898Y67734D01*
X79964Y67771D01*
X80024Y67813D01*
X80077Y67860D01*
X80360Y67577D01*
D02*
G37*
G36*
X86246Y67273D02*
X86406Y67138D01*
X86484Y67084D01*
X86560Y67037D01*
X86636Y67000D01*
X86710Y66970D01*
X86783Y66949D01*
X86855Y66936D01*
X86926Y66932D01*
Y66532D01*
X86855Y66528D01*
X86783Y66515D01*
X86710Y66495D01*
X86636Y66465D01*
X86560Y66427D01*
X86484Y66381D01*
X86406Y66326D01*
X86326Y66263D01*
X86246Y66192D01*
X86164Y66112D01*
Y67352D01*
X86246Y67273D01*
D02*
G37*
G36*
X76074Y65847D02*
X75960Y65845D01*
X75752Y65827D01*
X75658Y65811D01*
X75571Y65789D01*
X75491Y65762D01*
X75417Y65731D01*
X75351Y65694D01*
X75291Y65652D01*
X75238Y65605D01*
X74955Y65888D01*
X75002Y65941D01*
X75044Y66000D01*
X75081Y66067D01*
X75113Y66140D01*
X75139Y66220D01*
X75161Y66307D01*
X75178Y66401D01*
X75189Y66502D01*
X75196Y66609D01*
X75197Y66723D01*
X76074Y65847D01*
D02*
G37*
G36*
X83509Y64427D02*
X83462Y64374D01*
X83420Y64315D01*
X83384Y64248D01*
X83352Y64175D01*
X83325Y64095D01*
X83303Y64008D01*
X83287Y63914D01*
X83276Y63813D01*
X83269Y63706D01*
X83268Y63591D01*
X82391Y64468D01*
X82505Y64470D01*
X82713Y64488D01*
X82807Y64504D01*
X82894Y64526D01*
X82974Y64553D01*
X83047Y64584D01*
X83114Y64621D01*
X83174Y64663D01*
X83227Y64710D01*
X83509Y64427D01*
D02*
G37*
G36*
X86246Y64123D02*
X86406Y63989D01*
X86484Y63934D01*
X86560Y63888D01*
X86636Y63850D01*
X86710Y63820D01*
X86783Y63800D01*
X86855Y63787D01*
X86926Y63783D01*
Y63383D01*
X86855Y63379D01*
X86783Y63366D01*
X86710Y63345D01*
X86636Y63315D01*
X86560Y63278D01*
X86484Y63231D01*
X86406Y63177D01*
X86326Y63114D01*
X86246Y63042D01*
X86164Y62963D01*
Y64203D01*
X86246Y64123D01*
D02*
G37*
G36*
X79223Y62697D02*
X79109Y62695D01*
X78901Y62678D01*
X78807Y62661D01*
X78720Y62639D01*
X78640Y62613D01*
X78567Y62581D01*
X78500Y62544D01*
X78441Y62502D01*
X78388Y62455D01*
X78105Y62738D01*
X78152Y62791D01*
X78194Y62851D01*
X78231Y62917D01*
X78262Y62991D01*
X78289Y63071D01*
X78311Y63158D01*
X78327Y63252D01*
X78339Y63352D01*
X78345Y63460D01*
X78347Y63574D01*
X79223Y62697D01*
D02*
G37*
G36*
X80360Y61278D02*
X80313Y61225D01*
X80271Y61165D01*
X80234Y61098D01*
X80202Y61025D01*
X80176Y60945D01*
X80154Y60858D01*
X80137Y60764D01*
X80126Y60664D01*
X80119Y60556D01*
X80118Y60442D01*
X79241Y61319D01*
X79355Y61320D01*
X79563Y61338D01*
X79657Y61355D01*
X79744Y61376D01*
X79824Y61403D01*
X79898Y61435D01*
X79964Y61472D01*
X80024Y61514D01*
X80077Y61560D01*
X80360Y61278D01*
D02*
G37*
G36*
X83269Y60310D02*
X83287Y60102D01*
X83303Y60008D01*
X83325Y59921D01*
X83352Y59841D01*
X83384Y59768D01*
X83420Y59701D01*
X83462Y59641D01*
X83509Y59588D01*
X83227Y59306D01*
X83174Y59353D01*
X83114Y59395D01*
X83047Y59431D01*
X82974Y59463D01*
X82894Y59490D01*
X82807Y59512D01*
X82713Y59528D01*
X82612Y59540D01*
X82505Y59546D01*
X82391Y59547D01*
X83268Y60424D01*
X83269Y60310D01*
D02*
G37*
G36*
X76074Y59547D02*
X75960Y59546D01*
X75752Y59528D01*
X75658Y59512D01*
X75571Y59490D01*
X75491Y59463D01*
X75417Y59431D01*
X75351Y59395D01*
X75291Y59353D01*
X75238Y59306D01*
X74955Y59588D01*
X75002Y59641D01*
X75044Y59701D01*
X75081Y59768D01*
X75113Y59841D01*
X75139Y59921D01*
X75161Y60008D01*
X75178Y60102D01*
X75189Y60203D01*
X75196Y60310D01*
X75197Y60424D01*
X76074Y59547D01*
D02*
G37*
G36*
X83269Y57160D02*
X83287Y56952D01*
X83303Y56859D01*
X83325Y56772D01*
X83352Y56691D01*
X83384Y56618D01*
X83420Y56551D01*
X83462Y56492D01*
X83509Y56439D01*
X83227Y56156D01*
X83174Y56203D01*
X83114Y56245D01*
X83047Y56282D01*
X82974Y56314D01*
X82894Y56340D01*
X82807Y56362D01*
X82713Y56378D01*
X82612Y56390D01*
X82505Y56396D01*
X82391Y56398D01*
X83268Y57275D01*
X83269Y57160D01*
D02*
G37*
G36*
X69775Y56398D02*
X69660Y56396D01*
X69452Y56378D01*
X69359Y56362D01*
X69272Y56340D01*
X69191Y56314D01*
X69118Y56282D01*
X69051Y56245D01*
X68992Y56203D01*
X68939Y56156D01*
X68656Y56439D01*
X68703Y56492D01*
X68745Y56551D01*
X68782Y56618D01*
X68814Y56691D01*
X68840Y56772D01*
X68862Y56859D01*
X68878Y56952D01*
X68890Y57053D01*
X68896Y57160D01*
X68898Y57275D01*
X69775Y56398D01*
D02*
G37*
G36*
X76623Y56569D02*
X76489Y56409D01*
X76434Y56331D01*
X76388Y56255D01*
X76350Y56179D01*
X76320Y56105D01*
X76300Y56032D01*
X76287Y55960D01*
X76283Y55889D01*
X75883D01*
X75879Y55960D01*
X75866Y56032D01*
X75845Y56105D01*
X75815Y56179D01*
X75778Y56255D01*
X75731Y56331D01*
X75677Y56409D01*
X75614Y56489D01*
X75542Y56569D01*
X75463Y56651D01*
X76703D01*
X76623Y56569D01*
D02*
G37*
G36*
X83269Y54011D02*
X83287Y53803D01*
X83303Y53709D01*
X83325Y53622D01*
X83352Y53542D01*
X83384Y53468D01*
X83420Y53402D01*
X83462Y53342D01*
X83509Y53289D01*
X83227Y53006D01*
X83174Y53053D01*
X83114Y53095D01*
X83047Y53132D01*
X82974Y53164D01*
X82894Y53191D01*
X82807Y53212D01*
X82713Y53229D01*
X82612Y53240D01*
X82505Y53247D01*
X82391Y53248D01*
X83268Y54125D01*
X83269Y54011D01*
D02*
G37*
G36*
X80119D02*
X80137Y53803D01*
X80154Y53709D01*
X80176Y53622D01*
X80202Y53542D01*
X80234Y53468D01*
X80271Y53402D01*
X80313Y53342D01*
X80360Y53289D01*
X80077Y53006D01*
X80024Y53053D01*
X79964Y53095D01*
X79898Y53132D01*
X79824Y53164D01*
X79744Y53191D01*
X79657Y53212D01*
X79563Y53229D01*
X79463Y53240D01*
X79355Y53247D01*
X79241Y53248D01*
X80118Y54125D01*
X80119Y54011D01*
D02*
G37*
G36*
X70078Y53295D02*
X70059Y53279D01*
X70041Y53258D01*
X70026Y53232D01*
X70013Y53202D01*
X70002Y53166D01*
X69994Y53126D01*
X69988Y53081D01*
X69985Y53031D01*
X69984Y52976D01*
X69583D01*
X69582Y53031D01*
X69573Y53126D01*
X69565Y53166D01*
X69554Y53202D01*
X69541Y53232D01*
X69526Y53258D01*
X69508Y53279D01*
X69489Y53295D01*
X69466Y53307D01*
X70101D01*
X70078Y53295D01*
D02*
G37*
G36*
X232622Y50169D02*
X233414Y49894D01*
X233503Y49875D01*
X233579Y49864D01*
X233644Y49860D01*
X233860Y49360D01*
X233759Y49353D01*
X233663Y49334D01*
X233572Y49302D01*
X233487Y49257D01*
X233407Y49199D01*
X233332Y49128D01*
X233263Y49045D01*
X233198Y48948D01*
X233139Y48839D01*
X233086Y48717D01*
X232447Y50242D01*
X232622Y50169D01*
D02*
G37*
G36*
X170227Y46497D02*
X170275Y46461D01*
X170332Y46422D01*
X170477Y46339D01*
X170660Y46247D01*
X171009Y46094D01*
X169858Y45632D01*
X169894Y45722D01*
X169920Y45809D01*
X169936Y45892D01*
X169943Y45972D01*
X169940Y46048D01*
X169928Y46120D01*
X169905Y46189D01*
X169873Y46254D01*
X169832Y46316D01*
X169781Y46374D01*
X170189Y46531D01*
X170227Y46497D01*
D02*
G37*
G36*
X188775Y46356D02*
X188835Y46314D01*
X188901Y46277D01*
X188975Y46246D01*
X189055Y46219D01*
X189142Y46197D01*
X189236Y46181D01*
X189336Y46169D01*
X189444Y46163D01*
X189558Y46161D01*
X188681Y45284D01*
X188680Y45399D01*
X188662Y45607D01*
X188645Y45700D01*
X188624Y45788D01*
X188597Y45868D01*
X188565Y45941D01*
X188528Y46007D01*
X188486Y46067D01*
X188440Y46120D01*
X188722Y46403D01*
X188775Y46356D01*
D02*
G37*
G36*
X150980D02*
X151040Y46314D01*
X151106Y46277D01*
X151180Y46246D01*
X151260Y46219D01*
X151347Y46197D01*
X151441Y46181D01*
X151541Y46169D01*
X151649Y46163D01*
X151763Y46161D01*
X150886Y45284D01*
X150884Y45399D01*
X150867Y45607D01*
X150850Y45700D01*
X150828Y45788D01*
X150802Y45868D01*
X150770Y45941D01*
X150733Y46007D01*
X150691Y46067D01*
X150644Y46120D01*
X150927Y46403D01*
X150980Y46356D01*
D02*
G37*
G36*
X163737Y44655D02*
X163656Y44735D01*
X163496Y44870D01*
X163418Y44924D01*
X163341Y44971D01*
X163266Y45008D01*
X163191Y45038D01*
X163118Y45059D01*
X163046Y45071D01*
X162976Y45076D01*
Y45476D01*
X163046Y45480D01*
X163118Y45492D01*
X163191Y45513D01*
X163266Y45543D01*
X163341Y45581D01*
X163418Y45627D01*
X163496Y45681D01*
X163575Y45744D01*
X163656Y45816D01*
X163737Y45896D01*
Y44655D01*
D02*
G37*
G36*
X144840D02*
X144758Y44735D01*
X144598Y44870D01*
X144520Y44924D01*
X144444Y44971D01*
X144368Y45008D01*
X144294Y45038D01*
X144220Y45059D01*
X144149Y45071D01*
X144078Y45076D01*
Y45476D01*
X144149Y45480D01*
X144220Y45492D01*
X144294Y45513D01*
X144368Y45543D01*
X144444Y45581D01*
X144520Y45627D01*
X144598Y45681D01*
X144678Y45744D01*
X144758Y45816D01*
X144840Y45896D01*
Y44655D01*
D02*
G37*
G36*
X169138Y44436D02*
X169152Y44363D01*
X169176Y44295D01*
X169209Y44231D01*
X169251Y44171D01*
X169302Y44116D01*
X169363Y44065D01*
X169434Y44019D01*
X169514Y43977D01*
X169603Y43939D01*
X168470Y43442D01*
X168520Y43568D01*
X168710Y44151D01*
X168723Y44219D01*
X168731Y44278D01*
X168733Y44330D01*
X169133Y44513D01*
X169138Y44436D01*
D02*
G37*
G36*
X162200Y44191D02*
X162260Y44149D01*
X162327Y44112D01*
X162400Y44080D01*
X162480Y44054D01*
X162567Y44032D01*
X162661Y44015D01*
X162762Y44004D01*
X162869Y43997D01*
X162983Y43996D01*
X162106Y43119D01*
X162105Y43233D01*
X162087Y43441D01*
X162071Y43535D01*
X162049Y43622D01*
X162022Y43702D01*
X161990Y43776D01*
X161954Y43842D01*
X161912Y43902D01*
X161865Y43955D01*
X162147Y44238D01*
X162200Y44191D01*
D02*
G37*
G36*
X150385Y42224D02*
X150271Y42223D01*
X150063Y42205D01*
X149969Y42189D01*
X149882Y42167D01*
X149802Y42140D01*
X149728Y42109D01*
X149662Y42072D01*
X149602Y42030D01*
X149549Y41983D01*
X149266Y42266D01*
X149313Y42318D01*
X149355Y42378D01*
X149392Y42445D01*
X149424Y42518D01*
X149450Y42598D01*
X149472Y42685D01*
X149489Y42779D01*
X149500Y42880D01*
X149507Y42987D01*
X149508Y43101D01*
X150385Y42224D01*
D02*
G37*
G36*
X160588Y39752D02*
X160506Y39832D01*
X160346Y39967D01*
X160268Y40021D01*
X160192Y40067D01*
X160116Y40105D01*
X160042Y40135D01*
X159968Y40156D01*
X159897Y40168D01*
X159826Y40172D01*
Y40573D01*
X159897Y40577D01*
X159968Y40589D01*
X160042Y40610D01*
X160116Y40640D01*
X160192Y40677D01*
X160268Y40724D01*
X160346Y40778D01*
X160426Y40841D01*
X160506Y40913D01*
X160588Y40993D01*
Y39752D01*
D02*
G37*
G36*
X154289D02*
X154207Y39832D01*
X154047Y39967D01*
X153969Y40021D01*
X153892Y40067D01*
X153817Y40105D01*
X153742Y40135D01*
X153669Y40156D01*
X153597Y40168D01*
X153527Y40172D01*
Y40573D01*
X153597Y40577D01*
X153669Y40589D01*
X153742Y40610D01*
X153817Y40640D01*
X153892Y40677D01*
X153969Y40724D01*
X154047Y40778D01*
X154126Y40841D01*
X154207Y40913D01*
X154289Y40993D01*
Y39752D01*
D02*
G37*
G36*
X232673Y39862D02*
X232690Y39767D01*
X232719Y39671D01*
X232759Y39572D01*
X232811Y39472D01*
X232875Y39369D01*
X232950Y39263D01*
X233036Y39156D01*
X233244Y38934D01*
X231591D01*
X231700Y39046D01*
X231885Y39263D01*
X231960Y39369D01*
X232023Y39472D01*
X232075Y39572D01*
X232115Y39671D01*
X232144Y39767D01*
X232161Y39862D01*
X232167Y39954D01*
X232667D01*
X232673Y39862D01*
D02*
G37*
G36*
X152911Y37569D02*
X152829Y37649D01*
X152669Y37783D01*
X152591Y37838D01*
X152514Y37884D01*
X152439Y37922D01*
X152365Y37951D01*
X152291Y37972D01*
X152219Y37985D01*
X152149Y37989D01*
Y38389D01*
X152219Y38393D01*
X152291Y38406D01*
X152365Y38427D01*
X152439Y38456D01*
X152514Y38494D01*
X152591Y38540D01*
X152669Y38595D01*
X152749Y38658D01*
X152829Y38729D01*
X152911Y38809D01*
Y37569D01*
D02*
G37*
G36*
X197629Y37303D02*
X197528Y37301D01*
X197432Y37294D01*
X197340Y37281D01*
X197254Y37263D01*
X197172Y37239D01*
X197095Y37209D01*
X197024Y37174D01*
X196957Y37133D01*
X196895Y37087D01*
X196838Y37036D01*
X196484Y37389D01*
X196536Y37446D01*
X196582Y37508D01*
X196623Y37575D01*
X196658Y37647D01*
X196688Y37723D01*
X196712Y37805D01*
X196730Y37891D01*
X196743Y37983D01*
X196750Y38079D01*
X196752Y38180D01*
X197629Y37303D01*
D02*
G37*
%LPC*%
G36*
X101779Y166146D02*
Y165559D01*
X102366D01*
X102131Y165911D01*
X101779Y166146D01*
D02*
G37*
G36*
X100779D02*
X100428Y165911D01*
X100193Y165559D01*
X100779D01*
Y166146D01*
D02*
G37*
G36*
X82095D02*
Y165559D01*
X82681D01*
X82446Y165911D01*
X82095Y166146D01*
D02*
G37*
G36*
X81094D02*
X80743Y165911D01*
X80508Y165559D01*
X81094D01*
Y166146D01*
D02*
G37*
G36*
X42823D02*
Y165559D01*
X43409D01*
X43174Y165911D01*
X42823Y166146D01*
D02*
G37*
G36*
X41823D02*
X41471Y165911D01*
X41236Y165559D01*
X41823D01*
Y166146D01*
D02*
G37*
G36*
X102366Y164559D02*
X101779D01*
Y163973D01*
X102131Y164207D01*
X102366Y164559D01*
D02*
G37*
G36*
X100779D02*
X100193D01*
X100428Y164207D01*
X100779Y163973D01*
Y164559D01*
D02*
G37*
G36*
X82681D02*
X82095D01*
Y163973D01*
X82446Y164207D01*
X82681Y164559D01*
D02*
G37*
G36*
X81094D02*
X80508D01*
X80743Y164207D01*
X81094Y163973D01*
Y164559D01*
D02*
G37*
G36*
X43409D02*
X42823D01*
Y163973D01*
X43174Y164207D01*
X43409Y164559D01*
D02*
G37*
G36*
X41823D02*
X41236D01*
X41471Y164207D01*
X41823Y163973D01*
Y164559D01*
D02*
G37*
G36*
X224713Y158408D02*
Y158177D01*
X224944D01*
X224851Y158316D01*
X224713Y158408D01*
D02*
G37*
G36*
X223713D02*
X223574Y158316D01*
X223481Y158177D01*
X223713D01*
Y158408D01*
D02*
G37*
G36*
X141424D02*
Y158177D01*
X141655D01*
X141562Y158316D01*
X141424Y158408D01*
D02*
G37*
G36*
X140424D02*
X140285Y158316D01*
X140192Y158177D01*
X140424D01*
Y158408D01*
D02*
G37*
G36*
X182369Y158310D02*
Y158079D01*
X182600D01*
X182507Y158217D01*
X182369Y158310D01*
D02*
G37*
G36*
X181369D02*
X181230Y158217D01*
X181137Y158079D01*
X181369D01*
Y158310D01*
D02*
G37*
G36*
X224944Y157177D02*
X224713D01*
Y156946D01*
X224851Y157038D01*
X224944Y157177D01*
D02*
G37*
G36*
X223713D02*
X223481D01*
X223574Y157038D01*
X223713Y156946D01*
Y157177D01*
D02*
G37*
G36*
X141655D02*
X141424D01*
Y156946D01*
X141562Y157038D01*
X141655Y157177D01*
D02*
G37*
G36*
X140424D02*
X140192D01*
X140285Y157038D01*
X140424Y156946D01*
Y157177D01*
D02*
G37*
G36*
X182600Y157079D02*
X182369D01*
Y156848D01*
X182507Y156940D01*
X182600Y157079D01*
D02*
G37*
G36*
X181369D02*
X181137D01*
X181230Y156940D01*
X181369Y156848D01*
Y157079D01*
D02*
G37*
G36*
X133576Y160590D02*
X132725Y160421D01*
X132004Y159939D01*
X131910Y159799D01*
X131897Y159789D01*
X131816Y159695D01*
X131757Y159634D01*
X131706Y159587D01*
X131666Y159555D01*
X131647Y159542D01*
X125394D01*
X124906Y159445D01*
X124493Y159169D01*
X111268Y145944D01*
X111251Y145939D01*
X111204Y145928D01*
X111153Y145919D01*
X110948Y145903D01*
X110938Y145903D01*
X110827Y145925D01*
X109976Y145755D01*
X109254Y145273D01*
X108772Y144552D01*
X108603Y143701D01*
X108680Y143312D01*
X108692Y143254D01*
X108255Y143076D01*
X108201Y143157D01*
X107773Y143797D01*
X107052Y144279D01*
X106201Y144448D01*
X105350Y144279D01*
X104628Y143797D01*
X104146Y143075D01*
X103977Y142224D01*
X104146Y141373D01*
X104628Y140652D01*
X105350Y140170D01*
X106201Y140001D01*
X107052Y140170D01*
X107773Y140652D01*
X108255Y141373D01*
X108425Y142224D01*
X108347Y142613D01*
X108336Y142672D01*
X108772Y142850D01*
X108826Y142769D01*
X109254Y142128D01*
X109976Y141646D01*
X110827Y141477D01*
X111678Y141646D01*
X112399Y142128D01*
X112881Y142850D01*
X113051Y143701D01*
X113031Y143800D01*
X113036Y143945D01*
X113043Y144014D01*
X113054Y144078D01*
X113065Y144125D01*
X113070Y144142D01*
X125922Y156993D01*
X131713D01*
X131719Y156991D01*
X131758Y156973D01*
X131811Y156943D01*
X131868Y156907D01*
X131985Y156821D01*
X132004Y156794D01*
X132115Y156719D01*
X132152Y156688D01*
X132200Y156662D01*
X132725Y156312D01*
X133576Y156142D01*
X134427Y156312D01*
X135149Y156794D01*
X135631Y157515D01*
X135666Y157692D01*
X135725Y157780D01*
X135822Y158268D01*
X135725Y158755D01*
X135722Y158760D01*
X135631Y159217D01*
X135149Y159939D01*
X134427Y160421D01*
X133576Y160590D01*
D02*
G37*
G36*
X224713Y155652D02*
Y155421D01*
X224944D01*
X224851Y155560D01*
X224713Y155652D01*
D02*
G37*
G36*
X223713D02*
X223574Y155560D01*
X223481Y155421D01*
X223713D01*
Y155652D01*
D02*
G37*
G36*
X149122D02*
Y155421D01*
X149353D01*
X149261Y155560D01*
X149122Y155652D01*
D02*
G37*
G36*
X148122D02*
X147983Y155560D01*
X147891Y155421D01*
X148122D01*
Y155652D01*
D02*
G37*
G36*
X141424D02*
Y155421D01*
X141655D01*
X141562Y155560D01*
X141424Y155652D01*
D02*
G37*
G36*
X140424D02*
X140285Y155560D01*
X140192Y155421D01*
X140424D01*
Y155652D01*
D02*
G37*
G36*
X182369Y155554D02*
Y155323D01*
X182600D01*
X182507Y155462D01*
X182369Y155554D01*
D02*
G37*
G36*
X181369D02*
X181230Y155462D01*
X181137Y155323D01*
X181369D01*
Y155554D01*
D02*
G37*
G36*
X168020D02*
Y155323D01*
X168251D01*
X168158Y155462D01*
X168020Y155554D01*
D02*
G37*
G36*
X167020D02*
X166881Y155462D01*
X166788Y155323D01*
X167020D01*
Y155554D01*
D02*
G37*
G36*
X37803Y155909D02*
Y155323D01*
X38390D01*
X38155Y155674D01*
X37803Y155909D01*
D02*
G37*
G36*
X36803D02*
X36452Y155674D01*
X36217Y155323D01*
X36803D01*
Y155909D01*
D02*
G37*
G36*
X224944Y154421D02*
X224713D01*
Y154190D01*
X224851Y154283D01*
X224944Y154421D01*
D02*
G37*
G36*
X223713D02*
X223481D01*
X223574Y154283D01*
X223713Y154190D01*
Y154421D01*
D02*
G37*
G36*
X149353D02*
X149122D01*
Y154190D01*
X149261Y154283D01*
X149353Y154421D01*
D02*
G37*
G36*
X148122D02*
X147891D01*
X147983Y154283D01*
X148122Y154190D01*
Y154421D01*
D02*
G37*
G36*
X141655D02*
X141424D01*
Y154190D01*
X141562Y154283D01*
X141655Y154421D01*
D02*
G37*
G36*
X140424D02*
X140192D01*
X140285Y154283D01*
X140424Y154190D01*
Y154421D01*
D02*
G37*
G36*
X221063Y157997D02*
X220327Y157850D01*
X219703Y157433D01*
X219287Y156810D01*
X219140Y156074D01*
X219287Y155338D01*
X219703Y154714D01*
X220327Y154297D01*
X221063Y154151D01*
X221799Y154297D01*
X222423Y154714D01*
X222839Y155338D01*
X222986Y156074D01*
X222839Y156810D01*
X222423Y157433D01*
X221799Y157850D01*
X221063Y157997D01*
D02*
G37*
G36*
X214764D02*
X214028Y157850D01*
X213404Y157433D01*
X212987Y156810D01*
X212841Y156074D01*
X212987Y155338D01*
X213404Y154714D01*
X214028Y154297D01*
X214764Y154151D01*
X215500Y154297D01*
X216123Y154714D01*
X216540Y155338D01*
X216687Y156074D01*
X216540Y156810D01*
X216123Y157433D01*
X215500Y157850D01*
X214764Y157997D01*
D02*
G37*
G36*
X208465D02*
X207729Y157850D01*
X207105Y157433D01*
X206688Y156810D01*
X206542Y156074D01*
X206688Y155338D01*
X207105Y154714D01*
X207729Y154297D01*
X208465Y154151D01*
X209200Y154297D01*
X209824Y154714D01*
X210241Y155338D01*
X210387Y156074D01*
X210241Y156810D01*
X209824Y157433D01*
X209200Y157850D01*
X208465Y157997D01*
D02*
G37*
G36*
X202165D02*
X201430Y157850D01*
X200806Y157433D01*
X200389Y156810D01*
X200243Y156074D01*
X200389Y155338D01*
X200806Y154714D01*
X201430Y154297D01*
X202165Y154151D01*
X202901Y154297D01*
X203525Y154714D01*
X203942Y155338D01*
X204088Y156074D01*
X203942Y156810D01*
X203525Y157433D01*
X202901Y157850D01*
X202165Y157997D01*
D02*
G37*
G36*
X195866D02*
X195130Y157850D01*
X194507Y157433D01*
X194090Y156810D01*
X193943Y156074D01*
X194090Y155338D01*
X194507Y154714D01*
X195130Y154297D01*
X195866Y154151D01*
X196602Y154297D01*
X197226Y154714D01*
X197643Y155338D01*
X197789Y156074D01*
X197643Y156810D01*
X197226Y157433D01*
X196602Y157850D01*
X195866Y157997D01*
D02*
G37*
G36*
X189567D02*
X188831Y157850D01*
X188207Y157433D01*
X187791Y156810D01*
X187644Y156074D01*
X187791Y155338D01*
X188207Y154714D01*
X188831Y154297D01*
X189567Y154151D01*
X190303Y154297D01*
X190927Y154714D01*
X191343Y155338D01*
X191490Y156074D01*
X191343Y156810D01*
X190927Y157433D01*
X190303Y157850D01*
X189567Y157997D01*
D02*
G37*
G36*
X170669D02*
X169933Y157850D01*
X169310Y157433D01*
X168893Y156810D01*
X168746Y156074D01*
X168893Y155338D01*
X169310Y154714D01*
X169933Y154297D01*
X170669Y154151D01*
X171405Y154297D01*
X172029Y154714D01*
X172446Y155338D01*
X172592Y156074D01*
X172446Y156810D01*
X172029Y157433D01*
X171405Y157850D01*
X170669Y157997D01*
D02*
G37*
G36*
X164370D02*
X163634Y157850D01*
X163011Y157433D01*
X162594Y156810D01*
X162447Y156074D01*
X162594Y155338D01*
X163011Y154714D01*
X163634Y154297D01*
X164370Y154151D01*
X165106Y154297D01*
X165730Y154714D01*
X166147Y155338D01*
X166293Y156074D01*
X166147Y156810D01*
X165730Y157433D01*
X165106Y157850D01*
X164370Y157997D01*
D02*
G37*
G36*
X151772D02*
X151036Y157850D01*
X150412Y157433D01*
X149995Y156810D01*
X149849Y156074D01*
X149995Y155338D01*
X150412Y154714D01*
X151036Y154297D01*
X151772Y154151D01*
X152507Y154297D01*
X153131Y154714D01*
X153548Y155338D01*
X153694Y156074D01*
X153548Y156810D01*
X153131Y157433D01*
X152507Y157850D01*
X151772Y157997D01*
D02*
G37*
G36*
X145472D02*
X144737Y157850D01*
X144113Y157433D01*
X143696Y156810D01*
X143550Y156074D01*
X143696Y155338D01*
X144113Y154714D01*
X144737Y154297D01*
X145472Y154151D01*
X146208Y154297D01*
X146832Y154714D01*
X147249Y155338D01*
X147395Y156074D01*
X147249Y156810D01*
X146832Y157433D01*
X146208Y157850D01*
X145472Y157997D01*
D02*
G37*
G36*
X182600Y154323D02*
X182369D01*
Y154092D01*
X182507Y154184D01*
X182600Y154323D01*
D02*
G37*
G36*
X181369D02*
X181137D01*
X181230Y154184D01*
X181369Y154092D01*
Y154323D01*
D02*
G37*
G36*
X168251D02*
X168020D01*
Y154092D01*
X168158Y154184D01*
X168251Y154323D01*
D02*
G37*
G36*
X167020D02*
X166788D01*
X166881Y154184D01*
X167020Y154092D01*
Y154323D01*
D02*
G37*
G36*
X38390D02*
X37803D01*
Y153736D01*
X38155Y153971D01*
X38390Y154323D01*
D02*
G37*
G36*
X36803D02*
X36217D01*
X36452Y153971D01*
X36803Y153736D01*
Y154323D01*
D02*
G37*
G36*
X227510Y156844D02*
X226774Y156698D01*
X226150Y156281D01*
X225733Y155657D01*
X225587Y154921D01*
X225733Y154185D01*
X226150Y153562D01*
X226774Y153145D01*
X227510Y152998D01*
X228246Y153145D01*
X228869Y153562D01*
X229286Y154185D01*
X229433Y154921D01*
X229286Y155657D01*
X228869Y156281D01*
X228246Y156698D01*
X227510Y156844D01*
D02*
G37*
G36*
X156890Y159600D02*
X156154Y159454D01*
X155530Y159037D01*
X155113Y158413D01*
X154967Y157677D01*
X155113Y156941D01*
X155530Y156318D01*
Y156281D01*
X155113Y155657D01*
X154967Y154921D01*
X155113Y154185D01*
X155530Y153562D01*
X155699Y153449D01*
X155504Y152978D01*
X154921Y153094D01*
X154185Y152947D01*
X153562Y152530D01*
X153145Y151907D01*
X152998Y151171D01*
X153145Y150435D01*
X153562Y149811D01*
X154185Y149394D01*
X154921Y149248D01*
X155657Y149394D01*
X156281Y149811D01*
X156698Y150435D01*
X156844Y151171D01*
X156698Y151907D01*
X156281Y152530D01*
X156112Y152644D01*
X156307Y153114D01*
X156890Y152998D01*
X157626Y153145D01*
X158249Y153562D01*
X158666Y154185D01*
X158812Y154921D01*
X158666Y155657D01*
X158249Y156281D01*
Y156318D01*
X158666Y156941D01*
X158812Y157677D01*
X158666Y158413D01*
X158249Y159037D01*
X157626Y159454D01*
X156890Y159600D01*
D02*
G37*
G36*
X175886Y159502D02*
X175150Y159355D01*
X174526Y158938D01*
X174109Y158315D01*
X173963Y157579D01*
X174109Y156843D01*
X174526Y156219D01*
Y156182D01*
X174109Y155559D01*
X173963Y154823D01*
X174109Y154087D01*
X174526Y153463D01*
X174527Y153463D01*
X174332Y152991D01*
X173819Y153094D01*
X173083Y152947D01*
X172459Y152530D01*
X172043Y151907D01*
X171896Y151171D01*
X172043Y150435D01*
X172459Y149811D01*
X173083Y149394D01*
X173819Y149248D01*
X174555Y149394D01*
X175179Y149811D01*
X175595Y150435D01*
X175742Y151171D01*
X175595Y151907D01*
X175179Y152530D01*
X175177Y152531D01*
X175373Y153002D01*
X175886Y152900D01*
X176622Y153046D01*
X177245Y153463D01*
X177662Y154087D01*
X177809Y154823D01*
X177662Y155559D01*
X177245Y156182D01*
Y156219D01*
X177662Y156843D01*
X177809Y157579D01*
X177662Y158315D01*
X177245Y158938D01*
X176622Y159355D01*
X175886Y159502D01*
D02*
G37*
G36*
X47146Y157047D02*
X46295Y156877D01*
X45573Y156395D01*
X45091Y155674D01*
X44922Y154823D01*
X45091Y153972D01*
X45573Y153250D01*
X46295Y152768D01*
X47146Y152599D01*
X47997Y152768D01*
X48718Y153250D01*
X49200Y153972D01*
X49369Y154823D01*
X49200Y155674D01*
X48718Y156395D01*
X47997Y156877D01*
X47146Y157047D01*
D02*
G37*
G36*
X42224D02*
X41373Y156877D01*
X40652Y156395D01*
X40170Y155674D01*
X40001Y154823D01*
X40170Y153972D01*
X40652Y153250D01*
X41373Y152768D01*
X42224Y152599D01*
X43075Y152768D01*
X43797Y153250D01*
X44279Y153972D01*
X44448Y154823D01*
X44279Y155674D01*
X43797Y156395D01*
X43075Y156877D01*
X42224Y157047D01*
D02*
G37*
G36*
X217913Y153094D02*
X217178Y152947D01*
X216554Y152530D01*
X216137Y151907D01*
X215991Y151171D01*
X216137Y150435D01*
X216554Y149811D01*
X217178Y149394D01*
X217913Y149248D01*
X218649Y149394D01*
X219273Y149811D01*
X219690Y150435D01*
X219836Y151171D01*
X219690Y151907D01*
X219273Y152530D01*
X218649Y152947D01*
X217913Y153094D01*
D02*
G37*
G36*
X211614D02*
X210878Y152947D01*
X210255Y152530D01*
X209838Y151907D01*
X209691Y151171D01*
X209838Y150435D01*
X210255Y149811D01*
X210878Y149394D01*
X211614Y149248D01*
X212350Y149394D01*
X212974Y149811D01*
X213391Y150435D01*
X213537Y151171D01*
X213391Y151907D01*
X212974Y152530D01*
X212350Y152947D01*
X211614Y153094D01*
D02*
G37*
G36*
X205315D02*
X204579Y152947D01*
X203955Y152530D01*
X203539Y151907D01*
X203392Y151171D01*
X203539Y150435D01*
X203955Y149811D01*
X204579Y149394D01*
X205315Y149248D01*
X206051Y149394D01*
X206675Y149811D01*
X207091Y150435D01*
X207238Y151171D01*
X207091Y151907D01*
X206675Y152530D01*
X206051Y152947D01*
X205315Y153094D01*
D02*
G37*
G36*
X199016D02*
X198280Y152947D01*
X197656Y152530D01*
X197239Y151907D01*
X197093Y151171D01*
X197239Y150435D01*
X197656Y149811D01*
X198280Y149394D01*
X199016Y149248D01*
X199752Y149394D01*
X200375Y149811D01*
X200792Y150435D01*
X200939Y151171D01*
X200792Y151907D01*
X200375Y152530D01*
X199752Y152947D01*
X199016Y153094D01*
D02*
G37*
G36*
X192717D02*
X191981Y152947D01*
X191357Y152530D01*
X190940Y151907D01*
X190794Y151171D01*
X190940Y150435D01*
X191357Y149811D01*
X191981Y149394D01*
X192717Y149248D01*
X193452Y149394D01*
X194076Y149811D01*
X194493Y150435D01*
X194639Y151171D01*
X194493Y151907D01*
X194076Y152530D01*
X193452Y152947D01*
X192717Y153094D01*
D02*
G37*
G36*
X180118D02*
X179382Y152947D01*
X178759Y152530D01*
X178342Y151907D01*
X178195Y151171D01*
X178342Y150435D01*
X178759Y149811D01*
X179382Y149394D01*
X180118Y149248D01*
X180854Y149394D01*
X181478Y149811D01*
X181895Y150435D01*
X182041Y151171D01*
X181895Y151907D01*
X181478Y152530D01*
X180854Y152947D01*
X180118Y153094D01*
D02*
G37*
G36*
X161221D02*
X160485Y152947D01*
X159861Y152530D01*
X159444Y151907D01*
X159298Y151171D01*
X159444Y150435D01*
X159861Y149811D01*
X160485Y149394D01*
X161221Y149248D01*
X161956Y149394D01*
X162580Y149811D01*
X162997Y150435D01*
X163143Y151171D01*
X162997Y151907D01*
X162580Y152530D01*
X161956Y152947D01*
X161221Y153094D01*
D02*
G37*
G36*
X124213Y149566D02*
X123362Y149397D01*
X122640Y148915D01*
X122414Y148576D01*
X121812D01*
X121651Y148817D01*
X120930Y149299D01*
X120079Y149468D01*
X119228Y149299D01*
X118506Y148817D01*
X118024Y148095D01*
X117855Y147244D01*
X118024Y146393D01*
X118506Y145672D01*
X119228Y145189D01*
X120079Y145020D01*
X120930Y145189D01*
X121651Y145672D01*
X121878Y146011D01*
X122479D01*
X122640Y145770D01*
X123362Y145288D01*
X124213Y145119D01*
X125064Y145288D01*
X125785Y145770D01*
X126267Y146492D01*
X126436Y147343D01*
X126267Y148194D01*
X125785Y148915D01*
X125064Y149397D01*
X124213Y149566D01*
D02*
G37*
G36*
X232874Y149173D02*
X232023Y149003D01*
X231301Y148521D01*
X230820Y147800D01*
X230650Y146949D01*
X230820Y146098D01*
X231301Y145376D01*
X232023Y144894D01*
X232874Y144725D01*
X233725Y144894D01*
X234447Y145376D01*
X234929Y146098D01*
X235098Y146949D01*
X234929Y147800D01*
X234447Y148521D01*
X233725Y149003D01*
X232874Y149173D01*
D02*
G37*
G36*
X246986Y143114D02*
Y142528D01*
X247573D01*
X247338Y142879D01*
X246986Y143114D01*
D02*
G37*
G36*
X245986D02*
X245635Y142879D01*
X245400Y142528D01*
X245986D01*
Y143114D01*
D02*
G37*
G36*
X247573Y141528D02*
X246986D01*
Y140941D01*
X247338Y141176D01*
X247573Y141528D01*
D02*
G37*
G36*
X245986D02*
X245400D01*
X245635Y141176D01*
X245986Y140941D01*
Y141528D01*
D02*
G37*
G36*
X101279Y144448D02*
X100428Y144279D01*
X99707Y143797D01*
X99225Y143075D01*
X99056Y142224D01*
X99225Y141373D01*
X99707Y140652D01*
X100428Y140170D01*
X101279Y140001D01*
X102131Y140170D01*
X102852Y140652D01*
X103334Y141373D01*
X103503Y142224D01*
X103334Y143075D01*
X102852Y143797D01*
X102131Y144279D01*
X101279Y144448D01*
D02*
G37*
G36*
X49001Y135020D02*
Y134433D01*
X49588D01*
X49353Y134785D01*
X49001Y135020D01*
D02*
G37*
G36*
X48001D02*
X47650Y134785D01*
X47415Y134433D01*
X48001D01*
Y135020D01*
D02*
G37*
G36*
X49588Y133433D02*
X49001D01*
Y132847D01*
X49353Y133082D01*
X49588Y133433D01*
D02*
G37*
G36*
X48001D02*
X47415D01*
X47650Y133082D01*
X48001Y132847D01*
Y133433D01*
D02*
G37*
G36*
X107169Y132433D02*
X106701D01*
Y131965D01*
X106981Y132152D01*
X107169Y132433D01*
D02*
G37*
G36*
X105701D02*
X105233D01*
X105420Y132152D01*
X105701Y131965D01*
Y132433D01*
D02*
G37*
G36*
X170669Y134670D02*
X169933Y134523D01*
X169310Y134107D01*
X168893Y133483D01*
X168746Y132747D01*
X168814Y132410D01*
X168555Y132358D01*
X167932Y131941D01*
X167515Y131318D01*
X167369Y130582D01*
X167380Y130526D01*
X166954Y130101D01*
X166711Y130150D01*
X165975Y130003D01*
X165351Y129587D01*
X164935Y128963D01*
X164788Y128227D01*
X164935Y127491D01*
X165351Y126867D01*
X165975Y126451D01*
X166711Y126304D01*
X167447Y126451D01*
X168071Y126867D01*
X168488Y127491D01*
X168634Y128227D01*
X168623Y128282D01*
X169048Y128707D01*
X169291Y128659D01*
X170027Y128805D01*
X170651Y129222D01*
X171068Y129846D01*
X171214Y130582D01*
X171147Y130919D01*
X171405Y130971D01*
X172029Y131387D01*
X172446Y132011D01*
X172592Y132747D01*
X172446Y133483D01*
X172029Y134107D01*
X171405Y134523D01*
X170669Y134670D01*
D02*
G37*
G36*
X177469Y129570D02*
Y129339D01*
X177700D01*
X177607Y129477D01*
X177469Y129570D01*
D02*
G37*
G36*
X176469D02*
X176330Y129477D01*
X176237Y129339D01*
X176469D01*
Y129570D01*
D02*
G37*
G36*
X158571D02*
Y129339D01*
X158802D01*
X158710Y129477D01*
X158571Y129570D01*
D02*
G37*
G36*
X157571D02*
X157432Y129477D01*
X157340Y129339D01*
X157571D01*
Y129570D01*
D02*
G37*
G36*
X177700Y128339D02*
X177469D01*
Y128107D01*
X177607Y128200D01*
X177700Y128339D01*
D02*
G37*
G36*
X176469D02*
X176237D01*
X176330Y128200D01*
X176469Y128107D01*
Y128339D01*
D02*
G37*
G36*
X158802D02*
X158571D01*
Y128107D01*
X158710Y128200D01*
X158802Y128339D01*
D02*
G37*
G36*
X157571D02*
X157340D01*
X157432Y128200D01*
X157571Y128107D01*
Y128339D01*
D02*
G37*
G36*
X221063Y134670D02*
X220327Y134523D01*
X219703Y134107D01*
X219287Y133483D01*
X219140Y132747D01*
X219207Y132410D01*
X218949Y132358D01*
X218325Y131941D01*
X217909Y131318D01*
X217762Y130582D01*
X217834Y130222D01*
X217900Y129843D01*
X217471Y129679D01*
X217178Y129621D01*
X216554Y129204D01*
X216137Y128580D01*
X215991Y127844D01*
X216061Y127489D01*
X215800Y127437D01*
X215176Y127020D01*
X214759Y126396D01*
X214613Y125661D01*
X214759Y124925D01*
X215176Y124301D01*
X215800Y123884D01*
X216535Y123738D01*
X217271Y123884D01*
X217895Y124301D01*
X218312Y124925D01*
X218458Y125661D01*
X218388Y126016D01*
X218649Y126068D01*
X219273Y126484D01*
X219690Y127108D01*
X219836Y127844D01*
X219765Y128204D01*
X219698Y128583D01*
X220128Y128747D01*
X220421Y128805D01*
X221045Y129222D01*
X221461Y129846D01*
X221608Y130582D01*
X221541Y130919D01*
X221799Y130971D01*
X222423Y131387D01*
X222839Y132011D01*
X222986Y132747D01*
X222839Y133483D01*
X222423Y134107D01*
X221799Y134523D01*
X221063Y134670D01*
D02*
G37*
G36*
X214764D02*
X214028Y134523D01*
X213404Y134107D01*
X212987Y133483D01*
X212841Y132747D01*
X212908Y132410D01*
X212650Y132358D01*
X212026Y131941D01*
X211609Y131318D01*
X211463Y130582D01*
X211535Y130222D01*
X211601Y129843D01*
X211172Y129679D01*
X210878Y129621D01*
X210255Y129204D01*
X209838Y128580D01*
X209691Y127844D01*
X209762Y127489D01*
X209500Y127437D01*
X208877Y127020D01*
X208460Y126396D01*
X208313Y125661D01*
X208460Y124925D01*
X208877Y124301D01*
X209500Y123884D01*
X210236Y123738D01*
X210972Y123884D01*
X211596Y124301D01*
X212013Y124925D01*
X212159Y125661D01*
X212088Y126016D01*
X212350Y126068D01*
X212974Y126484D01*
X213391Y127108D01*
X213537Y127844D01*
X213465Y128204D01*
X213399Y128583D01*
X213828Y128747D01*
X214122Y128805D01*
X214745Y129222D01*
X215162Y129846D01*
X215309Y130582D01*
X215241Y130919D01*
X215500Y130971D01*
X216123Y131387D01*
X216540Y132011D01*
X216687Y132747D01*
X216540Y133483D01*
X216123Y134107D01*
X215500Y134523D01*
X214764Y134670D01*
D02*
G37*
G36*
X208465D02*
X207729Y134523D01*
X207105Y134107D01*
X206688Y133483D01*
X206542Y132747D01*
X206609Y132410D01*
X206351Y132358D01*
X205727Y131941D01*
X205310Y131318D01*
X205164Y130582D01*
X205235Y130222D01*
X205302Y129843D01*
X204872Y129679D01*
X204579Y129621D01*
X203955Y129204D01*
X203539Y128580D01*
X203392Y127844D01*
X203463Y127489D01*
X203201Y127437D01*
X202577Y127020D01*
X202161Y126396D01*
X202014Y125661D01*
X202161Y124925D01*
X202577Y124301D01*
X203201Y123884D01*
X203937Y123738D01*
X204673Y123884D01*
X205297Y124301D01*
X205713Y124925D01*
X205860Y125661D01*
X205789Y126016D01*
X206051Y126068D01*
X206675Y126484D01*
X207091Y127108D01*
X207238Y127844D01*
X207166Y128204D01*
X207100Y128583D01*
X207529Y128747D01*
X207822Y128805D01*
X208446Y129222D01*
X208863Y129846D01*
X209009Y130582D01*
X208942Y130919D01*
X209200Y130971D01*
X209824Y131387D01*
X210241Y132011D01*
X210387Y132747D01*
X210241Y133483D01*
X209824Y134107D01*
X209200Y134523D01*
X208465Y134670D01*
D02*
G37*
G36*
X43965Y109039D02*
Y108571D01*
X44433D01*
X44245Y108851D01*
X43965Y109039D01*
D02*
G37*
G36*
X42965D02*
X42684Y108851D01*
X42496Y108571D01*
X42965D01*
Y109039D01*
D02*
G37*
G36*
X79732Y108408D02*
Y108177D01*
X79964D01*
X79871Y108316D01*
X79732Y108408D01*
D02*
G37*
G36*
X78732D02*
X78594Y108316D01*
X78501Y108177D01*
X78732D01*
Y108408D01*
D02*
G37*
G36*
X44433Y107571D02*
X43965D01*
Y107103D01*
X44245Y107290D01*
X44433Y107571D01*
D02*
G37*
G36*
X42965D02*
X42496D01*
X42684Y107290D01*
X42965Y107103D01*
Y107571D01*
D02*
G37*
G36*
X79964Y107177D02*
X79732D01*
Y106946D01*
X79871Y107038D01*
X79964Y107177D01*
D02*
G37*
G36*
X78732D02*
X78501D01*
X78594Y107038D01*
X78732Y106946D01*
Y107177D01*
D02*
G37*
G36*
X226189Y105456D02*
Y105224D01*
X226420D01*
X226328Y105363D01*
X226189Y105456D01*
D02*
G37*
G36*
X225189D02*
X225050Y105363D01*
X224958Y105224D01*
X225189D01*
Y105456D01*
D02*
G37*
G36*
X231890Y116102D02*
X231039Y115933D01*
X230317Y115450D01*
X229835Y114729D01*
X229666Y113878D01*
X229835Y113027D01*
X230071Y112674D01*
X230264Y112202D01*
X229782Y111481D01*
X229613Y110630D01*
X229782Y109779D01*
X230264Y109057D01*
X230986Y108575D01*
X231837Y108406D01*
X232688Y108575D01*
X232967Y108762D01*
X233327Y108402D01*
X233083Y108036D01*
X232914Y107185D01*
X233083Y106334D01*
X233565Y105613D01*
X234287Y105131D01*
X235138Y104961D01*
X235989Y105131D01*
X236710Y105613D01*
X237192Y106334D01*
X237362Y107185D01*
X237192Y108036D01*
X236710Y108757D01*
X235989Y109240D01*
X235138Y109409D01*
X234287Y109240D01*
X234008Y109053D01*
X233647Y109413D01*
X233891Y109779D01*
X234060Y110630D01*
X233891Y111481D01*
X233656Y111833D01*
X233462Y112305D01*
X233944Y113027D01*
X234114Y113878D01*
X233944Y114729D01*
X233462Y115450D01*
X232741Y115933D01*
X231890Y116102D01*
D02*
G37*
G36*
X226420Y104224D02*
X226189D01*
Y103993D01*
X226328Y104086D01*
X226420Y104224D01*
D02*
G37*
G36*
X225189D02*
X224958D01*
X225050Y104086D01*
X225189Y103993D01*
Y104224D01*
D02*
G37*
G36*
X89412Y104027D02*
X89181D01*
Y103796D01*
X89320Y103889D01*
X89412Y104027D01*
D02*
G37*
G36*
X88181D02*
X87950D01*
X88042Y103889D01*
X88181Y103796D01*
Y104027D01*
D02*
G37*
G36*
X224473Y103094D02*
Y102862D01*
X224704D01*
X224612Y103001D01*
X224473Y103094D01*
D02*
G37*
G36*
X223473D02*
X223335Y103001D01*
X223242Y102862D01*
X223473D01*
Y103094D01*
D02*
G37*
G36*
X70284Y102109D02*
Y101878D01*
X70515D01*
X70422Y102017D01*
X70284Y102109D01*
D02*
G37*
G36*
X69283D02*
X69145Y102017D01*
X69052Y101878D01*
X69283D01*
Y102109D01*
D02*
G37*
G36*
X224704Y101862D02*
X224473D01*
Y101631D01*
X224612Y101724D01*
X224704Y101862D01*
D02*
G37*
G36*
X223473D02*
X223242D01*
X223335Y101724D01*
X223473Y101631D01*
Y101862D01*
D02*
G37*
G36*
X70515Y100878D02*
X70284D01*
Y100647D01*
X70422Y100739D01*
X70515Y100878D01*
D02*
G37*
G36*
X69283D02*
X69052D01*
X69145Y100739D01*
X69283Y100647D01*
Y100878D01*
D02*
G37*
G36*
X229520Y103598D02*
X228669Y103429D01*
X227947Y102947D01*
X227465Y102225D01*
X227296Y101374D01*
X227465Y100523D01*
X227947Y99802D01*
X228669Y99320D01*
X229520Y99150D01*
X230371Y99320D01*
X231092Y99802D01*
X231574Y100523D01*
X231744Y101374D01*
X231574Y102225D01*
X231092Y102947D01*
X230371Y103429D01*
X229520Y103598D01*
D02*
G37*
G36*
X92331Y98960D02*
Y98728D01*
X92562D01*
X92469Y98867D01*
X92331Y98960D01*
D02*
G37*
G36*
X91331D02*
X91192Y98867D01*
X91100Y98728D01*
X91331D01*
Y98960D01*
D02*
G37*
G36*
X83113Y97728D02*
X82882D01*
Y97497D01*
X83021Y97590D01*
X83113Y97728D01*
D02*
G37*
G36*
X81882D02*
X81651D01*
X81743Y97590D01*
X81882Y97497D01*
Y97728D01*
D02*
G37*
G36*
X92562Y97728D02*
X92331D01*
Y97497D01*
X92469Y97590D01*
X92562Y97728D01*
D02*
G37*
G36*
X91331D02*
X91100D01*
X91192Y97590D01*
X91331Y97497D01*
Y97728D01*
D02*
G37*
G36*
X89181Y95810D02*
Y95579D01*
X89412D01*
X89320Y95717D01*
X89181Y95810D01*
D02*
G37*
G36*
X88181D02*
X88042Y95717D01*
X87950Y95579D01*
X88181D01*
Y95810D01*
D02*
G37*
G36*
X86032D02*
Y95579D01*
X86263D01*
X86170Y95717D01*
X86032Y95810D01*
D02*
G37*
G36*
X85031D02*
X84893Y95717D01*
X84800Y95579D01*
X85031D01*
Y95810D01*
D02*
G37*
G36*
X97630Y94579D02*
X97399D01*
X97491Y94440D01*
X97630Y94348D01*
Y94579D01*
D02*
G37*
G36*
X92562Y91429D02*
X92331D01*
Y91198D01*
X92469Y91290D01*
X92562Y91429D01*
D02*
G37*
G36*
X91331D02*
X91100D01*
X91192Y91290D01*
X91331Y91198D01*
Y91429D01*
D02*
G37*
G36*
X86263D02*
X86032D01*
Y91198D01*
X86170Y91290D01*
X86263Y91429D01*
D02*
G37*
G36*
X85031D02*
X84800D01*
X84893Y91290D01*
X85031Y91198D01*
Y91429D01*
D02*
G37*
G36*
X98630Y89511D02*
Y89280D01*
X98861D01*
X98769Y89418D01*
X98630Y89511D01*
D02*
G37*
G36*
X97630D02*
X97491Y89418D01*
X97399Y89280D01*
X97630D01*
Y89511D01*
D02*
G37*
G36*
X89181D02*
Y89280D01*
X89412D01*
X89320Y89418D01*
X89181Y89511D01*
D02*
G37*
G36*
X88181D02*
X88042Y89418D01*
X87950Y89280D01*
X88181D01*
Y89511D01*
D02*
G37*
G36*
X82882D02*
Y89280D01*
X83113D01*
X83021Y89418D01*
X82882Y89511D01*
D02*
G37*
G36*
X81882D02*
X81743Y89418D01*
X81651Y89280D01*
X81882D01*
Y89511D01*
D02*
G37*
G36*
X105160Y88279D02*
X104929D01*
Y88048D01*
X105068Y88141D01*
X105160Y88279D01*
D02*
G37*
G36*
X103929D02*
X103698D01*
X103790Y88141D01*
X103929Y88048D01*
Y88279D01*
D02*
G37*
G36*
X98861D02*
X98630D01*
Y88048D01*
X98769Y88141D01*
X98861Y88279D01*
D02*
G37*
G36*
X97630D02*
X97399D01*
X97491Y88141D01*
X97630Y88048D01*
Y88279D01*
D02*
G37*
G36*
X89412D02*
X89181D01*
Y88048D01*
X89320Y88141D01*
X89412Y88279D01*
D02*
G37*
G36*
X88181D02*
X87950D01*
X88042Y88141D01*
X88181Y88048D01*
Y88279D01*
D02*
G37*
G36*
X83113D02*
X82882D01*
Y88048D01*
X83021Y88141D01*
X83113Y88279D01*
D02*
G37*
G36*
X81882D02*
X81651D01*
X81743Y88141D01*
X81882Y88048D01*
Y88279D01*
D02*
G37*
G36*
X91831Y90091D02*
X91329Y89991D01*
X90904Y89706D01*
X90619Y89281D01*
X90520Y88779D01*
X90619Y88278D01*
X90904Y87853D01*
X91329Y87568D01*
X91831Y87468D01*
X92332Y87568D01*
X92758Y87853D01*
X93042Y88278D01*
X93142Y88779D01*
X93042Y89281D01*
X92758Y89706D01*
X92332Y89991D01*
X91831Y90091D01*
D02*
G37*
G36*
X85532D02*
X85030Y89991D01*
X84605Y89706D01*
X84320Y89281D01*
X84220Y88779D01*
X84320Y88278D01*
X84605Y87853D01*
X85030Y87568D01*
X85532Y87468D01*
X86033Y87568D01*
X86458Y87853D01*
X86743Y88278D01*
X86843Y88779D01*
X86743Y89281D01*
X86458Y89706D01*
X86033Y89991D01*
X85532Y90091D01*
D02*
G37*
G36*
X76583Y86361D02*
Y86130D01*
X76814D01*
X76721Y86269D01*
X76583Y86361D01*
D02*
G37*
G36*
X75583D02*
X75444Y86269D01*
X75351Y86130D01*
X75583D01*
Y86361D01*
D02*
G37*
G36*
X76814Y85130D02*
X76583D01*
Y84899D01*
X76721Y84991D01*
X76814Y85130D01*
D02*
G37*
G36*
X75583D02*
X75351D01*
X75444Y84991D01*
X75583Y84899D01*
Y85130D01*
D02*
G37*
G36*
X69784Y86941D02*
X69282Y86841D01*
X68856Y86557D01*
X68572Y86132D01*
X68472Y85630D01*
X68572Y85128D01*
X68856Y84703D01*
X69282Y84419D01*
X69784Y84319D01*
X70285Y84419D01*
X70710Y84703D01*
X70995Y85128D01*
X71095Y85630D01*
X70995Y86132D01*
X70710Y86557D01*
X70285Y86841D01*
X69784Y86941D01*
D02*
G37*
G36*
X114378Y83212D02*
Y82980D01*
X114609D01*
X114517Y83119D01*
X114378Y83212D01*
D02*
G37*
G36*
X113378D02*
X113239Y83119D01*
X113147Y82980D01*
X113378D01*
Y83212D01*
D02*
G37*
G36*
X108079D02*
Y82980D01*
X108310D01*
X108217Y83119D01*
X108079Y83212D01*
D02*
G37*
G36*
X107079D02*
X106940Y83119D01*
X106848Y82980D01*
X107079D01*
Y83212D01*
D02*
G37*
G36*
X101779D02*
Y82980D01*
X102011D01*
X101918Y83119D01*
X101779Y83212D01*
D02*
G37*
G36*
X100779D02*
X100641Y83119D01*
X100548Y82980D01*
X100779D01*
Y83212D01*
D02*
G37*
G36*
X92331D02*
Y82980D01*
X92562D01*
X92469Y83119D01*
X92331Y83212D01*
D02*
G37*
G36*
X91331D02*
X91192Y83119D01*
X91100Y82980D01*
X91331D01*
Y83212D01*
D02*
G37*
G36*
X86032D02*
Y82980D01*
X86263D01*
X86170Y83119D01*
X86032Y83212D01*
D02*
G37*
G36*
X85031D02*
X84893Y83119D01*
X84800Y82980D01*
X85031D01*
Y83212D01*
D02*
G37*
G36*
X223819Y83419D02*
X223083Y83272D01*
X222459Y82856D01*
X222042Y82232D01*
X221896Y81496D01*
X222042Y80760D01*
X222459Y80137D01*
X223083Y79720D01*
X223819Y79573D01*
X224555Y79720D01*
X225179Y80137D01*
X225595Y80760D01*
X225742Y81496D01*
X225595Y82232D01*
X225179Y82856D01*
X224555Y83272D01*
X223819Y83419D01*
D02*
G37*
G36*
X70284Y76912D02*
Y76681D01*
X70515D01*
X70422Y76820D01*
X70284Y76912D01*
D02*
G37*
G36*
X69283D02*
X69145Y76820D01*
X69052Y76681D01*
X69283D01*
Y76912D01*
D02*
G37*
G36*
X70515Y75681D02*
X70284D01*
Y75450D01*
X70422Y75542D01*
X70515Y75681D01*
D02*
G37*
G36*
X69283D02*
X69052D01*
X69145Y75542D01*
X69283Y75450D01*
Y75681D01*
D02*
G37*
G36*
X70284Y70613D02*
Y70382D01*
X70515D01*
X70422Y70521D01*
X70284Y70613D01*
D02*
G37*
G36*
X69283D02*
X69145Y70521D01*
X69052Y70382D01*
X69283D01*
Y70613D01*
D02*
G37*
G36*
X70515Y69382D02*
X70284D01*
Y69151D01*
X70422Y69243D01*
X70515Y69382D01*
D02*
G37*
G36*
X69283D02*
X69052D01*
X69145Y69243D01*
X69283Y69151D01*
Y69382D01*
D02*
G37*
G36*
X221063Y79256D02*
X220327Y79110D01*
X219703Y78693D01*
X219287Y78070D01*
X219140Y77334D01*
X219207Y76996D01*
X218949Y76945D01*
X218325Y76528D01*
X217909Y75904D01*
X217762Y75168D01*
X217834Y74809D01*
X217900Y74429D01*
X217471Y74265D01*
X217178Y74207D01*
X216554Y73790D01*
X216137Y73167D01*
X215991Y72431D01*
X216061Y72076D01*
X215800Y72023D01*
X215176Y71607D01*
X214759Y70983D01*
X214613Y70247D01*
X214759Y69511D01*
X215176Y68888D01*
X215800Y68471D01*
X216535Y68324D01*
X217271Y68471D01*
X217895Y68888D01*
X218312Y69511D01*
X218458Y70247D01*
X218388Y70602D01*
X218649Y70654D01*
X219273Y71071D01*
X219690Y71695D01*
X219836Y72431D01*
X219765Y72790D01*
X219698Y73170D01*
X220128Y73334D01*
X220421Y73392D01*
X221045Y73809D01*
X221461Y74433D01*
X221608Y75168D01*
X221541Y75506D01*
X221799Y75557D01*
X222423Y75974D01*
X222839Y76598D01*
X222986Y77334D01*
X222839Y78070D01*
X222423Y78693D01*
X221799Y79110D01*
X221063Y79256D01*
D02*
G37*
G36*
X214764D02*
X214028Y79110D01*
X213404Y78693D01*
X212987Y78070D01*
X212841Y77334D01*
X212908Y76996D01*
X212650Y76945D01*
X212026Y76528D01*
X211609Y75904D01*
X211463Y75168D01*
X211535Y74809D01*
X211601Y74429D01*
X211172Y74265D01*
X210878Y74207D01*
X210255Y73790D01*
X209838Y73167D01*
X209691Y72431D01*
X209762Y72076D01*
X209500Y72023D01*
X208877Y71607D01*
X208460Y70983D01*
X208313Y70247D01*
X208460Y69511D01*
X208877Y68888D01*
X209500Y68471D01*
X210236Y68324D01*
X210972Y68471D01*
X211596Y68888D01*
X212013Y69511D01*
X212159Y70247D01*
X212088Y70602D01*
X212350Y70654D01*
X212974Y71071D01*
X213391Y71695D01*
X213537Y72431D01*
X213465Y72790D01*
X213399Y73170D01*
X213828Y73334D01*
X214122Y73392D01*
X214745Y73809D01*
X215162Y74433D01*
X215309Y75168D01*
X215241Y75506D01*
X215500Y75557D01*
X216123Y75974D01*
X216540Y76598D01*
X216687Y77334D01*
X216540Y78070D01*
X216123Y78693D01*
X215500Y79110D01*
X214764Y79256D01*
D02*
G37*
G36*
X208465D02*
X207729Y79110D01*
X207105Y78693D01*
X206688Y78070D01*
X206542Y77334D01*
X206609Y76996D01*
X206351Y76945D01*
X205727Y76528D01*
X205310Y75904D01*
X205164Y75168D01*
X205235Y74809D01*
X205302Y74429D01*
X204872Y74265D01*
X204579Y74207D01*
X203955Y73790D01*
X203539Y73167D01*
X203392Y72431D01*
X203463Y72076D01*
X203201Y72023D01*
X202577Y71607D01*
X202161Y70983D01*
X202014Y70247D01*
X202161Y69511D01*
X202577Y68888D01*
X203201Y68471D01*
X203937Y68324D01*
X204673Y68471D01*
X205297Y68888D01*
X205713Y69511D01*
X205860Y70247D01*
X205789Y70602D01*
X206051Y70654D01*
X206675Y71071D01*
X207091Y71695D01*
X207238Y72431D01*
X207166Y72790D01*
X207100Y73170D01*
X207529Y73334D01*
X207822Y73392D01*
X208446Y73809D01*
X208863Y74433D01*
X209009Y75168D01*
X208942Y75506D01*
X209200Y75557D01*
X209824Y75974D01*
X210241Y76598D01*
X210387Y77334D01*
X210241Y78070D01*
X209824Y78693D01*
X209200Y79110D01*
X208465Y79256D01*
D02*
G37*
G36*
X10827Y74835D02*
X9743Y74692D01*
X8734Y74274D01*
X7867Y73609D01*
X7202Y72742D01*
X6784Y71733D01*
X6641Y70650D01*
X6784Y69566D01*
X7202Y68557D01*
X7867Y67690D01*
X8734Y67025D01*
X9743Y66607D01*
X10827Y66464D01*
X11910Y66607D01*
X12920Y67025D01*
X13786Y67690D01*
X14451Y68557D01*
X14870Y69566D01*
X15012Y70650D01*
X14870Y71733D01*
X14451Y72742D01*
X13786Y73609D01*
X12920Y74274D01*
X11910Y74692D01*
X10827Y74835D01*
D02*
G37*
G36*
X30118Y73875D02*
X29305Y73714D01*
X28617Y73254D01*
X28156Y72565D01*
X27995Y71752D01*
X28156Y70939D01*
X28617Y70250D01*
X28866Y70084D01*
Y69483D01*
X28617Y69317D01*
X28156Y68628D01*
X27995Y67815D01*
X28156Y67002D01*
X28617Y66313D01*
X29305Y65853D01*
X30118Y65692D01*
X30931Y65853D01*
X31620Y66313D01*
X32080Y67002D01*
X32242Y67815D01*
X32080Y68628D01*
X31620Y69317D01*
X31371Y69483D01*
Y70084D01*
X31620Y70250D01*
X32080Y70939D01*
X32242Y71752D01*
X32080Y72565D01*
X31620Y73254D01*
X30931Y73714D01*
X30118Y73875D01*
D02*
G37*
G36*
X231693Y72992D02*
X230842Y72822D01*
X230120Y72340D01*
X229638Y71619D01*
X229469Y70768D01*
X229638Y69917D01*
X229890Y69540D01*
X230094Y69144D01*
X229890Y68748D01*
X229638Y68371D01*
X229469Y67520D01*
X229638Y66669D01*
X230120Y65947D01*
X230842Y65465D01*
X231693Y65296D01*
X232544Y65465D01*
X233265Y65947D01*
X233400Y66148D01*
X233481Y66170D01*
X233978Y66114D01*
X234353Y65553D01*
X235074Y65071D01*
X235925Y64902D01*
X236776Y65071D01*
X237498Y65553D01*
X237980Y66275D01*
X238149Y67126D01*
X237980Y67977D01*
X237498Y68699D01*
X236776Y69181D01*
X235925Y69350D01*
X235074Y69181D01*
X234353Y68699D01*
X234218Y68497D01*
X234137Y68476D01*
X233640Y68532D01*
X233496Y68748D01*
X233292Y69144D01*
X233496Y69540D01*
X233748Y69917D01*
X233917Y70768D01*
X233748Y71619D01*
X233265Y72340D01*
X232544Y72822D01*
X231693Y72992D01*
D02*
G37*
G36*
X50197Y71206D02*
X49319Y71091D01*
X48501Y70752D01*
X47799Y70213D01*
X47260Y69511D01*
X46921Y68693D01*
X46806Y67815D01*
X46921Y66937D01*
X47260Y66119D01*
X47799Y65417D01*
X48501Y64878D01*
X49319Y64539D01*
X50197Y64424D01*
X51075Y64539D01*
X51893Y64878D01*
X52595Y65417D01*
X53134Y66119D01*
X53473Y66937D01*
X53588Y67815D01*
X53473Y68693D01*
X53134Y69511D01*
X52595Y70213D01*
X51893Y70752D01*
X51075Y71091D01*
X50197Y71206D01*
D02*
G37*
G36*
X246986Y62208D02*
Y61622D01*
X247573D01*
X247338Y61974D01*
X246986Y62208D01*
D02*
G37*
G36*
X245986D02*
X245635Y61974D01*
X245400Y61622D01*
X245986D01*
Y62208D01*
D02*
G37*
G36*
X66134Y61164D02*
X65995Y61072D01*
X65903Y60933D01*
X66134D01*
Y61164D01*
D02*
G37*
G36*
X247573Y60622D02*
X246986D01*
Y60036D01*
X247338Y60271D01*
X247573Y60622D01*
D02*
G37*
G36*
X245986D02*
X245400D01*
X245635Y60271D01*
X245986Y60036D01*
Y60622D01*
D02*
G37*
G36*
X66134Y59933D02*
X65903D01*
X65995Y59794D01*
X66134Y59702D01*
Y59933D01*
D02*
G37*
G36*
X226287Y58719D02*
Y58488D01*
X226519D01*
X226426Y58627D01*
X226287Y58719D01*
D02*
G37*
G36*
X225287D02*
X225149Y58627D01*
X225056Y58488D01*
X225287D01*
Y58719D01*
D02*
G37*
G36*
X226519Y57488D02*
X226287D01*
Y57257D01*
X226426Y57349D01*
X226519Y57488D01*
D02*
G37*
G36*
X225287D02*
X225056D01*
X225149Y57349D01*
X225287Y57257D01*
Y57488D01*
D02*
G37*
G36*
X10827Y64835D02*
X9743Y64692D01*
X8734Y64274D01*
X7867Y63609D01*
X7202Y62742D01*
X6784Y61733D01*
X6641Y60650D01*
X6784Y59566D01*
X7202Y58557D01*
X7867Y57690D01*
X8734Y57025D01*
X9743Y56607D01*
X10827Y56464D01*
X11910Y56607D01*
X12920Y57025D01*
X13786Y57690D01*
X14451Y58557D01*
X14870Y59566D01*
X15012Y60650D01*
X14870Y61733D01*
X14451Y62742D01*
X13786Y63609D01*
X12920Y64274D01*
X11910Y64692D01*
X10827Y64835D01*
D02*
G37*
G36*
X230287Y60811D02*
X229436Y60642D01*
X228715Y60160D01*
X228233Y59438D01*
X228064Y58587D01*
X228233Y57736D01*
X228715Y57015D01*
X229436Y56533D01*
X230287Y56363D01*
X231138Y56533D01*
X231860Y57015D01*
X232342Y57736D01*
X232511Y58587D01*
X232342Y59438D01*
X231860Y60160D01*
X231138Y60642D01*
X230287Y60811D01*
D02*
G37*
G36*
X47441Y57242D02*
X46628Y57080D01*
X45939Y56620D01*
X45479Y55931D01*
X45318Y55118D01*
X45479Y54305D01*
X45939Y53617D01*
X46628Y53156D01*
X47441Y52995D01*
X48254Y53156D01*
X48943Y53617D01*
X49403Y54305D01*
X49564Y55118D01*
X49403Y55931D01*
X48943Y56620D01*
X48254Y57080D01*
X47441Y57242D01*
D02*
G37*
G36*
X41732Y55076D02*
X40920Y54915D01*
X40231Y54454D01*
X39770Y53765D01*
X39609Y52953D01*
X39770Y52140D01*
X40231Y51451D01*
X40920Y50991D01*
X41732Y50829D01*
X42545Y50991D01*
X43234Y51451D01*
X43694Y52140D01*
X43856Y52953D01*
X43694Y53765D01*
X43234Y54454D01*
X42545Y54915D01*
X41732Y55076D01*
D02*
G37*
G36*
X183276Y46991D02*
Y46760D01*
X183507D01*
X183414Y46898D01*
X183276Y46991D01*
D02*
G37*
G36*
X182276D02*
X182137Y46898D01*
X182044Y46760D01*
X182276D01*
Y46991D01*
D02*
G37*
G36*
X10827Y54835D02*
X9743Y54692D01*
X8734Y54274D01*
X7867Y53609D01*
X7202Y52742D01*
X6784Y51733D01*
X6641Y50650D01*
X6784Y49566D01*
X7202Y48557D01*
X7867Y47690D01*
X8734Y47025D01*
X9743Y46607D01*
X10827Y46464D01*
X11910Y46607D01*
X12920Y47025D01*
X13786Y47690D01*
X14451Y48557D01*
X14870Y49566D01*
X15012Y50650D01*
X14870Y51733D01*
X14451Y52742D01*
X13786Y53609D01*
X12920Y54274D01*
X11910Y54692D01*
X10827Y54835D01*
D02*
G37*
G36*
X183507Y45760D02*
X183276D01*
Y45529D01*
X183414Y45621D01*
X183507Y45760D01*
D02*
G37*
G36*
X182276D02*
X182044D01*
X182137Y45621D01*
X182276Y45529D01*
Y45760D01*
D02*
G37*
G36*
X183276Y44142D02*
Y43911D01*
X183507D01*
X183414Y44049D01*
X183276Y44142D01*
D02*
G37*
G36*
X182276D02*
X182137Y44049D01*
X182044Y43911D01*
X182276D01*
Y44142D01*
D02*
G37*
G36*
X183507Y42911D02*
X183276D01*
Y42679D01*
X183414Y42772D01*
X183507Y42911D01*
D02*
G37*
G36*
X182276D02*
X182044D01*
X182137Y42772D01*
X182276Y42679D01*
Y42911D01*
D02*
G37*
G36*
X51083Y46808D02*
X50270Y46647D01*
X49581Y46187D01*
X49121Y45498D01*
X48959Y44685D01*
X49121Y43872D01*
X49581Y43183D01*
X50270Y42723D01*
X51083Y42562D01*
X51895Y42723D01*
X52584Y43183D01*
X53044Y43872D01*
X53206Y44685D01*
X53044Y45498D01*
X52584Y46187D01*
X51895Y46647D01*
X51083Y46808D01*
D02*
G37*
G36*
X68996Y43464D02*
X68145Y43295D01*
X67424Y42813D01*
X66941Y42091D01*
X66772Y41240D01*
X66941Y40389D01*
X67424Y39668D01*
X68145Y39186D01*
X68996Y39016D01*
X69847Y39186D01*
X70569Y39668D01*
X71051Y40389D01*
X71220Y41240D01*
X71051Y42091D01*
X70569Y42813D01*
X69847Y43295D01*
X68996Y43464D01*
D02*
G37*
G36*
X33465Y42576D02*
X32652Y42415D01*
X31963Y41954D01*
X31503Y41265D01*
X31341Y40453D01*
X31503Y39640D01*
X31963Y38951D01*
X32652Y38491D01*
X33465Y38329D01*
X34277Y38491D01*
X34966Y38951D01*
X35426Y39640D01*
X35588Y40453D01*
X35426Y41265D01*
X34966Y41954D01*
X34277Y42415D01*
X33465Y42576D01*
D02*
G37*
G36*
X10827Y44835D02*
X9743Y44692D01*
X8734Y44274D01*
X7867Y43609D01*
X7202Y42742D01*
X6784Y41733D01*
X6641Y40650D01*
X6784Y39566D01*
X7202Y38557D01*
X7867Y37690D01*
X8734Y37025D01*
X9743Y36607D01*
X10827Y36464D01*
X11910Y36607D01*
X12920Y37025D01*
X13786Y37690D01*
X14451Y38557D01*
X14870Y39566D01*
X15012Y40650D01*
X14870Y41733D01*
X14451Y42742D01*
X13786Y43609D01*
X12920Y44274D01*
X11910Y44692D01*
X10827Y44835D01*
D02*
G37*
G36*
X221063Y47198D02*
X220327Y47052D01*
X219703Y46635D01*
X219287Y46011D01*
X219140Y45276D01*
X219207Y44938D01*
X218949Y44887D01*
X218325Y44470D01*
X217909Y43846D01*
X217762Y43110D01*
X217834Y42750D01*
X217900Y42371D01*
X217471Y42207D01*
X217178Y42149D01*
X216554Y41732D01*
X216137Y41108D01*
X215991Y40372D01*
X216061Y40017D01*
X215800Y39965D01*
X215176Y39549D01*
X214759Y38925D01*
X214613Y38189D01*
X214759Y37453D01*
X215176Y36829D01*
X215800Y36413D01*
X216535Y36266D01*
X217271Y36413D01*
X217895Y36829D01*
X218312Y37453D01*
X218458Y38189D01*
X218388Y38544D01*
X218649Y38596D01*
X219273Y39013D01*
X219690Y39637D01*
X219836Y40372D01*
X219765Y40732D01*
X219698Y41111D01*
X220128Y41276D01*
X220421Y41334D01*
X221045Y41751D01*
X221461Y42374D01*
X221608Y43110D01*
X221541Y43448D01*
X221799Y43499D01*
X222423Y43916D01*
X222839Y44540D01*
X222986Y45276D01*
X222839Y46011D01*
X222423Y46635D01*
X221799Y47052D01*
X221063Y47198D01*
D02*
G37*
G36*
X214764D02*
X214028Y47052D01*
X213404Y46635D01*
X212987Y46011D01*
X212841Y45276D01*
X212908Y44938D01*
X212650Y44887D01*
X212026Y44470D01*
X211609Y43846D01*
X211463Y43110D01*
X211535Y42750D01*
X211601Y42371D01*
X211172Y42207D01*
X210878Y42149D01*
X210255Y41732D01*
X209838Y41108D01*
X209691Y40372D01*
X209762Y40017D01*
X209500Y39965D01*
X208877Y39549D01*
X208460Y38925D01*
X208313Y38189D01*
X208460Y37453D01*
X208877Y36829D01*
X209500Y36413D01*
X210236Y36266D01*
X210972Y36413D01*
X211596Y36829D01*
X212013Y37453D01*
X212159Y38189D01*
X212088Y38544D01*
X212350Y38596D01*
X212974Y39013D01*
X213391Y39637D01*
X213537Y40372D01*
X213465Y40732D01*
X213399Y41111D01*
X213828Y41276D01*
X214122Y41334D01*
X214745Y41751D01*
X215162Y42374D01*
X215309Y43110D01*
X215241Y43448D01*
X215500Y43499D01*
X216123Y43916D01*
X216540Y44540D01*
X216687Y45276D01*
X216540Y46011D01*
X216123Y46635D01*
X215500Y47052D01*
X214764Y47198D01*
D02*
G37*
G36*
X208465D02*
X207729Y47052D01*
X207105Y46635D01*
X206688Y46011D01*
X206542Y45276D01*
X206609Y44938D01*
X206351Y44887D01*
X205727Y44470D01*
X205310Y43846D01*
X205164Y43110D01*
X205235Y42750D01*
X205302Y42371D01*
X204872Y42207D01*
X204579Y42149D01*
X203955Y41732D01*
X203539Y41108D01*
X203392Y40372D01*
X203463Y40017D01*
X203201Y39965D01*
X202577Y39549D01*
X202161Y38925D01*
X202014Y38189D01*
X202161Y37453D01*
X202577Y36829D01*
X203201Y36413D01*
X203937Y36266D01*
X204673Y36413D01*
X205297Y36829D01*
X205713Y37453D01*
X205860Y38189D01*
X205789Y38544D01*
X206051Y38596D01*
X206675Y39013D01*
X207091Y39637D01*
X207238Y40372D01*
X207166Y40732D01*
X207100Y41111D01*
X207529Y41276D01*
X207822Y41334D01*
X208446Y41751D01*
X208863Y42374D01*
X209009Y43110D01*
X208942Y43448D01*
X209200Y43499D01*
X209824Y43916D01*
X210241Y44540D01*
X210387Y45276D01*
X210241Y46011D01*
X209824Y46635D01*
X209200Y47052D01*
X208465Y47198D01*
D02*
G37*
G36*
X51083Y39722D02*
X50270Y39560D01*
X49581Y39100D01*
X49121Y38411D01*
X48959Y37598D01*
X49121Y36786D01*
X49581Y36097D01*
X50270Y35637D01*
X51083Y35475D01*
X51895Y35637D01*
X52584Y36097D01*
X53044Y36786D01*
X53206Y37598D01*
X53044Y38411D01*
X52584Y39100D01*
X51895Y39560D01*
X51083Y39722D01*
D02*
G37*
G36*
X222659Y38143D02*
X221923Y37997D01*
X221300Y37580D01*
X220883Y36956D01*
X220736Y36220D01*
X220883Y35485D01*
X221300Y34861D01*
X221923Y34444D01*
X222659Y34298D01*
X223395Y34444D01*
X224019Y34861D01*
X224435Y35485D01*
X224582Y36220D01*
X224435Y36956D01*
X224019Y37580D01*
X223395Y37997D01*
X222659Y38143D01*
D02*
G37*
G36*
X110330Y32976D02*
Y32390D01*
X110917D01*
X110682Y32741D01*
X110330Y32976D01*
D02*
G37*
G36*
X109330D02*
X108979Y32741D01*
X108744Y32390D01*
X109330D01*
Y32976D01*
D02*
G37*
G36*
X110917Y31390D02*
X110330D01*
Y30803D01*
X110682Y31038D01*
X110917Y31390D01*
D02*
G37*
G36*
X109330D02*
X108744D01*
X108979Y31038D01*
X109330Y30803D01*
Y31390D01*
D02*
G37*
G36*
X51083Y34801D02*
X50270Y34639D01*
X49581Y34179D01*
X49121Y33490D01*
X48959Y32677D01*
X49121Y31865D01*
X49581Y31176D01*
X50270Y30715D01*
X51083Y30554D01*
X51895Y30715D01*
X52584Y31176D01*
X53044Y31865D01*
X53206Y32677D01*
X53044Y33490D01*
X52584Y34179D01*
X51895Y34639D01*
X51083Y34801D01*
D02*
G37*
G36*
X138689Y31008D02*
Y30421D01*
X139275D01*
X139041Y30773D01*
X138689Y31008D01*
D02*
G37*
G36*
X137689D02*
X137337Y30773D01*
X137103Y30421D01*
X137689D01*
Y31008D01*
D02*
G37*
G36*
X139275Y29421D02*
X138689D01*
Y28835D01*
X139041Y29070D01*
X139275Y29421D01*
D02*
G37*
G36*
X137689D02*
X137103D01*
X137337Y29070D01*
X137689Y28835D01*
Y29421D01*
D02*
G37*
G36*
X10827Y34835D02*
X9743Y34692D01*
X8734Y34274D01*
X7867Y33609D01*
X7202Y32742D01*
X6784Y31733D01*
X6641Y30650D01*
X6784Y29566D01*
X7202Y28557D01*
X7867Y27690D01*
X8734Y27025D01*
X9743Y26607D01*
X10827Y26464D01*
X11910Y26607D01*
X12920Y27025D01*
X13786Y27690D01*
X14451Y28557D01*
X14870Y29566D01*
X15012Y30650D01*
X14870Y31733D01*
X14451Y32742D01*
X13786Y33609D01*
X12920Y34274D01*
X11910Y34692D01*
X10827Y34835D01*
D02*
G37*
G36*
X246986Y26972D02*
Y26386D01*
X247573D01*
X247338Y26737D01*
X246986Y26972D01*
D02*
G37*
G36*
X245986D02*
X245635Y26737D01*
X245400Y26386D01*
X245986D01*
Y26972D01*
D02*
G37*
G36*
X247573Y25386D02*
X246986D01*
Y24799D01*
X247338Y25034D01*
X247573Y25386D01*
D02*
G37*
G36*
X245986D02*
X245400D01*
X245635Y25034D01*
X245986Y24799D01*
Y25386D01*
D02*
G37*
G36*
X109830Y29057D02*
X108979Y28888D01*
X108258Y28405D01*
X107776Y27684D01*
X107606Y26833D01*
X107776Y25982D01*
X108258Y25260D01*
X108979Y24778D01*
X109830Y24609D01*
X110681Y24778D01*
X111403Y25260D01*
X111885Y25982D01*
X112054Y26833D01*
X111885Y27684D01*
X111403Y28405D01*
X110681Y28888D01*
X109830Y29057D01*
D02*
G37*
G36*
X235138Y28110D02*
X234287Y27940D01*
X233565Y27458D01*
X233083Y26737D01*
X232914Y25886D01*
X233083Y25035D01*
X233565Y24313D01*
X234287Y23831D01*
X235138Y23662D01*
X235989Y23831D01*
X236710Y24313D01*
X237192Y25035D01*
X237362Y25886D01*
X237192Y26737D01*
X236710Y27458D01*
X235989Y27940D01*
X235138Y28110D01*
D02*
G37*
G36*
X77469Y32153D02*
X76617Y31984D01*
X75896Y31502D01*
X75414Y30780D01*
X75245Y29929D01*
X74762Y29795D01*
X74346Y29712D01*
X73624Y29230D01*
X73142Y28508D01*
X73060Y28093D01*
X72936Y27647D01*
X72490Y27523D01*
X72074Y27440D01*
X71353Y26958D01*
X70871Y26237D01*
X70701Y25386D01*
X70871Y24535D01*
X71353Y23813D01*
X72074Y23331D01*
X72925Y23162D01*
X73776Y23331D01*
X74498Y23813D01*
X74980Y24535D01*
X75063Y24951D01*
X75187Y25396D01*
X75632Y25520D01*
X76048Y25603D01*
X76769Y26085D01*
X77251Y26807D01*
X77421Y27657D01*
X77904Y27792D01*
X78320Y27875D01*
X79041Y28357D01*
X79523Y29078D01*
X79692Y29929D01*
X79523Y30780D01*
X79041Y31502D01*
X78320Y31984D01*
X77469Y32153D01*
D02*
G37*
G36*
X138689Y20870D02*
Y20283D01*
X139275D01*
X139041Y20635D01*
X138689Y20870D01*
D02*
G37*
G36*
X137689D02*
X137337Y20635D01*
X137103Y20283D01*
X137689D01*
Y20870D01*
D02*
G37*
G36*
X28051Y23582D02*
X27200Y23413D01*
X26479Y22931D01*
X25997Y22209D01*
X25827Y21358D01*
X25997Y20507D01*
X26479Y19786D01*
X27200Y19304D01*
X28051Y19134D01*
X28902Y19304D01*
X29624Y19786D01*
X30106Y20507D01*
X30275Y21358D01*
X30106Y22209D01*
X29624Y22931D01*
X28902Y23413D01*
X28051Y23582D01*
D02*
G37*
G36*
X227410Y26633D02*
X226558Y26464D01*
X225837Y25982D01*
X225355Y25260D01*
X225186Y24409D01*
X225355Y23558D01*
X225588Y23210D01*
X225774Y22739D01*
X225564Y22418D01*
X225293Y22012D01*
X225124Y21161D01*
X225293Y20310D01*
X225776Y19589D01*
X226497Y19107D01*
X227348Y18938D01*
X228199Y19107D01*
X228921Y19589D01*
X229403Y20310D01*
X229572Y21161D01*
X229403Y22012D01*
X229170Y22361D01*
X228984Y22832D01*
X229193Y23153D01*
X229464Y23558D01*
X229633Y24409D01*
X229464Y25260D01*
X228982Y25982D01*
X228260Y26464D01*
X227410Y26633D01*
D02*
G37*
G36*
X68701Y23385D02*
X67850Y23216D01*
X67128Y22734D01*
X66646Y22012D01*
X66477Y21161D01*
X66646Y20310D01*
X67128Y19589D01*
X67850Y19107D01*
X68701Y18938D01*
X69552Y19107D01*
X70273Y19589D01*
X70755Y20310D01*
X70925Y21161D01*
X70755Y22012D01*
X70273Y22734D01*
X69552Y23216D01*
X68701Y23385D01*
D02*
G37*
G36*
X150394Y21706D02*
X149658Y21560D01*
X149034Y21143D01*
X148617Y20519D01*
X148471Y19783D01*
X148566Y19306D01*
X148175Y18879D01*
X147723Y18969D01*
X146987Y18822D01*
X146363Y18405D01*
X145947Y17782D01*
X145800Y17046D01*
X145947Y16310D01*
X146363Y15686D01*
X146987Y15269D01*
X147723Y15123D01*
X148459Y15269D01*
X149083Y15686D01*
X149499Y16310D01*
X149646Y17046D01*
X149551Y17523D01*
X149942Y17951D01*
X150394Y17861D01*
X151129Y18007D01*
X151753Y18424D01*
X152170Y19048D01*
X152316Y19783D01*
X152170Y20519D01*
X151753Y21143D01*
X151129Y21560D01*
X150394Y21706D01*
D02*
G37*
G36*
X169291D02*
X168555Y21560D01*
X167932Y21143D01*
X167515Y20519D01*
X167369Y19783D01*
X167474Y19253D01*
X167461Y19226D01*
X167090Y18864D01*
X167081Y18860D01*
X166535Y18969D01*
X165800Y18822D01*
X165176Y18405D01*
X164759Y17782D01*
X164613Y17046D01*
X164759Y16310D01*
X165176Y15686D01*
X165800Y15269D01*
X166535Y15123D01*
X167271Y15269D01*
X167895Y15686D01*
X168312Y16310D01*
X168458Y17046D01*
X168353Y17576D01*
X168365Y17604D01*
X168737Y17966D01*
X168746Y17969D01*
X169291Y17861D01*
X170027Y18007D01*
X170651Y18424D01*
X171068Y19048D01*
X171214Y19783D01*
X171068Y20519D01*
X170651Y21143D01*
X170027Y21560D01*
X169291Y21706D01*
D02*
G37*
G36*
X139275Y19284D02*
X138689D01*
Y18697D01*
X139041Y18932D01*
X139275Y19284D01*
D02*
G37*
G36*
X137689D02*
X137103D01*
X137337Y18932D01*
X137689Y18697D01*
Y19284D01*
D02*
G37*
G36*
X219685Y21706D02*
X218949Y21560D01*
X218325Y21143D01*
X217909Y20519D01*
X217762Y19783D01*
X217909Y19048D01*
X218325Y18424D01*
X218949Y18007D01*
X219685Y17861D01*
X220421Y18007D01*
X221045Y18424D01*
X221461Y19048D01*
X221608Y19783D01*
X221461Y20519D01*
X221045Y21143D01*
X220421Y21560D01*
X219685Y21706D01*
D02*
G37*
G36*
X213386D02*
X212650Y21560D01*
X212026Y21143D01*
X211609Y20519D01*
X211463Y19783D01*
X211609Y19048D01*
X212026Y18424D01*
X212650Y18007D01*
X213386Y17861D01*
X214122Y18007D01*
X214745Y18424D01*
X215162Y19048D01*
X215309Y19783D01*
X215162Y20519D01*
X214745Y21143D01*
X214122Y21560D01*
X213386Y21706D01*
D02*
G37*
G36*
X207087D02*
X206351Y21560D01*
X205727Y21143D01*
X205310Y20519D01*
X205164Y19783D01*
X205310Y19048D01*
X205727Y18424D01*
X206351Y18007D01*
X207087Y17861D01*
X207822Y18007D01*
X208446Y18424D01*
X208863Y19048D01*
X209009Y19783D01*
X208863Y20519D01*
X208446Y21143D01*
X207822Y21560D01*
X207087Y21706D01*
D02*
G37*
G36*
X200787D02*
X200052Y21560D01*
X199428Y21143D01*
X199011Y20519D01*
X198865Y19783D01*
X199011Y19048D01*
X199428Y18424D01*
X200052Y18007D01*
X200787Y17861D01*
X201523Y18007D01*
X202147Y18424D01*
X202564Y19048D01*
X202710Y19783D01*
X202564Y20519D01*
X202147Y21143D01*
X201523Y21560D01*
X200787Y21706D01*
D02*
G37*
G36*
X194488D02*
X193752Y21560D01*
X193129Y21143D01*
X192712Y20519D01*
X192565Y19783D01*
X192712Y19048D01*
X193129Y18424D01*
X193752Y18007D01*
X194488Y17861D01*
X195224Y18007D01*
X195848Y18424D01*
X196265Y19048D01*
X196411Y19783D01*
X196265Y20519D01*
X195848Y21143D01*
X195224Y21560D01*
X194488Y21706D01*
D02*
G37*
G36*
X188189D02*
X187453Y21560D01*
X186829Y21143D01*
X186413Y20519D01*
X186266Y19783D01*
X186413Y19048D01*
X186829Y18424D01*
X187453Y18007D01*
X188189Y17861D01*
X188925Y18007D01*
X189549Y18424D01*
X189965Y19048D01*
X190112Y19783D01*
X189965Y20519D01*
X189549Y21143D01*
X188925Y21560D01*
X188189Y21706D01*
D02*
G37*
G36*
X162992D02*
X162256Y21560D01*
X161633Y21143D01*
X161216Y20519D01*
X161069Y19783D01*
X161216Y19048D01*
X161633Y18424D01*
X162256Y18007D01*
X162992Y17861D01*
X163728Y18007D01*
X164352Y18424D01*
X164769Y19048D01*
X164915Y19783D01*
X164769Y20519D01*
X164352Y21143D01*
X163728Y21560D01*
X162992Y21706D01*
D02*
G37*
G36*
X144095D02*
X143359Y21560D01*
X142735Y21143D01*
X142318Y20519D01*
X142172Y19783D01*
X142318Y19048D01*
X142735Y18424D01*
X143359Y18007D01*
X144095Y17861D01*
X144830Y18007D01*
X145454Y18424D01*
X145871Y19048D01*
X146017Y19783D01*
X145871Y20519D01*
X145454Y21143D01*
X144830Y21560D01*
X144095Y21706D01*
D02*
G37*
G36*
X176069Y17255D02*
Y17023D01*
X176301D01*
X176208Y17162D01*
X176069Y17255D01*
D02*
G37*
G36*
X175069D02*
X174931Y17162D01*
X174838Y17023D01*
X175069D01*
Y17255D01*
D02*
G37*
G36*
X181988Y18446D02*
X181252Y18300D01*
X180629Y17883D01*
X180212Y17259D01*
X180122Y16808D01*
X179586Y16565D01*
X179476Y16639D01*
X178740Y16785D01*
X178004Y16639D01*
X177381Y16222D01*
X176964Y15598D01*
X176817Y14862D01*
X176964Y14126D01*
X177381Y13503D01*
X178004Y13086D01*
X178740Y12939D01*
X179476Y13086D01*
X179709Y13242D01*
X180171Y13050D01*
X180212Y12847D01*
X180629Y12223D01*
X181252Y11806D01*
X181988Y11660D01*
X182724Y11806D01*
X183348Y12223D01*
X183765Y12847D01*
X183782Y12934D01*
X184177Y13098D01*
X184321Y13082D01*
X185039Y12939D01*
X185775Y13086D01*
X186399Y13503D01*
X186816Y14126D01*
X186962Y14862D01*
X186816Y15598D01*
X186399Y16222D01*
X185775Y16639D01*
X185039Y16785D01*
X184304Y16639D01*
X183831Y16924D01*
X183765Y17259D01*
X183348Y17883D01*
X182724Y18300D01*
X181988Y18446D01*
D02*
G37*
G36*
X176301Y16024D02*
X176069D01*
Y15792D01*
X176208Y15885D01*
X176301Y16024D01*
D02*
G37*
G36*
X175069D02*
X174838D01*
X174931Y15885D01*
X175069Y15792D01*
Y16024D01*
D02*
G37*
G36*
X140748Y18969D02*
X140012Y18822D01*
X139388Y18405D01*
X138972Y17782D01*
X138825Y17046D01*
X138972Y16310D01*
X139388Y15686D01*
X140012Y15269D01*
X140748Y15123D01*
X141484Y15269D01*
X142108Y15686D01*
X142525Y16310D01*
X142671Y17046D01*
X142525Y17782D01*
X142108Y18405D01*
X141484Y18822D01*
X140748Y18969D01*
D02*
G37*
G36*
X176091Y14314D02*
Y14083D01*
X176322D01*
X176229Y14221D01*
X176091Y14314D01*
D02*
G37*
G36*
X175091D02*
X174952Y14221D01*
X174859Y14083D01*
X175091D01*
Y14314D01*
D02*
G37*
G36*
X50787Y17872D02*
X49975Y17710D01*
X49286Y17249D01*
X48825Y16561D01*
X48664Y15748D01*
X48825Y14935D01*
X49286Y14246D01*
X49975Y13786D01*
X50787Y13625D01*
X51600Y13786D01*
X52289Y14246D01*
X52749Y14935D01*
X52911Y15748D01*
X52749Y16561D01*
X52289Y17249D01*
X51600Y17710D01*
X50787Y17872D01*
D02*
G37*
G36*
X216535Y16785D02*
X215800Y16639D01*
X215176Y16222D01*
X214759Y15598D01*
X214613Y14862D01*
X214759Y14126D01*
X215176Y13503D01*
X215800Y13086D01*
X216535Y12939D01*
X217271Y13086D01*
X217895Y13503D01*
X218312Y14126D01*
X218458Y14862D01*
X218312Y15598D01*
X217895Y16222D01*
X217271Y16639D01*
X216535Y16785D01*
D02*
G37*
G36*
X210236D02*
X209500Y16639D01*
X208877Y16222D01*
X208460Y15598D01*
X208313Y14862D01*
X208460Y14126D01*
X208877Y13503D01*
X209500Y13086D01*
X210236Y12939D01*
X210972Y13086D01*
X211596Y13503D01*
X212013Y14126D01*
X212159Y14862D01*
X212013Y15598D01*
X211596Y16222D01*
X210972Y16639D01*
X210236Y16785D01*
D02*
G37*
G36*
X203937D02*
X203201Y16639D01*
X202577Y16222D01*
X202161Y15598D01*
X202014Y14862D01*
X202161Y14126D01*
X202577Y13503D01*
X203201Y13086D01*
X203937Y12939D01*
X204673Y13086D01*
X205297Y13503D01*
X205713Y14126D01*
X205860Y14862D01*
X205713Y15598D01*
X205297Y16222D01*
X204673Y16639D01*
X203937Y16785D01*
D02*
G37*
G36*
X197638D02*
X196902Y16639D01*
X196278Y16222D01*
X195861Y15598D01*
X195715Y14862D01*
X195861Y14126D01*
X196278Y13503D01*
X196902Y13086D01*
X197638Y12939D01*
X198374Y13086D01*
X198997Y13503D01*
X199414Y14126D01*
X199561Y14862D01*
X199414Y15598D01*
X198997Y16222D01*
X198374Y16639D01*
X197638Y16785D01*
D02*
G37*
G36*
X191339D02*
X190603Y16639D01*
X189979Y16222D01*
X189562Y15598D01*
X189416Y14862D01*
X189562Y14126D01*
X189979Y13503D01*
X190603Y13086D01*
X191339Y12939D01*
X192074Y13086D01*
X192698Y13503D01*
X193115Y14126D01*
X193261Y14862D01*
X193115Y15598D01*
X192698Y16222D01*
X192074Y16639D01*
X191339Y16785D01*
D02*
G37*
G36*
X172441D02*
X171705Y16639D01*
X171081Y16222D01*
X170665Y15598D01*
X170518Y14862D01*
X170665Y14126D01*
X171081Y13503D01*
X171705Y13086D01*
X172441Y12939D01*
X173177Y13086D01*
X173801Y13503D01*
X174217Y14126D01*
X174364Y14862D01*
X174217Y15598D01*
X173801Y16222D01*
X173177Y16639D01*
X172441Y16785D01*
D02*
G37*
G36*
X159843D02*
X159107Y16639D01*
X158483Y16222D01*
X158066Y15598D01*
X157920Y14862D01*
X158066Y14126D01*
X158483Y13503D01*
X159107Y13086D01*
X159843Y12939D01*
X160578Y13086D01*
X161202Y13503D01*
X161619Y14126D01*
X161765Y14862D01*
X161619Y15598D01*
X161202Y16222D01*
X160578Y16639D01*
X159843Y16785D01*
D02*
G37*
G36*
X153543D02*
X152807Y16639D01*
X152184Y16222D01*
X151767Y15598D01*
X151620Y14862D01*
X151767Y14126D01*
X152184Y13503D01*
X152807Y13086D01*
X153543Y12939D01*
X154279Y13086D01*
X154903Y13503D01*
X155320Y14126D01*
X155466Y14862D01*
X155320Y15598D01*
X154903Y16222D01*
X154279Y16639D01*
X153543Y16785D01*
D02*
G37*
G36*
X176322Y13083D02*
X176091D01*
Y12851D01*
X176229Y12944D01*
X176322Y13083D01*
D02*
G37*
G36*
X175091D02*
X174859D01*
X174952Y12944D01*
X175091Y12851D01*
Y13083D01*
D02*
G37*
G36*
X76533Y12307D02*
Y11721D01*
X77119D01*
X76885Y12072D01*
X76533Y12307D01*
D02*
G37*
G36*
X75533D02*
X75182Y12072D01*
X74947Y11721D01*
X75533D01*
Y12307D01*
D02*
G37*
G36*
X77119Y10721D02*
X76533D01*
Y10134D01*
X76885Y10369D01*
X77119Y10721D01*
D02*
G37*
G36*
X75533D02*
X74947D01*
X75182Y10369D01*
X75533Y10134D01*
Y10721D01*
D02*
G37*
G36*
X71157Y13894D02*
X62858D01*
Y5595D01*
X71157D01*
Y13894D01*
D02*
G37*
G36*
X57008Y13929D02*
X55925Y13787D01*
X54915Y13369D01*
X54048Y12704D01*
X53383Y11837D01*
X52965Y10827D01*
X52823Y9744D01*
X52965Y8661D01*
X53383Y7651D01*
X54048Y6785D01*
X54915Y6119D01*
X55925Y5701D01*
X57008Y5559D01*
X58091Y5701D01*
X59101Y6119D01*
X59967Y6785D01*
X60632Y7651D01*
X61051Y8661D01*
X61193Y9744D01*
X61051Y10827D01*
X60632Y11837D01*
X59967Y12704D01*
X59101Y13369D01*
X58091Y13787D01*
X57008Y13929D01*
D02*
G37*
G36*
X47008D02*
X45925Y13787D01*
X44915Y13369D01*
X44048Y12704D01*
X43383Y11837D01*
X42965Y10827D01*
X42823Y9744D01*
X42965Y8661D01*
X43383Y7651D01*
X44048Y6785D01*
X44915Y6119D01*
X45925Y5701D01*
X47008Y5559D01*
X48091Y5701D01*
X49101Y6119D01*
X49967Y6785D01*
X50633Y7651D01*
X51051Y8661D01*
X51193Y9744D01*
X51051Y10827D01*
X50633Y11837D01*
X49967Y12704D01*
X49101Y13369D01*
X48091Y13787D01*
X47008Y13929D01*
D02*
G37*
G36*
X37008D02*
X35925Y13787D01*
X34915Y13369D01*
X34048Y12704D01*
X33383Y11837D01*
X32965Y10827D01*
X32822Y9744D01*
X32965Y8661D01*
X33383Y7651D01*
X34048Y6785D01*
X34915Y6119D01*
X35925Y5701D01*
X37008Y5559D01*
X38091Y5701D01*
X39101Y6119D01*
X39967Y6785D01*
X40633Y7651D01*
X41051Y8661D01*
X41193Y9744D01*
X41051Y10827D01*
X40633Y11837D01*
X39967Y12704D01*
X39101Y13369D01*
X38091Y13787D01*
X37008Y13929D01*
D02*
G37*
G36*
X132874Y12641D02*
X97441D01*
X96897Y12533D01*
X96436Y12225D01*
X96128Y11764D01*
X96020Y11220D01*
Y4921D01*
X96128Y4377D01*
X96436Y3917D01*
X96897Y3608D01*
X97441Y3500D01*
X132874D01*
X133418Y3608D01*
X133879Y3917D01*
X134187Y4377D01*
X134295Y4921D01*
Y11220D01*
X134187Y11764D01*
X133879Y12225D01*
X133418Y12533D01*
X132874Y12641D01*
D02*
G37*
%LPD*%
G36*
X132805Y157472D02*
X132680Y157576D01*
X132443Y157750D01*
X132331Y157821D01*
X132222Y157881D01*
X132117Y157930D01*
X132017Y157969D01*
X131920Y157996D01*
X131828Y158012D01*
X131739Y158018D01*
X131696Y158518D01*
X131791Y158524D01*
X131886Y158542D01*
X131982Y158572D01*
X132078Y158614D01*
X132175Y158668D01*
X132272Y158734D01*
X132370Y158813D01*
X132468Y158903D01*
X132567Y159005D01*
X132667Y159120D01*
X132805Y157472D01*
D02*
G37*
G36*
X112321Y144841D02*
X112260Y144772D01*
X112206Y144693D01*
X112158Y144605D01*
X112117Y144507D01*
X112082Y144399D01*
X112054Y144281D01*
X112033Y144153D01*
X112018Y144016D01*
X112008Y143713D01*
X110839Y144882D01*
X110995Y144884D01*
X111279Y144907D01*
X111407Y144928D01*
X111525Y144956D01*
X111633Y144991D01*
X111731Y145032D01*
X111819Y145080D01*
X111898Y145134D01*
X111967Y145195D01*
X112321Y144841D01*
D02*
G37*
%LPC*%
G36*
X246986Y103842D02*
Y103256D01*
X247573D01*
X247338Y103607D01*
X246986Y103842D01*
D02*
G37*
G36*
X245986D02*
X245635Y103607D01*
X245400Y103256D01*
X245986D01*
Y103842D01*
D02*
G37*
G36*
X247573Y102256D02*
X246986D01*
Y101670D01*
X247338Y101904D01*
X247573Y102256D01*
D02*
G37*
G36*
X245986D02*
X245400D01*
X245635Y101904D01*
X245986Y101670D01*
Y102256D01*
D02*
G37*
%LPD*%
D13*
X122933Y7776D02*
X123819Y8661D01*
X122933Y7776D02*
Y9843D01*
X123819Y8661D02*
X124705D01*
X122933Y9843D02*
X125394D01*
X122933Y6791D02*
X123524Y6201D01*
X124803D01*
X125394Y6791D01*
Y7972D01*
X124705Y8661D02*
X125394Y7972D01*
X121063Y4921D02*
X126969D01*
X121063D02*
Y11220D01*
X126969D01*
Y4921D02*
Y11220D01*
D48*
X239173Y156398D02*
D03*
D49*
X127073Y128409D02*
X135371D01*
X125984Y127320D02*
X127073Y128409D01*
X125984Y126378D02*
Y127320D01*
X125146Y129610D02*
X142241D01*
X122835Y127299D02*
X125146Y129610D01*
X122835Y126378D02*
Y127299D01*
X48590Y81595D02*
X57947D01*
X46622Y83563D02*
X48590Y81595D01*
X30118Y83563D02*
X46622D01*
X48917Y77658D02*
X57407D01*
X45020Y81555D02*
X48917Y77658D01*
X32047Y81555D02*
X45020D01*
X30118Y79626D02*
X32047Y81555D01*
X82440Y135178D02*
X89213D01*
X78248Y139370D02*
X82440Y135178D01*
X36319Y139370D02*
X78248D01*
X153185Y128563D02*
X162516Y137894D01*
X153185Y128543D02*
Y128563D01*
X149445Y124803D02*
X153185Y128543D01*
X148715Y126004D02*
X161806Y139094D01*
X162516Y137894D02*
X227848D01*
X145020Y128779D02*
X150984Y134744D01*
X143071Y128779D02*
X145020D01*
X142241Y129610D02*
X143071Y128779D01*
X155757Y134744D02*
X161308Y140295D01*
X150984Y134744D02*
X155757D01*
X155260Y135945D02*
X160811Y141496D01*
X145394Y135945D02*
X155260D01*
X154762Y137146D02*
X160314Y142697D01*
X144896Y137146D02*
X154762D01*
X154265Y138347D02*
X159816Y143898D01*
X144399Y138347D02*
X154265D01*
X140259Y130811D02*
X145394Y135945D01*
X139762Y132011D02*
X144896Y137146D01*
X139265Y133212D02*
X144399Y138347D01*
X161806Y139094D02*
X228345D01*
X161308Y140295D02*
X228842D01*
X160811Y141496D02*
X229340D01*
X160314Y142697D02*
X229837D01*
X159816Y143898D02*
X230334D01*
X137776Y126004D02*
X148715D01*
X27165Y130217D02*
X36319Y139370D01*
X93783Y135614D02*
X126657D01*
X92146Y133977D02*
X93783Y135614D01*
X71949Y133977D02*
X92146D01*
X89213Y135178D02*
X91437Y137402D01*
X52165Y83563D02*
X58169D01*
X60433Y85827D01*
X60006Y83583D02*
X60433Y84009D01*
X59936Y83583D02*
X60006D01*
X57947Y81595D02*
X59936Y83583D01*
X57677Y79626D02*
X60433Y82382D01*
X57407Y77658D02*
X60433Y80684D01*
X52165Y79626D02*
X57677D01*
X135371Y128409D02*
X137776Y126004D01*
X130709Y124803D02*
X149445D01*
X129134Y126378D02*
X130709Y124803D01*
X27879Y99311D02*
X30118D01*
X24843Y100650D02*
X30118Y95374D01*
X25340Y101850D02*
X27879Y99311D01*
X30118Y95374D02*
X37992Y87500D01*
X48130Y120965D02*
X97342D01*
X33071Y123130D02*
X99508D01*
X30906Y120965D02*
X33071Y123130D01*
X229340Y141496D02*
X240787Y130048D01*
Y98243D02*
Y130048D01*
X237992Y95447D02*
X240787Y98243D01*
X237992Y86087D02*
Y95447D01*
X232417Y80512D02*
X237992Y86087D01*
X239587Y98740D02*
Y129551D01*
X231988Y91142D02*
X239587Y98740D01*
X232417Y38091D02*
Y40266D01*
X243189Y51038D02*
Y131043D01*
X232417Y40266D02*
X243189Y51038D01*
X240063Y49610D02*
X241988Y51535D01*
X232445Y49610D02*
X240063D01*
X231988Y49154D02*
X232445Y49610D01*
X241988Y51535D02*
Y130546D01*
X230334Y143898D02*
X243189Y131043D01*
X229837Y142697D02*
X241988Y130546D01*
X228842Y140295D02*
X239587Y129551D01*
X227848Y137894D02*
X231988Y133753D01*
Y130512D02*
Y133753D01*
X238386Y125752D02*
Y129053D01*
X228345Y139094D02*
X238386Y129053D01*
X232417Y119783D02*
X238386Y125752D01*
X27165Y124705D02*
Y130217D01*
X10827Y80650D02*
X20413Y90236D01*
X27382D01*
X30118Y87500D01*
X10827Y90650D02*
X11614Y91437D01*
X10827Y110650D02*
X19626Y101850D01*
X25340D01*
X10827Y100650D02*
X24843D01*
X10827Y130650D02*
X11870D01*
X10827Y120650D02*
X19902D01*
X29390Y111161D02*
X60433D01*
X19902Y120650D02*
X29390Y111161D01*
X30118Y112402D02*
X60433D01*
X11870Y130650D02*
X30118Y112402D01*
X23350Y131496D02*
X39630Y147776D01*
X20374Y131496D02*
X23350D01*
X25492Y130242D02*
X40625Y145374D01*
X25492Y127559D02*
Y130242D01*
X24902Y126969D02*
X25492Y127559D01*
X22638Y129232D02*
X22785D01*
X40127Y146575D01*
X86314D01*
X91339Y151600D02*
Y154823D01*
X86314Y146575D02*
X91339Y151600D01*
X86811Y145374D02*
X96260Y154823D01*
X40625Y145374D02*
X86811D01*
X39630Y147776D02*
X83504D01*
X86417Y150689D01*
Y154823D01*
X48622Y91437D02*
Y91831D01*
X52165Y95374D01*
X52165Y87500D02*
X52165Y87500D01*
X37992Y87500D02*
X52165D01*
X32087Y85532D02*
X48622D01*
X58169Y118701D02*
X60433D01*
X58169Y115551D02*
X60433D01*
X11614Y91437D02*
X30118D01*
Y87500D02*
X32087Y85532D01*
X93996Y147638D02*
X101181Y154823D01*
X93996Y139961D02*
Y147638D01*
X91437Y137402D02*
X93996Y139961D01*
X113475Y134413D02*
X127155D01*
X107703Y128642D02*
X113475Y134413D01*
X100197Y128642D02*
X107703D01*
X126657Y135614D02*
X131299Y140256D01*
X125394Y158268D02*
X134547D01*
X110827Y143701D02*
X125394Y158268D01*
X113972Y133212D02*
X139265D01*
X114470Y132011D02*
X139762D01*
X122196Y130811D02*
X140259D01*
X117815Y126429D02*
X122196Y130811D01*
X111221Y128762D02*
X114470Y132011D01*
X111221Y126429D02*
Y128762D01*
X107087Y126327D02*
X113972Y133212D01*
X127155Y134413D02*
X130832Y138091D01*
X131299Y140256D02*
X136516D01*
X140185Y140453D02*
X140748D01*
X137823Y138091D02*
X140185Y140453D01*
X130832Y138091D02*
X137823D01*
X66732Y51785D02*
X83564Y34953D01*
X195571Y36122D02*
X197638Y38189D01*
X156846Y36122D02*
X195571D01*
X155677Y34953D02*
X156846Y36122D01*
X83564Y34953D02*
X155677D01*
X144247Y58970D02*
X175884D01*
X141209Y62008D02*
X144247Y58970D01*
X129331Y62008D02*
X141209D01*
X195501Y68110D02*
X197638Y70247D01*
X185024Y68110D02*
X195501D01*
X175884Y58970D02*
X185024Y68110D01*
D50*
X84027Y93574D02*
X93799D01*
X82382Y91929D02*
X84027Y93574D01*
X79553Y99803D02*
X90256D01*
X60433Y80684D02*
X79553Y99803D01*
X93799Y93574D02*
X96555Y96330D01*
Y105610D01*
X89764Y112402D02*
X96555Y105610D01*
X75556Y112402D02*
X89764D01*
X74419Y109261D02*
Y111264D01*
X72933Y107776D02*
X74419Y109261D01*
X72933Y104527D02*
Y107776D01*
X74419Y111264D02*
X75556Y112402D01*
X60433Y85827D02*
X83858Y109252D01*
X60433Y84009D02*
X82526Y106102D01*
X60433Y82382D02*
X82579Y104527D01*
X82526Y106102D02*
X90256D01*
X66634Y104527D02*
X72933D01*
X63484Y107677D02*
X66634Y104527D01*
X185689Y49154D02*
X189567Y45276D01*
X169405Y49154D02*
X185689D01*
X163913Y54646D02*
X169405Y49154D01*
X135240Y53146D02*
X163291D01*
X132677Y55709D02*
X135240Y53146D01*
X129331Y55709D02*
X132677D01*
X145079Y102756D02*
X202826D01*
X138976Y96653D02*
X145079Y102756D01*
X124902Y96653D02*
X138976D01*
X136441Y104256D02*
X203447Y104256D01*
X131988Y99803D02*
X136441Y104256D01*
X135776Y105756D02*
X206125D01*
X131398Y101378D02*
X135776Y105756D01*
X126476Y101378D02*
X131398D01*
X135110Y107256D02*
X206746D01*
X130807Y102953D02*
X135110Y107256D01*
X124902Y102953D02*
X130807D01*
X134543Y108756D02*
X209424D01*
X131890Y106102D02*
X134543Y108756D01*
X122539Y106102D02*
X131890D01*
X133858Y110256D02*
X210046D01*
X132854Y109252D02*
X133858Y110256D01*
X129331Y109252D02*
X132854D01*
X139961Y123425D02*
X180315D01*
X139961Y123425D02*
X139961Y123425D01*
X180315D02*
X187472Y130582D01*
X106496Y121850D02*
X183858D01*
X107972Y120276D02*
X185954D01*
X136193Y117201D02*
X188461D01*
X145805Y115701D02*
X189247D01*
X83858Y109252D02*
X90256D01*
X82579Y104527D02*
X85532D01*
X142506Y112402D02*
X145805Y115701D01*
X129331Y112402D02*
X142506D01*
X60433Y115551D02*
X96555D01*
X90256Y106102D02*
X91831Y104527D01*
X90256Y109252D02*
X94980Y104527D01*
X65905Y111161D02*
X67815Y109252D01*
X60433Y111161D02*
X65905D01*
X99705Y91043D02*
Y118898D01*
Y91043D02*
X100394Y90354D01*
X109153D01*
X102854Y94390D02*
Y118209D01*
Y94390D02*
X103740Y93504D01*
X109153D01*
X104232Y123425D02*
X139961D01*
X110138Y118701D02*
X187598D01*
X115453Y115551D02*
X134543D01*
X112303Y112402D02*
X115453Y115551D01*
X96555Y118701D02*
X98130Y117126D01*
X60433Y118701D02*
X96555D01*
X90256Y99803D02*
X91831Y101378D01*
X71358Y109252D02*
X72933Y110827D01*
X67815Y109252D02*
X71358D01*
X66732Y51785D02*
Y56201D01*
X68209Y57677D01*
Y62008D01*
X79232Y73032D01*
X144764Y54646D02*
X163913D01*
X140551Y58858D02*
X144764Y54646D01*
X129331Y58858D02*
X140551D01*
X93405D02*
X129331D01*
X88681Y63583D02*
X93405Y58858D01*
X85532Y63583D02*
X88681D01*
X93405Y55709D02*
X129331D01*
X93405Y62008D02*
X129331D01*
X90256Y65158D02*
X93405Y62008D01*
X83957Y65158D02*
X90256D01*
X122638Y77756D02*
X129331D01*
X121841Y78553D02*
X122638Y77756D01*
X121841Y78553D02*
Y79768D01*
X120704Y80905D02*
X121841Y79768D01*
X120704Y77756D02*
X122278Y76181D01*
X96555Y77756D02*
X120704D01*
X121752Y71457D02*
X123327Y69882D01*
X96555Y71457D02*
X121752D01*
X80807Y68307D02*
X129331D01*
X121752Y65158D02*
X123327Y63583D01*
X96555Y65158D02*
X121752D01*
X122278Y76181D02*
X129331D01*
X81791Y80905D02*
X120704D01*
X80807Y79921D02*
X81791Y80905D01*
X80807Y71457D02*
Y79921D01*
X119488Y109252D02*
X129331D01*
X118602Y108366D02*
X119488Y109252D01*
X118602Y102953D02*
Y108366D01*
X121752Y105315D02*
X122539Y106102D01*
X121752Y99803D02*
Y105315D01*
X144868Y60470D02*
X175262D01*
X141756Y63583D02*
X144868Y60470D01*
X129331Y63583D02*
X141756D01*
X129331Y68307D02*
X139153D01*
X145490Y61970D01*
X170095D02*
X178372Y70247D01*
X145490Y61970D02*
X170095D01*
X129331Y69882D02*
X139699D01*
X146111Y63470D01*
X169474D01*
X146732Y64970D02*
X166628D01*
X137096Y74606D02*
X146732Y64970D01*
X129331Y76181D02*
X137643D01*
X147353Y66470D01*
X166006D01*
X138189Y77756D02*
X147975Y67970D01*
X129331Y77756D02*
X138189D01*
X175262Y60470D02*
X185039Y70247D01*
X178372D02*
X178740D01*
X169474Y63470D02*
X178435Y72431D01*
X171937Y70279D02*
X172548D01*
X166628Y64970D02*
X171937Y70279D01*
X157443Y67970D02*
X159752Y70279D01*
X171967Y72431D02*
X173819D01*
X166006Y66470D02*
X171967Y72431D01*
X168933Y43468D02*
Y45382D01*
X162670Y51646D02*
X168933Y45382D01*
X129331Y51646D02*
X162670D01*
X163291Y53146D02*
X170669Y45768D01*
Y45276D02*
Y45768D01*
X168933Y43468D02*
X169291Y43110D01*
X162948Y45276D02*
X164370D01*
X158078Y50146D02*
X162948Y45276D01*
X89520Y50146D02*
X158078D01*
X87870Y48646D02*
X157457D01*
X162992Y43110D01*
X94417Y51646D02*
X129331D01*
X87205Y58858D02*
X94417Y51646D01*
X86221Y47146D02*
X149902D01*
X85969Y45276D02*
X145472D01*
X85348Y43776D02*
X143429D01*
X84727Y42276D02*
X121657D01*
X84105Y40776D02*
X121035D01*
X88386Y51279D02*
X89520Y50146D01*
X85236Y51279D02*
X87870Y48646D01*
X82087Y51279D02*
X86221Y47146D01*
X79965Y51279D02*
X85969Y45276D01*
X76083Y53041D02*
X85348Y43776D01*
X75723Y51279D02*
X84727Y42276D01*
X158975Y40372D02*
X161221D01*
X122743Y41189D02*
X148472D01*
X121657Y42276D02*
X122743Y41189D01*
X122122Y39689D02*
X150110D01*
X121035Y40776D02*
X122122Y39689D01*
X69784Y52976D02*
X84571Y38189D01*
X69359Y51279D02*
X84185Y36453D01*
X155055D01*
X158975Y40372D01*
X68209Y52430D02*
Y55709D01*
Y52430D02*
X69359Y51279D01*
X84571Y38189D02*
X153543D01*
X69784Y52976D02*
Y54134D01*
X148472Y41189D02*
X150394Y43110D01*
X150110Y39689D02*
X150793Y40372D01*
X71358Y53523D02*
Y62008D01*
Y53523D02*
X84105Y40776D01*
X150793Y40372D02*
X154921D01*
X74508Y52494D02*
Y58858D01*
Y52494D02*
X75723Y51279D01*
X76083Y53041D02*
Y57284D01*
X143429Y43776D02*
X144095Y43110D01*
X77658Y53587D02*
X79965Y51279D01*
X77658Y53587D02*
Y62008D01*
X147975Y67970D02*
X157443D01*
X149902Y47146D02*
X151772Y45276D01*
X134543Y115551D02*
X136193Y117201D01*
X123327Y101378D02*
X124902Y102953D01*
X202826Y102756D02*
X207087Y98495D01*
X118602Y112402D02*
X129331D01*
X131574Y80905D02*
X133042Y79437D01*
X132120Y82480D02*
X133664Y80937D01*
X126476Y82480D02*
X132120D01*
X134285Y82437D02*
X198043D01*
X132667Y84055D02*
X134285Y82437D01*
X133213Y85630D02*
X134906Y83937D01*
X120177Y85630D02*
X133213D01*
X135528Y85437D02*
X195800D01*
X133760Y87205D02*
X135528Y85437D01*
X121752Y87205D02*
X133760D01*
X148289Y86937D02*
X194845D01*
X144871Y90354D02*
X148289Y86937D01*
X121752Y90354D02*
X144871D01*
X148910Y88437D02*
X194224D01*
X145418Y91929D02*
X148910Y88437D01*
X149531Y89937D02*
X193195D01*
X145965Y93504D02*
X149531Y89937D01*
X129331Y93504D02*
X145965D01*
X150295Y91437D02*
X192241D01*
X146653Y95079D02*
X150295Y91437D01*
X126476Y95079D02*
X146653D01*
X195800Y85437D02*
X203937Y93574D01*
X215479D02*
X216535D01*
X201342Y79437D02*
X215479Y93574D01*
X133042Y79437D02*
X201342D01*
X209179Y93574D02*
X210236D01*
X198043Y82437D02*
X209179Y93574D01*
X200721Y80937D02*
X215541Y95757D01*
X133664Y80937D02*
X200721D01*
X134906Y83937D02*
X197421D01*
X203666Y95757D02*
X205315D01*
X194845Y86937D02*
X203666Y95757D01*
X202523Y96736D02*
Y100303D01*
X194224Y88437D02*
X202523Y96736D01*
X199299Y98495D02*
X200787D01*
X193195Y89937D02*
X199016Y95757D01*
X192241Y91437D02*
X199299Y98495D01*
X203447Y104256D02*
X207043Y100661D01*
X202165D02*
X202523Y100303D01*
X197638Y124091D02*
Y125661D01*
X206125Y105756D02*
X213386Y98495D01*
X209242Y95757D02*
X211614D01*
X209424Y108756D02*
X219685Y98495D01*
X219641Y100661D02*
X221063D01*
X215541Y95757D02*
X217913D01*
X213342Y100661D02*
X214764D01*
X210046Y110256D02*
X219641Y100661D01*
X206746Y107256D02*
X213342Y100661D01*
X207043D02*
X208465D01*
X188461Y117201D02*
X189374Y118114D01*
X189247Y115701D02*
X197638Y124091D01*
X193074Y124177D02*
Y127486D01*
X187598Y118701D02*
X193074Y124177D01*
X195276Y124016D02*
Y128150D01*
X189374Y118114D02*
X195276Y124016D01*
X185954Y120276D02*
X191339Y125661D01*
X183858Y121850D02*
X192590Y130582D01*
X187472D02*
X188189D01*
X197421Y83937D02*
X209242Y95757D01*
X195276Y128150D02*
X196224Y129098D01*
X192590Y130582D02*
X194488D01*
X196224Y129098D02*
Y132389D01*
X195866Y132747D02*
X196224Y132389D01*
X192717Y127844D02*
X193074Y127486D01*
X178435Y72431D02*
X180118D01*
X118602Y84055D02*
X132667D01*
X115453Y87205D02*
X118602Y84055D01*
X124902Y80905D02*
X131574D01*
X123327Y82480D02*
X124902Y80905D01*
X115453Y87205D02*
Y93504D01*
X117028Y95079D01*
X120177Y98228D02*
X121752Y99803D01*
X118602Y102953D02*
X120177Y101378D01*
X115453Y109252D02*
X118602Y112402D01*
X115453Y99803D02*
Y109252D01*
Y99803D02*
X117028Y98228D01*
X112303Y102953D02*
Y112402D01*
Y102953D02*
X113878Y101378D01*
X109153Y117717D02*
X110138Y118701D01*
X106004Y118307D02*
X107972Y120276D01*
X109153Y100650D02*
Y117717D01*
Y100650D02*
X110000Y99803D01*
X112303D01*
X113878Y98228D01*
X102854Y118209D02*
X106496Y121850D01*
X106004Y97539D02*
Y118307D01*
Y97539D02*
X106890Y96653D01*
X112303D01*
X100984Y120177D02*
X104232Y123425D01*
X109153Y93504D02*
X110728Y95079D01*
X99705Y118898D02*
X100984Y120177D01*
X109153Y90354D02*
X110728Y91929D01*
X118602Y93504D02*
X129331D01*
X117028Y91929D02*
X118602Y93504D01*
X120177Y91929D02*
X121752Y90354D01*
X120177Y88779D02*
X121752Y87205D01*
X117028Y88779D02*
X120177Y85630D01*
X123327Y95079D02*
X124902Y96653D01*
X124902Y99803D02*
X131988D01*
X123327Y98228D02*
X124902Y99803D01*
X126476Y91929D02*
X145418D01*
X112303Y96653D02*
X113878Y95079D01*
X123327Y69882D02*
X129331D01*
X123327Y63583D02*
X129331D01*
X96555Y74606D02*
X137096D01*
X82382Y54134D02*
X85236Y51279D01*
X82382Y57284D02*
X88386Y51279D01*
X83957Y58858D02*
X87205D01*
X87106Y62008D02*
X93405Y55709D01*
X80807Y62008D02*
X87106D01*
X82382Y60433D02*
X83957Y58858D01*
X79232Y60433D02*
X80807Y62008D01*
X71358D02*
X76083Y66732D01*
X74508Y58858D02*
X76083Y60433D01*
X79232Y54134D02*
X82087Y51279D01*
X82382Y63583D02*
X83957Y65158D01*
X77658Y62008D02*
X79232Y63583D01*
X94980Y66732D02*
X96555Y65158D01*
X85532Y66732D02*
X94980D01*
X79232D02*
X80807Y68307D01*
X68209Y55709D02*
X69784Y57284D01*
X94980Y69882D02*
X96555Y71457D01*
X85532Y69882D02*
X94980D01*
X93405Y71457D02*
X96555Y74606D01*
X83957Y71457D02*
X93405D01*
X91831Y73032D02*
X96555Y77756D01*
X82382Y69882D02*
X83957Y71457D01*
X88681Y73032D02*
X91831D01*
X79232Y69882D02*
X80807Y71457D01*
X96555Y115551D02*
X98130Y113976D01*
X68209Y112402D02*
X69784Y113976D01*
X60433Y112402D02*
X68209D01*
D54*
X27008Y9744D02*
D03*
X10827Y130650D02*
D03*
Y120650D02*
D03*
Y110650D02*
D03*
Y100650D02*
D03*
Y90650D02*
D03*
Y80650D02*
D03*
D55*
Y140650D02*
D03*
D56*
X76033Y11220D02*
D03*
X42323Y165059D02*
D03*
X81595D02*
D03*
X101279D02*
D03*
X138189Y29921D02*
D03*
Y19783D02*
D03*
X246486Y25886D02*
D03*
X109830Y31890D02*
D03*
X48501Y133933D02*
D03*
X71949Y133977D02*
D03*
X48327Y120965D02*
D03*
X246486Y102756D02*
D03*
X246486Y61122D02*
D03*
X246486Y142028D02*
D03*
X231988Y130512D02*
D03*
X232417Y38091D02*
D03*
X231988Y49154D02*
D03*
Y91142D02*
D03*
X232417Y80512D02*
D03*
Y119783D02*
D03*
X27165Y124705D02*
D03*
X37303Y154823D02*
D03*
X20374Y131496D02*
D03*
X22638Y129232D02*
D03*
X24902Y126969D02*
D03*
X91437Y137402D02*
D03*
X110827Y143701D02*
D03*
X100197Y128642D02*
D03*
X117815Y126429D02*
D03*
X107087Y126327D02*
D03*
X111221Y126429D02*
D03*
X129134Y126378D02*
D03*
X122835D02*
D03*
X125984D02*
D03*
X136516Y140256D02*
D03*
X140748Y140453D02*
D03*
X99508Y123130D02*
D03*
X97342Y120965D02*
D03*
X31102D02*
D03*
X133576Y158366D02*
D03*
X101181Y154823D02*
D03*
X96260D02*
D03*
X91339D02*
D03*
X86417D02*
D03*
D57*
X82382Y98228D02*
D03*
X91831Y98228D02*
D03*
X98130Y88779D02*
D03*
X175591Y13583D02*
D03*
X79232Y107677D02*
D03*
X175569Y16523D02*
D03*
X225787Y57988D02*
D03*
X182776Y43411D02*
D03*
Y46260D02*
D03*
X225689Y104724D02*
D03*
X223973Y102362D02*
D03*
X158071Y128839D02*
D03*
X176969D02*
D03*
X224213Y157677D02*
D03*
X140924D02*
D03*
X181869Y157579D02*
D03*
X224213Y154921D02*
D03*
X181869Y154823D02*
D03*
X167520D02*
D03*
X140924Y154921D02*
D03*
X148622D02*
D03*
X91831Y101378D02*
D03*
X85532Y104527D02*
D03*
X76083Y85630D02*
D03*
X94980Y104527D02*
D03*
X159752Y70279D02*
D03*
X161221Y40372D02*
D03*
X162992Y43110D02*
D03*
X164370Y45276D02*
D03*
X144095Y43110D02*
D03*
X150394D02*
D03*
X151772Y45276D02*
D03*
X203937Y93574D02*
D03*
X200787Y98495D02*
D03*
X199016Y95757D02*
D03*
X202165Y100661D02*
D03*
X197638Y125661D02*
D03*
X213386Y98495D02*
D03*
X211614Y95757D02*
D03*
X219685Y98495D02*
D03*
X221063Y100661D02*
D03*
X217913Y95757D02*
D03*
X216535Y93574D02*
D03*
X214764Y100661D02*
D03*
X205315Y95757D02*
D03*
X210236Y93574D02*
D03*
X197638Y70247D02*
D03*
X189567Y45276D02*
D03*
X197638Y38189D02*
D03*
X207087Y98495D02*
D03*
X208465Y100661D02*
D03*
X180118Y72431D02*
D03*
X178740Y70247D02*
D03*
X154921Y40372D02*
D03*
X153543Y38189D02*
D03*
X169291Y43110D02*
D03*
X145472Y45276D02*
D03*
X172548Y70279D02*
D03*
X194488Y130582D02*
D03*
X191339Y125661D02*
D03*
X192717Y127844D02*
D03*
X195866Y132747D02*
D03*
X188189Y130582D02*
D03*
X173819Y72431D02*
D03*
X185039Y70247D02*
D03*
X170669Y45276D02*
D03*
X120177Y98228D02*
D03*
X91831Y82480D02*
D03*
X101279D02*
D03*
X88681Y88779D02*
D03*
X91831Y91929D02*
D03*
X85532Y82480D02*
D03*
X104429Y88779D02*
D03*
X98130Y95079D02*
D03*
X85532Y91929D02*
D03*
X88681Y95079D02*
D03*
X107579Y82480D02*
D03*
X82382Y88779D02*
D03*
X85532Y95079D02*
D03*
X88681Y73032D02*
D03*
X82382Y91929D02*
D03*
X110728D02*
D03*
X85532Y69882D02*
D03*
X110728Y95079D02*
D03*
X113878Y82480D02*
D03*
X91831Y104527D02*
D03*
X82382Y69882D02*
D03*
X79232Y73032D02*
D03*
X88681Y104527D02*
D03*
X85532Y66732D02*
D03*
X113878Y95079D02*
D03*
X79232Y69882D02*
D03*
X117028Y82480D02*
D03*
Y88779D02*
D03*
X113878Y98228D02*
D03*
X117028Y91929D02*
D03*
X85532Y63583D02*
D03*
X117028Y95079D02*
D03*
X79232Y66732D02*
D03*
X113878Y101378D02*
D03*
X82382Y63583D02*
D03*
X117028Y98228D02*
D03*
X120177Y88779D02*
D03*
Y91929D02*
D03*
X76083Y66732D02*
D03*
X79232Y63583D02*
D03*
X69784Y76181D02*
D03*
X82382Y60433D02*
D03*
X123327Y82480D02*
D03*
X72933Y104527D02*
D03*
X98130Y113976D02*
D03*
X79232Y60433D02*
D03*
X120177Y101378D02*
D03*
X123327Y95079D02*
D03*
X82382Y57284D02*
D03*
X123327Y98228D02*
D03*
X76083Y60433D02*
D03*
X126476Y82480D02*
D03*
X98130Y117126D02*
D03*
X126476Y91929D02*
D03*
X69784Y101378D02*
D03*
X123327D02*
D03*
X126476Y95079D02*
D03*
X72933Y110827D02*
D03*
X82382Y54134D02*
D03*
X76083Y57284D02*
D03*
X69784Y69882D02*
D03*
X79232Y54134D02*
D03*
X126476Y101378D02*
D03*
X69784Y57284D02*
D03*
Y113976D02*
D03*
X63484Y107677D02*
D03*
X69784Y54134D02*
D03*
X66634Y60433D02*
D03*
D58*
X106201Y132933D02*
D03*
X43465Y108071D02*
D03*
X30118Y99311D02*
D03*
Y95374D02*
D03*
Y79626D02*
D03*
X48622Y91437D02*
D03*
X52165Y87500D02*
D03*
X48622Y85532D02*
D03*
X52165Y83563D02*
D03*
Y79626D02*
D03*
X58169Y118701D02*
D03*
Y115551D02*
D03*
X52165Y95374D02*
D03*
X30118Y83563D02*
D03*
Y87500D02*
D03*
Y91437D02*
D03*
M02*
