G04*
G04 #@! TF.GenerationSoftware,Altium Limited,Altium Designer,18.1.7 (191)*
G04*
G04 Layer_Color=2752767*
%FSLAX25Y25*%
%MOIN*%
G70*
G01*
G75*
%ADD12C,0.01000*%
%ADD16C,0.02000*%
%ADD17C,0.01598*%
%ADD18C,0.01600*%
%ADD19C,0.02500*%
%ADD87C,0.00200*%
%ADD88C,0.01500*%
D12*
X544182Y-43399D02*
Y-19783D01*
X475394Y-43456D02*
Y2264D01*
X674213D01*
X675186Y-98661D02*
Y357036D01*
X-58563Y-99016D02*
Y357036D01*
Y-99016D02*
X131004D01*
X107382D02*
X675186D01*
X-58563Y357036D02*
X675186D01*
X131004Y-19834D02*
X675186D01*
X131496Y-43793D02*
X674762Y-43793D01*
X131299Y-62543D02*
X675186Y-62543D01*
X475186Y-98622D02*
Y-20031D01*
X131299Y-81293D02*
X474902Y-81293D01*
X675186Y-99016D02*
Y-19834D01*
X293936Y-98721D02*
Y-43793D01*
X131004Y-99016D02*
Y-19834D01*
X483988Y-77692D02*
X483070Y-76773D01*
X481233D01*
X480315Y-77692D01*
Y-78610D01*
X481233Y-79528D01*
X483070D01*
X483988Y-80447D01*
Y-81365D01*
X483070Y-82284D01*
X481233D01*
X480315Y-81365D01*
X485825Y-82284D02*
Y-76773D01*
X488580D01*
X489498Y-77692D01*
Y-79528D01*
X488580Y-80447D01*
X485825D01*
X491335Y-82284D02*
Y-78610D01*
X493172Y-76773D01*
X495008Y-78610D01*
Y-82284D01*
Y-79528D01*
X491335D01*
X500518Y-77692D02*
X499600Y-76773D01*
X497763D01*
X496845Y-77692D01*
Y-81365D01*
X497763Y-82284D01*
X499600D01*
X500518Y-81365D01*
X506028Y-76773D02*
X502355D01*
Y-82284D01*
X506028D01*
X502355Y-79528D02*
X504192D01*
X507865Y-82284D02*
Y-76773D01*
X510620D01*
X511539Y-77692D01*
Y-79528D01*
X510620Y-80447D01*
X507865D01*
X509702D02*
X511539Y-82284D01*
X513375D02*
Y-78610D01*
X515212Y-76773D01*
X517049Y-78610D01*
Y-82284D01*
Y-79528D01*
X513375D01*
X518885Y-76773D02*
Y-82284D01*
X521640D01*
X522558Y-81365D01*
Y-77692D01*
X521640Y-76773D01*
X518885D01*
X533579Y-77692D02*
X532660Y-76773D01*
X530824D01*
X529905Y-77692D01*
Y-81365D01*
X530824Y-82284D01*
X532660D01*
X533579Y-81365D01*
Y-79528D01*
X531742D01*
X535415Y-78610D02*
Y-82284D01*
Y-80447D01*
X536334Y-79528D01*
X537252Y-78610D01*
X538170D01*
X541844Y-82284D02*
X543680D01*
X544599Y-81365D01*
Y-79528D01*
X543680Y-78610D01*
X541844D01*
X540925Y-79528D01*
Y-81365D01*
X541844Y-82284D01*
X546435Y-78610D02*
Y-81365D01*
X547354Y-82284D01*
X550109D01*
Y-78610D01*
X551945Y-84120D02*
Y-78610D01*
X554700D01*
X555619Y-79528D01*
Y-81365D01*
X554700Y-82284D01*
X551945D01*
X562965Y-76773D02*
Y-82284D01*
X571231Y-76773D02*
Y-82284D01*
X574904D01*
X576741Y-76773D02*
X578577D01*
X577659D01*
Y-82284D01*
X576741D01*
X578577D01*
X581332D02*
Y-76773D01*
X584087D01*
X585006Y-77692D01*
Y-79528D01*
X584087Y-80447D01*
X581332D01*
X583169D02*
X585006Y-82284D01*
X586842D02*
Y-76773D01*
X588679Y-78610D01*
X590516Y-76773D01*
Y-82284D01*
X592352D02*
Y-76773D01*
X594189Y-78610D01*
X596026Y-76773D01*
Y-82284D01*
X483529Y-66701D02*
X482578Y-65750D01*
X480676D01*
X479724Y-66701D01*
Y-67652D01*
X480676Y-68603D01*
X482578D01*
X483529Y-69554D01*
Y-70506D01*
X482578Y-71457D01*
X480676D01*
X479724Y-70506D01*
X485431Y-73359D02*
Y-67652D01*
X488285D01*
X489236Y-68603D01*
Y-70506D01*
X488285Y-71457D01*
X485431D01*
X492089Y-67652D02*
X493991D01*
X494943Y-68603D01*
Y-71457D01*
X492089D01*
X491138Y-70506D01*
X492089Y-69554D01*
X494943D01*
X500649Y-67652D02*
X497796D01*
X496845Y-68603D01*
Y-70506D01*
X497796Y-71457D01*
X500649D01*
X505405D02*
X503503D01*
X502552Y-70506D01*
Y-68603D01*
X503503Y-67652D01*
X505405D01*
X506356Y-68603D01*
Y-69554D01*
X502552D01*
X508258Y-65750D02*
Y-71457D01*
X512063D01*
X514916Y-67652D02*
X516819D01*
X517770Y-68603D01*
Y-71457D01*
X514916D01*
X513965Y-70506D01*
X514916Y-69554D01*
X517770D01*
X519672Y-65750D02*
Y-71457D01*
X522526D01*
X523477Y-70506D01*
Y-69554D01*
Y-68603D01*
X522526Y-67652D01*
X519672D01*
X531086Y-65750D02*
Y-71457D01*
X539646Y-65750D02*
Y-70506D01*
X540597Y-71457D01*
X542499D01*
X543450Y-70506D01*
Y-65750D01*
X549157D02*
X545353D01*
Y-68603D01*
X547255D01*
X545353D01*
Y-71457D01*
X554864Y-66701D02*
X553913Y-65750D01*
X552011D01*
X551059Y-66701D01*
Y-67652D01*
X552011Y-68603D01*
X553913D01*
X554864Y-69554D01*
Y-70506D01*
X553913Y-71457D01*
X552011D01*
X551059Y-70506D01*
X560571Y-66701D02*
X559620Y-65750D01*
X557718D01*
X556766Y-66701D01*
Y-70506D01*
X557718Y-71457D01*
X559620D01*
X560571Y-70506D01*
X594882Y-29920D02*
X596142Y-28660D01*
X598662D01*
X599922Y-29920D01*
Y-31180D01*
X598662Y-32440D01*
X597402D01*
X598662D01*
X599922Y-33700D01*
Y-34960D01*
X598662Y-36220D01*
X596142D01*
X594882Y-34960D01*
X602442Y-29920D02*
X603702Y-28660D01*
X606222D01*
X607482Y-29920D01*
Y-34960D01*
X606222Y-36220D01*
X603702D01*
X602442Y-34960D01*
Y-29920D01*
X610002Y-36220D02*
X615042Y-31180D01*
X617562Y-29920D02*
X618822Y-28660D01*
X621342D01*
X622602Y-29920D01*
Y-34960D01*
X621342Y-36220D01*
X618822D01*
X617562Y-34960D01*
Y-29920D01*
X628902Y-36220D02*
Y-28660D01*
X625122Y-32440D01*
X630162D01*
X632682Y-36220D02*
X637722Y-31180D01*
X645282Y-36220D02*
X640242D01*
X645282Y-31180D01*
Y-29920D01*
X644022Y-28660D01*
X641502D01*
X640242Y-29920D01*
X647802D02*
X649062Y-28660D01*
X651582D01*
X652842Y-29920D01*
Y-34960D01*
X651582Y-36220D01*
X649062D01*
X647802Y-34960D01*
Y-29920D01*
X660402Y-36220D02*
X655362D01*
X660402Y-31180D01*
Y-29920D01*
X659142Y-28660D01*
X656622D01*
X655362Y-29920D01*
X662922D02*
X664182Y-28660D01*
X666703D01*
X667963Y-29920D01*
Y-34960D01*
X666703Y-36220D01*
X664182D01*
X662922Y-34960D01*
Y-29920D01*
X557579Y-5334D02*
Y-12894D01*
Y-9114D01*
X562619D01*
Y-5334D01*
Y-12894D01*
X565139D02*
Y-7854D01*
X567659Y-5334D01*
X570179Y-7854D01*
Y-12894D01*
Y-9114D01*
X565139D01*
X572699Y-12894D02*
Y-5334D01*
X576479D01*
X577739Y-6594D01*
Y-9114D01*
X576479Y-10374D01*
X572699D01*
X575219D02*
X577739Y-12894D01*
X585299Y-6594D02*
X584039Y-5334D01*
X581519D01*
X580259Y-6594D01*
Y-7854D01*
X581519Y-9114D01*
X584039D01*
X585299Y-10374D01*
Y-11634D01*
X584039Y-12894D01*
X581519D01*
X580259Y-11634D01*
X587819Y-5334D02*
Y-12894D01*
Y-9114D01*
X592859D01*
Y-5334D01*
Y-12894D01*
X595379Y-14154D02*
X600419D01*
X602939Y-5334D02*
Y-12894D01*
X606719D01*
X607979Y-11634D01*
Y-6594D01*
X606719Y-5334D01*
X602939D01*
X610499D02*
Y-12894D01*
X614279D01*
X615539Y-11634D01*
Y-10374D01*
X614279Y-9114D01*
X610499D01*
X614279D01*
X615539Y-7854D01*
Y-6594D01*
X614279Y-5334D01*
X610499D01*
X520276Y-36220D02*
X522796D01*
X521536D01*
Y-28660D01*
X520276Y-29920D01*
X526576Y-36220D02*
Y-34960D01*
X527836D01*
Y-36220D01*
X526576D01*
X532876Y-29920D02*
X534136Y-28660D01*
X536656D01*
X537916Y-29920D01*
Y-34960D01*
X536656Y-36220D01*
X534136D01*
X532876Y-34960D01*
Y-29920D01*
X209930Y-49619D02*
X204890D01*
Y-53399D01*
X207410D01*
X204890D01*
Y-57179D01*
X212451D02*
Y-49619D01*
X216231D01*
X217491Y-50879D01*
Y-53399D01*
X216231Y-54659D01*
X212451D01*
X214970D02*
X217491Y-57179D01*
X223791D02*
Y-49619D01*
X220010Y-53399D01*
X225051D01*
X250295Y-76378D02*
X252815D01*
X251555D01*
Y-68818D01*
X250295Y-70078D01*
X256595Y-76378D02*
Y-75118D01*
X257855D01*
Y-76378D01*
X256595D01*
X267935Y-68818D02*
X265415Y-70078D01*
X262895Y-72598D01*
Y-75118D01*
X264155Y-76378D01*
X266675D01*
X267935Y-75118D01*
Y-73858D01*
X266675Y-72598D01*
X262895D01*
X270455Y-76378D02*
Y-71338D01*
X271715D01*
X272975Y-72598D01*
Y-76378D01*
Y-72598D01*
X274236Y-71338D01*
X275496Y-72598D01*
Y-76378D01*
X278015D02*
Y-71338D01*
X279275D01*
X280536Y-72598D01*
Y-76378D01*
Y-72598D01*
X281796Y-71338D01*
X283055Y-72598D01*
Y-76378D01*
X365622Y-93799D02*
X363028Y-86988D01*
X360433Y-93799D01*
X361406Y-91529D02*
X364649D01*
X367212Y-89258D02*
Y-93799D01*
Y-90556D02*
X368185Y-89583D01*
X368833Y-89258D01*
X369806D01*
X370455Y-89583D01*
X370779Y-90556D01*
Y-93799D01*
X376455Y-86988D02*
Y-93799D01*
Y-90232D02*
X375807Y-89583D01*
X375158Y-89258D01*
X374185D01*
X373536Y-89583D01*
X372888Y-90232D01*
X372563Y-91205D01*
Y-91853D01*
X372888Y-92826D01*
X373536Y-93475D01*
X374185Y-93799D01*
X375158D01*
X375807Y-93475D01*
X376455Y-92826D01*
X378272Y-89258D02*
Y-93799D01*
Y-91205D02*
X378596Y-90232D01*
X379244Y-89583D01*
X379893Y-89258D01*
X380866D01*
X381482Y-91205D02*
X385374D01*
Y-90556D01*
X385050Y-89907D01*
X384726Y-89583D01*
X384077Y-89258D01*
X383104D01*
X382455Y-89583D01*
X381807Y-90232D01*
X381482Y-91205D01*
Y-91853D01*
X381807Y-92826D01*
X382455Y-93475D01*
X383104Y-93799D01*
X384077D01*
X384726Y-93475D01*
X385374Y-92826D01*
X392185Y-86988D02*
Y-93799D01*
Y-86988D02*
X394780Y-93799D01*
X397375Y-86988D02*
X394780Y-93799D01*
X397375Y-86988D02*
Y-93799D01*
X399645Y-93151D02*
X399321Y-93475D01*
X399645Y-93799D01*
X399970Y-93475D01*
X399645Y-93151D01*
X406813Y-90556D02*
X409732D01*
X410705Y-90232D01*
X411029Y-89907D01*
X411354Y-89258D01*
Y-88285D01*
X411029Y-87637D01*
X410705Y-87313D01*
X409732Y-86988D01*
X406813D01*
Y-93799D01*
X413202Y-93151D02*
X412878Y-93475D01*
X413202Y-93799D01*
X413527Y-93475D01*
X413202Y-93151D01*
X420370Y-86988D02*
Y-93799D01*
Y-86988D02*
X422965Y-93799D01*
X425560Y-86988D02*
X422965Y-93799D01*
X425560Y-86988D02*
Y-93799D01*
X431398Y-89258D02*
Y-93799D01*
Y-90232D02*
X430749Y-89583D01*
X430100Y-89258D01*
X429127D01*
X428479Y-89583D01*
X427830Y-90232D01*
X427506Y-91205D01*
Y-91853D01*
X427830Y-92826D01*
X428479Y-93475D01*
X429127Y-93799D01*
X430100D01*
X430749Y-93475D01*
X431398Y-92826D01*
X434187Y-86988D02*
Y-92502D01*
X434511Y-93475D01*
X435160Y-93799D01*
X435809D01*
X433214Y-89258D02*
X435484D01*
X437755Y-86988D02*
Y-92502D01*
X438079Y-93475D01*
X438728Y-93799D01*
X439376D01*
X436782Y-89258D02*
X439052D01*
X441971D02*
X441322Y-89583D01*
X440674Y-90232D01*
X440349Y-91205D01*
Y-91853D01*
X440674Y-92826D01*
X441322Y-93475D01*
X441971Y-93799D01*
X442944D01*
X443593Y-93475D01*
X444241Y-92826D01*
X444566Y-91853D01*
Y-91205D01*
X444241Y-90232D01*
X443593Y-89583D01*
X442944Y-89258D01*
X441971D01*
X449625Y-90232D02*
X449301Y-89583D01*
X448328Y-89258D01*
X447355D01*
X446382Y-89583D01*
X446058Y-90232D01*
X446382Y-90880D01*
X447031Y-91205D01*
X448652Y-91529D01*
X449301Y-91853D01*
X449625Y-92502D01*
Y-92826D01*
X449301Y-93475D01*
X448328Y-93799D01*
X447355D01*
X446382Y-93475D01*
X446058Y-92826D01*
X230693Y-88957D02*
X226476D01*
Y-95768D01*
X230693D01*
X226476Y-92200D02*
X229071D01*
X231828Y-88957D02*
Y-95768D01*
Y-88957D02*
X236369Y-95768D01*
Y-88957D02*
Y-95768D01*
X238250Y-88957D02*
Y-95768D01*
X244542Y-90578D02*
X244217Y-89930D01*
X243569Y-89281D01*
X242920Y-88957D01*
X241623D01*
X240974Y-89281D01*
X240325Y-89930D01*
X240001Y-90578D01*
X239677Y-91551D01*
Y-93173D01*
X240001Y-94146D01*
X240325Y-94795D01*
X240974Y-95443D01*
X241623Y-95768D01*
X242920D01*
X243569Y-95443D01*
X244217Y-94795D01*
X244542Y-94146D01*
Y-93173D01*
X242920D02*
X244542D01*
X199499Y336265D02*
G03*
X199499Y336265I-1776J0D01*
G01*
X195947Y326497D02*
X199499D01*
Y330049D01*
X195947D02*
X199499D01*
X195947Y326497D02*
Y330049D01*
X196835Y319392D02*
X197723Y318504D01*
X195947Y319392D02*
X196835D01*
X195947D02*
X196835Y320280D01*
X195947Y321168D02*
X196835Y320280D01*
X195947Y321168D02*
X196835D01*
X197723Y322056D01*
X198611Y321168D01*
X199499D01*
X198611Y320280D02*
X199499Y321168D01*
X198611Y320280D02*
X199499Y319392D01*
X198611D02*
X199499D01*
X197723Y318504D02*
X198611Y319392D01*
X195947Y310511D02*
X197723Y311399D01*
X199499Y310511D01*
X198611Y312287D02*
X199499Y310511D01*
X198611Y312287D02*
X199499Y314064D01*
X197723Y313176D02*
X199499Y314064D01*
X195947D02*
X197723Y313176D01*
X195947Y314064D02*
X196835Y312287D01*
X195947Y310511D02*
X196835Y312287D01*
X195947Y303407D02*
X196835D01*
X195947D02*
Y305183D01*
X196835D01*
Y306071D01*
X198611D01*
Y305183D02*
Y306071D01*
Y305183D02*
X199499D01*
Y303407D02*
Y305183D01*
X198611Y303407D02*
X199499D01*
X198611Y302519D02*
Y303407D01*
X196835Y302519D02*
X198611D01*
X196835D02*
Y303407D01*
X197723Y294526D02*
X199499Y298078D01*
X195947D02*
X199499D01*
X195947D02*
X197723Y294526D01*
X618504Y336620D02*
X619569Y334489D01*
X620635Y336620D01*
X623298Y334489D02*
Y337685D01*
X621700Y336087D01*
X623831D01*
X627027Y337685D02*
X624896D01*
Y336087D01*
X625961Y336620D01*
X626494D01*
X627027Y336087D01*
Y335022D01*
X626494Y334489D01*
X625429D01*
X624896Y335022D01*
X628092Y337685D02*
Y334489D01*
Y336087D01*
X628625Y336620D01*
X629690D01*
X630223Y336087D01*
Y334489D01*
X633419D02*
X631288D01*
X633419Y336620D01*
Y337153D01*
X632886Y337685D01*
X631821D01*
X631288Y337153D01*
X634484D02*
X635017Y337685D01*
X636082D01*
X636615Y337153D01*
Y335022D01*
X636082Y334489D01*
X635017D01*
X634484Y335022D01*
Y337153D01*
X637680Y334489D02*
Y336620D01*
X638213D01*
X638746Y336087D01*
Y334489D01*
Y336087D01*
X639278Y336620D01*
X639811Y336087D01*
Y334489D01*
X640876Y337153D02*
X641409Y337685D01*
X642474D01*
X643007Y337153D01*
Y335022D01*
X642474Y334489D01*
X641409D01*
X640876Y335022D01*
Y337153D01*
X644072Y334489D02*
Y336620D01*
X644605D01*
X645138Y336087D01*
Y334489D01*
Y336087D01*
X645670Y336620D01*
X646203Y336087D01*
Y334489D01*
X647268Y336620D02*
X649399Y334489D01*
X648334Y335555D01*
X649399Y336620D01*
X647268Y334489D01*
X650464Y337153D02*
X650997Y337685D01*
X652063D01*
X652595Y337153D01*
Y335022D01*
X652063Y334489D01*
X650997D01*
X650464Y335022D01*
Y337153D01*
X619569Y326497D02*
X618504Y327562D01*
Y328627D01*
X619569Y329693D01*
X621167Y326497D02*
Y329693D01*
X622233Y328627D01*
X623298Y329693D01*
Y326497D01*
X624363D02*
X625429D01*
X624896D01*
Y328627D01*
X624363D01*
X627027D02*
X629157Y326497D01*
X628092Y327562D01*
X629157Y328627D01*
X627027Y326497D01*
X631821D02*
X630756D01*
X630223Y327029D01*
Y328095D01*
X630756Y328627D01*
X631821D01*
X632353Y328095D01*
Y327562D01*
X630223D01*
X635550Y329693D02*
Y326497D01*
X633952D01*
X633419Y327029D01*
Y328095D01*
X633952Y328627D01*
X635550D01*
X636615Y326497D02*
X637680Y327562D01*
Y328627D01*
X636615Y329693D01*
X619569Y318504D02*
X618504Y319569D01*
Y320635D01*
X619569Y321700D01*
X621167Y318504D02*
Y321700D01*
X622233Y320635D01*
X623298Y321700D01*
Y318504D01*
X624363D02*
X625429D01*
X624896D01*
Y320635D01*
X624363D01*
X627027D02*
X629157Y318504D01*
X628092Y319569D01*
X629157Y320635D01*
X627027Y318504D01*
X631821D02*
X630756D01*
X630223Y319037D01*
Y320102D01*
X630756Y320635D01*
X631821D01*
X632353Y320102D01*
Y319569D01*
X630223D01*
X635550Y321700D02*
Y318504D01*
X633952D01*
X633419Y319037D01*
Y320102D01*
X633952Y320635D01*
X635550D01*
X636615Y318504D02*
X637680Y319569D01*
Y320635D01*
X636615Y321700D01*
X620635Y312642D02*
X619037D01*
X618504Y312109D01*
Y311044D01*
X619037Y310511D01*
X620635D01*
X621700Y313175D02*
X622233Y313707D01*
X623298D01*
X623831Y313175D01*
Y311044D01*
X623298Y310511D01*
X622233D01*
X621700Y311044D01*
Y313175D01*
X624896Y313707D02*
Y310511D01*
Y312109D01*
X625429Y312642D01*
X626494D01*
X627027Y312109D01*
Y310511D01*
X628092D02*
Y312642D01*
X629690D01*
X630223Y312109D01*
Y310511D01*
X631288D02*
X632353D01*
X631821D01*
Y313707D01*
X631288Y313175D01*
X636082Y310511D02*
X633952D01*
X636082Y312642D01*
Y313175D01*
X635550Y313707D01*
X634484D01*
X633952Y313175D01*
X637148D02*
X637680Y313707D01*
X638746D01*
X639278Y313175D01*
Y311044D01*
X638746Y310511D01*
X637680D01*
X637148Y311044D01*
Y313175D01*
X620635Y304649D02*
X619037D01*
X618504Y304117D01*
Y303051D01*
X619037Y302519D01*
X620635D01*
X623298D02*
Y305715D01*
X621700Y304117D01*
X623831D01*
X624896Y305182D02*
X625429Y305715D01*
X626494D01*
X627027Y305182D01*
Y303051D01*
X626494Y302519D01*
X625429D01*
X624896Y303051D01*
Y305182D01*
X628092D02*
X628625Y305715D01*
X629690D01*
X630223Y305182D01*
Y303051D01*
X629690Y302519D01*
X628625D01*
X628092Y303051D01*
Y305182D01*
X631288Y305715D02*
Y302519D01*
Y304117D01*
X631821Y304649D01*
X632886D01*
X633419Y304117D01*
Y302519D01*
X634484D02*
Y304649D01*
X636082D01*
X636615Y304117D01*
Y302519D01*
X637680Y305182D02*
X638213Y305715D01*
X639278D01*
X639811Y305182D01*
Y304649D01*
X639278Y304117D01*
X638746D01*
X639278D01*
X639811Y303584D01*
Y303051D01*
X639278Y302519D01*
X638213D01*
X637680Y303051D01*
X643007Y305715D02*
X640876D01*
Y304117D01*
X641942Y304649D01*
X642474D01*
X643007Y304117D01*
Y303051D01*
X642474Y302519D01*
X641409D01*
X640876Y303051D01*
X644072Y305182D02*
X644605Y305715D01*
X645670D01*
X646203Y305182D01*
Y303051D01*
X645670Y302519D01*
X644605D01*
X644072Y303051D01*
Y305182D01*
X647268Y302519D02*
Y304649D01*
X647801D01*
X648334Y304117D01*
Y302519D01*
Y304117D01*
X648867Y304649D01*
X649399Y304117D01*
Y302519D01*
X652063D02*
Y305715D01*
X650464Y304117D01*
X652595D01*
X653661Y305182D02*
X654193Y305715D01*
X655259D01*
X655791Y305182D01*
Y303051D01*
X655259Y302519D01*
X654193D01*
X653661Y303051D01*
Y305182D01*
X656857D02*
X657389Y305715D01*
X658455D01*
X658987Y305182D01*
Y303051D01*
X658455Y302519D01*
X657389D01*
X656857Y303051D01*
Y305182D01*
X620635Y296656D02*
X619037D01*
X618504Y296124D01*
Y295058D01*
X619037Y294526D01*
X620635D01*
X623298D02*
Y297722D01*
X621700Y296124D01*
X623831D01*
X624896Y297189D02*
X625429Y297722D01*
X626494D01*
X627027Y297189D01*
Y295058D01*
X626494Y294526D01*
X625429D01*
X624896Y295058D01*
Y297189D01*
X628092D02*
X628625Y297722D01*
X629690D01*
X630223Y297189D01*
Y295058D01*
X629690Y294526D01*
X628625D01*
X628092Y295058D01*
Y297189D01*
X631288Y297722D02*
Y294526D01*
Y296124D01*
X631821Y296656D01*
X632886D01*
X633419Y296124D01*
Y294526D01*
X634484Y297189D02*
X635017Y297722D01*
X636082D01*
X636615Y297189D01*
Y296656D01*
X636082Y296124D01*
X635550D01*
X636082D01*
X636615Y295591D01*
Y295058D01*
X636082Y294526D01*
X635017D01*
X634484Y295058D01*
X639811Y297722D02*
X637680D01*
Y296124D01*
X638746Y296656D01*
X639278D01*
X639811Y296124D01*
Y295058D01*
X639278Y294526D01*
X638213D01*
X637680Y295058D01*
X640876Y297189D02*
X641409Y297722D01*
X642474D01*
X643007Y297189D01*
Y295058D01*
X642474Y294526D01*
X641409D01*
X640876Y295058D01*
Y297189D01*
X644072Y294526D02*
Y296656D01*
X644605D01*
X645138Y296124D01*
Y294526D01*
Y296124D01*
X645670Y296656D01*
X646203Y296124D01*
Y294526D01*
X648867D02*
Y297722D01*
X647268Y296124D01*
X649399D01*
X650464Y297189D02*
X650997Y297722D01*
X652063D01*
X652595Y297189D01*
Y295058D01*
X652063Y294526D01*
X650997D01*
X650464Y295058D01*
Y297189D01*
X653661D02*
X654193Y297722D01*
X655259D01*
X655791Y297189D01*
Y295058D01*
X655259Y294526D01*
X654193D01*
X653661Y295058D01*
Y297189D01*
X577269Y334489D02*
Y337685D01*
X578867D01*
X579400Y337153D01*
Y336087D01*
X578867Y335555D01*
X577269D01*
X578335D02*
X579400Y334489D01*
X580998D02*
X582063D01*
X582596Y335022D01*
Y336087D01*
X582063Y336620D01*
X580998D01*
X580466Y336087D01*
Y335022D01*
X580998Y334489D01*
X583662Y336620D02*
Y335022D01*
X584194Y334489D01*
X585792D01*
Y336620D01*
X586858Y334489D02*
Y336620D01*
X588456D01*
X588988Y336087D01*
Y334489D01*
X592184Y337685D02*
Y334489D01*
X590586D01*
X590054Y335022D01*
Y336087D01*
X590586Y336620D01*
X592184D01*
X594848Y334489D02*
X593782D01*
X593250Y335022D01*
Y336087D01*
X593782Y336620D01*
X594848D01*
X595380Y336087D01*
Y335555D01*
X593250D01*
X598576Y337685D02*
Y334489D01*
X596978D01*
X596446Y335022D01*
Y336087D01*
X596978Y336620D01*
X598576D01*
X577269Y326497D02*
Y329693D01*
X578867D01*
X579400Y329160D01*
Y328095D01*
X578867Y327562D01*
X577269D01*
X578335D02*
X579400Y326497D01*
X580998D02*
X582063D01*
X582596Y327029D01*
Y328095D01*
X582063Y328627D01*
X580998D01*
X580466Y328095D01*
Y327029D01*
X580998Y326497D01*
X583662Y328627D02*
Y327029D01*
X584194Y326497D01*
X585792D01*
Y328627D01*
X586858Y326497D02*
Y328627D01*
X588456D01*
X588988Y328095D01*
Y326497D01*
X592184Y329693D02*
Y326497D01*
X590586D01*
X590054Y327029D01*
Y328095D01*
X590586Y328627D01*
X592184D01*
X594848Y326497D02*
X593782D01*
X593250Y327029D01*
Y328095D01*
X593782Y328627D01*
X594848D01*
X595380Y328095D01*
Y327562D01*
X593250D01*
X598576Y329693D02*
Y326497D01*
X596978D01*
X596446Y327029D01*
Y328095D01*
X596978Y328627D01*
X598576D01*
X578335Y318504D02*
X577269Y319569D01*
Y320635D01*
X578335Y321700D01*
X579933Y318504D02*
Y321700D01*
X580998Y320635D01*
X582063Y321700D01*
Y318504D01*
X583129D02*
X584194D01*
X583662D01*
Y320635D01*
X583129D01*
X585792D02*
X587923Y318504D01*
X586858Y319569D01*
X587923Y320635D01*
X585792Y318504D01*
X590586D02*
X589521D01*
X588988Y319037D01*
Y320102D01*
X589521Y320635D01*
X590586D01*
X591119Y320102D01*
Y319569D01*
X588988D01*
X594315Y321700D02*
Y318504D01*
X592717D01*
X592184Y319037D01*
Y320102D01*
X592717Y320635D01*
X594315D01*
X595380Y318504D02*
X596446Y319569D01*
Y320635D01*
X595380Y321700D01*
X577269Y310511D02*
Y313707D01*
X578867D01*
X579400Y313175D01*
Y312109D01*
X578867Y311577D01*
X577269D01*
X578335D02*
X579400Y310511D01*
X580998D02*
X582063D01*
X582596Y311044D01*
Y312109D01*
X582063Y312642D01*
X580998D01*
X580466Y312109D01*
Y311044D01*
X580998Y310511D01*
X583662Y312642D02*
Y311044D01*
X584194Y310511D01*
X585792D01*
Y312642D01*
X586858Y310511D02*
Y312642D01*
X588456D01*
X588988Y312109D01*
Y310511D01*
X592184Y313707D02*
Y310511D01*
X590586D01*
X590054Y311044D01*
Y312109D01*
X590586Y312642D01*
X592184D01*
X594848Y310511D02*
X593782D01*
X593250Y311044D01*
Y312109D01*
X593782Y312642D01*
X594848D01*
X595380Y312109D01*
Y311577D01*
X593250D01*
X598576Y313707D02*
Y310511D01*
X596978D01*
X596446Y311044D01*
Y312109D01*
X596978Y312642D01*
X598576D01*
X577269Y302519D02*
Y305715D01*
X578867D01*
X579400Y305182D01*
Y304117D01*
X578867Y303584D01*
X577269D01*
X578335D02*
X579400Y302519D01*
X580998D02*
X582063D01*
X582596Y303051D01*
Y304117D01*
X582063Y304649D01*
X580998D01*
X580466Y304117D01*
Y303051D01*
X580998Y302519D01*
X583662Y304649D02*
Y303051D01*
X584194Y302519D01*
X585792D01*
Y304649D01*
X586858Y302519D02*
Y304649D01*
X588456D01*
X588988Y304117D01*
Y302519D01*
X592184Y305715D02*
Y302519D01*
X590586D01*
X590054Y303051D01*
Y304117D01*
X590586Y304649D01*
X592184D01*
X594848Y302519D02*
X593782D01*
X593250Y303051D01*
Y304117D01*
X593782Y304649D01*
X594848D01*
X595380Y304117D01*
Y303584D01*
X593250D01*
X598576Y305715D02*
Y302519D01*
X596978D01*
X596446Y303051D01*
Y304117D01*
X596978Y304649D01*
X598576D01*
X577269Y294526D02*
Y297722D01*
X578867D01*
X579400Y297189D01*
Y296124D01*
X578867Y295591D01*
X577269D01*
X578335D02*
X579400Y294526D01*
X580998D02*
X582063D01*
X582596Y295058D01*
Y296124D01*
X582063Y296656D01*
X580998D01*
X580466Y296124D01*
Y295058D01*
X580998Y294526D01*
X583662Y296656D02*
Y295058D01*
X584194Y294526D01*
X585792D01*
Y296656D01*
X586858Y294526D02*
Y296656D01*
X588456D01*
X588988Y296124D01*
Y294526D01*
X592184Y297722D02*
Y294526D01*
X590586D01*
X590054Y295058D01*
Y296124D01*
X590586Y296656D01*
X592184D01*
X594848Y294526D02*
X593782D01*
X593250Y295058D01*
Y296124D01*
X593782Y296656D01*
X594848D01*
X595380Y296124D01*
Y295591D01*
X593250D01*
X598576Y297722D02*
Y294526D01*
X596978D01*
X596446Y295058D01*
Y296124D01*
X596978Y296656D01*
X598576D01*
X544345Y337685D02*
Y335555D01*
X545410Y334489D01*
X546475Y335555D01*
Y337685D01*
X547541Y334489D02*
X548606D01*
X548073D01*
Y336620D01*
X547541D01*
X550737D02*
X551802D01*
X552335Y336087D01*
Y334489D01*
X550737D01*
X550204Y335022D01*
X550737Y335555D01*
X552335D01*
X544345Y329693D02*
Y327562D01*
X545410Y326497D01*
X546475Y327562D01*
Y329693D01*
X547541Y326497D02*
X548606D01*
X548073D01*
Y328627D01*
X547541D01*
X550737D02*
X551802D01*
X552335Y328095D01*
Y326497D01*
X550737D01*
X550204Y327029D01*
X550737Y327562D01*
X552335D01*
X544345Y318504D02*
Y321700D01*
X545943D01*
X546475Y321167D01*
Y320102D01*
X545943Y319569D01*
X544345D01*
X548073Y320635D02*
X549139D01*
X549671Y320102D01*
Y318504D01*
X548073D01*
X547541Y319037D01*
X548073Y319569D01*
X549671D01*
X552867Y321700D02*
Y318504D01*
X551269D01*
X550737Y319037D01*
Y320102D01*
X551269Y320635D01*
X552867D01*
X544345Y310511D02*
Y313707D01*
X545943D01*
X546475Y313175D01*
Y312109D01*
X545943Y311577D01*
X544345D01*
X548073Y312642D02*
X549139D01*
X549671Y312109D01*
Y310511D01*
X548073D01*
X547541Y311044D01*
X548073Y311577D01*
X549671D01*
X552867Y313707D02*
Y310511D01*
X551269D01*
X550737Y311044D01*
Y312109D01*
X551269Y312642D01*
X552867D01*
X544345Y302519D02*
Y305715D01*
X545943D01*
X546475Y305182D01*
Y304117D01*
X545943Y303584D01*
X544345D01*
X548073Y304649D02*
X549139D01*
X549671Y304117D01*
Y302519D01*
X548073D01*
X547541Y303051D01*
X548073Y303584D01*
X549671D01*
X552867Y305715D02*
Y302519D01*
X551269D01*
X550737Y303051D01*
Y304117D01*
X551269Y304649D01*
X552867D01*
X544345Y294526D02*
Y297722D01*
X545943D01*
X546475Y297189D01*
Y296124D01*
X545943Y295591D01*
X544345D01*
X548073Y296656D02*
X549139D01*
X549671Y296124D01*
Y294526D01*
X548073D01*
X547541Y295058D01*
X548073Y295591D01*
X549671D01*
X552867Y297722D02*
Y294526D01*
X551269D01*
X550737Y295058D01*
Y296124D01*
X551269Y296656D01*
X552867D01*
X389998Y337685D02*
X392128D01*
X391063D01*
Y334489D01*
X393726D02*
X394792D01*
X395324Y335022D01*
Y336087D01*
X394792Y336620D01*
X393726D01*
X393194Y336087D01*
Y335022D01*
X393726Y334489D01*
X396390Y333424D02*
Y336620D01*
X397988D01*
X398520Y336087D01*
Y335022D01*
X397988Y334489D01*
X396390D01*
X399586Y336087D02*
X401716D01*
X404380Y337685D02*
X403314D01*
X402782Y337153D01*
Y335022D01*
X403314Y334489D01*
X404380D01*
X404913Y335022D01*
Y337153D01*
X404380Y337685D01*
X405978Y336620D02*
Y335022D01*
X406510Y334489D01*
X408109D01*
Y336620D01*
X409707Y337153D02*
Y336620D01*
X409174D01*
X410239D01*
X409707D01*
Y335022D01*
X410239Y334489D01*
X413435D02*
X412370D01*
X411837Y335022D01*
Y336087D01*
X412370Y336620D01*
X413435D01*
X413968Y336087D01*
Y335555D01*
X411837D01*
X415033Y336620D02*
Y334489D01*
Y335555D01*
X415566Y336087D01*
X416099Y336620D01*
X416631D01*
X418229Y336087D02*
X420360D01*
X421425Y337685D02*
Y334489D01*
X423556D01*
X425154Y336620D02*
X426220D01*
X426752Y336087D01*
Y334489D01*
X425154D01*
X424621Y335022D01*
X425154Y335555D01*
X426752D01*
X427818Y336620D02*
Y335022D01*
X428350Y334489D01*
X429948D01*
Y333957D01*
X429416Y333424D01*
X428883D01*
X429948Y334489D02*
Y336620D01*
X432612Y334489D02*
X431546D01*
X431014Y335022D01*
Y336087D01*
X431546Y336620D01*
X432612D01*
X433144Y336087D01*
Y335555D01*
X431014D01*
X434210Y336620D02*
Y334489D01*
Y335555D01*
X434742Y336087D01*
X435275Y336620D01*
X435808D01*
X441667Y334489D02*
X440602Y335555D01*
Y336620D01*
X441667Y337685D01*
X445396Y337153D02*
X444863Y337685D01*
X443798D01*
X443265Y337153D01*
Y335022D01*
X443798Y334489D01*
X444863D01*
X445396Y335022D01*
Y336087D01*
X444331D01*
X446461Y334489D02*
Y337685D01*
X448592Y334489D01*
Y337685D01*
X449657D02*
Y334489D01*
X451255D01*
X451788Y335022D01*
Y337153D01*
X451255Y337685D01*
X449657D01*
X452853Y334489D02*
X453919Y335555D01*
Y336620D01*
X452853Y337685D01*
X458713Y336087D02*
X460844D01*
X465105Y337685D02*
Y334489D01*
X466703D01*
X467236Y335022D01*
Y335555D01*
X466703Y336087D01*
X465105D01*
X466703D01*
X467236Y336620D01*
Y337153D01*
X466703Y337685D01*
X465105D01*
X468834Y334489D02*
X469899D01*
X470432Y335022D01*
Y336087D01*
X469899Y336620D01*
X468834D01*
X468301Y336087D01*
Y335022D01*
X468834Y334489D01*
X472030Y337153D02*
Y336620D01*
X471497D01*
X472562D01*
X472030D01*
Y335022D01*
X472562Y334489D01*
X474693Y337153D02*
Y336620D01*
X474160D01*
X475226D01*
X474693D01*
Y335022D01*
X475226Y334489D01*
X477356D02*
X478422D01*
X478955Y335022D01*
Y336087D01*
X478422Y336620D01*
X477356D01*
X476824Y336087D01*
Y335022D01*
X477356Y334489D01*
X480020D02*
Y336620D01*
X480553D01*
X481085Y336087D01*
Y334489D01*
Y336087D01*
X481618Y336620D01*
X482151Y336087D01*
Y334489D01*
X483216Y336087D02*
X485347D01*
X488010Y337685D02*
X486945D01*
X486412Y337153D01*
Y335022D01*
X486945Y334489D01*
X488010D01*
X488543Y335022D01*
Y337153D01*
X488010Y337685D01*
X489608Y336620D02*
Y335022D01*
X490141Y334489D01*
X491739D01*
Y336620D01*
X493337Y337153D02*
Y336620D01*
X492804D01*
X493869D01*
X493337D01*
Y335022D01*
X493869Y334489D01*
X497065D02*
X496000D01*
X495468Y335022D01*
Y336087D01*
X496000Y336620D01*
X497065D01*
X497598Y336087D01*
Y335555D01*
X495468D01*
X498664Y336620D02*
Y334489D01*
Y335555D01*
X499196Y336087D01*
X499729Y336620D01*
X500262D01*
X501860Y336087D02*
X503990D01*
X505056Y337685D02*
Y334489D01*
X507186D01*
X508784Y336620D02*
X509850D01*
X510383Y336087D01*
Y334489D01*
X508784D01*
X508252Y335022D01*
X508784Y335555D01*
X510383D01*
X511448Y336620D02*
Y335022D01*
X511980Y334489D01*
X513579D01*
Y333957D01*
X513046Y333424D01*
X512513D01*
X513579Y334489D02*
Y336620D01*
X516242Y334489D02*
X515177D01*
X514644Y335022D01*
Y336087D01*
X515177Y336620D01*
X516242D01*
X516775Y336087D01*
Y335555D01*
X514644D01*
X517840Y336620D02*
Y334489D01*
Y335555D01*
X518373Y336087D01*
X518905Y336620D01*
X519438D01*
X525297Y334489D02*
X524232Y335555D01*
Y336620D01*
X525297Y337685D01*
X529026Y337153D02*
X528493Y337685D01*
X527428D01*
X526895Y337153D01*
Y335022D01*
X527428Y334489D01*
X528493D01*
X529026Y335022D01*
Y336087D01*
X527961D01*
X530091Y334489D02*
Y337685D01*
X532222Y334489D01*
Y337685D01*
X533288D02*
Y334489D01*
X534886D01*
X535418Y335022D01*
Y337153D01*
X534886Y337685D01*
X533288D01*
X536484Y334489D02*
X537549Y335555D01*
Y336620D01*
X536484Y337685D01*
X389998Y329693D02*
X392128D01*
X391063D01*
Y326497D01*
X393726D02*
X394792D01*
X395324Y327029D01*
Y328095D01*
X394792Y328627D01*
X393726D01*
X393194Y328095D01*
Y327029D01*
X393726Y326497D01*
X396390Y325431D02*
Y328627D01*
X397988D01*
X398520Y328095D01*
Y327029D01*
X397988Y326497D01*
X396390D01*
X399586Y328095D02*
X401716D01*
X404380Y329693D02*
X403314D01*
X402782Y329160D01*
Y327029D01*
X403314Y326497D01*
X404380D01*
X404913Y327029D01*
Y329160D01*
X404380Y329693D01*
X405978Y328627D02*
Y327029D01*
X406510Y326497D01*
X408109D01*
Y328627D01*
X409707Y329160D02*
Y328627D01*
X409174D01*
X410239D01*
X409707D01*
Y327029D01*
X410239Y326497D01*
X413435D02*
X412370D01*
X411837Y327029D01*
Y328095D01*
X412370Y328627D01*
X413435D01*
X413968Y328095D01*
Y327562D01*
X411837D01*
X415033Y328627D02*
Y326497D01*
Y327562D01*
X415566Y328095D01*
X416099Y328627D01*
X416631D01*
X418229Y328095D02*
X420360D01*
X421425Y329693D02*
Y326497D01*
X423556D01*
X425154Y328627D02*
X426220D01*
X426752Y328095D01*
Y326497D01*
X425154D01*
X424621Y327029D01*
X425154Y327562D01*
X426752D01*
X427818Y328627D02*
Y327029D01*
X428350Y326497D01*
X429948D01*
Y325964D01*
X429416Y325431D01*
X428883D01*
X429948Y326497D02*
Y328627D01*
X432612Y326497D02*
X431546D01*
X431014Y327029D01*
Y328095D01*
X431546Y328627D01*
X432612D01*
X433144Y328095D01*
Y327562D01*
X431014D01*
X434210Y328627D02*
Y326497D01*
Y327562D01*
X434742Y328095D01*
X435275Y328627D01*
X435808D01*
X441667Y326497D02*
X440602Y327562D01*
Y328627D01*
X441667Y329693D01*
X445396Y329160D02*
X444863Y329693D01*
X443798D01*
X443265Y329160D01*
Y327029D01*
X443798Y326497D01*
X444863D01*
X445396Y327029D01*
Y328095D01*
X444331D01*
X446461Y326497D02*
Y329693D01*
X448592Y326497D01*
Y329693D01*
X449657D02*
Y326497D01*
X451255D01*
X451788Y327029D01*
Y329160D01*
X451255Y329693D01*
X449657D01*
X452853Y326497D02*
X453919Y327562D01*
Y328627D01*
X452853Y329693D01*
X458713Y328095D02*
X460844D01*
X465105Y329693D02*
Y326497D01*
X466703D01*
X467236Y327029D01*
Y327562D01*
X466703Y328095D01*
X465105D01*
X466703D01*
X467236Y328627D01*
Y329160D01*
X466703Y329693D01*
X465105D01*
X468834Y326497D02*
X469899D01*
X470432Y327029D01*
Y328095D01*
X469899Y328627D01*
X468834D01*
X468301Y328095D01*
Y327029D01*
X468834Y326497D01*
X472030Y329160D02*
Y328627D01*
X471497D01*
X472562D01*
X472030D01*
Y327029D01*
X472562Y326497D01*
X474693Y329160D02*
Y328627D01*
X474160D01*
X475226D01*
X474693D01*
Y327029D01*
X475226Y326497D01*
X477356D02*
X478422D01*
X478955Y327029D01*
Y328095D01*
X478422Y328627D01*
X477356D01*
X476824Y328095D01*
Y327029D01*
X477356Y326497D01*
X480020D02*
Y328627D01*
X480553D01*
X481085Y328095D01*
Y326497D01*
Y328095D01*
X481618Y328627D01*
X482151Y328095D01*
Y326497D01*
X483216Y328095D02*
X485347D01*
X488010Y329693D02*
X486945D01*
X486412Y329160D01*
Y327029D01*
X486945Y326497D01*
X488010D01*
X488543Y327029D01*
Y329160D01*
X488010Y329693D01*
X489608Y328627D02*
Y327029D01*
X490141Y326497D01*
X491739D01*
Y328627D01*
X493337Y329160D02*
Y328627D01*
X492804D01*
X493869D01*
X493337D01*
Y327029D01*
X493869Y326497D01*
X497065D02*
X496000D01*
X495468Y327029D01*
Y328095D01*
X496000Y328627D01*
X497065D01*
X497598Y328095D01*
Y327562D01*
X495468D01*
X498664Y328627D02*
Y326497D01*
Y327562D01*
X499196Y328095D01*
X499729Y328627D01*
X500262D01*
X501860Y328095D02*
X503990D01*
X505056Y329693D02*
Y326497D01*
X507186D01*
X508784Y328627D02*
X509850D01*
X510383Y328095D01*
Y326497D01*
X508784D01*
X508252Y327029D01*
X508784Y327562D01*
X510383D01*
X511448Y328627D02*
Y327029D01*
X511980Y326497D01*
X513579D01*
Y325964D01*
X513046Y325431D01*
X512513D01*
X513579Y326497D02*
Y328627D01*
X516242Y326497D02*
X515177D01*
X514644Y327029D01*
Y328095D01*
X515177Y328627D01*
X516242D01*
X516775Y328095D01*
Y327562D01*
X514644D01*
X517840Y328627D02*
Y326497D01*
Y327562D01*
X518373Y328095D01*
X518905Y328627D01*
X519438D01*
X525297Y326497D02*
X524232Y327562D01*
Y328627D01*
X525297Y329693D01*
X529026Y329160D02*
X528493Y329693D01*
X527428D01*
X526895Y329160D01*
Y327029D01*
X527428Y326497D01*
X528493D01*
X529026Y327029D01*
Y328095D01*
X527961D01*
X530091Y326497D02*
Y329693D01*
X532222Y326497D01*
Y329693D01*
X533288D02*
Y326497D01*
X534886D01*
X535418Y327029D01*
Y329160D01*
X534886Y329693D01*
X533288D01*
X536484Y326497D02*
X537549Y327562D01*
Y328627D01*
X536484Y329693D01*
X389998Y321700D02*
X392128D01*
X391063D01*
Y318504D01*
X393726D02*
X394792D01*
X395324Y319037D01*
Y320102D01*
X394792Y320635D01*
X393726D01*
X393194Y320102D01*
Y319037D01*
X393726Y318504D01*
X396390Y317439D02*
Y320635D01*
X397988D01*
X398520Y320102D01*
Y319037D01*
X397988Y318504D01*
X396390D01*
X399586Y320102D02*
X401716D01*
X404380Y321700D02*
X403314D01*
X402782Y321167D01*
Y319037D01*
X403314Y318504D01*
X404380D01*
X404913Y319037D01*
Y321167D01*
X404380Y321700D01*
X405978Y320635D02*
Y319037D01*
X406510Y318504D01*
X408109D01*
Y320635D01*
X409707Y321167D02*
Y320635D01*
X409174D01*
X410239D01*
X409707D01*
Y319037D01*
X410239Y318504D01*
X413435D02*
X412370D01*
X411837Y319037D01*
Y320102D01*
X412370Y320635D01*
X413435D01*
X413968Y320102D01*
Y319569D01*
X411837D01*
X415033Y320635D02*
Y318504D01*
Y319569D01*
X415566Y320102D01*
X416099Y320635D01*
X416631D01*
X418229Y320102D02*
X420360D01*
X421425Y321700D02*
Y318504D01*
X423556D01*
X425154Y320635D02*
X426220D01*
X426752Y320102D01*
Y318504D01*
X425154D01*
X424621Y319037D01*
X425154Y319569D01*
X426752D01*
X427818Y320635D02*
Y319037D01*
X428350Y318504D01*
X429948D01*
Y317971D01*
X429416Y317439D01*
X428883D01*
X429948Y318504D02*
Y320635D01*
X432612Y318504D02*
X431546D01*
X431014Y319037D01*
Y320102D01*
X431546Y320635D01*
X432612D01*
X433144Y320102D01*
Y319569D01*
X431014D01*
X434210Y320635D02*
Y318504D01*
Y319569D01*
X434742Y320102D01*
X435275Y320635D01*
X435808D01*
X441667Y318504D02*
X440602Y319569D01*
Y320635D01*
X441667Y321700D01*
X445396Y321167D02*
X444863Y321700D01*
X443798D01*
X443265Y321167D01*
Y319037D01*
X443798Y318504D01*
X444863D01*
X445396Y319037D01*
Y320102D01*
X444331D01*
X446461Y318504D02*
Y321700D01*
X448592Y318504D01*
Y321700D01*
X449657D02*
Y318504D01*
X451255D01*
X451788Y319037D01*
Y321167D01*
X451255Y321700D01*
X449657D01*
X452853Y318504D02*
X453919Y319569D01*
Y320635D01*
X452853Y321700D01*
X458713Y320102D02*
X460844D01*
X465105Y321700D02*
Y318504D01*
X466703D01*
X467236Y319037D01*
Y319569D01*
X466703Y320102D01*
X465105D01*
X466703D01*
X467236Y320635D01*
Y321167D01*
X466703Y321700D01*
X465105D01*
X468834Y318504D02*
X469899D01*
X470432Y319037D01*
Y320102D01*
X469899Y320635D01*
X468834D01*
X468301Y320102D01*
Y319037D01*
X468834Y318504D01*
X472030Y321167D02*
Y320635D01*
X471497D01*
X472562D01*
X472030D01*
Y319037D01*
X472562Y318504D01*
X474693Y321167D02*
Y320635D01*
X474160D01*
X475226D01*
X474693D01*
Y319037D01*
X475226Y318504D01*
X477356D02*
X478422D01*
X478955Y319037D01*
Y320102D01*
X478422Y320635D01*
X477356D01*
X476824Y320102D01*
Y319037D01*
X477356Y318504D01*
X480020D02*
Y320635D01*
X480553D01*
X481085Y320102D01*
Y318504D01*
Y320102D01*
X481618Y320635D01*
X482151Y320102D01*
Y318504D01*
X483216Y320102D02*
X485347D01*
X488010Y321700D02*
X486945D01*
X486412Y321167D01*
Y319037D01*
X486945Y318504D01*
X488010D01*
X488543Y319037D01*
Y321167D01*
X488010Y321700D01*
X489608Y320635D02*
Y319037D01*
X490141Y318504D01*
X491739D01*
Y320635D01*
X493337Y321167D02*
Y320635D01*
X492804D01*
X493869D01*
X493337D01*
Y319037D01*
X493869Y318504D01*
X497065D02*
X496000D01*
X495468Y319037D01*
Y320102D01*
X496000Y320635D01*
X497065D01*
X497598Y320102D01*
Y319569D01*
X495468D01*
X498664Y320635D02*
Y318504D01*
Y319569D01*
X499196Y320102D01*
X499729Y320635D01*
X500262D01*
X501860Y320102D02*
X503990D01*
X505056Y321700D02*
Y318504D01*
X507186D01*
X508784Y320635D02*
X509850D01*
X510383Y320102D01*
Y318504D01*
X508784D01*
X508252Y319037D01*
X508784Y319569D01*
X510383D01*
X511448Y320635D02*
Y319037D01*
X511980Y318504D01*
X513579D01*
Y317971D01*
X513046Y317439D01*
X512513D01*
X513579Y318504D02*
Y320635D01*
X516242Y318504D02*
X515177D01*
X514644Y319037D01*
Y320102D01*
X515177Y320635D01*
X516242D01*
X516775Y320102D01*
Y319569D01*
X514644D01*
X517840Y320635D02*
Y318504D01*
Y319569D01*
X518373Y320102D01*
X518905Y320635D01*
X519438D01*
X525297Y318504D02*
X524232Y319569D01*
Y320635D01*
X525297Y321700D01*
X529026Y321167D02*
X528493Y321700D01*
X527428D01*
X526895Y321167D01*
Y319037D01*
X527428Y318504D01*
X528493D01*
X529026Y319037D01*
Y320102D01*
X527961D01*
X530091Y318504D02*
Y321700D01*
X532222Y318504D01*
Y321700D01*
X533288D02*
Y318504D01*
X534886D01*
X535418Y319037D01*
Y321167D01*
X534886Y321700D01*
X533288D01*
X536484Y318504D02*
X537549Y319569D01*
Y320635D01*
X536484Y321700D01*
X389998Y313707D02*
X392128D01*
X391063D01*
Y310511D01*
X393726D02*
X394792D01*
X395324Y311044D01*
Y312109D01*
X394792Y312642D01*
X393726D01*
X393194Y312109D01*
Y311044D01*
X393726Y310511D01*
X396390Y309446D02*
Y312642D01*
X397988D01*
X398520Y312109D01*
Y311044D01*
X397988Y310511D01*
X396390D01*
X399586Y312109D02*
X401716D01*
X404380Y313707D02*
X403314D01*
X402782Y313175D01*
Y311044D01*
X403314Y310511D01*
X404380D01*
X404913Y311044D01*
Y313175D01*
X404380Y313707D01*
X405978Y312642D02*
Y311044D01*
X406510Y310511D01*
X408109D01*
Y312642D01*
X409707Y313175D02*
Y312642D01*
X409174D01*
X410239D01*
X409707D01*
Y311044D01*
X410239Y310511D01*
X413435D02*
X412370D01*
X411837Y311044D01*
Y312109D01*
X412370Y312642D01*
X413435D01*
X413968Y312109D01*
Y311577D01*
X411837D01*
X415033Y312642D02*
Y310511D01*
Y311577D01*
X415566Y312109D01*
X416099Y312642D01*
X416631D01*
X418229Y312109D02*
X420360D01*
X421425Y313707D02*
Y310511D01*
X423556D01*
X425154Y312642D02*
X426220D01*
X426752Y312109D01*
Y310511D01*
X425154D01*
X424621Y311044D01*
X425154Y311577D01*
X426752D01*
X427818Y312642D02*
Y311044D01*
X428350Y310511D01*
X429948D01*
Y309979D01*
X429416Y309446D01*
X428883D01*
X429948Y310511D02*
Y312642D01*
X432612Y310511D02*
X431546D01*
X431014Y311044D01*
Y312109D01*
X431546Y312642D01*
X432612D01*
X433144Y312109D01*
Y311577D01*
X431014D01*
X434210Y312642D02*
Y310511D01*
Y311577D01*
X434742Y312109D01*
X435275Y312642D01*
X435808D01*
X441667Y310511D02*
X440602Y311577D01*
Y312642D01*
X441667Y313707D01*
X445396Y313175D02*
X444863Y313707D01*
X443798D01*
X443265Y313175D01*
Y311044D01*
X443798Y310511D01*
X444863D01*
X445396Y311044D01*
Y312109D01*
X444331D01*
X446461Y310511D02*
Y313707D01*
X448592Y310511D01*
Y313707D01*
X449657D02*
Y310511D01*
X451255D01*
X451788Y311044D01*
Y313175D01*
X451255Y313707D01*
X449657D01*
X452853Y310511D02*
X453919Y311577D01*
Y312642D01*
X452853Y313707D01*
X458713Y312109D02*
X460844D01*
X465105Y313707D02*
Y310511D01*
X466703D01*
X467236Y311044D01*
Y311577D01*
X466703Y312109D01*
X465105D01*
X466703D01*
X467236Y312642D01*
Y313175D01*
X466703Y313707D01*
X465105D01*
X468834Y310511D02*
X469899D01*
X470432Y311044D01*
Y312109D01*
X469899Y312642D01*
X468834D01*
X468301Y312109D01*
Y311044D01*
X468834Y310511D01*
X472030Y313175D02*
Y312642D01*
X471497D01*
X472562D01*
X472030D01*
Y311044D01*
X472562Y310511D01*
X474693Y313175D02*
Y312642D01*
X474160D01*
X475226D01*
X474693D01*
Y311044D01*
X475226Y310511D01*
X477356D02*
X478422D01*
X478955Y311044D01*
Y312109D01*
X478422Y312642D01*
X477356D01*
X476824Y312109D01*
Y311044D01*
X477356Y310511D01*
X480020D02*
Y312642D01*
X480553D01*
X481085Y312109D01*
Y310511D01*
Y312109D01*
X481618Y312642D01*
X482151Y312109D01*
Y310511D01*
X483216Y312109D02*
X485347D01*
X488010Y313707D02*
X486945D01*
X486412Y313175D01*
Y311044D01*
X486945Y310511D01*
X488010D01*
X488543Y311044D01*
Y313175D01*
X488010Y313707D01*
X489608Y312642D02*
Y311044D01*
X490141Y310511D01*
X491739D01*
Y312642D01*
X493337Y313175D02*
Y312642D01*
X492804D01*
X493869D01*
X493337D01*
Y311044D01*
X493869Y310511D01*
X497065D02*
X496000D01*
X495468Y311044D01*
Y312109D01*
X496000Y312642D01*
X497065D01*
X497598Y312109D01*
Y311577D01*
X495468D01*
X498664Y312642D02*
Y310511D01*
Y311577D01*
X499196Y312109D01*
X499729Y312642D01*
X500262D01*
X501860Y312109D02*
X503990D01*
X505056Y313707D02*
Y310511D01*
X507186D01*
X508784Y312642D02*
X509850D01*
X510383Y312109D01*
Y310511D01*
X508784D01*
X508252Y311044D01*
X508784Y311577D01*
X510383D01*
X511448Y312642D02*
Y311044D01*
X511980Y310511D01*
X513579D01*
Y309979D01*
X513046Y309446D01*
X512513D01*
X513579Y310511D02*
Y312642D01*
X516242Y310511D02*
X515177D01*
X514644Y311044D01*
Y312109D01*
X515177Y312642D01*
X516242D01*
X516775Y312109D01*
Y311577D01*
X514644D01*
X517840Y312642D02*
Y310511D01*
Y311577D01*
X518373Y312109D01*
X518905Y312642D01*
X519438D01*
X525297Y310511D02*
X524232Y311577D01*
Y312642D01*
X525297Y313707D01*
X529026Y313175D02*
X528493Y313707D01*
X527428D01*
X526895Y313175D01*
Y311044D01*
X527428Y310511D01*
X528493D01*
X529026Y311044D01*
Y312109D01*
X527961D01*
X530091Y310511D02*
Y313707D01*
X532222Y310511D01*
Y313707D01*
X533288D02*
Y310511D01*
X534886D01*
X535418Y311044D01*
Y313175D01*
X534886Y313707D01*
X533288D01*
X536484Y310511D02*
X537549Y311577D01*
Y312642D01*
X536484Y313707D01*
X389998Y305715D02*
X392128D01*
X391063D01*
Y302519D01*
X393726D02*
X394792D01*
X395324Y303051D01*
Y304117D01*
X394792Y304649D01*
X393726D01*
X393194Y304117D01*
Y303051D01*
X393726Y302519D01*
X396390Y301453D02*
Y304649D01*
X397988D01*
X398520Y304117D01*
Y303051D01*
X397988Y302519D01*
X396390D01*
X399586Y304117D02*
X401716D01*
X404380Y305715D02*
X403314D01*
X402782Y305182D01*
Y303051D01*
X403314Y302519D01*
X404380D01*
X404913Y303051D01*
Y305182D01*
X404380Y305715D01*
X405978Y304649D02*
Y303051D01*
X406510Y302519D01*
X408109D01*
Y304649D01*
X409707Y305182D02*
Y304649D01*
X409174D01*
X410239D01*
X409707D01*
Y303051D01*
X410239Y302519D01*
X413435D02*
X412370D01*
X411837Y303051D01*
Y304117D01*
X412370Y304649D01*
X413435D01*
X413968Y304117D01*
Y303584D01*
X411837D01*
X415033Y304649D02*
Y302519D01*
Y303584D01*
X415566Y304117D01*
X416099Y304649D01*
X416631D01*
X418229Y304117D02*
X420360D01*
X421425Y305715D02*
Y302519D01*
X423556D01*
X425154Y304649D02*
X426220D01*
X426752Y304117D01*
Y302519D01*
X425154D01*
X424621Y303051D01*
X425154Y303584D01*
X426752D01*
X427818Y304649D02*
Y303051D01*
X428350Y302519D01*
X429948D01*
Y301986D01*
X429416Y301453D01*
X428883D01*
X429948Y302519D02*
Y304649D01*
X432612Y302519D02*
X431546D01*
X431014Y303051D01*
Y304117D01*
X431546Y304649D01*
X432612D01*
X433144Y304117D01*
Y303584D01*
X431014D01*
X434210Y304649D02*
Y302519D01*
Y303584D01*
X434742Y304117D01*
X435275Y304649D01*
X435808D01*
X441667Y302519D02*
X440602Y303584D01*
Y304649D01*
X441667Y305715D01*
X445396Y305182D02*
X444863Y305715D01*
X443798D01*
X443265Y305182D01*
Y303051D01*
X443798Y302519D01*
X444863D01*
X445396Y303051D01*
Y304117D01*
X444331D01*
X446461Y302519D02*
Y305715D01*
X448592Y302519D01*
Y305715D01*
X449657D02*
Y302519D01*
X451255D01*
X451788Y303051D01*
Y305182D01*
X451255Y305715D01*
X449657D01*
X452853Y302519D02*
X453919Y303584D01*
Y304649D01*
X452853Y305715D01*
X458713Y304117D02*
X460844D01*
X465105Y305715D02*
Y302519D01*
X466703D01*
X467236Y303051D01*
Y303584D01*
X466703Y304117D01*
X465105D01*
X466703D01*
X467236Y304649D01*
Y305182D01*
X466703Y305715D01*
X465105D01*
X468834Y302519D02*
X469899D01*
X470432Y303051D01*
Y304117D01*
X469899Y304649D01*
X468834D01*
X468301Y304117D01*
Y303051D01*
X468834Y302519D01*
X472030Y305182D02*
Y304649D01*
X471497D01*
X472562D01*
X472030D01*
Y303051D01*
X472562Y302519D01*
X474693Y305182D02*
Y304649D01*
X474160D01*
X475226D01*
X474693D01*
Y303051D01*
X475226Y302519D01*
X477356D02*
X478422D01*
X478955Y303051D01*
Y304117D01*
X478422Y304649D01*
X477356D01*
X476824Y304117D01*
Y303051D01*
X477356Y302519D01*
X480020D02*
Y304649D01*
X480553D01*
X481085Y304117D01*
Y302519D01*
Y304117D01*
X481618Y304649D01*
X482151Y304117D01*
Y302519D01*
X483216Y304117D02*
X485347D01*
X488010Y305715D02*
X486945D01*
X486412Y305182D01*
Y303051D01*
X486945Y302519D01*
X488010D01*
X488543Y303051D01*
Y305182D01*
X488010Y305715D01*
X489608Y304649D02*
Y303051D01*
X490141Y302519D01*
X491739D01*
Y304649D01*
X493337Y305182D02*
Y304649D01*
X492804D01*
X493869D01*
X493337D01*
Y303051D01*
X493869Y302519D01*
X497065D02*
X496000D01*
X495468Y303051D01*
Y304117D01*
X496000Y304649D01*
X497065D01*
X497598Y304117D01*
Y303584D01*
X495468D01*
X498664Y304649D02*
Y302519D01*
Y303584D01*
X499196Y304117D01*
X499729Y304649D01*
X500262D01*
X501860Y304117D02*
X503990D01*
X505056Y305715D02*
Y302519D01*
X507186D01*
X508784Y304649D02*
X509850D01*
X510383Y304117D01*
Y302519D01*
X508784D01*
X508252Y303051D01*
X508784Y303584D01*
X510383D01*
X511448Y304649D02*
Y303051D01*
X511980Y302519D01*
X513579D01*
Y301986D01*
X513046Y301453D01*
X512513D01*
X513579Y302519D02*
Y304649D01*
X516242Y302519D02*
X515177D01*
X514644Y303051D01*
Y304117D01*
X515177Y304649D01*
X516242D01*
X516775Y304117D01*
Y303584D01*
X514644D01*
X517840Y304649D02*
Y302519D01*
Y303584D01*
X518373Y304117D01*
X518905Y304649D01*
X519438D01*
X525297Y302519D02*
X524232Y303584D01*
Y304649D01*
X525297Y305715D01*
X529026Y305182D02*
X528493Y305715D01*
X527428D01*
X526895Y305182D01*
Y303051D01*
X527428Y302519D01*
X528493D01*
X529026Y303051D01*
Y304117D01*
X527961D01*
X530091Y302519D02*
Y305715D01*
X532222Y302519D01*
Y305715D01*
X533288D02*
Y302519D01*
X534886D01*
X535418Y303051D01*
Y305182D01*
X534886Y305715D01*
X533288D01*
X536484Y302519D02*
X537549Y303584D01*
Y304649D01*
X536484Y305715D01*
X389998Y297722D02*
X392128D01*
X391063D01*
Y294526D01*
X393726D02*
X394792D01*
X395324Y295058D01*
Y296124D01*
X394792Y296656D01*
X393726D01*
X393194Y296124D01*
Y295058D01*
X393726Y294526D01*
X396390Y293460D02*
Y296656D01*
X397988D01*
X398520Y296124D01*
Y295058D01*
X397988Y294526D01*
X396390D01*
X399586Y296124D02*
X401716D01*
X404380Y297722D02*
X403314D01*
X402782Y297189D01*
Y295058D01*
X403314Y294526D01*
X404380D01*
X404913Y295058D01*
Y297189D01*
X404380Y297722D01*
X405978Y296656D02*
Y295058D01*
X406510Y294526D01*
X408109D01*
Y296656D01*
X409707Y297189D02*
Y296656D01*
X409174D01*
X410239D01*
X409707D01*
Y295058D01*
X410239Y294526D01*
X413435D02*
X412370D01*
X411837Y295058D01*
Y296124D01*
X412370Y296656D01*
X413435D01*
X413968Y296124D01*
Y295591D01*
X411837D01*
X415033Y296656D02*
Y294526D01*
Y295591D01*
X415566Y296124D01*
X416099Y296656D01*
X416631D01*
X418229Y296124D02*
X420360D01*
X421425Y297722D02*
Y294526D01*
X423556D01*
X425154Y296656D02*
X426220D01*
X426752Y296124D01*
Y294526D01*
X425154D01*
X424621Y295058D01*
X425154Y295591D01*
X426752D01*
X427818Y296656D02*
Y295058D01*
X428350Y294526D01*
X429948D01*
Y293993D01*
X429416Y293460D01*
X428883D01*
X429948Y294526D02*
Y296656D01*
X432612Y294526D02*
X431546D01*
X431014Y295058D01*
Y296124D01*
X431546Y296656D01*
X432612D01*
X433144Y296124D01*
Y295591D01*
X431014D01*
X434210Y296656D02*
Y294526D01*
Y295591D01*
X434742Y296124D01*
X435275Y296656D01*
X435808D01*
X441667Y294526D02*
X440602Y295591D01*
Y296656D01*
X441667Y297722D01*
X445396Y297189D02*
X444863Y297722D01*
X443798D01*
X443265Y297189D01*
Y295058D01*
X443798Y294526D01*
X444863D01*
X445396Y295058D01*
Y296124D01*
X444331D01*
X446461Y294526D02*
Y297722D01*
X448592Y294526D01*
Y297722D01*
X449657D02*
Y294526D01*
X451255D01*
X451788Y295058D01*
Y297189D01*
X451255Y297722D01*
X449657D01*
X452853Y294526D02*
X453919Y295591D01*
Y296656D01*
X452853Y297722D01*
X458713Y296124D02*
X460844D01*
X465105Y297722D02*
Y294526D01*
X466703D01*
X467236Y295058D01*
Y295591D01*
X466703Y296124D01*
X465105D01*
X466703D01*
X467236Y296656D01*
Y297189D01*
X466703Y297722D01*
X465105D01*
X468834Y294526D02*
X469899D01*
X470432Y295058D01*
Y296124D01*
X469899Y296656D01*
X468834D01*
X468301Y296124D01*
Y295058D01*
X468834Y294526D01*
X472030Y297189D02*
Y296656D01*
X471497D01*
X472562D01*
X472030D01*
Y295058D01*
X472562Y294526D01*
X474693Y297189D02*
Y296656D01*
X474160D01*
X475226D01*
X474693D01*
Y295058D01*
X475226Y294526D01*
X477356D02*
X478422D01*
X478955Y295058D01*
Y296124D01*
X478422Y296656D01*
X477356D01*
X476824Y296124D01*
Y295058D01*
X477356Y294526D01*
X480020D02*
Y296656D01*
X480553D01*
X481085Y296124D01*
Y294526D01*
Y296124D01*
X481618Y296656D01*
X482151Y296124D01*
Y294526D01*
X483216Y296124D02*
X485347D01*
X488010Y297722D02*
X486945D01*
X486412Y297189D01*
Y295058D01*
X486945Y294526D01*
X488010D01*
X488543Y295058D01*
Y297189D01*
X488010Y297722D01*
X489608Y296656D02*
Y295058D01*
X490141Y294526D01*
X491739D01*
Y296656D01*
X493337Y297189D02*
Y296656D01*
X492804D01*
X493869D01*
X493337D01*
Y295058D01*
X493869Y294526D01*
X497065D02*
X496000D01*
X495468Y295058D01*
Y296124D01*
X496000Y296656D01*
X497065D01*
X497598Y296124D01*
Y295591D01*
X495468D01*
X498664Y296656D02*
Y294526D01*
Y295591D01*
X499196Y296124D01*
X499729Y296656D01*
X500262D01*
X501860Y296124D02*
X503990D01*
X505056Y297722D02*
Y294526D01*
X507186D01*
X508784Y296656D02*
X509850D01*
X510383Y296124D01*
Y294526D01*
X508784D01*
X508252Y295058D01*
X508784Y295591D01*
X510383D01*
X511448Y296656D02*
Y295058D01*
X511980Y294526D01*
X513579D01*
Y293993D01*
X513046Y293460D01*
X512513D01*
X513579Y294526D02*
Y296656D01*
X516242Y294526D02*
X515177D01*
X514644Y295058D01*
Y296124D01*
X515177Y296656D01*
X516242D01*
X516775Y296124D01*
Y295591D01*
X514644D01*
X517840Y296656D02*
Y294526D01*
Y295591D01*
X518373Y296124D01*
X518905Y296656D01*
X519438D01*
X525297Y294526D02*
X524232Y295591D01*
Y296656D01*
X525297Y297722D01*
X529026Y297189D02*
X528493Y297722D01*
X527428D01*
X526895Y297189D01*
Y295058D01*
X527428Y294526D01*
X528493D01*
X529026Y295058D01*
Y296124D01*
X527961D01*
X530091Y294526D02*
Y297722D01*
X532222Y294526D01*
Y297722D01*
X533288D02*
Y294526D01*
X534886D01*
X535418Y295058D01*
Y297189D01*
X534886Y297722D01*
X533288D01*
X536484Y294526D02*
X537549Y295591D01*
Y296656D01*
X536484Y297722D01*
X349402Y334489D02*
Y337685D01*
X351000D01*
X351533Y337153D01*
Y336087D01*
X351000Y335555D01*
X349402D01*
X350468D02*
X351533Y334489D01*
X353131D02*
X354196D01*
X354729Y335022D01*
Y336087D01*
X354196Y336620D01*
X353131D01*
X352598Y336087D01*
Y335022D01*
X353131Y334489D01*
X355794Y336620D02*
Y335022D01*
X356327Y334489D01*
X357925D01*
Y336620D01*
X358990Y334489D02*
Y336620D01*
X360588D01*
X361121Y336087D01*
Y334489D01*
X364317Y337685D02*
Y334489D01*
X362719D01*
X362187Y335022D01*
Y336087D01*
X362719Y336620D01*
X364317D01*
X349402Y326497D02*
Y329693D01*
X351000D01*
X351533Y329160D01*
Y328095D01*
X351000Y327562D01*
X349402D01*
X350468D02*
X351533Y326497D01*
X353131D02*
X354196D01*
X354729Y327029D01*
Y328095D01*
X354196Y328627D01*
X353131D01*
X352598Y328095D01*
Y327029D01*
X353131Y326497D01*
X355794Y328627D02*
Y327029D01*
X356327Y326497D01*
X357925D01*
Y328627D01*
X358990Y326497D02*
Y328627D01*
X360588D01*
X361121Y328095D01*
Y326497D01*
X364317Y329693D02*
Y326497D01*
X362719D01*
X362187Y327029D01*
Y328095D01*
X362719Y328627D01*
X364317D01*
X349402Y318504D02*
Y321700D01*
X351000D01*
X351533Y321167D01*
Y320102D01*
X351000Y319569D01*
X349402D01*
X350468D02*
X351533Y318504D01*
X353131D02*
X354196D01*
X354729Y319037D01*
Y320102D01*
X354196Y320635D01*
X353131D01*
X352598Y320102D01*
Y319037D01*
X353131Y318504D01*
X355794Y320635D02*
Y319037D01*
X356327Y318504D01*
X357925D01*
Y320635D01*
X358990Y318504D02*
Y320635D01*
X360588D01*
X361121Y320102D01*
Y318504D01*
X364317Y321700D02*
Y318504D01*
X362719D01*
X362187Y319037D01*
Y320102D01*
X362719Y320635D01*
X364317D01*
X349402Y310511D02*
Y313707D01*
X351000D01*
X351533Y313175D01*
Y312109D01*
X351000Y311577D01*
X349402D01*
X350468D02*
X351533Y310511D01*
X353131D02*
X354196D01*
X354729Y311044D01*
Y312109D01*
X354196Y312642D01*
X353131D01*
X352598Y312109D01*
Y311044D01*
X353131Y310511D01*
X355794Y312642D02*
Y311044D01*
X356327Y310511D01*
X357925D01*
Y312642D01*
X358990Y310511D02*
Y312642D01*
X360588D01*
X361121Y312109D01*
Y310511D01*
X364317Y313707D02*
Y310511D01*
X362719D01*
X362187Y311044D01*
Y312109D01*
X362719Y312642D01*
X364317D01*
X349402Y302519D02*
Y305715D01*
X351000D01*
X351533Y305182D01*
Y304117D01*
X351000Y303584D01*
X349402D01*
X350468D02*
X351533Y302519D01*
X353131D02*
X354196D01*
X354729Y303051D01*
Y304117D01*
X354196Y304649D01*
X353131D01*
X352598Y304117D01*
Y303051D01*
X353131Y302519D01*
X355794Y304649D02*
Y303051D01*
X356327Y302519D01*
X357925D01*
Y304649D01*
X358990Y302519D02*
Y304649D01*
X360588D01*
X361121Y304117D01*
Y302519D01*
X364317Y305715D02*
Y302519D01*
X362719D01*
X362187Y303051D01*
Y304117D01*
X362719Y304649D01*
X364317D01*
X349402Y294526D02*
Y297722D01*
X351000D01*
X351533Y297189D01*
Y296124D01*
X351000Y295591D01*
X349402D01*
X350468D02*
X351533Y294526D01*
X353131D02*
X354196D01*
X354729Y295058D01*
Y296124D01*
X354196Y296656D01*
X353131D01*
X352598Y296124D01*
Y295058D01*
X353131Y294526D01*
X355794Y296656D02*
Y295058D01*
X356327Y294526D01*
X357925D01*
Y296656D01*
X358990Y294526D02*
Y296656D01*
X360588D01*
X361121Y296124D01*
Y294526D01*
X364317Y297722D02*
Y294526D01*
X362719D01*
X362187Y295058D01*
Y296124D01*
X362719Y296656D01*
X364317D01*
X320952Y334489D02*
Y337685D01*
X322550D01*
X323083Y337153D01*
Y336087D01*
X322550Y335555D01*
X320952D01*
X324148Y337685D02*
X326279D01*
X325213D01*
Y334489D01*
X327344Y337685D02*
Y334489D01*
Y336087D01*
X329475D01*
Y337685D01*
Y334489D01*
X320952Y326497D02*
Y329693D01*
X322550D01*
X323083Y329160D01*
Y328095D01*
X322550Y327562D01*
X320952D01*
X324148Y329693D02*
X326279D01*
X325213D01*
Y326497D01*
X327344Y329693D02*
Y326497D01*
Y328095D01*
X329475D01*
Y329693D01*
Y326497D01*
X320952Y318504D02*
Y321700D01*
X322550D01*
X323083Y321167D01*
Y320102D01*
X322550Y319569D01*
X320952D01*
X324148Y321700D02*
X326279D01*
X325213D01*
Y318504D01*
X327344Y321700D02*
Y318504D01*
Y320102D01*
X329475D01*
Y321700D01*
Y318504D01*
X320952Y310511D02*
Y313707D01*
X323083Y310511D01*
Y313707D01*
X324148Y310511D02*
Y313707D01*
X325746D01*
X326279Y313175D01*
Y312109D01*
X325746Y311577D01*
X324148D01*
X327344Y313707D02*
X329475D01*
X328409D01*
Y310511D01*
X330540Y313707D02*
Y310511D01*
Y312109D01*
X332671D01*
Y313707D01*
Y310511D01*
X320952Y302519D02*
Y305715D01*
X323083Y302519D01*
Y305715D01*
X324148Y302519D02*
Y305715D01*
X325746D01*
X326279Y305182D01*
Y304117D01*
X325746Y303584D01*
X324148D01*
X327344Y305715D02*
X329475D01*
X328409D01*
Y302519D01*
X330540Y305715D02*
Y302519D01*
Y304117D01*
X332671D01*
Y305715D01*
Y302519D01*
X320952Y294526D02*
Y297722D01*
X322550D01*
X323083Y297189D01*
Y296124D01*
X322550Y295591D01*
X320952D01*
X324148Y297722D02*
X326279D01*
X325213D01*
Y294526D01*
X327344Y297722D02*
Y294526D01*
Y296124D01*
X329475D01*
Y297722D01*
Y294526D01*
X258758Y337153D02*
X259291Y337685D01*
X260356D01*
X260889Y337153D01*
Y335022D01*
X260356Y334489D01*
X259291D01*
X258758Y335022D01*
Y337153D01*
X261954Y334489D02*
Y335022D01*
X262487D01*
Y334489D01*
X261954D01*
X266748D02*
X264617D01*
X266748Y336620D01*
Y337153D01*
X266215Y337685D01*
X265150D01*
X264617Y337153D01*
X267813D02*
X268346Y337685D01*
X269411D01*
X269944Y337153D01*
Y335022D01*
X269411Y334489D01*
X268346D01*
X267813Y335022D01*
Y337153D01*
X271009D02*
X271542Y337685D01*
X272607D01*
X273140Y337153D01*
Y335022D01*
X272607Y334489D01*
X271542D01*
X271009Y335022D01*
Y337153D01*
X274205Y334489D02*
Y336620D01*
X274738D01*
X275271Y336087D01*
Y334489D01*
Y336087D01*
X275804Y336620D01*
X276336Y336087D01*
Y334489D01*
X277402D02*
Y336620D01*
X277934D01*
X278467Y336087D01*
Y334489D01*
Y336087D01*
X279000Y336620D01*
X279532Y336087D01*
Y334489D01*
X284859D02*
X283794Y335555D01*
Y336620D01*
X284859Y337685D01*
X286457D02*
X288588D01*
Y337153D01*
X286457Y335022D01*
Y334489D01*
X289653D02*
Y335022D01*
X290186D01*
Y334489D01*
X289653D01*
X292317Y337153D02*
X292849Y337685D01*
X293915D01*
X294447Y337153D01*
Y336620D01*
X293915Y336087D01*
X294447Y335555D01*
Y335022D01*
X293915Y334489D01*
X292849D01*
X292317Y335022D01*
Y335555D01*
X292849Y336087D01*
X292317Y336620D01*
Y337153D01*
X292849Y336087D02*
X293915D01*
X295513Y337685D02*
X297643D01*
Y337153D01*
X295513Y335022D01*
Y334489D01*
X298709D02*
Y336620D01*
X299241D01*
X299774Y336087D01*
Y334489D01*
Y336087D01*
X300307Y336620D01*
X300839Y336087D01*
Y334489D01*
X301905D02*
X302970D01*
X302437D01*
Y336620D01*
X301905D01*
X304568Y334489D02*
X305633D01*
X305101D01*
Y337685D01*
X304568D01*
X307231Y334489D02*
X308297Y335555D01*
Y336620D01*
X307231Y337685D01*
X258758Y329160D02*
X259291Y329693D01*
X260356D01*
X260889Y329160D01*
Y327029D01*
X260356Y326497D01*
X259291D01*
X258758Y327029D01*
Y329160D01*
X261954Y326497D02*
Y327029D01*
X262487D01*
Y326497D01*
X261954D01*
X264617Y329160D02*
X265150Y329693D01*
X266215D01*
X266748Y329160D01*
Y328627D01*
X266215Y328095D01*
X265683D01*
X266215D01*
X266748Y327562D01*
Y327029D01*
X266215Y326497D01*
X265150D01*
X264617Y327029D01*
X267813Y329160D02*
X268346Y329693D01*
X269411D01*
X269944Y329160D01*
Y327029D01*
X269411Y326497D01*
X268346D01*
X267813Y327029D01*
Y329160D01*
X271009D02*
X271542Y329693D01*
X272607D01*
X273140Y329160D01*
Y327029D01*
X272607Y326497D01*
X271542D01*
X271009Y327029D01*
Y329160D01*
X274205Y326497D02*
Y328627D01*
X274738D01*
X275271Y328095D01*
Y326497D01*
Y328095D01*
X275804Y328627D01*
X276336Y328095D01*
Y326497D01*
X277402D02*
Y328627D01*
X277934D01*
X278467Y328095D01*
Y326497D01*
Y328095D01*
X279000Y328627D01*
X279532Y328095D01*
Y326497D01*
X284859D02*
X283794Y327562D01*
Y328627D01*
X284859Y329693D01*
X286457Y326497D02*
X287522D01*
X286990D01*
Y329693D01*
X286457Y329160D01*
X289121Y326497D02*
X290186D01*
X289653D01*
Y329693D01*
X289121Y329160D01*
X291784Y326497D02*
Y327029D01*
X292317D01*
Y326497D01*
X291784D01*
X294447Y329160D02*
X294980Y329693D01*
X296045D01*
X296578Y329160D01*
Y328627D01*
X296045Y328095D01*
X296578Y327562D01*
Y327029D01*
X296045Y326497D01*
X294980D01*
X294447Y327029D01*
Y327562D01*
X294980Y328095D01*
X294447Y328627D01*
Y329160D01*
X294980Y328095D02*
X296045D01*
X297643Y326497D02*
X298709D01*
X298176D01*
Y329693D01*
X297643Y329160D01*
X300307Y326497D02*
Y328627D01*
X300839D01*
X301372Y328095D01*
Y326497D01*
Y328095D01*
X301905Y328627D01*
X302437Y328095D01*
Y326497D01*
X303503D02*
X304568D01*
X304035D01*
Y328627D01*
X303503D01*
X306166Y326497D02*
X307231D01*
X306699D01*
Y329693D01*
X306166D01*
X308829Y326497D02*
X309895Y327562D01*
Y328627D01*
X308829Y329693D01*
X258758Y318504D02*
X259823D01*
X259291D01*
Y321700D01*
X258758Y321167D01*
X261421Y318504D02*
Y319037D01*
X261954D01*
Y318504D01*
X261421D01*
X264085Y321167D02*
X264617Y321700D01*
X265683D01*
X266215Y321167D01*
Y319037D01*
X265683Y318504D01*
X264617D01*
X264085Y319037D01*
Y321167D01*
X267281D02*
X267813Y321700D01*
X268879D01*
X269411Y321167D01*
Y319037D01*
X268879Y318504D01*
X267813D01*
X267281Y319037D01*
Y321167D01*
X270477D02*
X271009Y321700D01*
X272075D01*
X272607Y321167D01*
Y319037D01*
X272075Y318504D01*
X271009D01*
X270477Y319037D01*
Y321167D01*
X273673Y318504D02*
Y320635D01*
X274205D01*
X274738Y320102D01*
Y318504D01*
Y320102D01*
X275271Y320635D01*
X275804Y320102D01*
Y318504D01*
X276869D02*
Y320635D01*
X277402D01*
X277934Y320102D01*
Y318504D01*
Y320102D01*
X278467Y320635D01*
X279000Y320102D01*
Y318504D01*
X284326D02*
X283261Y319569D01*
Y320635D01*
X284326Y321700D01*
X285924Y321167D02*
X286457Y321700D01*
X287522D01*
X288055Y321167D01*
Y320635D01*
X287522Y320102D01*
X286990D01*
X287522D01*
X288055Y319569D01*
Y319037D01*
X287522Y318504D01*
X286457D01*
X285924Y319037D01*
X289121D02*
X289653Y318504D01*
X290719D01*
X291251Y319037D01*
Y321167D01*
X290719Y321700D01*
X289653D01*
X289121Y321167D01*
Y320635D01*
X289653Y320102D01*
X291251D01*
X292317Y318504D02*
Y319037D01*
X292849D01*
Y318504D01*
X292317D01*
X294980Y321167D02*
X295513Y321700D01*
X296578D01*
X297111Y321167D01*
Y320635D01*
X296578Y320102D01*
X296045D01*
X296578D01*
X297111Y319569D01*
Y319037D01*
X296578Y318504D01*
X295513D01*
X294980Y319037D01*
X298176Y321700D02*
X300307D01*
Y321167D01*
X298176Y319037D01*
Y318504D01*
X301372D02*
Y320635D01*
X301905D01*
X302437Y320102D01*
Y318504D01*
Y320102D01*
X302970Y320635D01*
X303503Y320102D01*
Y318504D01*
X304568D02*
X305633D01*
X305101D01*
Y320635D01*
X304568D01*
X307231Y318504D02*
X308297D01*
X307764D01*
Y321700D01*
X307231D01*
X309895Y318504D02*
X310960Y319569D01*
Y320635D01*
X309895Y321700D01*
X258758Y310511D02*
X259823D01*
X259291D01*
Y313707D01*
X258758Y313175D01*
X261421Y310511D02*
Y311044D01*
X261954D01*
Y310511D01*
X261421D01*
X266215D02*
X264085D01*
X266215Y312642D01*
Y313175D01*
X265683Y313707D01*
X264617D01*
X264085Y313175D01*
X267281D02*
X267813Y313707D01*
X268879D01*
X269411Y313175D01*
Y311044D01*
X268879Y310511D01*
X267813D01*
X267281Y311044D01*
Y313175D01*
X270477D02*
X271009Y313707D01*
X272075D01*
X272607Y313175D01*
Y311044D01*
X272075Y310511D01*
X271009D01*
X270477Y311044D01*
Y313175D01*
X273673Y310511D02*
Y312642D01*
X274205D01*
X274738Y312109D01*
Y310511D01*
Y312109D01*
X275271Y312642D01*
X275804Y312109D01*
Y310511D01*
X276869D02*
Y312642D01*
X277402D01*
X277934Y312109D01*
Y310511D01*
Y312109D01*
X278467Y312642D01*
X279000Y312109D01*
Y310511D01*
X284326D02*
X283261Y311577D01*
Y312642D01*
X284326Y313707D01*
X287522Y310511D02*
Y313707D01*
X285924Y312109D01*
X288055D01*
X289121Y313707D02*
X291251D01*
Y313175D01*
X289121Y311044D01*
Y310511D01*
X292317D02*
Y311044D01*
X292849D01*
Y310511D01*
X292317D01*
X297111D02*
X294980D01*
X297111Y312642D01*
Y313175D01*
X296578Y313707D01*
X295513D01*
X294980Y313175D01*
X299774Y310511D02*
Y313707D01*
X298176Y312109D01*
X300307D01*
X301372Y310511D02*
Y312642D01*
X301905D01*
X302437Y312109D01*
Y310511D01*
Y312109D01*
X302970Y312642D01*
X303503Y312109D01*
Y310511D01*
X304568D02*
X305633D01*
X305101D01*
Y312642D01*
X304568D01*
X307231Y310511D02*
X308297D01*
X307764D01*
Y313707D01*
X307231D01*
X309895Y310511D02*
X310960Y311577D01*
Y312642D01*
X309895Y313707D01*
X258758Y305182D02*
X259291Y305715D01*
X260356D01*
X260889Y305182D01*
Y304649D01*
X260356Y304117D01*
X259823D01*
X260356D01*
X260889Y303584D01*
Y303051D01*
X260356Y302519D01*
X259291D01*
X258758Y303051D01*
X261954Y302519D02*
Y303051D01*
X262487D01*
Y302519D01*
X261954D01*
X266748Y305715D02*
X264617D01*
Y304117D01*
X265683Y304649D01*
X266215D01*
X266748Y304117D01*
Y303051D01*
X266215Y302519D01*
X265150D01*
X264617Y303051D01*
X267813Y305182D02*
X268346Y305715D01*
X269411D01*
X269944Y305182D01*
Y303051D01*
X269411Y302519D01*
X268346D01*
X267813Y303051D01*
Y305182D01*
X271009D02*
X271542Y305715D01*
X272607D01*
X273140Y305182D01*
Y303051D01*
X272607Y302519D01*
X271542D01*
X271009Y303051D01*
Y305182D01*
X274205Y302519D02*
Y304649D01*
X274738D01*
X275271Y304117D01*
Y302519D01*
Y304117D01*
X275804Y304649D01*
X276336Y304117D01*
Y302519D01*
X277402D02*
Y304649D01*
X277934D01*
X278467Y304117D01*
Y302519D01*
Y304117D01*
X279000Y304649D01*
X279532Y304117D01*
Y302519D01*
X284859D02*
X283794Y303584D01*
Y304649D01*
X284859Y305715D01*
X286457Y302519D02*
X287522D01*
X286990D01*
Y305715D01*
X286457Y305182D01*
X289121D02*
X289653Y305715D01*
X290719D01*
X291251Y305182D01*
Y304649D01*
X290719Y304117D01*
X290186D01*
X290719D01*
X291251Y303584D01*
Y303051D01*
X290719Y302519D01*
X289653D01*
X289121Y303051D01*
X292317Y305715D02*
X294447D01*
Y305182D01*
X292317Y303051D01*
Y302519D01*
X295513D02*
Y303051D01*
X296045D01*
Y302519D01*
X295513D01*
X298176Y305715D02*
X300307D01*
Y305182D01*
X298176Y303051D01*
Y302519D01*
X301372Y303051D02*
X301905Y302519D01*
X302970D01*
X303503Y303051D01*
Y305182D01*
X302970Y305715D01*
X301905D01*
X301372Y305182D01*
Y304649D01*
X301905Y304117D01*
X303503D01*
X304568Y302519D02*
Y304649D01*
X305101D01*
X305633Y304117D01*
Y302519D01*
Y304117D01*
X306166Y304649D01*
X306699Y304117D01*
Y302519D01*
X307764D02*
X308829D01*
X308297D01*
Y304649D01*
X307764D01*
X310427Y302519D02*
X311493D01*
X310960D01*
Y305715D01*
X310427D01*
X313091Y302519D02*
X314156Y303584D01*
Y304649D01*
X313091Y305715D01*
X258758Y297189D02*
X259291Y297722D01*
X260356D01*
X260889Y297189D01*
Y296656D01*
X260356Y296124D01*
X259823D01*
X260356D01*
X260889Y295591D01*
Y295058D01*
X260356Y294526D01*
X259291D01*
X258758Y295058D01*
X261954Y294526D02*
Y295058D01*
X262487D01*
Y294526D01*
X261954D01*
X266748Y297722D02*
X264617D01*
Y296124D01*
X265683Y296656D01*
X266215D01*
X266748Y296124D01*
Y295058D01*
X266215Y294526D01*
X265150D01*
X264617Y295058D01*
X267813Y297189D02*
X268346Y297722D01*
X269411D01*
X269944Y297189D01*
Y295058D01*
X269411Y294526D01*
X268346D01*
X267813Y295058D01*
Y297189D01*
X271009D02*
X271542Y297722D01*
X272607D01*
X273140Y297189D01*
Y295058D01*
X272607Y294526D01*
X271542D01*
X271009Y295058D01*
Y297189D01*
X274205Y294526D02*
Y296656D01*
X274738D01*
X275271Y296124D01*
Y294526D01*
Y296124D01*
X275804Y296656D01*
X276336Y296124D01*
Y294526D01*
X277402D02*
Y296656D01*
X277934D01*
X278467Y296124D01*
Y294526D01*
Y296124D01*
X279000Y296656D01*
X279532Y296124D01*
Y294526D01*
X284859D02*
X283794Y295591D01*
Y296656D01*
X284859Y297722D01*
X286457Y294526D02*
X287522D01*
X286990D01*
Y297722D01*
X286457Y297189D01*
X289121D02*
X289653Y297722D01*
X290719D01*
X291251Y297189D01*
Y296656D01*
X290719Y296124D01*
X290186D01*
X290719D01*
X291251Y295591D01*
Y295058D01*
X290719Y294526D01*
X289653D01*
X289121Y295058D01*
X292317Y297722D02*
X294447D01*
Y297189D01*
X292317Y295058D01*
Y294526D01*
X295513D02*
Y295058D01*
X296045D01*
Y294526D01*
X295513D01*
X298176Y297722D02*
X300307D01*
Y297189D01*
X298176Y295058D01*
Y294526D01*
X301372Y295058D02*
X301905Y294526D01*
X302970D01*
X303503Y295058D01*
Y297189D01*
X302970Y297722D01*
X301905D01*
X301372Y297189D01*
Y296656D01*
X301905Y296124D01*
X303503D01*
X304568Y294526D02*
Y296656D01*
X305101D01*
X305633Y296124D01*
Y294526D01*
Y296124D01*
X306166Y296656D01*
X306699Y296124D01*
Y294526D01*
X307764D02*
X308829D01*
X308297D01*
Y296656D01*
X307764D01*
X310427Y294526D02*
X311493D01*
X310960D01*
Y297722D01*
X310427D01*
X313091Y294526D02*
X314156Y295591D01*
Y296656D01*
X313091Y297722D01*
X227992Y289729D02*
X226926Y289196D01*
X225861Y288131D01*
Y287066D01*
X226394Y286533D01*
X227459D01*
X227992Y287066D01*
Y287598D01*
X227459Y288131D01*
X225861D01*
X229057Y289196D02*
X229590Y289729D01*
X230655D01*
X231188Y289196D01*
Y288664D01*
X230655Y288131D01*
X230123D01*
X230655D01*
X231188Y287598D01*
Y287066D01*
X230655Y286533D01*
X229590D01*
X229057Y287066D01*
X233851Y286533D02*
Y289729D01*
X232253Y288131D01*
X234384D01*
X238645Y289729D02*
X240776D01*
X239711D01*
Y286533D01*
X242374D02*
X243440D01*
X243972Y287066D01*
Y288131D01*
X243440Y288664D01*
X242374D01*
X241841Y288131D01*
Y287066D01*
X242374Y286533D01*
X245570Y289196D02*
Y288664D01*
X245038D01*
X246103D01*
X245570D01*
Y287066D01*
X246103Y286533D01*
X248234Y288664D02*
X249299D01*
X249832Y288131D01*
Y286533D01*
X248234D01*
X247701Y287066D01*
X248234Y287598D01*
X249832D01*
X250897Y286533D02*
X251962D01*
X251430D01*
Y289729D01*
X250897D01*
X227459Y334489D02*
Y337685D01*
X225861Y336087D01*
X227992D01*
X229057Y337153D02*
X229590Y337685D01*
X230655D01*
X231188Y337153D01*
Y336620D01*
X230655Y336087D01*
X231188Y335555D01*
Y335022D01*
X230655Y334489D01*
X229590D01*
X229057Y335022D01*
Y335555D01*
X229590Y336087D01*
X229057Y336620D01*
Y337153D01*
X229590Y336087D02*
X230655D01*
X232253Y337153D02*
X232786Y337685D01*
X233851D01*
X234384Y337153D01*
Y336620D01*
X233851Y336087D01*
X234384Y335555D01*
Y335022D01*
X233851Y334489D01*
X232786D01*
X232253Y335022D01*
Y335555D01*
X232786Y336087D01*
X232253Y336620D01*
Y337153D01*
X232786Y336087D02*
X233851D01*
X225861Y326497D02*
X226926D01*
X226394D01*
Y329693D01*
X225861Y329160D01*
X230655Y326497D02*
X228524D01*
X230655Y328627D01*
Y329160D01*
X230123Y329693D01*
X229057D01*
X228524Y329160D01*
X231721D02*
X232253Y329693D01*
X233319D01*
X233851Y329160D01*
Y328627D01*
X233319Y328095D01*
X232786D01*
X233319D01*
X233851Y327562D01*
Y327029D01*
X233319Y326497D01*
X232253D01*
X231721Y327029D01*
X225861Y318504D02*
X226926D01*
X226394D01*
Y321700D01*
X225861Y321167D01*
X228524Y321700D02*
X230655D01*
Y321167D01*
X228524Y319037D01*
Y318504D01*
X227992Y310511D02*
X225861D01*
X227992Y312642D01*
Y313175D01*
X227459Y313707D01*
X226394D01*
X225861Y313175D01*
Y305182D02*
X226394Y305715D01*
X227459D01*
X227992Y305182D01*
Y304649D01*
X227459Y304117D01*
X226926D01*
X227459D01*
X227992Y303584D01*
Y303051D01*
X227459Y302519D01*
X226394D01*
X225861Y303051D01*
Y294526D02*
X226926D01*
X226394D01*
Y297722D01*
X225861Y297189D01*
D16*
X482972Y-57284D02*
Y-49723D01*
X486753D01*
X488013Y-50983D01*
Y-53503D01*
X486753Y-54763D01*
X482972D01*
X490532Y-52243D02*
Y-57284D01*
Y-54763D01*
X491792Y-53503D01*
X493052Y-52243D01*
X494312D01*
X499353Y-57284D02*
X501873D01*
X503133Y-56024D01*
Y-53503D01*
X501873Y-52243D01*
X499353D01*
X498093Y-53503D01*
Y-56024D01*
X499353Y-57284D01*
X505653Y-59803D02*
X506913D01*
X508173Y-58543D01*
Y-52243D01*
X516993Y-57284D02*
X514473D01*
X513213Y-56024D01*
Y-53503D01*
X514473Y-52243D01*
X516993D01*
X518253Y-53503D01*
Y-54763D01*
X513213D01*
X525813Y-52243D02*
X522033D01*
X520773Y-53503D01*
Y-56024D01*
X522033Y-57284D01*
X525813D01*
X529593Y-50983D02*
Y-52243D01*
X528333D01*
X530853D01*
X529593D01*
Y-56024D01*
X530853Y-57284D01*
X534633Y-52243D02*
X535893D01*
Y-53503D01*
X534633D01*
Y-52243D01*
Y-56024D02*
X535893D01*
Y-57284D01*
X534633D01*
Y-56024D01*
X553533Y-49723D02*
X548493D01*
Y-53503D01*
X551013D01*
X548493D01*
Y-57284D01*
X556053D02*
X558573D01*
X557313D01*
Y-49723D01*
X556053D01*
X563613Y-57284D02*
X566133D01*
X567393Y-56024D01*
Y-53503D01*
X566133Y-52243D01*
X563613D01*
X562353Y-53503D01*
Y-56024D01*
X563613Y-57284D01*
X569913Y-52243D02*
Y-57284D01*
Y-54763D01*
X571173Y-53503D01*
X572433Y-52243D01*
X573693D01*
X577473Y-57284D02*
X579993D01*
X578733D01*
Y-52243D01*
X577473D01*
X583773Y-59803D02*
Y-52243D01*
X587553D01*
X588813Y-53503D01*
Y-56024D01*
X587553Y-57284D01*
X583773D01*
X592593Y-52243D02*
X595113D01*
X596373Y-53503D01*
Y-57284D01*
X592593D01*
X591333Y-56024D01*
X592593Y-54763D01*
X596373D01*
X603933Y-50983D02*
X602673Y-49723D01*
X600153D01*
X598893Y-50983D01*
Y-52243D01*
X600153Y-53503D01*
X602673D01*
X603933Y-54763D01*
Y-56024D01*
X602673Y-57284D01*
X600153D01*
X598893Y-56024D01*
X607713Y-52243D02*
X610233D01*
X611493Y-53503D01*
Y-57284D01*
X607713D01*
X606453Y-56024D01*
X607713Y-54763D01*
X611493D01*
X615274Y-50983D02*
Y-52243D01*
X614013D01*
X616534D01*
X615274D01*
Y-56024D01*
X616534Y-57284D01*
X620314Y-53503D02*
X625354D01*
X632914Y-57284D02*
X627874D01*
X632914Y-52243D01*
Y-50983D01*
X631654Y-49723D01*
X629134D01*
X627874Y-50983D01*
D17*
X136614Y-95276D02*
Y-87716D01*
X140394D01*
X141654Y-88976D01*
Y-91496D01*
X140394Y-92756D01*
X136614D01*
X149214Y-88976D02*
X147954Y-87716D01*
X145434D01*
X144174Y-88976D01*
Y-94016D01*
X145434Y-95276D01*
X147954D01*
X149214Y-94016D01*
X151734Y-87716D02*
Y-95276D01*
X155514D01*
X156774Y-94016D01*
Y-92756D01*
X155514Y-91496D01*
X151734D01*
X155514D01*
X156774Y-90236D01*
Y-88976D01*
X155514Y-87716D01*
X151734D01*
X171895Y-88976D02*
X170634Y-87716D01*
X168114D01*
X166854Y-88976D01*
Y-90236D01*
X168114Y-91496D01*
X170634D01*
X171895Y-92756D01*
Y-94016D01*
X170634Y-95276D01*
X168114D01*
X166854Y-94016D01*
X174415Y-90236D02*
Y-94016D01*
X175674Y-95276D01*
X179455D01*
Y-90236D01*
X181974D02*
Y-95276D01*
Y-92756D01*
X183235Y-91496D01*
X184495Y-90236D01*
X185755D01*
X190795Y-95276D02*
Y-88976D01*
Y-91496D01*
X189535D01*
X192055D01*
X190795D01*
Y-88976D01*
X192055Y-87716D01*
X197095Y-90236D02*
X199615D01*
X200875Y-91496D01*
Y-95276D01*
X197095D01*
X195835Y-94016D01*
X197095Y-92756D01*
X200875D01*
X208435Y-90236D02*
X204655D01*
X203395Y-91496D01*
Y-94016D01*
X204655Y-95276D01*
X208435D01*
X214735D02*
X212215D01*
X210955Y-94016D01*
Y-91496D01*
X212215Y-90236D01*
X214735D01*
X215995Y-91496D01*
Y-92756D01*
X210955D01*
X218515Y-90236D02*
X219775D01*
Y-91496D01*
X218515D01*
Y-90236D01*
Y-94016D02*
X219775D01*
Y-95276D01*
X218515D01*
Y-94016D01*
X552658Y-28365D02*
Y-35925D01*
X556437D01*
X557697Y-34665D01*
Y-29625D01*
X556437Y-28365D01*
X552658D01*
X560218Y-35925D02*
Y-30885D01*
X562738Y-28365D01*
X565258Y-30885D01*
Y-35925D01*
Y-32145D01*
X560218D01*
X567778Y-28365D02*
X572818D01*
X570298D01*
Y-35925D01*
X580378Y-28365D02*
X575338D01*
Y-35925D01*
X580378D01*
X575338Y-32145D02*
X577858D01*
X582898Y-30885D02*
X584158D01*
Y-32145D01*
X582898D01*
Y-30885D01*
Y-34665D02*
X584158D01*
Y-35925D01*
X582898D01*
Y-34665D01*
X138640Y-57179D02*
Y-49619D01*
X141160Y-52139D01*
X143680Y-49619D01*
Y-57179D01*
X146201D02*
Y-52139D01*
X148721Y-49619D01*
X151241Y-52139D01*
Y-57179D01*
Y-53399D01*
X146201D01*
X153761Y-49619D02*
X158801D01*
X156281D01*
Y-57179D01*
X166361Y-49619D02*
X161321D01*
Y-57179D01*
X166361D01*
X161321Y-53399D02*
X163841D01*
X168881Y-57179D02*
Y-49619D01*
X172661D01*
X173921Y-50879D01*
Y-53399D01*
X172661Y-54659D01*
X168881D01*
X171401D02*
X173921Y-57179D01*
X176441Y-49619D02*
X178961D01*
X177701D01*
Y-57179D01*
X176441D01*
X178961D01*
X182741D02*
Y-52139D01*
X185261Y-49619D01*
X187781Y-52139D01*
Y-57179D01*
Y-53399D01*
X182741D01*
X190301Y-49619D02*
Y-57179D01*
X195341D01*
X197861Y-52139D02*
X199121D01*
Y-53399D01*
X197861D01*
Y-52139D01*
Y-55919D02*
X199121D01*
Y-57179D01*
X197861D01*
Y-55919D01*
X300590Y-86239D02*
Y-93799D01*
X304371D01*
X305631Y-92539D01*
Y-87499D01*
X304371Y-86239D01*
X300590D01*
X308151Y-88759D02*
Y-93799D01*
Y-91279D01*
X309411Y-90019D01*
X310671Y-88759D01*
X311931D01*
X316971D02*
X319491D01*
X320751Y-90019D01*
Y-93799D01*
X316971D01*
X315711Y-92539D01*
X316971Y-91279D01*
X320751D01*
X323271Y-88759D02*
Y-92539D01*
X324531Y-93799D01*
X325791Y-92539D01*
X327051Y-93799D01*
X328311Y-92539D01*
Y-88759D01*
X330831Y-93799D02*
X333351D01*
X332091D01*
Y-88759D01*
X330831D01*
X337131Y-93799D02*
Y-88759D01*
X340911D01*
X342171Y-90019D01*
Y-93799D01*
X347211Y-96319D02*
X348471D01*
X349731Y-95059D01*
Y-88759D01*
X345951D01*
X344691Y-90019D01*
Y-92539D01*
X345951Y-93799D01*
X349731D01*
X352251Y-88759D02*
X353511D01*
Y-90019D01*
X352251D01*
Y-88759D01*
Y-92539D02*
X353511D01*
Y-93799D01*
X352251D01*
Y-92539D01*
X303859Y-50294D02*
X302599Y-49034D01*
X300079D01*
X298819Y-50294D01*
Y-51554D01*
X300079Y-52815D01*
X302599D01*
X303859Y-54075D01*
Y-55335D01*
X302599Y-56595D01*
X300079D01*
X298819Y-55335D01*
X306379Y-56595D02*
X308899D01*
X307639D01*
Y-51554D01*
X306379D01*
X312679Y-56595D02*
X315199D01*
X313939D01*
Y-49034D01*
X312679D01*
X318979Y-56595D02*
Y-49034D01*
Y-54075D02*
X322759Y-51554D01*
X318979Y-54075D02*
X322759Y-56595D01*
X326539D02*
X330319D01*
X331579Y-55335D01*
X330319Y-54075D01*
X327799D01*
X326539Y-52815D01*
X327799Y-51554D01*
X331579D01*
X339139D02*
X335359D01*
X334099Y-52815D01*
Y-55335D01*
X335359Y-56595D01*
X339139D01*
X341659Y-51554D02*
Y-56595D01*
Y-54075D01*
X342919Y-52815D01*
X344179Y-51554D01*
X345439D01*
X352999Y-56595D02*
X350479D01*
X349219Y-55335D01*
Y-52815D01*
X350479Y-51554D01*
X352999D01*
X354259Y-52815D01*
Y-54075D01*
X349219D01*
X360559Y-56595D02*
X358039D01*
X356779Y-55335D01*
Y-52815D01*
X358039Y-51554D01*
X360559D01*
X361819Y-52815D01*
Y-54075D01*
X356779D01*
X364339Y-56595D02*
Y-51554D01*
X368120D01*
X369379Y-52815D01*
Y-56595D01*
X384500Y-51554D02*
X380719D01*
X379460Y-52815D01*
Y-55335D01*
X380719Y-56595D01*
X384500D01*
X388280D02*
X390800D01*
X392060Y-55335D01*
Y-52815D01*
X390800Y-51554D01*
X388280D01*
X387020Y-52815D01*
Y-55335D01*
X388280Y-56595D01*
X394580D02*
X397100D01*
X395840D01*
Y-49034D01*
X394580D01*
X402140Y-56595D02*
X404660D01*
X405920Y-55335D01*
Y-52815D01*
X404660Y-51554D01*
X402140D01*
X400880Y-52815D01*
Y-55335D01*
X402140Y-56595D01*
X408440Y-51554D02*
Y-56595D01*
Y-54075D01*
X409700Y-52815D01*
X410960Y-51554D01*
X412220D01*
X416000D02*
X417260D01*
Y-52815D01*
X416000D01*
Y-51554D01*
Y-55335D02*
X417260D01*
Y-56595D01*
X416000D01*
Y-55335D01*
X432380Y-59114D02*
X433640D01*
X434900Y-57854D01*
Y-51554D01*
X431120D01*
X429860Y-52815D01*
Y-55335D01*
X431120Y-56595D01*
X434900D01*
X437420Y-51554D02*
Y-56595D01*
Y-54075D01*
X438680Y-52815D01*
X439940Y-51554D01*
X441200D01*
X448760Y-56595D02*
X446240D01*
X444980Y-55335D01*
Y-52815D01*
X446240Y-51554D01*
X448760D01*
X450020Y-52815D01*
Y-54075D01*
X444980D01*
X456320Y-56595D02*
X453800D01*
X452540Y-55335D01*
Y-52815D01*
X453800Y-51554D01*
X456320D01*
X457580Y-52815D01*
Y-54075D01*
X452540D01*
X460100Y-56595D02*
Y-51554D01*
X463880D01*
X465140Y-52815D01*
Y-56595D01*
X137361Y-68369D02*
Y-75929D01*
X141141D01*
X142401Y-74669D01*
Y-73409D01*
X141141Y-72149D01*
X137361D01*
X141141D01*
X142401Y-70889D01*
Y-69629D01*
X141141Y-68369D01*
X137361D01*
X146181Y-75929D02*
X148701D01*
X149961Y-74669D01*
Y-72149D01*
X148701Y-70889D01*
X146181D01*
X144921Y-72149D01*
Y-74669D01*
X146181Y-75929D01*
X153741Y-70889D02*
X156261D01*
X157521Y-72149D01*
Y-75929D01*
X153741D01*
X152481Y-74669D01*
X153741Y-73409D01*
X157521D01*
X160041Y-70889D02*
Y-75929D01*
Y-73409D01*
X161301Y-72149D01*
X162561Y-70889D01*
X163821D01*
X172641Y-68369D02*
Y-75929D01*
X168861D01*
X167601Y-74669D01*
Y-72149D01*
X168861Y-70889D01*
X172641D01*
X182721Y-68369D02*
X187761D01*
X185241D01*
Y-75929D01*
X190281D02*
X192801D01*
X191541D01*
Y-70889D01*
X190281D01*
X201621D02*
X197841D01*
X196581Y-72149D01*
Y-74669D01*
X197841Y-75929D01*
X201621D01*
X204141D02*
Y-68369D01*
Y-73409D02*
X207921Y-70889D01*
X204141Y-73409D02*
X207921Y-75929D01*
X211701D02*
Y-70889D01*
X215481D01*
X216741Y-72149D01*
Y-75929D01*
X223042D02*
X220521D01*
X219262Y-74669D01*
Y-72149D01*
X220521Y-70889D01*
X223042D01*
X224302Y-72149D01*
Y-73409D01*
X219262D01*
X226822Y-75929D02*
X230602D01*
X231862Y-74669D01*
X230602Y-73409D01*
X228082D01*
X226822Y-72149D01*
X228082Y-70889D01*
X231862D01*
X234382Y-75929D02*
X238162D01*
X239422Y-74669D01*
X238162Y-73409D01*
X235642D01*
X234382Y-72149D01*
X235642Y-70889D01*
X239422D01*
X241942D02*
X243202D01*
Y-72149D01*
X241942D01*
Y-70889D01*
Y-74669D02*
X243202D01*
Y-75929D01*
X241942D01*
Y-74669D01*
X299606Y-68424D02*
Y-75984D01*
X304646D01*
X308426Y-70944D02*
X310946D01*
X312206Y-72204D01*
Y-75984D01*
X308426D01*
X307166Y-74724D01*
X308426Y-73464D01*
X312206D01*
X314726Y-70944D02*
Y-74724D01*
X315986Y-75984D01*
X319766D01*
Y-77244D01*
X318506Y-78504D01*
X317246D01*
X319766Y-75984D02*
Y-70944D01*
X326066Y-75984D02*
X323547D01*
X322287Y-74724D01*
Y-72204D01*
X323547Y-70944D01*
X326066D01*
X327326Y-72204D01*
Y-73464D01*
X322287D01*
X329847Y-70944D02*
Y-75984D01*
Y-73464D01*
X331107Y-72204D01*
X332367Y-70944D01*
X333627D01*
X337407Y-75984D02*
X341187D01*
X342447Y-74724D01*
X341187Y-73464D01*
X338667D01*
X337407Y-72204D01*
X338667Y-70944D01*
X342447D01*
X344967D02*
X346227D01*
Y-72204D01*
X344967D01*
Y-70944D01*
Y-74724D02*
X346227D01*
Y-75984D01*
X344967D01*
Y-74724D01*
X358827Y-69684D02*
X360087Y-68424D01*
X362607D01*
X363867Y-69684D01*
Y-74724D01*
X362607Y-75984D01*
X360087D01*
X358827Y-74724D01*
Y-69684D01*
X371427Y-68424D02*
X368907Y-69684D01*
X366387Y-72204D01*
Y-74724D01*
X367647Y-75984D01*
X370167D01*
X371427Y-74724D01*
Y-73464D01*
X370167Y-72204D01*
X366387D01*
D18*
X483268Y-4924D02*
Y-11255D01*
X486433Y-14421D01*
X489599Y-11255D01*
Y-4924D01*
X492765Y-14421D02*
Y-8090D01*
X495930Y-4924D01*
X499096Y-8090D01*
Y-14421D01*
Y-9672D01*
X492765D01*
X502262Y-14421D02*
Y-4924D01*
X507010D01*
X508593Y-6507D01*
Y-9672D01*
X507010Y-11255D01*
X502262D01*
X505427D02*
X508593Y-14421D01*
X511759Y-4924D02*
X514924D01*
X513341D01*
Y-14421D01*
X511759D01*
X514924D01*
X519673D02*
Y-8090D01*
X522838Y-4924D01*
X526004Y-8090D01*
Y-14421D01*
Y-9672D01*
X519673D01*
X529170Y-14421D02*
Y-4924D01*
X535501Y-14421D01*
Y-4924D01*
X538666D02*
X544998D01*
X541832D01*
Y-14421D01*
X548163Y-8090D02*
X549746D01*
Y-9672D01*
X548163D01*
Y-8090D01*
Y-12838D02*
X549746D01*
Y-14421D01*
X548163D01*
Y-12838D01*
X483858Y-37157D02*
Y-27660D01*
X488607D01*
X490190Y-29243D01*
Y-32409D01*
X488607Y-33991D01*
X483858D01*
X487024D02*
X490190Y-37157D01*
X499686Y-27660D02*
X493355D01*
Y-37157D01*
X499686D01*
X493355Y-32409D02*
X496521D01*
X502852Y-27660D02*
Y-33991D01*
X506018Y-37157D01*
X509183Y-33991D01*
Y-27660D01*
X512349Y-37157D02*
Y-35574D01*
X513932D01*
Y-37157D01*
X512349D01*
X618504Y346317D02*
X621061D01*
X619782D01*
Y342482D01*
X624257D02*
X622978D01*
X622339Y343121D01*
Y344400D01*
X622978Y345039D01*
X624257D01*
X624896Y344400D01*
Y343760D01*
X622339D01*
X626174Y342482D02*
Y345039D01*
X626814D01*
X627453Y344400D01*
Y342482D01*
Y344400D01*
X628092Y345039D01*
X628731Y344400D01*
Y342482D01*
X630010Y341204D02*
Y345039D01*
X631927D01*
X632567Y344400D01*
Y343121D01*
X631927Y342482D01*
X630010D01*
X633845D02*
X635123D01*
X634484D01*
Y346317D01*
X633845D01*
X637680Y345039D02*
X638959D01*
X639598Y344400D01*
Y342482D01*
X637680D01*
X637041Y343121D01*
X637680Y343760D01*
X639598D01*
X641515Y345678D02*
Y345039D01*
X640876D01*
X642155D01*
X641515D01*
Y343121D01*
X642155Y342482D01*
X645990D02*
X644711D01*
X644072Y343121D01*
Y344400D01*
X644711Y345039D01*
X645990D01*
X646629Y344400D01*
Y343760D01*
X644072D01*
X577269Y342482D02*
Y346317D01*
X579187D01*
X579826Y345678D01*
Y344400D01*
X579187Y343760D01*
X577269D01*
X581744Y345039D02*
X583022D01*
X583662Y344400D01*
Y342482D01*
X581744D01*
X581105Y343121D01*
X581744Y343760D01*
X583662D01*
X587497Y346317D02*
Y342482D01*
X585579D01*
X584940Y343121D01*
Y344400D01*
X585579Y345039D01*
X587497D01*
X595167Y345678D02*
X594528Y346317D01*
X593250D01*
X592610Y345678D01*
Y345039D01*
X593250Y344400D01*
X594528D01*
X595167Y343760D01*
Y343121D01*
X594528Y342482D01*
X593250D01*
X592610Y343121D01*
X596446Y346317D02*
Y342482D01*
Y344400D01*
X597085Y345039D01*
X598363D01*
X599003Y344400D01*
Y342482D01*
X600920Y345039D02*
X602199D01*
X602838Y344400D01*
Y342482D01*
X600920D01*
X600281Y343121D01*
X600920Y343760D01*
X602838D01*
X604116Y341204D02*
Y345039D01*
X606034D01*
X606673Y344400D01*
Y343121D01*
X606034Y342482D01*
X604116D01*
X609869D02*
X608591D01*
X607951Y343121D01*
Y344400D01*
X608591Y345039D01*
X609869D01*
X610508Y344400D01*
Y343760D01*
X607951D01*
X544345Y346317D02*
Y343760D01*
X545623Y342482D01*
X546901Y343760D01*
Y346317D01*
X548180Y342482D02*
X549458D01*
X548819D01*
Y345039D01*
X548180D01*
X552015D02*
X553294D01*
X553933Y344400D01*
Y342482D01*
X552015D01*
X551376Y343121D01*
X552015Y343760D01*
X553933D01*
X555211Y342482D02*
X557768Y345039D01*
X559046Y342482D02*
Y346317D01*
X560964D01*
X561603Y345678D01*
Y344400D01*
X560964Y343760D01*
X559046D01*
X563521Y345039D02*
X564799D01*
X565439Y344400D01*
Y342482D01*
X563521D01*
X562882Y343121D01*
X563521Y343760D01*
X565439D01*
X569274Y346317D02*
Y342482D01*
X567356D01*
X566717Y343121D01*
Y344400D01*
X567356Y345039D01*
X569274D01*
X389998Y346317D02*
Y342482D01*
X391915D01*
X392554Y343121D01*
Y345678D01*
X391915Y346317D01*
X389998D01*
X393833Y345039D02*
Y342482D01*
Y343760D01*
X394472Y344400D01*
X395111Y345039D01*
X395750D01*
X397668Y342482D02*
X398946D01*
X398307D01*
Y345039D01*
X397668D01*
X400864Y342482D02*
X402142D01*
X401503D01*
Y346317D01*
X400864D01*
X404060Y342482D02*
X405339D01*
X404699D01*
Y346317D01*
X404060D01*
X411092D02*
Y342482D01*
X413648D01*
X415566Y345039D02*
X416844D01*
X417484Y344400D01*
Y342482D01*
X415566D01*
X414927Y343121D01*
X415566Y343760D01*
X417484D01*
X418762Y345039D02*
Y343121D01*
X419401Y342482D01*
X421319D01*
Y341843D01*
X420680Y341204D01*
X420040D01*
X421319Y342482D02*
Y345039D01*
X424515Y342482D02*
X423237D01*
X422597Y343121D01*
Y344400D01*
X423237Y345039D01*
X424515D01*
X425154Y344400D01*
Y343760D01*
X422597D01*
X426433Y345039D02*
Y342482D01*
Y343760D01*
X427072Y344400D01*
X427711Y345039D01*
X428350D01*
X434103Y342482D02*
Y346317D01*
X436021D01*
X436660Y345678D01*
Y344400D01*
X436021Y343760D01*
X434103D01*
X438578Y345039D02*
X439856D01*
X440495Y344400D01*
Y342482D01*
X438578D01*
X437938Y343121D01*
X438578Y343760D01*
X440495D01*
X441774Y342482D02*
X443052D01*
X442413D01*
Y345039D01*
X441774D01*
X444970D02*
Y342482D01*
Y343760D01*
X445609Y344400D01*
X446248Y345039D01*
X446887D01*
X349402Y346317D02*
Y342482D01*
Y344400D01*
X351959D01*
Y346317D01*
Y342482D01*
X353877D02*
X355155D01*
X355794Y343121D01*
Y344400D01*
X355155Y345039D01*
X353877D01*
X353238Y344400D01*
Y343121D01*
X353877Y342482D01*
X357073D02*
X358351D01*
X357712D01*
Y346317D01*
X357073D01*
X362186Y342482D02*
X360908D01*
X360269Y343121D01*
Y344400D01*
X360908Y345039D01*
X362186D01*
X362826Y344400D01*
Y343760D01*
X360269D01*
X367939Y346317D02*
X370496D01*
X369218D01*
Y342482D01*
X371775Y345039D02*
Y343121D01*
X372414Y342482D01*
X374331D01*
Y341843D01*
X373692Y341204D01*
X373053D01*
X374331Y342482D02*
Y345039D01*
X375610Y341204D02*
Y345039D01*
X377527D01*
X378167Y344400D01*
Y343121D01*
X377527Y342482D01*
X375610D01*
X381363D02*
X380084D01*
X379445Y343121D01*
Y344400D01*
X380084Y345039D01*
X381363D01*
X382002Y344400D01*
Y343760D01*
X379445D01*
X320952Y342482D02*
Y346317D01*
X322869D01*
X323509Y345678D01*
Y344400D01*
X322869Y343760D01*
X320952D01*
X324787Y342482D02*
X326066D01*
X325426D01*
Y346317D01*
X324787D01*
X328622Y345039D02*
X329901D01*
X330540Y344400D01*
Y342482D01*
X328622D01*
X327983Y343121D01*
X328622Y343760D01*
X330540D01*
X332458Y345678D02*
Y345039D01*
X331819D01*
X333097D01*
X332458D01*
Y343121D01*
X333097Y342482D01*
X336932D02*
X335654D01*
X335015Y343121D01*
Y344400D01*
X335654Y345039D01*
X336932D01*
X337571Y344400D01*
Y343760D01*
X335015D01*
X341407Y346317D02*
Y342482D01*
X339489D01*
X338850Y343121D01*
Y344400D01*
X339489Y345039D01*
X341407D01*
X258758Y346317D02*
Y342482D01*
Y344400D01*
X261315D01*
Y346317D01*
Y342482D01*
X263232D02*
X264511D01*
X265150Y343121D01*
Y344400D01*
X264511Y345039D01*
X263232D01*
X262593Y344400D01*
Y343121D01*
X263232Y342482D01*
X266428D02*
X267707D01*
X267068D01*
Y346317D01*
X266428D01*
X271542Y342482D02*
X270264D01*
X269624Y343121D01*
Y344400D01*
X270264Y345039D01*
X271542D01*
X272181Y344400D01*
Y343760D01*
X269624D01*
X279852Y345678D02*
X279213Y346317D01*
X277934D01*
X277295Y345678D01*
Y345039D01*
X277934Y344400D01*
X279213D01*
X279852Y343760D01*
Y343121D01*
X279213Y342482D01*
X277934D01*
X277295Y343121D01*
X281130Y342482D02*
X282409D01*
X281769D01*
Y345039D01*
X281130D01*
X284326D02*
X286883D01*
X284326Y342482D01*
X286883D01*
X290079D02*
X288801D01*
X288162Y343121D01*
Y344400D01*
X288801Y345039D01*
X290079D01*
X290718Y344400D01*
Y343760D01*
X288162D01*
X228418Y345678D02*
X227779Y346317D01*
X226500D01*
X225861Y345678D01*
Y343121D01*
X226500Y342482D01*
X227779D01*
X228418Y343121D01*
X230336Y342482D02*
X231614D01*
X232253Y343121D01*
Y344400D01*
X231614Y345039D01*
X230336D01*
X229696Y344400D01*
Y343121D01*
X230336Y342482D01*
X233532Y345039D02*
Y343121D01*
X234171Y342482D01*
X236088D01*
Y345039D01*
X237367Y342482D02*
Y345039D01*
X239285D01*
X239924Y344400D01*
Y342482D01*
X241841Y345678D02*
Y345039D01*
X241202D01*
X242481D01*
X241841D01*
Y343121D01*
X242481Y342482D01*
X199968Y345678D02*
X199328Y346317D01*
X198050D01*
X197411Y345678D01*
Y345039D01*
X198050Y344400D01*
X199328D01*
X199968Y343760D01*
Y343121D01*
X199328Y342482D01*
X198050D01*
X197411Y343121D01*
X201246Y345039D02*
Y343121D01*
X201885Y342482D01*
X203803D01*
Y341843D01*
X203164Y341204D01*
X202524D01*
X203803Y342482D02*
Y345039D01*
X205081Y342482D02*
Y345039D01*
X205720D01*
X206360Y344400D01*
Y342482D01*
Y344400D01*
X206999Y345039D01*
X207638Y344400D01*
Y342482D01*
X208917Y346317D02*
Y342482D01*
X210834D01*
X211473Y343121D01*
Y343760D01*
Y344400D01*
X210834Y345039D01*
X208917D01*
X213391Y342482D02*
X214669D01*
X215309Y343121D01*
Y344400D01*
X214669Y345039D01*
X213391D01*
X212752Y344400D01*
Y343121D01*
X213391Y342482D01*
X216587D02*
X217865D01*
X217226D01*
Y346317D01*
X216587D01*
D19*
X139272Y-27849D02*
X145936D01*
X142604D01*
Y-37846D01*
X149268Y-27849D02*
X152601D01*
X150935D01*
Y-37846D01*
X149268D01*
X152601D01*
X157599Y-27849D02*
X164264D01*
X160931D01*
Y-37846D01*
X167596Y-27849D02*
Y-37846D01*
X174260D01*
X184257Y-27849D02*
X177593D01*
Y-37846D01*
X184257D01*
X177593Y-32848D02*
X180925D01*
X187589Y-31182D02*
X189255D01*
Y-32848D01*
X187589D01*
Y-31182D01*
Y-36180D02*
X189255D01*
Y-37846D01*
X187589D01*
Y-36180D01*
X205917Y-27849D02*
Y-37846D01*
Y-32848D01*
X212581D01*
Y-27849D01*
Y-37846D01*
X215914D02*
Y-31182D01*
X219246Y-27849D01*
X222578Y-31182D01*
Y-37846D01*
Y-32848D01*
X215914D01*
X225910Y-37846D02*
Y-27849D01*
X230909D01*
X232575Y-29515D01*
Y-32848D01*
X230909Y-34514D01*
X225910D01*
X229243D02*
X232575Y-37846D01*
X242572Y-29515D02*
X240905Y-27849D01*
X237573D01*
X235907Y-29515D01*
Y-31182D01*
X237573Y-32848D01*
X240905D01*
X242572Y-34514D01*
Y-36180D01*
X240905Y-37846D01*
X237573D01*
X235907Y-36180D01*
X245904Y-27849D02*
Y-37846D01*
Y-32848D01*
X252568D01*
Y-27849D01*
Y-37846D01*
X265897D02*
Y-27849D01*
X270896D01*
X272562Y-29515D01*
Y-32848D01*
X270896Y-34514D01*
X265897D01*
X275894Y-37846D02*
Y-31182D01*
X279226Y-27849D01*
X282559Y-31182D01*
Y-37846D01*
Y-32848D01*
X275894D01*
X285891Y-27849D02*
Y-29515D01*
X289223Y-32848D01*
X292555Y-29515D01*
Y-27849D01*
X289223Y-32848D02*
Y-37846D01*
X295888Y-27849D02*
Y-37846D01*
X302552D01*
X310883Y-27849D02*
X307551D01*
X305885Y-29515D01*
Y-36180D01*
X307551Y-37846D01*
X310883D01*
X312549Y-36180D01*
Y-29515D01*
X310883Y-27849D01*
X315881Y-37846D02*
Y-31182D01*
X319214Y-27849D01*
X322546Y-31182D01*
Y-37846D01*
Y-32848D01*
X315881D01*
X325878Y-27849D02*
Y-37846D01*
X330876D01*
X332542Y-36180D01*
Y-29515D01*
X330876Y-27849D01*
X325878D01*
D87*
X127476Y54134D02*
G03*
X127476Y54134I-1000J0D01*
G01*
Y113976D02*
G03*
X127476Y113976I-1000J0D01*
G01*
X64484D02*
G03*
X64484Y113976I-1000J0D01*
G01*
X67634Y60433D02*
G03*
X67634Y60433I-1000J0D01*
G01*
X124327Y54134D02*
G03*
X124327Y54134I-1000J0D01*
G01*
X121177Y117126D02*
G03*
X121177Y117126I-1000J0D01*
G01*
X70784D02*
G03*
X70784Y117126I-1000J0D01*
G01*
X127476Y60433D02*
G03*
X127476Y60433I-1000J0D01*
G01*
X121177Y54134D02*
G03*
X121177Y54134I-1000J0D01*
G01*
X70784D02*
G03*
X70784Y54134I-1000J0D01*
G01*
X67634Y113976D02*
G03*
X67634Y113976I-1000J0D01*
G01*
X118028Y117126D02*
G03*
X118028Y117126I-1000J0D01*
G01*
X73933D02*
G03*
X73933Y117126I-1000J0D01*
G01*
X64484Y107677D02*
G03*
X64484Y107677I-1000J0D01*
G01*
X118028Y54134D02*
G03*
X118028Y54134I-1000J0D01*
G01*
X73933D02*
G03*
X73933Y54134I-1000J0D01*
G01*
X121177Y113976D02*
G03*
X121177Y113976I-1000J0D01*
G01*
X70784D02*
G03*
X70784Y113976I-1000J0D01*
G01*
X124327Y110827D02*
G03*
X124327Y110827I-1000J0D01*
G01*
Y60433D02*
G03*
X124327Y60433I-1000J0D01*
G01*
X70784Y57284D02*
G03*
X70784Y57284I-1000J0D01*
G01*
X114878Y117126D02*
G03*
X114878Y117126I-1000J0D01*
G01*
X127476Y66732D02*
G03*
X127476Y66732I-1000J0D01*
G01*
X114878Y54134D02*
G03*
X114878Y54134I-1000J0D01*
G01*
X118028Y113976D02*
G03*
X118028Y113976I-1000J0D01*
G01*
X124327Y107677D02*
G03*
X124327Y107677I-1000J0D01*
G01*
X70784Y110827D02*
G03*
X70784Y110827I-1000J0D01*
G01*
X121177Y60433D02*
G03*
X121177Y60433I-1000J0D01*
G01*
X70784D02*
G03*
X70784Y60433I-1000J0D01*
G01*
X127476Y101378D02*
G03*
X127476Y101378I-1000J0D01*
G01*
X80232Y54134D02*
G03*
X80232Y54134I-1000J0D01*
G01*
X108579Y117126D02*
G03*
X108579Y117126I-1000J0D01*
G01*
X83382D02*
G03*
X83382Y117126I-1000J0D01*
G01*
X77083Y113976D02*
G03*
X77083Y113976I-1000J0D01*
G01*
X127476Y98228D02*
G03*
X127476Y98228I-1000J0D01*
G01*
X124327Y104527D02*
G03*
X124327Y104527I-1000J0D01*
G01*
X127476Y73032D02*
G03*
X127476Y73032I-1000J0D01*
G01*
X124327Y66732D02*
G03*
X124327Y66732I-1000J0D01*
G01*
X70784Y69882D02*
G03*
X70784Y69882I-1000J0D01*
G01*
X114878Y57284D02*
G03*
X114878Y57284I-1000J0D01*
G01*
X77083D02*
G03*
X77083Y57284I-1000J0D01*
G01*
X108579Y54134D02*
G03*
X108579Y54134I-1000J0D01*
G01*
X83382D02*
G03*
X83382Y54134I-1000J0D01*
G01*
X73933Y110827D02*
G03*
X73933Y110827I-1000J0D01*
G01*
X121177Y107677D02*
G03*
X121177Y107677I-1000J0D01*
G01*
Y63583D02*
G03*
X121177Y63583I-1000J0D01*
G01*
X118028Y60433D02*
G03*
X118028Y60433I-1000J0D01*
G01*
X105429Y117126D02*
G03*
X105429Y117126I-1000J0D01*
G01*
X127476Y95079D02*
G03*
X127476Y95079I-1000J0D01*
G01*
X102279Y117126D02*
G03*
X102279Y117126I-1000J0D01*
G01*
X124327Y101378D02*
G03*
X124327Y101378I-1000J0D01*
G01*
X70784D02*
G03*
X70784Y101378I-1000J0D01*
G01*
X127476Y91929D02*
G03*
X127476Y91929I-1000J0D01*
G01*
Y79331D02*
G03*
X127476Y79331I-1000J0D01*
G01*
X80232Y57284D02*
G03*
X80232Y57284I-1000J0D01*
G01*
X89681Y54134D02*
G03*
X89681Y54134I-1000J0D01*
G01*
X99130Y117126D02*
G03*
X99130Y117126I-1000J0D01*
G01*
X127476Y88779D02*
G03*
X127476Y88779I-1000J0D01*
G01*
Y82480D02*
G03*
X127476Y82480I-1000J0D01*
G01*
X121177Y104527D02*
G03*
X121177Y104527I-1000J0D01*
G01*
Y66732D02*
G03*
X121177Y66732I-1000J0D01*
G01*
X114878Y60433D02*
G03*
X114878Y60433I-1000J0D01*
G01*
X77083D02*
G03*
X77083Y60433I-1000J0D01*
G01*
X83382Y113976D02*
G03*
X83382Y113976I-1000J0D01*
G01*
X118028Y107677D02*
G03*
X118028Y107677I-1000J0D01*
G01*
X124327Y98228D02*
G03*
X124327Y98228I-1000J0D01*
G01*
Y73032D02*
G03*
X124327Y73032I-1000J0D01*
G01*
X118028Y63583D02*
G03*
X118028Y63583I-1000J0D01*
G01*
X83382Y57284D02*
G03*
X83382Y57284I-1000J0D01*
G01*
X86532Y113976D02*
G03*
X86532Y113976I-1000J0D01*
G01*
X124327Y95079D02*
G03*
X124327Y95079I-1000J0D01*
G01*
X121177Y101378D02*
G03*
X121177Y101378I-1000J0D01*
G01*
Y69882D02*
G03*
X121177Y69882I-1000J0D01*
G01*
X111728Y60433D02*
G03*
X111728Y60433I-1000J0D01*
G01*
X80232D02*
G03*
X80232Y60433I-1000J0D01*
G01*
X124327Y91929D02*
G03*
X124327Y91929I-1000J0D01*
G01*
X99130Y113976D02*
G03*
X99130Y113976I-1000J0D01*
G01*
X92831D02*
G03*
X92831Y113976I-1000J0D01*
G01*
X114878Y107677D02*
G03*
X114878Y107677I-1000J0D01*
G01*
X118028Y104527D02*
G03*
X118028Y104527I-1000J0D01*
G01*
X73933D02*
G03*
X73933Y104527I-1000J0D01*
G01*
X124327Y88779D02*
G03*
X124327Y88779I-1000J0D01*
G01*
Y82480D02*
G03*
X124327Y82480I-1000J0D01*
G01*
X70784Y85630D02*
G03*
X70784Y85630I-1000J0D01*
G01*
X118028Y66732D02*
G03*
X118028Y66732I-1000J0D01*
G01*
X114878Y63583D02*
G03*
X114878Y63583I-1000J0D01*
G01*
X77083D02*
G03*
X77083Y63583I-1000J0D01*
G01*
X99130Y57284D02*
G03*
X99130Y57284I-1000J0D01*
G01*
X121177Y73032D02*
G03*
X121177Y73032I-1000J0D01*
G01*
X83382Y60433D02*
G03*
X83382Y60433I-1000J0D01*
G01*
X118028Y101378D02*
G03*
X118028Y101378I-1000J0D01*
G01*
X121177Y95079D02*
G03*
X121177Y95079I-1000J0D01*
G01*
Y76181D02*
G03*
X121177Y76181I-1000J0D01*
G01*
X70784D02*
G03*
X70784Y76181I-1000J0D01*
G01*
X118028Y69882D02*
G03*
X118028Y69882I-1000J0D01*
G01*
X73933D02*
G03*
X73933Y69882I-1000J0D01*
G01*
X80232Y63583D02*
G03*
X80232Y63583I-1000J0D01*
G01*
X86532Y60433D02*
G03*
X86532Y60433I-1000J0D01*
G01*
X114878Y104527D02*
G03*
X114878Y104527I-1000J0D01*
G01*
Y66732D02*
G03*
X114878Y66732I-1000J0D01*
G01*
X77083D02*
G03*
X77083Y66732I-1000J0D01*
G01*
X121177Y91929D02*
G03*
X121177Y91929I-1000J0D01*
G01*
Y88779D02*
G03*
X121177Y88779I-1000J0D01*
G01*
Y82480D02*
G03*
X121177Y82480I-1000J0D01*
G01*
X118028Y98228D02*
G03*
X118028Y98228I-1000J0D01*
G01*
Y73032D02*
G03*
X118028Y73032I-1000J0D01*
G01*
X108579Y63583D02*
G03*
X108579Y63583I-1000J0D01*
G01*
X83382D02*
G03*
X83382Y63583I-1000J0D01*
G01*
X114878Y101378D02*
G03*
X114878Y101378I-1000J0D01*
G01*
Y69882D02*
G03*
X114878Y69882I-1000J0D01*
G01*
X80232Y66732D02*
G03*
X80232Y66732I-1000J0D01*
G01*
X118028Y95079D02*
G03*
X118028Y95079I-1000J0D01*
G01*
X86532Y63583D02*
G03*
X86532Y63583I-1000J0D01*
G01*
X102279Y107677D02*
G03*
X102279Y107677I-1000J0D01*
G01*
X118028Y91929D02*
G03*
X118028Y91929I-1000J0D01*
G01*
Y79331D02*
G03*
X118028Y79331I-1000J0D01*
G01*
X114878Y98228D02*
G03*
X114878Y98228I-1000J0D01*
G01*
X118028Y88779D02*
G03*
X118028Y88779I-1000J0D01*
G01*
Y82480D02*
G03*
X118028Y82480I-1000J0D01*
G01*
X114878Y73032D02*
G03*
X114878Y73032I-1000J0D01*
G01*
X83382Y66732D02*
G03*
X83382Y66732I-1000J0D01*
G01*
X111728Y101378D02*
G03*
X111728Y101378I-1000J0D01*
G01*
Y69882D02*
G03*
X111728Y69882I-1000J0D01*
G01*
X80232D02*
G03*
X80232Y69882I-1000J0D01*
G01*
X114878Y95079D02*
G03*
X114878Y95079I-1000J0D01*
G01*
Y76181D02*
G03*
X114878Y76181I-1000J0D01*
G01*
X86532Y66732D02*
G03*
X86532Y66732I-1000J0D01*
G01*
X108579Y101378D02*
G03*
X108579Y101378I-1000J0D01*
G01*
X89681Y104527D02*
G03*
X89681Y104527I-1000J0D01*
G01*
X111728Y98228D02*
G03*
X111728Y98228I-1000J0D01*
G01*
X114878Y91929D02*
G03*
X114878Y91929I-1000J0D01*
G01*
Y79331D02*
G03*
X114878Y79331I-1000J0D01*
G01*
X111728Y73032D02*
G03*
X111728Y73032I-1000J0D01*
G01*
X80232D02*
G03*
X80232Y73032I-1000J0D01*
G01*
X83382Y69882D02*
G03*
X83382Y69882I-1000J0D01*
G01*
X92831Y104527D02*
G03*
X92831Y104527I-1000J0D01*
G01*
X114878Y88779D02*
G03*
X114878Y88779I-1000J0D01*
G01*
Y82480D02*
G03*
X114878Y82480I-1000J0D01*
G01*
X105429Y101378D02*
G03*
X105429Y101378I-1000J0D01*
G01*
X111728Y95079D02*
G03*
X111728Y95079I-1000J0D01*
G01*
Y76181D02*
G03*
X111728Y76181I-1000J0D01*
G01*
X105429Y69882D02*
G03*
X105429Y69882I-1000J0D01*
G01*
X86532D02*
G03*
X86532Y69882I-1000J0D01*
G01*
X108579Y98228D02*
G03*
X108579Y98228I-1000J0D01*
G01*
Y73032D02*
G03*
X108579Y73032I-1000J0D01*
G01*
X111728Y91929D02*
G03*
X111728Y91929I-1000J0D01*
G01*
Y79331D02*
G03*
X111728Y79331I-1000J0D01*
G01*
Y82480D02*
G03*
X111728Y82480I-1000J0D01*
G01*
X105429Y98228D02*
G03*
X105429Y98228I-1000J0D01*
G01*
X86532D02*
G03*
X86532Y98228I-1000J0D01*
G01*
X108579Y76181D02*
G03*
X108579Y76181I-1000J0D01*
G01*
X105429Y73032D02*
G03*
X105429Y73032I-1000J0D01*
G01*
X89681Y98228D02*
G03*
X89681Y98228I-1000J0D01*
G01*
X108579Y91929D02*
G03*
X108579Y91929I-1000J0D01*
G01*
X83382D02*
G03*
X83382Y91929I-1000J0D01*
G01*
X108579Y79331D02*
G03*
X108579Y79331I-1000J0D01*
G01*
X83382D02*
G03*
X83382Y79331I-1000J0D01*
G01*
X89681Y73032D02*
G03*
X89681Y73032I-1000J0D01*
G01*
X99130Y98228D02*
G03*
X99130Y98228I-1000J0D01*
G01*
X86532Y95079D02*
G03*
X86532Y95079I-1000J0D01*
G01*
X83382Y88779D02*
G03*
X83382Y88779I-1000J0D01*
G01*
X108579Y82480D02*
G03*
X108579Y82480I-1000J0D01*
G01*
X83382D02*
G03*
X83382Y82480I-1000J0D01*
G01*
X105429Y76181D02*
G03*
X105429Y76181I-1000J0D01*
G01*
X86532D02*
G03*
X86532Y76181I-1000J0D01*
G01*
X89681Y95079D02*
G03*
X89681Y95079I-1000J0D01*
G01*
X105429Y91929D02*
G03*
X105429Y91929I-1000J0D01*
G01*
X86532D02*
G03*
X86532Y91929I-1000J0D01*
G01*
X105429Y79331D02*
G03*
X105429Y79331I-1000J0D01*
G01*
X86532D02*
G03*
X86532Y79331I-1000J0D01*
G01*
X102279Y76181D02*
G03*
X102279Y76181I-1000J0D01*
G01*
X89681D02*
G03*
X89681Y76181I-1000J0D01*
G01*
X99130Y95079D02*
G03*
X99130Y95079I-1000J0D01*
G01*
X105429Y88779D02*
G03*
X105429Y88779I-1000J0D01*
G01*
X86532D02*
G03*
X86532Y88779I-1000J0D01*
G01*
Y82480D02*
G03*
X86532Y82480I-1000J0D01*
G01*
X99130Y76181D02*
G03*
X99130Y76181I-1000J0D01*
G01*
X92831D02*
G03*
X92831Y76181I-1000J0D01*
G01*
X89681Y91929D02*
G03*
X89681Y91929I-1000J0D01*
G01*
Y79331D02*
G03*
X89681Y79331I-1000J0D01*
G01*
X99130Y91929D02*
G03*
X99130Y91929I-1000J0D01*
G01*
X92831D02*
G03*
X92831Y91929I-1000J0D01*
G01*
X89681Y88779D02*
G03*
X89681Y88779I-1000J0D01*
G01*
X102279Y82480D02*
G03*
X102279Y82480I-1000J0D01*
G01*
X89681D02*
G03*
X89681Y82480I-1000J0D01*
G01*
X92831Y79331D02*
G03*
X92831Y79331I-1000J0D01*
G01*
X99130Y82480D02*
G03*
X99130Y82480I-1000J0D01*
G01*
X92831D02*
G03*
X92831Y82480I-1000J0D01*
G01*
Y95079D02*
G03*
X92831Y95079I-1000J0D01*
G01*
X118028Y76181D02*
G03*
X118028Y76181I-1000J0D01*
G01*
X111728Y113976D02*
G03*
X111728Y113976I-1000J0D01*
G01*
X121177Y98228D02*
G03*
X121177Y98228I-1000J0D01*
G01*
X127476Y107677D02*
G03*
X127476Y107677I-1000J0D01*
G01*
Y110827D02*
G03*
X127476Y110827I-1000J0D01*
G01*
X198638Y14862D02*
G03*
X198638Y14862I-1000J0D01*
G01*
X186039Y38189D02*
G03*
X186039Y38189I-1000J0D01*
G01*
X173441D02*
G03*
X173441Y38189I-1000J0D01*
G01*
X181118Y40372D02*
G03*
X181118Y40372I-1000J0D01*
G01*
X179740Y14862D02*
G03*
X179740Y14862I-1000J0D01*
G01*
X173441D02*
G03*
X173441Y14862I-1000J0D01*
G01*
X192339D02*
G03*
X192339Y14862I-1000J0D01*
G01*
X171669Y45276D02*
G03*
X171669Y45276I-1000J0D01*
G01*
X154543Y14862D02*
G03*
X154543Y14862I-1000J0D01*
G01*
X151394Y19783D02*
G03*
X151394Y19783I-1000J0D01*
G01*
X160843Y14862D02*
G03*
X160843Y14862I-1000J0D01*
G01*
X163992Y19783D02*
G03*
X163992Y19783I-1000J0D01*
G01*
X170291D02*
G03*
X170291Y19783I-1000J0D01*
G01*
X186039Y14862D02*
G03*
X186039Y14862I-1000J0D01*
G01*
Y70247D02*
G03*
X186039Y70247I-1000J0D01*
G01*
X218913Y72431D02*
G03*
X218913Y72431I-1000J0D01*
G01*
X146472Y77334D02*
G03*
X146472Y77334I-1000J0D01*
G01*
X145095Y75168D02*
G03*
X145095Y75168I-1000J0D01*
G01*
X146472Y100661D02*
G03*
X146472Y100661I-1000J0D01*
G01*
X171669Y77334D02*
G03*
X171669Y77334I-1000J0D01*
G01*
X170291Y75168D02*
G03*
X170291Y75168I-1000J0D01*
G01*
X152772Y77334D02*
G03*
X152772Y77334I-1000J0D01*
G01*
X151394Y75168D02*
G03*
X151394Y75168I-1000J0D01*
G01*
X154543Y93574D02*
G03*
X154543Y93574I-1000J0D01*
G01*
X152772Y100661D02*
G03*
X152772Y100661I-1000J0D01*
G01*
X162221Y95757D02*
G03*
X162221Y95757I-1000J0D01*
G01*
X165370Y100661D02*
G03*
X165370Y100661I-1000J0D01*
G01*
X174819Y72431D02*
G03*
X174819Y72431I-1000J0D01*
G01*
X181118Y95757D02*
G03*
X181118Y95757I-1000J0D01*
G01*
X179740Y93574D02*
G03*
X179740Y93574I-1000J0D01*
G01*
X173441D02*
G03*
X173441Y93574I-1000J0D01*
G01*
X222063Y156074D02*
G03*
X222063Y156074I-1000J0D01*
G01*
X218913Y151171D02*
G03*
X218913Y151171I-1000J0D01*
G01*
X186039Y125661D02*
G03*
X186039Y125661I-1000J0D01*
G01*
X189189Y130582D02*
G03*
X189189Y130582I-1000J0D01*
G01*
X196866Y132747D02*
G03*
X196866Y132747I-1000J0D01*
G01*
X193717Y127844D02*
G03*
X193717Y127844I-1000J0D01*
G01*
X201787Y130582D02*
G03*
X201787Y130582I-1000J0D01*
G01*
X222063Y132747D02*
G03*
X222063Y132747I-1000J0D01*
G01*
X146472Y156074D02*
G03*
X146472Y156074I-1000J0D01*
G01*
X152772D02*
G03*
X152772Y156074I-1000J0D01*
G01*
X162221Y151171D02*
G03*
X162221Y151171I-1000J0D01*
G01*
X192339Y125661D02*
G03*
X192339Y125661I-1000J0D01*
G01*
X195488Y130582D02*
G03*
X195488Y130582I-1000J0D01*
G01*
X190567Y132747D02*
G03*
X190567Y132747I-1000J0D01*
G01*
X181118Y151171D02*
G03*
X181118Y151171I-1000J0D01*
G01*
X174819D02*
G03*
X174819Y151171I-1000J0D01*
G01*
X190567Y156074D02*
G03*
X190567Y156074I-1000J0D01*
G01*
X196866D02*
G03*
X196866Y156074I-1000J0D01*
G01*
X193717Y151171D02*
G03*
X193717Y151171I-1000J0D01*
G01*
X215764Y156074D02*
G03*
X215764Y156074I-1000J0D01*
G01*
X212614Y151171D02*
G03*
X212614Y151171I-1000J0D01*
G01*
X203165Y156074D02*
G03*
X203165Y156074I-1000J0D01*
G01*
X209465D02*
G03*
X209465Y156074I-1000J0D01*
G01*
X204937Y38189D02*
G03*
X204937Y38189I-1000J0D01*
G01*
X206315Y40372D02*
G03*
X206315Y40372I-1000J0D01*
G01*
X173548Y70279D02*
G03*
X173548Y70279I-1000J0D01*
G01*
X222063Y45276D02*
G03*
X222063Y45276I-1000J0D01*
G01*
Y77334D02*
G03*
X222063Y77334I-1000J0D01*
G01*
X220685Y75168D02*
G03*
X220685Y75168I-1000J0D01*
G01*
X108579Y66732D02*
G03*
X108579Y66732I-1000J0D01*
G01*
X121177Y57284D02*
G03*
X121177Y57284I-1000J0D01*
G01*
X118028D02*
G03*
X118028Y57284I-1000J0D01*
G01*
X105429Y82480D02*
G03*
X105429Y82480I-1000J0D01*
G01*
X102279Y79331D02*
G03*
X102279Y79331I-1000J0D01*
G01*
X99130D02*
G03*
X99130Y79331I-1000J0D01*
G01*
X145095Y19783D02*
G03*
X145095Y19783I-1000J0D01*
G01*
X195488D02*
G03*
X195488Y19783I-1000J0D01*
G01*
X174819Y40372D02*
G03*
X174819Y40372I-1000J0D01*
G01*
X201787Y43110D02*
G03*
X201787Y43110I-1000J0D01*
G01*
X189189Y19783D02*
G03*
X189189Y19783I-1000J0D01*
G01*
X179740Y38189D02*
G03*
X179740Y38189I-1000J0D01*
G01*
X146472Y45276D02*
G03*
X146472Y45276I-1000J0D01*
G01*
X195488Y43110D02*
G03*
X195488Y43110I-1000J0D01*
G01*
X170291D02*
G03*
X170291Y43110I-1000J0D01*
G01*
X160843Y38189D02*
G03*
X160843Y38189I-1000J0D01*
G01*
X154543D02*
G03*
X154543Y38189I-1000J0D01*
G01*
X155921Y40372D02*
G03*
X155921Y40372I-1000J0D01*
G01*
X179740Y70247D02*
G03*
X179740Y70247I-1000J0D01*
G01*
X181118Y72431D02*
G03*
X181118Y72431I-1000J0D01*
G01*
X200016Y151171D02*
G03*
X200016Y151171I-1000J0D01*
G01*
X203165Y132747D02*
G03*
X203165Y132747I-1000J0D01*
G01*
X145095Y98495D02*
G03*
X145095Y98495I-1000J0D01*
G01*
X155921Y95757D02*
G03*
X155921Y95757I-1000J0D01*
G01*
X151394Y98495D02*
G03*
X151394Y98495I-1000J0D01*
G01*
X174819Y95757D02*
G03*
X174819Y95757I-1000J0D01*
G01*
X170291Y98495D02*
G03*
X170291Y98495I-1000J0D01*
G01*
X208087Y130582D02*
G03*
X208087Y130582I-1000J0D01*
G01*
X206315Y151171D02*
G03*
X206315Y151171I-1000J0D01*
G01*
X209465Y132747D02*
G03*
X209465Y132747I-1000J0D01*
G01*
X189189Y98495D02*
G03*
X189189Y98495I-1000J0D01*
G01*
X163992D02*
G03*
X163992Y98495I-1000J0D01*
G01*
X211236Y38189D02*
G03*
X211236Y38189I-1000J0D01*
G01*
X208087Y43110D02*
G03*
X208087Y43110I-1000J0D01*
G01*
X171669Y100661D02*
G03*
X171669Y100661I-1000J0D01*
G01*
X173548Y125695D02*
G03*
X173548Y125695I-1000J0D01*
G01*
X124327Y113976D02*
G03*
X124327Y113976I-1000J0D01*
G01*
X212614Y127844D02*
G03*
X212614Y127844I-1000J0D01*
G01*
X215764Y132747D02*
G03*
X215764Y132747I-1000J0D01*
G01*
X214386Y130582D02*
G03*
X214386Y130582I-1000J0D01*
G01*
X220685D02*
G03*
X220685Y130582I-1000J0D01*
G01*
X218913Y127844D02*
G03*
X218913Y127844I-1000J0D01*
G01*
X217535Y125661D02*
G03*
X217535Y125661I-1000J0D01*
G01*
X209465Y100661D02*
G03*
X209465Y100661I-1000J0D01*
G01*
X208087Y98495D02*
G03*
X208087Y98495I-1000J0D01*
G01*
X189189Y43110D02*
G03*
X189189Y43110I-1000J0D01*
G01*
X196866Y45276D02*
G03*
X196866Y45276I-1000J0D01*
G01*
X200016Y40372D02*
G03*
X200016Y40372I-1000J0D01*
G01*
X192339Y38189D02*
G03*
X192339Y38189I-1000J0D01*
G01*
X198638D02*
G03*
X198638Y38189I-1000J0D01*
G01*
X193717Y40372D02*
G03*
X193717Y40372I-1000J0D01*
G01*
X190567Y45276D02*
G03*
X190567Y45276I-1000J0D01*
G01*
X192339Y70247D02*
G03*
X192339Y70247I-1000J0D01*
G01*
X198638D02*
G03*
X198638Y70247I-1000J0D01*
G01*
X215764Y77334D02*
G03*
X215764Y77334I-1000J0D01*
G01*
X192339Y93574D02*
G03*
X192339Y93574I-1000J0D01*
G01*
X204937Y70247D02*
G03*
X204937Y70247I-1000J0D01*
G01*
X189189Y75168D02*
G03*
X189189Y75168I-1000J0D01*
G01*
X190567Y77334D02*
G03*
X190567Y77334I-1000J0D01*
G01*
X193717Y72431D02*
G03*
X193717Y72431I-1000J0D01*
G01*
X195488Y75168D02*
G03*
X195488Y75168I-1000J0D01*
G01*
X190567Y100661D02*
G03*
X190567Y100661I-1000J0D01*
G01*
X193717Y95757D02*
G03*
X193717Y95757I-1000J0D01*
G01*
X196866Y77334D02*
G03*
X196866Y77334I-1000J0D01*
G01*
X214386Y75168D02*
G03*
X214386Y75168I-1000J0D01*
G01*
X209465Y77334D02*
G03*
X209465Y77334I-1000J0D01*
G01*
X211236Y93574D02*
G03*
X211236Y93574I-1000J0D01*
G01*
X217535Y70247D02*
G03*
X217535Y70247I-1000J0D01*
G01*
X212614Y72431D02*
G03*
X212614Y72431I-1000J0D01*
G01*
X215764Y45276D02*
G03*
X215764Y45276I-1000J0D01*
G01*
X220685Y43110D02*
G03*
X220685Y43110I-1000J0D01*
G01*
X218913Y40372D02*
G03*
X218913Y40372I-1000J0D01*
G01*
X217535Y38189D02*
G03*
X217535Y38189I-1000J0D01*
G01*
X214386Y43110D02*
G03*
X214386Y43110I-1000J0D01*
G01*
X206315Y95757D02*
G03*
X206315Y95757I-1000J0D01*
G01*
X203165Y77334D02*
G03*
X203165Y77334I-1000J0D01*
G01*
X200016Y72431D02*
G03*
X200016Y72431I-1000J0D01*
G01*
X201787Y75168D02*
G03*
X201787Y75168I-1000J0D01*
G01*
X206315Y72431D02*
G03*
X206315Y72431I-1000J0D01*
G01*
X203165Y45276D02*
G03*
X203165Y45276I-1000J0D01*
G01*
X209465D02*
G03*
X209465Y45276I-1000J0D01*
G01*
X211236Y70247D02*
G03*
X211236Y70247I-1000J0D01*
G01*
X208087Y75168D02*
G03*
X208087Y75168I-1000J0D01*
G01*
X195488Y98495D02*
G03*
X195488Y98495I-1000J0D01*
G01*
X200016Y127844D02*
G03*
X200016Y127844I-1000J0D01*
G01*
X215764Y100661D02*
G03*
X215764Y100661I-1000J0D01*
G01*
X217535Y93574D02*
G03*
X217535Y93574I-1000J0D01*
G01*
X218913Y95757D02*
G03*
X218913Y95757I-1000J0D01*
G01*
X222063Y100661D02*
G03*
X222063Y100661I-1000J0D01*
G01*
X220685Y98495D02*
G03*
X220685Y98495I-1000J0D01*
G01*
X212614Y95757D02*
G03*
X212614Y95757I-1000J0D01*
G01*
X214386Y98495D02*
G03*
X214386Y98495I-1000J0D01*
G01*
X211236Y125661D02*
G03*
X211236Y125661I-1000J0D01*
G01*
X206315Y127844D02*
G03*
X206315Y127844I-1000J0D01*
G01*
X204937Y125661D02*
G03*
X204937Y125661I-1000J0D01*
G01*
X198638D02*
G03*
X198638Y125661I-1000J0D01*
G01*
X196866Y100661D02*
G03*
X196866Y100661I-1000J0D01*
G01*
X203165D02*
G03*
X203165Y100661I-1000J0D01*
G01*
X200016Y95757D02*
G03*
X200016Y95757I-1000J0D01*
G01*
X201787Y98495D02*
G03*
X201787Y98495I-1000J0D01*
G01*
X204937Y93574D02*
G03*
X204937Y93574I-1000J0D01*
G01*
X152772Y45276D02*
G03*
X152772Y45276I-1000J0D01*
G01*
X151394Y43110D02*
G03*
X151394Y43110I-1000J0D01*
G01*
X155921Y72431D02*
G03*
X155921Y72431I-1000J0D01*
G01*
X145095Y43110D02*
G03*
X145095Y43110I-1000J0D01*
G01*
X165370Y45276D02*
G03*
X165370Y45276I-1000J0D01*
G01*
X163992Y43110D02*
G03*
X163992Y43110I-1000J0D01*
G01*
X162221Y40372D02*
G03*
X162221Y40372I-1000J0D01*
G01*
X163992Y75168D02*
G03*
X163992Y75168I-1000J0D01*
G01*
X160843Y93574D02*
G03*
X160843Y93574I-1000J0D01*
G01*
X160752Y70279D02*
G03*
X160752Y70279I-1000J0D01*
G01*
X165370Y77334D02*
G03*
X165370Y77334I-1000J0D01*
G01*
X162221Y72431D02*
G03*
X162221Y72431I-1000J0D01*
G01*
X154543Y70247D02*
G03*
X154543Y70247I-1000J0D01*
G01*
X121177Y79331D02*
G03*
X121177Y79331I-1000J0D01*
G01*
X124327D02*
G03*
X124327Y79331I-1000J0D01*
G01*
X102279Y110827D02*
G03*
X102279Y110827I-1000J0D01*
G01*
X105429Y104527D02*
G03*
X105429Y104527I-1000J0D01*
G01*
X95980D02*
G03*
X95980Y104527I-1000J0D01*
G01*
X99130Y104528D02*
G03*
X99130Y104528I-1000J0D01*
G01*
X77083Y85630D02*
G03*
X77083Y85630I-1000J0D01*
G01*
X99130Y63583D02*
G03*
X99130Y63583I-1000J0D01*
G01*
X80232Y113976D02*
G03*
X80232Y113976I-1000J0D01*
G01*
X89681Y107677D02*
G03*
X89681Y107677I-1000J0D01*
G01*
Y110827D02*
G03*
X89681Y110827I-1000J0D01*
G01*
X86532Y104527D02*
G03*
X86532Y104527I-1000J0D01*
G01*
Y110827D02*
G03*
X86532Y110827I-1000J0D01*
G01*
Y107677D02*
G03*
X86532Y107677I-1000J0D01*
G01*
X83382Y110827D02*
G03*
X83382Y110827I-1000J0D01*
G01*
X80232D02*
G03*
X80232Y110827I-1000J0D01*
G01*
X64484Y117126D02*
G03*
X64484Y117126I-1000J0D01*
G01*
X67634D02*
G03*
X67634Y117126I-1000J0D01*
G01*
X73933Y113976D02*
G03*
X73933Y113976I-1000J0D01*
G01*
X92831Y117126D02*
G03*
X92831Y117126I-1000J0D01*
G01*
Y101378D02*
G03*
X92831Y101378I-1000J0D01*
G01*
X89681Y117126D02*
G03*
X89681Y117126I-1000J0D01*
G01*
X121177Y110827D02*
G03*
X121177Y110827I-1000J0D01*
G01*
X111728Y117126D02*
G03*
X111728Y117126I-1000J0D01*
G01*
X124327D02*
G03*
X124327Y117126I-1000J0D01*
G01*
X127476D02*
G03*
X127476Y117126I-1000J0D01*
G01*
X102279Y98228D02*
G03*
X102279Y98228I-1000J0D01*
G01*
Y95079D02*
G03*
X102279Y95079I-1000J0D01*
G01*
X105429D02*
G03*
X105429Y95079I-1000J0D01*
G01*
X102279Y91929D02*
G03*
X102279Y91929I-1000J0D01*
G01*
Y88779D02*
G03*
X102279Y88779I-1000J0D01*
G01*
X108579D02*
G03*
X108579Y88779I-1000J0D01*
G01*
X92831D02*
G03*
X92831Y88779I-1000J0D01*
G01*
X83382Y76181D02*
G03*
X83382Y76181I-1000J0D01*
G01*
Y101378D02*
G03*
X83382Y101378I-1000J0D01*
G01*
X155921Y151171D02*
G03*
X155921Y151171I-1000J0D01*
G01*
X220685Y19783D02*
G03*
X220685Y19783I-1000J0D01*
G01*
X214386D02*
G03*
X214386Y19783I-1000J0D01*
G01*
X211236Y14862D02*
G03*
X211236Y14862I-1000J0D01*
G01*
X208087Y19783D02*
G03*
X208087Y19783I-1000J0D01*
G01*
X204937Y14862D02*
G03*
X204937Y14862I-1000J0D01*
G01*
X201787Y19783D02*
G03*
X201787Y19783I-1000J0D01*
G01*
X217535Y14862D02*
G03*
X217535Y14862I-1000J0D01*
G01*
X212614Y40372D02*
G03*
X212614Y40372I-1000J0D01*
G01*
X149622Y154921D02*
G03*
X149622Y154921I-1000J0D01*
G01*
X141924D02*
G03*
X141924Y154921I-1000J0D01*
G01*
X157890D02*
G03*
X157890Y154921I-1000J0D01*
G01*
X168520Y154823D02*
G03*
X168520Y154823I-1000J0D01*
G01*
X176886D02*
G03*
X176886Y154823I-1000J0D01*
G01*
X182869D02*
G03*
X182869Y154823I-1000J0D01*
G01*
X141748Y127844D02*
G03*
X141748Y127844I-1000J0D01*
G01*
X184268Y128839D02*
G03*
X184268Y128839I-1000J0D01*
G01*
X225213Y154921D02*
G03*
X225213Y154921I-1000J0D01*
G01*
X157890Y157677D02*
G03*
X157890Y157677I-1000J0D01*
G01*
X176886Y157579D02*
G03*
X176886Y157579I-1000J0D01*
G01*
X182869D02*
G03*
X182869Y157579I-1000J0D01*
G01*
X141924Y157677D02*
G03*
X141924Y157677I-1000J0D01*
G01*
X225213D02*
G03*
X225213Y157677I-1000J0D01*
G01*
X95980Y63583D02*
G03*
X95980Y63583I-1000J0D01*
G01*
X171669Y132747D02*
G03*
X171669Y132747I-1000J0D01*
G01*
X170291Y130582D02*
G03*
X170291Y130582I-1000J0D01*
G01*
X154543Y125661D02*
G03*
X154543Y125661I-1000J0D01*
G01*
X152772Y132747D02*
G03*
X152772Y132747I-1000J0D01*
G01*
X145095Y130582D02*
G03*
X145095Y130582I-1000J0D01*
G01*
X146472Y132747D02*
G03*
X146472Y132747I-1000J0D01*
G01*
X148638Y127879D02*
G03*
X148638Y127879I-1000J0D01*
G01*
X162221Y127844D02*
G03*
X162221Y127844I-1000J0D01*
G01*
X163992Y130582D02*
G03*
X163992Y130582I-1000J0D01*
G01*
X165370Y132747D02*
G03*
X165370Y132747I-1000J0D01*
G01*
X167711Y128227D02*
G03*
X167711Y128227I-1000J0D01*
G01*
X160752Y125695D02*
G03*
X160752Y125695I-1000J0D01*
G01*
X151394Y130582D02*
G03*
X151394Y130582I-1000J0D01*
G01*
X155921Y127844D02*
G03*
X155921Y127844I-1000J0D01*
G01*
X179740Y125661D02*
G03*
X179740Y125661I-1000J0D01*
G01*
X174819Y127844D02*
G03*
X174819Y127844I-1000J0D01*
G01*
X181118D02*
G03*
X181118Y127844I-1000J0D01*
G01*
X177969Y128839D02*
G03*
X177969Y128839I-1000J0D01*
G01*
X159071D02*
G03*
X159071Y128839I-1000J0D01*
G01*
X167711Y72813D02*
G03*
X167711Y72813I-1000J0D01*
G01*
X148723Y72933D02*
G03*
X148723Y72933I-1000J0D01*
G01*
X224973Y102362D02*
G03*
X224973Y102362I-1000J0D01*
G01*
X226689Y104724D02*
G03*
X226689Y104724I-1000J0D01*
G01*
X184268Y73425D02*
G03*
X184268Y73425I-1000J0D01*
G01*
X158185Y98327D02*
G03*
X158185Y98327I-1000J0D01*
G01*
Y100787D02*
G03*
X158185Y100787I-1000J0D01*
G01*
X177083D02*
G03*
X177083Y100787I-1000J0D01*
G01*
Y98327D02*
G03*
X177083Y98327I-1000J0D01*
G01*
X183677Y100591D02*
G03*
X183677Y100591I-1000J0D01*
G01*
Y98268D02*
G03*
X183677Y98268I-1000J0D01*
G01*
X138992Y65945D02*
G03*
X138992Y65945I-1000J0D01*
G01*
X167535Y17046D02*
G03*
X167535Y17046I-1000J0D01*
G01*
X148723D02*
G03*
X148723Y17046I-1000J0D01*
G01*
X183776Y46260D02*
G03*
X183776Y46260I-1000J0D01*
G01*
X177301D02*
G03*
X177301Y46260I-1000J0D01*
G01*
X158283Y45866D02*
G03*
X158283Y45866I-1000J0D01*
G01*
X182988Y13583D02*
G03*
X182988Y13583I-1000J0D01*
G01*
X141748Y17046D02*
G03*
X141748Y17046I-1000J0D01*
G01*
X183776Y43411D02*
G03*
X183776Y43411I-1000J0D01*
G01*
X177301D02*
G03*
X177301Y43411I-1000J0D01*
G01*
X158283Y43406D02*
G03*
X158283Y43406I-1000J0D01*
G01*
X139189Y55315D02*
G03*
X139189Y55315I-1000J0D01*
G01*
X167072Y41866D02*
G03*
X167072Y41866I-1000J0D01*
G01*
X226787Y57988D02*
G03*
X226787Y57988I-1000J0D01*
G01*
X176569Y16523D02*
G03*
X176569Y16523I-1000J0D01*
G01*
X182988D02*
G03*
X182988Y16523I-1000J0D01*
G01*
X158185Y75295D02*
G03*
X158185Y75295I-1000J0D01*
G01*
X77083Y104527D02*
G03*
X77083Y104527I-1000J0D01*
G01*
Y107677D02*
G03*
X77083Y107677I-1000J0D01*
G01*
X80232D02*
G03*
X80232Y107677I-1000J0D01*
G01*
X77083Y110827D02*
G03*
X77083Y110827I-1000J0D01*
G01*
X176591Y13583D02*
G03*
X176591Y13583I-1000J0D01*
G01*
X171669Y156074D02*
G03*
X171669Y156074I-1000J0D01*
G01*
X165370D02*
G03*
X165370Y156074I-1000J0D01*
G01*
X228510Y154921D02*
G03*
X228510Y154921I-1000J0D01*
G01*
X224819Y81496D02*
G03*
X224819Y81496I-1000J0D01*
G01*
X223659Y36220D02*
G03*
X223659Y36220I-1000J0D01*
G01*
X99130Y88779D02*
G03*
X99130Y88779I-1000J0D01*
G01*
X92831Y98228D02*
G03*
X92831Y98228I-1000J0D01*
G01*
X83382Y95079D02*
G03*
X83382Y95079I-1000J0D01*
G01*
Y98228D02*
G03*
X83382Y98228I-1000J0D01*
G01*
X51067Y141224D02*
X53067D01*
Y143224D01*
X51067D02*
X53067D01*
X51067Y141224D02*
Y143224D01*
X55988Y141224D02*
X57988D01*
Y143224D01*
X55988D02*
X57988D01*
X55988Y141224D02*
Y143224D01*
X60909Y141224D02*
X62910D01*
Y143224D01*
X60909D02*
X62910D01*
X60909Y141224D02*
Y143224D01*
X65831Y141224D02*
X67831D01*
Y143224D01*
X65831D02*
X67831D01*
X65831Y141224D02*
Y143224D01*
X70752Y141224D02*
X72752D01*
Y143224D01*
X70752D02*
X72752D01*
X70752Y141224D02*
Y143224D01*
X75673Y141224D02*
X77673D01*
Y143224D01*
X75673D02*
X77673D01*
X75673Y141224D02*
Y143224D01*
X85417Y153823D02*
X87417D01*
Y155823D01*
X85417D02*
X87417D01*
X85417Y153823D02*
Y155823D01*
X90339Y153823D02*
X92339D01*
Y155823D01*
X90339D02*
X92339D01*
X90339Y153823D02*
Y155823D01*
X95260Y153823D02*
X97260D01*
Y155823D01*
X95260D02*
X97260D01*
X95260Y153823D02*
Y155823D01*
X100181Y153823D02*
X102181D01*
Y155823D01*
X100181D02*
X102181D01*
X100181Y153823D02*
Y155823D01*
X85516Y141224D02*
X87516D01*
Y143224D01*
X85516D02*
X87516D01*
X85516Y141224D02*
Y143224D01*
X90437Y141224D02*
X92437D01*
Y143224D01*
X90437D02*
X92437D01*
X90437Y141224D02*
Y143224D01*
X95358Y141224D02*
X97358D01*
Y143224D01*
X95358D02*
X97358D01*
X95358Y141224D02*
Y143224D01*
X100279Y141224D02*
X102279D01*
Y143224D01*
X100279D02*
X102279D01*
X100279Y141224D02*
Y143224D01*
X105201Y141224D02*
X107201D01*
Y143224D01*
X105201D02*
X107201D01*
X105201Y141224D02*
Y143224D01*
X132576Y157366D02*
X134576D01*
Y159366D01*
X132576D02*
X134576D01*
X132576Y157366D02*
Y159366D01*
X30102Y119965D02*
X32102D01*
Y121965D01*
X30102D02*
X32102D01*
X30102Y119965D02*
Y121965D01*
X96342Y119965D02*
X98343D01*
Y121965D01*
X96342D02*
X98343D01*
X96342Y119965D02*
Y121965D01*
X98508Y122130D02*
X100508D01*
Y124130D01*
X98508D02*
X100508D01*
X98508Y122130D02*
Y124130D01*
X119079Y146244D02*
X121079D01*
Y148244D01*
X119079D02*
X121079D01*
X119079Y146244D02*
Y148244D01*
X133449Y134335D02*
X135449D01*
Y136335D01*
X133449D02*
X135449D01*
X133449Y134335D02*
Y136335D01*
X139748Y139453D02*
X141748D01*
Y141453D01*
X139748D02*
X141748D01*
X139748Y139453D02*
Y141453D01*
X135516Y139256D02*
X137516D01*
Y141256D01*
X135516D02*
X137516D01*
X135516Y139256D02*
Y141256D01*
X124984Y125378D02*
X126984D01*
Y127378D01*
X124984D02*
X126984D01*
X124984Y125378D02*
Y127378D01*
X121835Y125378D02*
X123835D01*
Y127378D01*
X121835D02*
X123835D01*
X121835Y125378D02*
Y127378D01*
X128134Y125378D02*
X130134D01*
Y127378D01*
X128134D02*
X130134D01*
X128134Y125378D02*
Y127378D01*
X110221Y125429D02*
X112221D01*
Y127429D01*
X110221D02*
X112221D01*
X110221Y125429D02*
Y127429D01*
X113665Y125429D02*
X115665D01*
Y127429D01*
X113665D02*
X115665D01*
X113665Y125429D02*
Y127429D01*
X106087Y125327D02*
X108087D01*
Y127327D01*
X106087D02*
X108087D01*
X106087Y125327D02*
Y127327D01*
X116815Y125429D02*
X118815D01*
Y127429D01*
X116815D02*
X118815D01*
X116815Y125429D02*
Y127429D01*
X102642Y125327D02*
X104642D01*
Y127327D01*
X102642D02*
X104642D01*
X102642Y125327D02*
Y127327D01*
X99197Y127642D02*
X101197D01*
Y129642D01*
X99197D02*
X101197D01*
X99197Y127642D02*
Y129642D01*
X109827Y142701D02*
X111827D01*
Y144701D01*
X109827D02*
X111827D01*
X109827Y142701D02*
Y144701D01*
X90437Y136402D02*
X92437D01*
Y138402D01*
X90437D02*
X92437D01*
X90437Y136402D02*
Y138402D01*
X29118Y90437D02*
X31118D01*
Y92437D01*
X29118D02*
X31118D01*
X29118Y90437D02*
Y92437D01*
Y86500D02*
X31118D01*
Y88500D01*
X29118D02*
X31118D01*
X29118Y86500D02*
Y88500D01*
Y82563D02*
X31118D01*
Y84563D01*
X29118D02*
X31118D01*
X29118Y82563D02*
Y84563D01*
X57169Y106579D02*
X59169D01*
Y108579D01*
X57169D02*
X59169D01*
X57169Y106579D02*
Y108579D01*
X51165Y98311D02*
X53165D01*
Y100311D01*
X51165D02*
X53165D01*
X51165Y98311D02*
Y100311D01*
Y94374D02*
X53165D01*
Y96374D01*
X51165D02*
X53165D01*
X51165Y94374D02*
Y96374D01*
Y90437D02*
X53165D01*
Y92437D01*
X51165D02*
X53165D01*
X51165Y90437D02*
Y92437D01*
X57169Y114551D02*
X59169D01*
Y116551D01*
X57169D02*
X59169D01*
X57169Y114551D02*
Y116551D01*
Y117701D02*
X59169D01*
Y119701D01*
X57169D02*
X59169D01*
X57169Y117701D02*
Y119701D01*
X51165Y78626D02*
X53165D01*
Y80626D01*
X51165D02*
X53165D01*
X51165Y78626D02*
Y80626D01*
Y82563D02*
X53165D01*
Y84563D01*
X51165D02*
X53165D01*
X51165Y82563D02*
Y84563D01*
X47622Y84531D02*
X49622D01*
Y86532D01*
X47622D02*
X49622D01*
X47622Y84531D02*
Y86532D01*
X51165Y86500D02*
X53165D01*
Y88500D01*
X51165D02*
X53165D01*
X51165Y86500D02*
Y88500D01*
X47622Y90437D02*
X49622D01*
Y92437D01*
X47622D02*
X49622D01*
X47622Y90437D02*
Y92437D01*
X23902Y125969D02*
X25902D01*
Y127969D01*
X23902D02*
X25902D01*
X23902Y125969D02*
Y127969D01*
X21638Y128232D02*
X23638D01*
Y130232D01*
X21638D02*
X23638D01*
X21638Y128232D02*
Y130232D01*
X19374Y130496D02*
X21374D01*
Y132496D01*
X19374D02*
X21374D01*
X19374Y130496D02*
Y132496D01*
X50083Y43685D02*
X52083D01*
Y45685D01*
X50083D02*
X52083D01*
X50083Y43685D02*
Y45685D01*
X46146Y153823D02*
X48146D01*
Y155823D01*
X46146D02*
X48146D01*
X46146Y153823D02*
Y155823D01*
X36303Y153823D02*
X38303D01*
Y155823D01*
X36303D02*
X38303D01*
X36303Y153823D02*
Y155823D01*
X41224Y153823D02*
X43224D01*
Y155823D01*
X41224D02*
X43224D01*
X41224Y153823D02*
Y155823D01*
X26165Y123705D02*
X28165D01*
Y125705D01*
X26165D02*
X28165D01*
X26165Y123705D02*
Y125705D01*
X46441Y54118D02*
X48441D01*
Y56118D01*
X46441D02*
X48441D01*
X46441Y54118D02*
Y56118D01*
X49197Y73705D02*
X51197D01*
Y75705D01*
X49197D02*
X51197D01*
X49197Y73705D02*
Y75705D01*
X50083Y31677D02*
X52083D01*
Y33677D01*
X50083D02*
X52083D01*
X50083Y31677D02*
Y33677D01*
X71925Y24386D02*
X73925D01*
Y26386D01*
X71925D02*
X73925D01*
X71925Y24386D02*
Y26386D01*
X74197Y26658D02*
X76197D01*
Y28657D01*
X74197D02*
X76197D01*
X74197Y26658D02*
Y28657D01*
X76468Y28929D02*
X78469D01*
Y30929D01*
X76468D02*
X78469D01*
X76468Y28929D02*
Y30929D01*
X27051Y20358D02*
X29051D01*
Y22358D01*
X27051D02*
X29051D01*
X27051Y20358D02*
Y22358D01*
X67996Y40240D02*
X69996D01*
Y42240D01*
X67996D02*
X69996D01*
X67996Y40240D02*
Y42240D01*
X50083Y36598D02*
X52083D01*
Y38598D01*
X50083D02*
X52083D01*
X50083Y36598D02*
Y38598D01*
X40732Y51953D02*
X42732D01*
Y53953D01*
X40732D02*
X42732D01*
X40732Y51953D02*
Y53953D01*
X230837Y109630D02*
X232837D01*
Y111630D01*
X230837D02*
X232837D01*
X230837Y109630D02*
Y111630D01*
X230693Y69768D02*
X232693D01*
Y71768D01*
X230693D02*
X232693D01*
X230693Y69768D02*
Y71768D01*
Y66520D02*
X232693D01*
Y68520D01*
X230693D02*
X232693D01*
X230693Y66520D02*
Y68520D01*
X230890Y112878D02*
X232890D01*
Y114878D01*
X230890D02*
X232890D01*
X230890Y112878D02*
Y114878D01*
X226410Y23410D02*
X228410D01*
Y25409D01*
X226410D02*
X228410D01*
X226410Y23410D02*
Y25409D01*
X226348Y20161D02*
X228348D01*
Y22161D01*
X226348D02*
X228348D01*
X226348Y20161D02*
Y22161D01*
X231874Y145949D02*
X233874D01*
Y147949D01*
X231874D02*
X233874D01*
X231874Y145949D02*
Y147949D01*
X228520Y100374D02*
X230520D01*
Y102374D01*
X228520D02*
X230520D01*
X228520Y100374D02*
Y102374D01*
X229287Y57587D02*
X231287D01*
Y59587D01*
X229287D02*
X231287D01*
X229287Y57587D02*
Y59587D01*
X231417Y118783D02*
X233417D01*
Y120783D01*
X231417D02*
X233417D01*
X231417Y118783D02*
Y120783D01*
Y79512D02*
X233417D01*
Y81512D01*
X231417D02*
X233417D01*
X231417Y79512D02*
Y81512D01*
X234630Y127937D02*
X236630D01*
Y129937D01*
X234630D02*
X236630D01*
X234630Y127937D02*
Y129937D01*
Y88567D02*
X236630D01*
Y90567D01*
X234630D02*
X236630D01*
X234630Y88567D02*
Y90567D01*
X230988Y90142D02*
X232988D01*
Y92142D01*
X230988D02*
X232988D01*
X230988Y90142D02*
Y92142D01*
X234630Y46579D02*
X236630D01*
Y48579D01*
X234630D02*
X236630D01*
X234630Y46579D02*
Y48579D01*
X234138Y106185D02*
X236138D01*
Y108185D01*
X234138D02*
X236138D01*
X234138Y106185D02*
Y108185D01*
X234925Y66126D02*
X236925D01*
Y68126D01*
X234925D02*
X236925D01*
X234925Y66126D02*
Y68126D01*
X230988Y48153D02*
X232988D01*
Y50153D01*
X230988D02*
X232988D01*
X230988Y48153D02*
Y50153D01*
X231417Y37091D02*
X233417D01*
Y39091D01*
X231417D02*
X233417D01*
X231417Y37091D02*
Y39091D01*
X230988Y129512D02*
X232988D01*
Y131512D01*
X230988D02*
X232988D01*
X230988Y129512D02*
Y131512D01*
X245486Y128006D02*
X247486D01*
Y130006D01*
X245486D02*
X247486D01*
X245486Y128006D02*
Y130006D01*
Y88636D02*
X247486D01*
Y90636D01*
X245486D02*
X247486D01*
X245486Y88636D02*
Y90636D01*
Y46648D02*
X247486D01*
Y48648D01*
X245486D02*
X247486D01*
X245486Y46648D02*
Y48648D01*
Y141028D02*
X247486D01*
Y143028D01*
X245486D02*
X247486D01*
X245486Y141028D02*
Y143028D01*
X245486Y60122D02*
X247486D01*
Y62122D01*
X245486D02*
X247486D01*
X245486Y60122D02*
Y62122D01*
X245486Y101756D02*
X247486D01*
Y103756D01*
X245486D02*
X247486D01*
X245486Y101756D02*
Y103756D01*
X29118Y78626D02*
X31118D01*
Y80626D01*
X29118D02*
X31118D01*
X29118Y78626D02*
Y80626D01*
Y70752D02*
X31118D01*
Y72752D01*
X29118D02*
X31118D01*
X29118Y70752D02*
Y72752D01*
Y66815D02*
X31118D01*
Y68815D01*
X29118D02*
X31118D01*
X29118Y66815D02*
Y68815D01*
X83153Y136402D02*
X85154D01*
Y138402D01*
X83153D02*
X85154D01*
X83153Y136402D02*
Y138402D01*
X47327Y119965D02*
X49327D01*
Y121965D01*
X47327D02*
X49327D01*
X47327Y119965D02*
Y121965D01*
X49591Y114551D02*
X51591D01*
Y116551D01*
X49591D02*
X51591D01*
X49591Y114551D02*
Y116551D01*
X29118Y102347D02*
X31118D01*
Y104347D01*
X29118D02*
X31118D01*
X29118Y102347D02*
Y104347D01*
Y94374D02*
X31118D01*
Y96374D01*
X29118D02*
X31118D01*
X29118Y94374D02*
Y96374D01*
Y98311D02*
X31118D01*
Y100311D01*
X29118D02*
X31118D01*
X29118Y98311D02*
Y100311D01*
X70949Y132977D02*
X72949D01*
Y134977D01*
X70949D02*
X72949D01*
X70949Y132977D02*
Y134977D01*
X139748Y100870D02*
X141748D01*
Y102870D01*
X139748D02*
X141748D01*
X139748Y100870D02*
Y102870D01*
X67701Y20161D02*
X69701D01*
Y22161D01*
X67701D02*
X69701D01*
X67701Y20161D02*
Y22161D01*
X123213Y146343D02*
X125213D01*
Y148343D01*
X123213D02*
X125213D01*
X123213Y146343D02*
Y148343D01*
X108830Y25833D02*
X110830D01*
Y27833D01*
X108830D02*
X110830D01*
X108830Y25833D02*
Y27833D01*
X234138Y24886D02*
X236138D01*
Y26886D01*
X234138D02*
X236138D01*
X234138Y24886D02*
Y26886D01*
X42465Y107071D02*
X44465D01*
Y109071D01*
X42465D02*
X44465D01*
X42465Y107071D02*
Y109071D01*
X35500Y107268D02*
X37500D01*
Y109268D01*
X35500D02*
X37500D01*
X35500Y107268D02*
Y109268D01*
X105201Y131933D02*
X107201D01*
Y133933D01*
X105201D02*
X107201D01*
X105201Y131933D02*
Y133933D01*
X32465Y39453D02*
X34465D01*
Y41453D01*
X32465D02*
X34465D01*
X32465Y39453D02*
Y41453D01*
X49787Y14748D02*
X51787D01*
Y16748D01*
X49787D02*
X51787D01*
X49787Y14748D02*
Y16748D01*
X95949Y30882D02*
X97949D01*
Y32882D01*
X95949D02*
X97949D01*
X95949Y30882D02*
Y32882D01*
X47501Y132933D02*
X49501D01*
Y134933D01*
X47501D02*
X49501D01*
X47501Y132933D02*
Y134933D01*
X108830Y30890D02*
X110830D01*
Y32890D01*
X108830D02*
X110830D01*
X108830Y30890D02*
Y32890D01*
X245486Y24886D02*
X247486D01*
Y26886D01*
X245486D02*
X247486D01*
X245486Y24886D02*
Y26886D01*
X137189Y18783D02*
X139189D01*
Y20784D01*
X137189D02*
X139189D01*
X137189Y18783D02*
Y20784D01*
Y28921D02*
X139189D01*
Y30921D01*
X137189D02*
X139189D01*
X137189Y28921D02*
Y30921D01*
X139748Y86894D02*
X141748D01*
Y88894D01*
X139748D02*
X141748D01*
X139748Y86894D02*
Y88894D01*
X100279Y164059D02*
X102279D01*
Y166059D01*
X100279D02*
X102279D01*
X100279Y164059D02*
Y166059D01*
X80594Y164059D02*
X82595D01*
Y166059D01*
X80594D02*
X82595D01*
X80594Y164059D02*
Y166059D01*
X41323Y164059D02*
X43323D01*
Y166059D01*
X41323D02*
X43323D01*
X41323Y164059D02*
Y166059D01*
X75033Y10221D02*
X77033D01*
Y12220D01*
X75033D02*
X77033D01*
X75033Y10221D02*
Y12220D01*
X238173Y14165D02*
X238673D01*
X238173D02*
Y15165D01*
X238673D01*
Y15665D01*
X239673D01*
Y15165D02*
Y15665D01*
Y15165D02*
X240173D01*
Y14165D02*
Y15165D01*
X239673Y14165D02*
X240173D01*
X239673Y13665D02*
Y14165D01*
X238673Y13665D02*
X239673D01*
X238673D02*
Y14165D01*
X9827D02*
X10327D01*
X9827D02*
Y15165D01*
X10327D01*
Y15665D01*
X11327D01*
Y15165D02*
Y15665D01*
Y15165D02*
X11827D01*
Y14165D02*
Y15165D01*
X11327Y14165D02*
X11827D01*
X11327Y13665D02*
Y14165D01*
X10327Y13665D02*
X11327D01*
X10327D02*
Y14165D01*
X9827Y155898D02*
X10327D01*
X9827D02*
Y156898D01*
X10327D01*
Y157398D01*
X11327D01*
Y156898D02*
Y157398D01*
Y156898D02*
X11827D01*
Y155898D02*
Y156898D01*
X11327Y155898D02*
X11827D01*
X11327Y155398D02*
Y155898D01*
X10327Y155398D02*
X11327D01*
X10327D02*
Y155898D01*
X49197Y102248D02*
X50197Y102748D01*
X51197Y102248D01*
X50697Y103248D02*
X51197Y102248D01*
X50697Y103248D02*
X51197Y104248D01*
X50197Y103748D02*
X51197Y104248D01*
X49197D02*
X50197Y103748D01*
X49197Y104248D02*
X49697Y103248D01*
X49197Y102248D02*
X49697Y103248D01*
X49197Y66815D02*
X50197Y67315D01*
X51197Y66815D01*
X50697Y67815D02*
X51197Y66815D01*
X50697Y67815D02*
X51197Y68815D01*
X50197Y68315D02*
X51197Y68815D01*
X49197D02*
X50197Y68315D01*
X49197Y68815D02*
X49697Y67815D01*
X49197Y66815D02*
X49697Y67815D01*
X10327Y140150D02*
X10827Y139650D01*
X9827Y140150D02*
X10327D01*
X9827D02*
X10327Y140650D01*
X9827Y141150D02*
X10327Y140650D01*
X9827Y141150D02*
X10327D01*
X10827Y141650D01*
X11327Y141150D01*
X11827D01*
X11327Y140650D02*
X11827Y141150D01*
X11327Y140650D02*
X11827Y140150D01*
X11327D02*
X11827D01*
X10827Y139650D02*
X11327Y140150D01*
X10327Y130150D02*
X10827Y129650D01*
X9827Y130150D02*
X10327D01*
X9827D02*
X10327Y130650D01*
X9827Y131150D02*
X10327Y130650D01*
X9827Y131150D02*
X10327D01*
X10827Y131650D01*
X11327Y131150D01*
X11827D01*
X11327Y130650D02*
X11827Y131150D01*
X11327Y130650D02*
X11827Y130150D01*
X11327D02*
X11827D01*
X10827Y129650D02*
X11327Y130150D01*
X10327Y120150D02*
X10827Y119650D01*
X9827Y120150D02*
X10327D01*
X9827D02*
X10327Y120650D01*
X9827Y121150D02*
X10327Y120650D01*
X9827Y121150D02*
X10327D01*
X10827Y121650D01*
X11327Y121150D01*
X11827D01*
X11327Y120650D02*
X11827Y121150D01*
X11327Y120650D02*
X11827Y120150D01*
X11327D02*
X11827D01*
X10827Y119650D02*
X11327Y120150D01*
X10327Y110150D02*
X10827Y109650D01*
X9827Y110150D02*
X10327D01*
X9827D02*
X10327Y110650D01*
X9827Y111150D02*
X10327Y110650D01*
X9827Y111150D02*
X10327D01*
X10827Y111650D01*
X11327Y111150D01*
X11827D01*
X11327Y110650D02*
X11827Y111150D01*
X11327Y110650D02*
X11827Y110150D01*
X11327D02*
X11827D01*
X10827Y109650D02*
X11327Y110150D01*
X10327Y100150D02*
X10827Y99650D01*
X9827Y100150D02*
X10327D01*
X9827D02*
X10327Y100650D01*
X9827Y101150D02*
X10327Y100650D01*
X9827Y101150D02*
X10327D01*
X10827Y101650D01*
X11327Y101150D01*
X11827D01*
X11327Y100650D02*
X11827Y101150D01*
X11327Y100650D02*
X11827Y100150D01*
X11327D02*
X11827D01*
X10827Y99650D02*
X11327Y100150D01*
X10327Y90150D02*
X10827Y89650D01*
X9827Y90150D02*
X10327D01*
X9827D02*
X10327Y90650D01*
X9827Y91150D02*
X10327Y90650D01*
X9827Y91150D02*
X10327D01*
X10827Y91650D01*
X11327Y91150D01*
X11827D01*
X11327Y90650D02*
X11827Y91150D01*
X11327Y90650D02*
X11827Y90150D01*
X11327D02*
X11827D01*
X10827Y89650D02*
X11327Y90150D01*
X10327Y40150D02*
X10827Y39650D01*
X9827Y40150D02*
X10327D01*
X9827D02*
X10327Y40650D01*
X9827Y41150D02*
X10327Y40650D01*
X9827Y41150D02*
X10327D01*
X10827Y41650D01*
X11327Y41150D01*
X11827D01*
X11327Y40650D02*
X11827Y41150D01*
X11327Y40650D02*
X11827Y40150D01*
X11327D02*
X11827D01*
X10827Y39650D02*
X11327Y40150D01*
X10327Y50150D02*
X10827Y49650D01*
X9827Y50150D02*
X10327D01*
X9827D02*
X10327Y50650D01*
X9827Y51150D02*
X10327Y50650D01*
X9827Y51150D02*
X10327D01*
X10827Y51650D01*
X11327Y51150D01*
X11827D01*
X11327Y50650D02*
X11827Y51150D01*
X11327Y50650D02*
X11827Y50150D01*
X11327D02*
X11827D01*
X10827Y49650D02*
X11327Y50150D01*
X10327Y60150D02*
X10827Y59650D01*
X9827Y60150D02*
X10327D01*
X9827D02*
X10327Y60650D01*
X9827Y61150D02*
X10327Y60650D01*
X9827Y61150D02*
X10327D01*
X10827Y61650D01*
X11327Y61150D01*
X11827D01*
X11327Y60650D02*
X11827Y61150D01*
X11327Y60650D02*
X11827Y60150D01*
X11327D02*
X11827D01*
X10827Y59650D02*
X11327Y60150D01*
X10327Y70150D02*
X10827Y69650D01*
X9827Y70150D02*
X10327D01*
X9827D02*
X10327Y70650D01*
X9827Y71150D02*
X10327Y70650D01*
X9827Y71150D02*
X10327D01*
X10827Y71650D01*
X11327Y71150D01*
X11827D01*
X11327Y70650D02*
X11827Y71150D01*
X11327Y70650D02*
X11827Y70150D01*
X11327D02*
X11827D01*
X10827Y69650D02*
X11327Y70150D01*
X10327Y80150D02*
X10827Y79650D01*
X9827Y80150D02*
X10327D01*
X9827D02*
X10327Y80650D01*
X9827Y81150D02*
X10327Y80650D01*
X9827Y81150D02*
X10327D01*
X10827Y81650D01*
X11327Y81150D01*
X11827D01*
X11327Y80650D02*
X11827Y81150D01*
X11327Y80650D02*
X11827Y80150D01*
X11327D02*
X11827D01*
X10827Y79650D02*
X11327Y80150D01*
X10327Y30150D02*
X10827Y29650D01*
X9827Y30150D02*
X10327D01*
X9827D02*
X10327Y30650D01*
X9827Y31150D02*
X10327Y30650D01*
X9827Y31150D02*
X10327D01*
X10827Y31650D01*
X11327Y31150D01*
X11827D01*
X11327Y30650D02*
X11827Y31150D01*
X11327Y30650D02*
X11827Y30150D01*
X11327D02*
X11827D01*
X10827Y29650D02*
X11327Y30150D01*
X66508Y9244D02*
X67008Y8744D01*
X66008Y9244D02*
X66508D01*
X66008D02*
X66508Y9744D01*
X66008Y10244D02*
X66508Y9744D01*
X66008Y10244D02*
X66508D01*
X67008Y10744D01*
X67508Y10244D01*
X68008D01*
X67508Y9744D02*
X68008Y10244D01*
X67508Y9744D02*
X68008Y9244D01*
X67508D02*
X68008D01*
X67008Y8744D02*
X67508Y9244D01*
X56508D02*
X57008Y8744D01*
X56008Y9244D02*
X56508D01*
X56008D02*
X56508Y9744D01*
X56008Y10244D02*
X56508Y9744D01*
X56008Y10244D02*
X56508D01*
X57008Y10744D01*
X57508Y10244D01*
X58008D01*
X57508Y9744D02*
X58008Y10244D01*
X57508Y9744D02*
X58008Y9244D01*
X57508D02*
X58008D01*
X57008Y8744D02*
X57508Y9244D01*
X46508D02*
X47008Y8744D01*
X46008Y9244D02*
X46508D01*
X46008D02*
X46508Y9744D01*
X46008Y10244D02*
X46508Y9744D01*
X46008Y10244D02*
X46508D01*
X47008Y10744D01*
X47508Y10244D01*
X48008D01*
X47508Y9744D02*
X48008Y10244D01*
X47508Y9744D02*
X48008Y9244D01*
X47508D02*
X48008D01*
X47008Y8744D02*
X47508Y9244D01*
X36508D02*
X37008Y8744D01*
X36008Y9244D02*
X36508D01*
X36008D02*
X36508Y9744D01*
X36008Y10244D02*
X36508Y9744D01*
X36008Y10244D02*
X36508D01*
X37008Y10744D01*
X37508Y10244D01*
X38008D01*
X37508Y9744D02*
X38008Y10244D01*
X37508Y9744D02*
X38008Y9244D01*
X37508D02*
X38008D01*
X37008Y8744D02*
X37508Y9244D01*
X26508D02*
X27008Y8744D01*
X26008Y9244D02*
X26508D01*
X26008D02*
X26508Y9744D01*
X26008Y10244D02*
X26508Y9744D01*
X26008Y10244D02*
X26508D01*
X27008Y10744D01*
X27508Y10244D01*
X28008D01*
X27508Y9744D02*
X28008Y10244D01*
X27508Y9744D02*
X28008Y9244D01*
X27508D02*
X28008D01*
X27008Y8744D02*
X27508Y9244D01*
X239173Y155398D02*
X240173Y157398D01*
X238173D02*
X240173D01*
X238173D02*
X239173Y155398D01*
D88*
X192615Y340084D02*
X665783D01*
X192615Y292128D02*
X665783D01*
X192615Y284135D02*
X665783D01*
Y348077D01*
X192615D02*
X665783D01*
X192615Y284135D02*
Y348077D01*
X616106Y284135D02*
Y348077D01*
X574872Y284135D02*
Y348077D01*
X541947Y284135D02*
Y348077D01*
X387600Y284135D02*
Y348077D01*
X347004Y284135D02*
Y348077D01*
X318554Y284135D02*
Y348077D01*
X256360Y284135D02*
Y348077D01*
X223463Y284135D02*
Y348077D01*
M02*
